<svg width="1008" height="353" viewBox="0 0 1008 353" fill="none" xmlns="http://www.w3.org/2000/svg">

<g filter="url(#filter0_d)">
<path d="M669 86C669 50.6538 697.654 22 733 22C768.346 22 797 50.6538 797 86C797 121.346 768.346 150 733 150C697.654 150 669 121.346 669 86Z" fill="white"/>
<path d="M694.539 63.7476C694.539 63.7476 700.72 56.0787 710.766 50.0326" stroke="#E31235" stroke-linecap="round"/>
<path d="M716.969 46.7928C727.716 42.0241 741.477 40.2598 756.338 49.1892C774.723 60.2361 776.775 78.6594 775.205 91.8124" stroke="#E31235" stroke-linecap="round"/>
<path d="M771.198 107.089C771.747 106.174 773.009 102.992 774.046 98.4727" stroke="#E31235" stroke-linecap="round"/>
<path d="M745.99 126.969C754.848 112.227 754.777 119.667 761.684 108.173C764.397 103.657 766.527 96.7975 766.872 89.3856" stroke="#76BC21" stroke-linecap="round"/>
<path d="M746.562 55.2712C748.1 55.9376 749.658 56.7379 751.233 57.6845C760.376 63.1784 764.816 71.5347 766.315 80.1261" stroke="#76BC21" stroke-linecap="round"/>
<path d="M696.431 76.4466C696.431 76.4466 715.995 46.1867 742.368 53.7617" stroke="#76BC21" stroke-linecap="round"/>
<path d="M712.081 72.9272C721.232 64.173 733.289 57.7848 745.93 65.3799C755.662 71.2276 758.303 80.2241 757.233 89.0158" stroke="#E31235" stroke-linecap="round"/>
<path d="M754.909 97.9811C754.035 100.201 752.978 102.321 751.803 104.277C747.07 112.154 743.31 111.282 739.759 116.084" stroke="#E31235" stroke-linecap="round"/>
<path d="M734.591 128.962C735.559 125.165 736.514 122.328 737.473 120.151" stroke="#E31235" stroke-linecap="round"/>
<path d="M695.518 94.9428C695.518 94.9428 700.795 84.9114 709.137 75.92" stroke="#E31235" stroke-linecap="round"/>
<path d="M713.851 85.554C721.234 75.4766 730.766 67.8313 740.824 73.8751C746.339 77.1885 748.102 81.561 748.146 85.756" stroke="#76BC21" stroke-linecap="round"/>
<path d="M699.358 112.892C699.358 112.892 702.875 103.459 708.607 93.625" stroke="#76BC21" stroke-linecap="round"/>
<path d="M707.001 120.546C707.001 120.546 710.059 106.4 719.514 95.758" stroke="#E31235" stroke-linecap="round"/>
<path d="M726.91 101.562C725.747 103.036 724.693 104.569 723.739 106.118" stroke="#E31235" stroke-linecap="round"/>
<path d="M715.695 126.45C715.695 126.45 717.141 118.812 721.331 110.452" stroke="#E31235" stroke-linecap="round"/>
<path d="M745.933 94.9681C745.293 96.3673 744.639 97.5239 744.159 98.323C741.52 102.715 733.902 105.636 728.568 117.521" stroke="#76BC21" stroke-linecap="round"/>
<path d="M725.093 128.356C725.607 126.003 726.199 123.87 726.851 121.931" stroke="#76BC21" stroke-linecap="round"/>
</g>
<g filter="url(#filter1_d)">
<path d="M888 62C888 39.9086 905.909 22 928 22C950.091 22 968 39.9086 968 62C968 84.0914 950.091 102 928 102C905.909 102 888 84.0914 888 62Z" fill="white"/>
<path fill-rule="evenodd" clip-rule="evenodd" d="M922.231 56.6922C920.574 56.6922 919.231 58.0353 919.231 59.6922V64.3076C919.231 65.9644 920.574 67.3076 922.231 67.3076H936.077C936.357 67.3076 936.61 67.1389 936.717 66.8802C936.824 66.6215 936.765 66.3237 936.567 66.1257L934.935 64.4939C934.632 64.191 934.462 63.7801 934.462 63.3517V59.6922C934.462 58.0353 933.119 56.6922 931.462 56.6922H922.231ZM920.616 59.6922C920.616 58.8 921.339 58.0768 922.231 58.0768H931.462C932.354 58.0768 933.077 58.8 933.077 59.6922V63.3517C933.077 64.1473 933.393 64.9104 933.956 65.473L934.406 65.923H922.231C921.339 65.923 920.616 65.1997 920.616 64.3076V59.6922Z" fill="#76BC21"/>
<path fill-rule="evenodd" clip-rule="evenodd" d="M920.385 41.2307C920.385 39.5738 921.728 38.2307 923.385 38.2307H932.616C934.273 38.2307 935.616 39.5738 935.616 41.2307V46.9692C940.573 49.4856 944.117 54.3817 944.747 60.1537H945.308C946.327 60.1537 947.154 60.9803 947.154 61.9999C947.154 63.0195 946.327 63.846 945.308 63.846H944.747C944.117 69.6181 940.573 74.5142 935.616 77.0305V82.7692C935.616 84.4261 934.273 85.7692 932.616 85.7692H923.385C921.728 85.7692 920.385 84.4261 920.385 82.7692V77.0305C914.908 74.2499 911.154 68.5632 911.154 61.9999C911.154 55.4366 914.908 49.7499 920.385 46.9692V41.2307ZM944.847 61.9999C944.847 61.8455 944.845 61.6917 944.84 61.5383H945.308C945.563 61.5383 945.769 61.745 945.769 61.9999C945.769 62.2548 945.563 62.4614 945.308 62.4614H944.84C944.845 62.3081 944.847 62.1542 944.847 61.9999ZM921.77 77.6562V82.7692C921.77 83.6614 922.493 84.3846 923.385 84.3846H932.616C933.508 84.3846 934.231 83.6614 934.231 82.7692V77.6562C932.304 78.4239 930.201 78.846 928 78.846C925.799 78.846 923.697 78.4239 921.77 77.6562ZM934.231 41.2307V46.3435C932.304 45.5758 930.201 45.1537 928 45.1537C925.799 45.1537 923.697 45.5758 921.77 46.3435V41.2307C921.77 40.3385 922.493 39.6153 923.385 39.6153H932.616C933.508 39.6153 934.231 40.3385 934.231 41.2307ZM912.539 61.9999C912.539 53.4607 919.461 46.5383 928 46.5383C936.54 46.5383 943.462 53.4607 943.462 61.9999C943.462 70.5391 936.54 77.4614 928 77.4614C919.461 77.4614 912.539 70.5391 912.539 61.9999Z" fill="#76BC21"/>
</g>
<g filter="url(#filter2_d)">
<path d="M890 229C890 220.163 897.163 213 906 213C914.837 213 922 220.163 922 229C922 237.837 914.837 245 906 245C897.163 245 890 237.837 890 229Z" fill="white"/>
<path d="M901.945 224.063C902.308 222.109 904.013 220.692 906 220.692V220.692C907.987 220.692 909.692 222.109 910.055 224.063L910.904 228.639C911.474 231.707 909.12 234.538 906 234.538V234.538C902.88 234.538 900.526 231.707 901.096 228.639L901.945 224.063Z" stroke="#76BC21"/>
<path d="M906 229.923V239.154" stroke="#76BC21"/>
<path d="M906 233.154L904.615 231.769" stroke="#76BC21"/>
<path d="M906 231.769L907.385 230.385" stroke="#76BC21"/>
</g>
<g filter="url(#filter3_d)">
<path d="M936 173C936 159.745 946.745 149 960 149C973.255 149 984 159.745 984 173C984 186.255 973.255 197 960 197C946.745 197 936 186.255 936 173Z" fill="white"/>
<path fill-rule="evenodd" clip-rule="evenodd" d="M957.231 161.731C956.742 161.731 956.346 162.127 956.346 162.615C956.346 163.104 956.742 163.5 957.231 163.5C957.719 163.5 958.115 163.104 958.115 162.615C958.115 162.127 957.719 161.731 957.231 161.731ZM955.346 162.615C955.346 161.575 956.19 160.731 957.231 160.731C958.271 160.731 959.115 161.575 959.115 162.615C959.115 163.483 958.529 164.214 957.731 164.433V166.269H960.884V164V163.5H961.384H962.336C962.555 162.702 963.286 162.115 964.154 162.115C965.195 162.115 966.038 162.959 966.038 164C966.038 165.041 965.195 165.885 964.154 165.885C963.286 165.885 962.555 165.298 962.336 164.5H961.884V166.269H966.231H966.731V166.769V168.346H968.567C968.786 167.548 969.517 166.962 970.384 166.962C971.425 166.962 972.269 167.805 972.269 168.846C972.269 169.887 971.425 170.731 970.384 170.731C969.517 170.731 968.786 170.144 968.567 169.346H966.731V172.5H969H969.5V173V173.952C970.298 174.171 970.884 174.902 970.884 175.769C970.884 176.81 970.041 177.654 969 177.654C967.959 177.654 967.115 176.81 967.115 175.769C967.115 174.902 967.702 174.171 968.5 173.952V173.5H966.731V177.846V178.346H966.231H964.654V180.182C965.452 180.402 966.038 181.132 966.038 182C966.038 183.041 965.195 183.885 964.154 183.885C963.113 183.885 962.269 183.041 962.269 182C962.269 181.132 962.856 180.402 963.654 180.182V178.346H960.5V180.615V181.115H960H959.048C958.829 181.914 958.098 182.5 957.231 182.5C956.19 182.5 955.346 181.656 955.346 180.615C955.346 179.575 956.19 178.731 957.231 178.731C958.098 178.731 958.829 179.317 959.048 180.115H959.5L959.5 178.346H955.154H954.654V177.846V176.269H952.817C952.598 177.067 951.868 177.654 951 177.654C949.959 177.654 949.115 176.81 949.115 175.769C949.115 174.728 949.959 173.885 951 173.885C951.868 173.885 952.598 174.471 952.817 175.269H954.654V172.115H952.384H951.884V171.615V170.664C951.086 170.445 950.5 169.714 950.5 168.846C950.5 167.805 951.344 166.962 952.384 166.962C953.425 166.962 954.269 167.805 954.269 168.846C954.269 169.714 953.683 170.445 952.884 170.664V171.115H954.654V166.769V166.269H955.154H956.731V164.433C955.932 164.214 955.346 163.483 955.346 162.615ZM955.654 177.346V167.269H965.731V177.346H955.654ZM957.231 168.346H956.731V168.846V175.769V176.269H957.231H964.154H964.654V175.769V168.846V168.346H964.154H957.231ZM957.731 175.269V169.346H963.654V175.269H957.731ZM963.269 164C963.269 163.511 963.665 163.115 964.154 163.115C964.642 163.115 965.038 163.511 965.038 164C965.038 164.489 964.642 164.885 964.154 164.885C963.665 164.885 963.269 164.489 963.269 164ZM971.269 168.846C971.269 168.358 970.873 167.962 970.384 167.962C969.896 167.962 969.5 168.358 969.5 168.846C969.5 169.335 969.896 169.731 970.384 169.731C970.873 169.731 971.269 169.335 971.269 168.846ZM969 174.885C969.488 174.885 969.884 175.281 969.884 175.769C969.884 176.258 969.488 176.654 969 176.654C968.511 176.654 968.115 176.258 968.115 175.769C968.115 175.281 968.511 174.885 969 174.885ZM950.115 175.769C950.115 176.258 950.511 176.654 951 176.654C951.488 176.654 951.884 176.258 951.884 175.769C951.884 175.281 951.488 174.885 951 174.885C950.511 174.885 950.115 175.281 950.115 175.769ZM952.384 169.731C951.896 169.731 951.5 169.335 951.5 168.846C951.5 168.358 951.896 167.962 952.384 167.962C952.873 167.962 953.269 168.358 953.269 168.846C953.269 169.335 952.873 169.731 952.384 169.731ZM964.154 182.885C964.642 182.885 965.038 182.489 965.038 182C965.038 181.511 964.642 181.115 964.154 181.115C963.665 181.115 963.269 181.511 963.269 182C963.269 182.489 963.665 182.885 964.154 182.885ZM958.115 180.615C958.115 181.104 957.719 181.5 957.231 181.5C956.742 181.5 956.346 181.104 956.346 180.615C956.346 180.127 956.742 179.731 957.231 179.731C957.719 179.731 958.115 180.127 958.115 180.615Z" fill="#E31235"/>
</g>
<g filter="url(#filter4_d)">
<path d="M861 144C861 130.745 871.745 120 885 120C898.255 120 909 130.745 909 144C909 157.255 898.255 168 885 168C871.745 168 861 157.255 861 144Z" fill="white"/>
<path d="M881.076 139.984C880.876 139.836 880.658 139.704 880.426 139.59C878.364 138.584 875.877 139.441 874.871 141.503L879.05 143.541" stroke="#E31235" stroke-linejoin="round"/>
<path d="M889.245 148.809C889.329 148.945 889.406 149.087 889.475 149.235C890.445 151.315 889.545 153.786 887.466 154.755L885.572 150.693" stroke="#E31235" stroke-linejoin="round"/>
<path d="M884.156 150.948L878.282 145.074C882.198 133.325 895.905 131.367 896.884 132.346C897.863 133.325 895.905 147.032 884.156 150.948Z" stroke="#E31235" stroke-linejoin="round"/>
<ellipse cx="889.847" cy="139.609" rx="2.76923" ry="2.76923" transform="rotate(45 889.847 139.609)" stroke="#E31235" stroke-linejoin="round"/>
<path d="M878.769 150.231L874.615 154.385" stroke="#E31235" stroke-linejoin="round"/>
<path d="M881.539 150.231L877.385 154.385" stroke="#E31235" stroke-linejoin="round"/>
<path d="M878.769 147.462L874.615 151.615" stroke="#E31235" stroke-linejoin="round"/>
</g>
<g filter="url(#filter5_d)">
<path d="M775 193C775 173.118 791.118 157 811 157C830.882 157 847 173.118 847 193C847 212.882 830.882 229 811 229C791.118 229 775 212.882 775 193Z" fill="white"/>
<ellipse cx="811" cy="194.038" rx="14.5385" ry="14.5385" stroke="#E31235"/>
<path d="M797.494 196.515C793.034 200.395 790.683 203.89 791.73 205.702C793.062 208.01 799.514 206.912 807.432 203.368M820.859 183.12C826.251 181.319 830.279 181.087 831.3 182.856C833.021 185.836 825.557 193.366 814.63 199.675C814.046 200.012 813.464 200.339 812.886 200.655" stroke="#E31235"/>
<ellipse rx="3.11539" ry="3.11538" transform="matrix(1 0 0 -1 809.962 202.346)" stroke="#E31235"/>
</g>

<defs>
<filter id="filter0_d" x="647" y="0" width="176" height="176" filterUnits="userSpaceOnUse" color-interpolation-filters="sRGB">
<feFlood flood-opacity="0" result="BackgroundImageFix"/>
<feColorMatrix in="SourceAlpha" type="matrix" values="0 0 0 0 0 0 0 0 0 0 0 0 0 0 0 0 0 0 127 0" result="hardAlpha"/>
<feOffset dx="2" dy="2"/>
<feGaussianBlur stdDeviation="12"/>
<feColorMatrix type="matrix" values="0 0 0 0 0 0 0 0 0 0 0 0 0 0 0 0 0 0 0.03 0"/>
<feBlend mode="normal" in2="BackgroundImageFix" result="effect1_dropShadow"/>
<feBlend mode="normal" in="SourceGraphic" in2="effect1_dropShadow" result="shape"/>
</filter>
<filter id="filter1_d" x="866" y="0" width="128" height="128" filterUnits="userSpaceOnUse" color-interpolation-filters="sRGB">
<feFlood flood-opacity="0" result="BackgroundImageFix"/>
<feColorMatrix in="SourceAlpha" type="matrix" values="0 0 0 0 0 0 0 0 0 0 0 0 0 0 0 0 0 0 127 0" result="hardAlpha"/>
<feOffset dx="2" dy="2"/>
<feGaussianBlur stdDeviation="12"/>
<feColorMatrix type="matrix" values="0 0 0 0 0 0 0 0 0 0 0 0 0 0 0 0 0 0 0.03 0"/>
<feBlend mode="normal" in2="BackgroundImageFix" result="effect1_dropShadow"/>
<feBlend mode="normal" in="SourceGraphic" in2="effect1_dropShadow" result="shape"/>
</filter>
<filter id="filter2_d" x="868" y="191" width="80" height="80" filterUnits="userSpaceOnUse" color-interpolation-filters="sRGB">
<feFlood flood-opacity="0" result="BackgroundImageFix"/>
<feColorMatrix in="SourceAlpha" type="matrix" values="0 0 0 0 0 0 0 0 0 0 0 0 0 0 0 0 0 0 127 0" result="hardAlpha"/>
<feOffset dx="2" dy="2"/>
<feGaussianBlur stdDeviation="12"/>
<feColorMatrix type="matrix" values="0 0 0 0 0 0 0 0 0 0 0 0 0 0 0 0 0 0 0.03 0"/>
<feBlend mode="normal" in2="BackgroundImageFix" result="effect1_dropShadow"/>
<feBlend mode="normal" in="SourceGraphic" in2="effect1_dropShadow" result="shape"/>
</filter>
<filter id="filter3_d" x="914" y="127" width="96" height="96" filterUnits="userSpaceOnUse" color-interpolation-filters="sRGB">
<feFlood flood-opacity="0" result="BackgroundImageFix"/>
<feColorMatrix in="SourceAlpha" type="matrix" values="0 0 0 0 0 0 0 0 0 0 0 0 0 0 0 0 0 0 127 0" result="hardAlpha"/>
<feOffset dx="2" dy="2"/>
<feGaussianBlur stdDeviation="12"/>
<feColorMatrix type="matrix" values="0 0 0 0 0 0 0 0 0 0 0 0 0 0 0 0 0 0 0.03 0"/>
<feBlend mode="normal" in2="BackgroundImageFix" result="effect1_dropShadow"/>
<feBlend mode="normal" in="SourceGraphic" in2="effect1_dropShadow" result="shape"/>
</filter>
<filter id="filter4_d" x="839" y="98" width="96" height="96" filterUnits="userSpaceOnUse" color-interpolation-filters="sRGB">
<feFlood flood-opacity="0" result="BackgroundImageFix"/>
<feColorMatrix in="SourceAlpha" type="matrix" values="0 0 0 0 0 0 0 0 0 0 0 0 0 0 0 0 0 0 127 0" result="hardAlpha"/>
<feOffset dx="2" dy="2"/>
<feGaussianBlur stdDeviation="12"/>
<feColorMatrix type="matrix" values="0 0 0 0 0 0 0 0 0 0 0 0 0 0 0 0 0 0 0.03 0"/>
<feBlend mode="normal" in2="BackgroundImageFix" result="effect1_dropShadow"/>
<feBlend mode="normal" in="SourceGraphic" in2="effect1_dropShadow" result="shape"/>
</filter>
<filter id="filter5_d" x="753" y="135" width="120" height="120" filterUnits="userSpaceOnUse" color-interpolation-filters="sRGB">
<feFlood flood-opacity="0" result="BackgroundImageFix"/>
<feColorMatrix in="SourceAlpha" type="matrix" values="0 0 0 0 0 0 0 0 0 0 0 0 0 0 0 0 0 0 127 0" result="hardAlpha"/>
<feOffset dx="2" dy="2"/>
<feGaussianBlur stdDeviation="12"/>
<feColorMatrix type="matrix" values="0 0 0 0 0 0 0 0 0 0 0 0 0 0 0 0 0 0 0.03 0"/>
<feBlend mode="normal" in2="BackgroundImageFix" result="effect1_dropShadow"/>
<feBlend mode="normal" in="SourceGraphic" in2="effect1_dropShadow" result="shape"/>
</filter>
<filter id="filter6_d" x="664" y="262.253" width="293.038" height="90.4948" filterUnits="userSpaceOnUse" color-interpolation-filters="sRGB">
<feFlood flood-opacity="0" result="BackgroundImageFix"/>
<feColorMatrix in="SourceAlpha" type="matrix" values="0 0 0 0 0 0 0 0 0 0 0 0 0 0 0 0 0 0 127 0" result="hardAlpha"/>
<feOffset dx="16" dy="2"/>
<feGaussianBlur stdDeviation="12"/>
<feColorMatrix type="matrix" values="0 0 0 0 0 0 0 0 0 0 0 0 0 0 0 0 0 0 0.03 0"/>
<feBlend mode="normal" in2="BackgroundImageFix" result="effect1_dropShadow"/>
<feBlend mode="normal" in="SourceGraphic" in2="effect1_dropShadow" result="shape"/>
</filter>
</defs>
</svg>
