<svg width="304" height="132" viewBox="0 0 304 132" fill="none" xmlns="http://www.w3.org/2000/svg">
<g clip-path="url(#clip0)">
<g filter="url(#filter0_d)">
<path d="M8 57C8 34.3563 26.3563 16 49 16H50C72.6437 16 91 34.3563 91 57C91 79.6437 72.6437 98 50 98H49C26.3563 98 8 79.6437 8 57Z" fill="white"/>
<path d="M38.9642 44.4513C39.9169 39.3832 44.3431 35.7115 49.5 35.7115V35.7115C54.6569 35.7115 59.083 39.3832 60.0357 44.4513L62.1874 55.8977C63.6812 63.8442 57.5856 71.1923 49.5 71.1923V71.1923C41.4143 71.1923 35.3188 63.8442 36.8126 55.8977L38.9642 44.4513Z" stroke="#76BC21"/>
<path d="M49.5 59.3654V83.0192" stroke="#76BC21"/>
<path d="M49.5005 67.6442L45.9092 64.0962" stroke="#76BC21"/>
<path d="M49.5005 64.0961L53.0918 60.5481" stroke="#76BC21"/>
</g>
<g filter="url(#filter1_d)">
<path d="M176 100C176 91.1634 183.163 84 192 84C200.837 84 208 91.1634 208 100C208 108.837 200.837 116 192 116C183.163 116 176 108.837 176 100Z" fill="white"/>
<path d="M187.945 95.0632C188.308 93.1094 190.013 91.6923 192 91.6923V91.6923C193.987 91.6923 195.692 93.1095 196.055 95.0632L196.904 99.6393C197.474 102.707 195.12 105.538 192 105.538V105.538C188.88 105.538 186.526 102.707 187.096 99.6393L187.945 95.0632Z" stroke="#E31235"/>
<path d="M192 100.923V110.154" stroke="#E31235"/>
<path d="M192 104.154L190.615 102.769" stroke="#E31235"/>
<path d="M192 102.769L193.385 101.385" stroke="#E31235"/>
</g>
<g filter="url(#filter2_d)">
<path d="M245 106.5C245 92.4167 256.417 81 270.5 81C284.583 81 296 92.4167 296 106.5C296 120.583 284.583 132 270.5 132C256.417 132 245 120.583 245 106.5Z" fill="white"/>
<path fill-rule="evenodd" clip-rule="evenodd" d="M266.822 103.116C265.766 103.116 264.91 103.973 264.91 105.029V107.971C264.91 109.027 265.766 109.884 266.822 109.884H275.649C275.828 109.884 275.989 109.776 276.057 109.611C276.125 109.446 276.088 109.256 275.961 109.13L274.921 108.09C274.728 107.897 274.619 107.635 274.619 107.362V105.029C274.619 103.973 273.763 103.116 272.707 103.116H266.822ZM265.792 105.029C265.792 104.46 266.254 103.999 266.822 103.999H272.707C273.276 103.999 273.737 104.46 273.737 105.029V107.362C273.737 107.869 273.938 108.355 274.297 108.714L274.584 109.001H266.822C266.254 109.001 265.792 108.54 265.792 107.971V105.029Z" fill="#76BC21"/>
<path fill-rule="evenodd" clip-rule="evenodd" d="M265.645 93.2595C265.645 92.2033 266.502 91.347 267.558 91.347H273.442C274.499 91.347 275.355 92.2033 275.355 93.2595V96.9179C278.515 98.5221 280.775 101.643 281.176 105.323H281.534C282.184 105.323 282.71 105.85 282.71 106.5C282.71 107.15 282.184 107.677 281.534 107.677H281.176C280.775 111.357 278.515 114.478 275.355 116.082V119.74C275.355 120.797 274.499 121.653 273.442 121.653H267.558C266.502 121.653 265.645 120.797 265.645 119.74V116.082C262.154 114.309 259.761 110.684 259.761 106.5C259.761 102.316 262.154 98.6906 265.645 96.9179V93.2595ZM281.24 106.5C281.24 106.402 281.238 106.303 281.236 106.206H281.534C281.696 106.206 281.828 106.337 281.828 106.5C281.828 106.662 281.696 106.794 281.534 106.794H281.236C281.238 106.696 281.24 106.598 281.24 106.5ZM266.528 116.481V119.74C266.528 120.309 266.989 120.77 267.558 120.77H273.442C274.011 120.77 274.472 120.309 274.472 119.74V116.481C273.244 116.97 271.903 117.239 270.5 117.239C269.097 117.239 267.757 116.97 266.528 116.481ZM274.472 93.2595V96.519C273.244 96.0296 271.903 95.7605 270.5 95.7605C269.097 95.7605 267.757 96.0296 266.528 96.519V93.2595C266.528 92.6908 266.989 92.2297 267.558 92.2297H273.442C274.011 92.2297 274.472 92.6908 274.472 93.2595ZM260.643 106.5C260.643 101.056 265.056 96.6432 270.5 96.6432C275.944 96.6432 280.357 101.056 280.357 106.5C280.357 111.944 275.944 116.357 270.5 116.357C265.056 116.357 260.643 111.944 260.643 106.5Z" fill="#76BC21"/>
</g>
<g filter="url(#filter3_d)">
<path d="M112 54C112 41.8497 121.85 32 134 32C146.15 32 156 41.8497 156 54C156 66.1503 146.15 76 134 76C121.85 76 112 66.1503 112 54Z" fill="white"/>
<path d="M130.404 50.3188C130.219 50.1828 130.02 50.0616 129.807 49.9576C127.917 49.0358 125.637 49.8207 124.716 51.7108L128.546 53.5789" stroke="#E31235" stroke-linejoin="round"/>
<path d="M137.892 58.4079C137.969 58.5326 138.039 58.6631 138.103 58.7991C138.991 60.705 138.167 62.9705 136.261 63.8592L134.525 60.1355" stroke="#E31235" stroke-linejoin="round"/>
<path d="M133.227 60.3689L127.842 54.984C131.432 44.2141 143.997 42.4193 144.894 43.3168C145.792 44.2142 143.997 56.7791 133.227 60.3689Z" stroke="#E31235" stroke-linejoin="round"/>
<ellipse cx="138.442" cy="49.9745" rx="2.53846" ry="2.53846" transform="rotate(45 138.442 49.9745)" stroke="#E31235" stroke-linejoin="round"/>
<path d="M128.289 59.7115L124.481 63.5192" stroke="#E31235" stroke-linejoin="round"/>
<path d="M130.827 59.7115L127.02 63.5192" stroke="#E31235" stroke-linejoin="round"/>
<path d="M128.289 57.1731L124.481 60.9808" stroke="#E31235" stroke-linejoin="round"/>
</g>
<g filter="url(#filter4_d)">
<path d="M186 35C186 15.67 201.67 0 221 0C240.33 0 256 15.67 256 35C256 54.33 240.33 70 221 70C201.67 70 186 54.33 186 35Z" fill="white"/>
<ellipse cx="221" cy="36.0096" rx="14.1346" ry="14.1346" stroke="#E31235"/>
<path d="M207.87 38.4172C203.533 42.1893 201.248 45.5874 202.266 47.3494C203.561 49.5935 209.833 48.5256 217.532 45.08M230.586 25.394C235.828 23.6435 239.744 23.4179 240.737 25.1379C242.41 28.0352 235.154 35.3562 224.53 41.4897C223.962 41.8175 223.397 42.1352 222.834 42.4426" stroke="#E31235"/>
<ellipse rx="3.02885" ry="3.02884" transform="matrix(1 0 0 -1 219.991 44.0865)" stroke="#E31235"/>
</g>
</g>
<defs>
<filter id="filter0_d" x="-14" y="-6" width="131" height="130" filterUnits="userSpaceOnUse" color-interpolation-filters="sRGB">
<feFlood flood-opacity="0" result="BackgroundImageFix"/>
<feColorMatrix in="SourceAlpha" type="matrix" values="0 0 0 0 0 0 0 0 0 0 0 0 0 0 0 0 0 0 127 0" result="hardAlpha"/>
<feOffset dx="2" dy="2"/>
<feGaussianBlur stdDeviation="12"/>
<feColorMatrix type="matrix" values="0 0 0 0 0 0 0 0 0 0 0 0 0 0 0 0 0 0 0.03 0"/>
<feBlend mode="normal" in2="BackgroundImageFix" result="effect1_dropShadow"/>
<feBlend mode="normal" in="SourceGraphic" in2="effect1_dropShadow" result="shape"/>
</filter>
<filter id="filter1_d" x="154" y="62" width="80" height="80" filterUnits="userSpaceOnUse" color-interpolation-filters="sRGB">
<feFlood flood-opacity="0" result="BackgroundImageFix"/>
<feColorMatrix in="SourceAlpha" type="matrix" values="0 0 0 0 0 0 0 0 0 0 0 0 0 0 0 0 0 0 127 0" result="hardAlpha"/>
<feOffset dx="2" dy="2"/>
<feGaussianBlur stdDeviation="12"/>
<feColorMatrix type="matrix" values="0 0 0 0 0 0 0 0 0 0 0 0 0 0 0 0 0 0 0.03 0"/>
<feBlend mode="normal" in2="BackgroundImageFix" result="effect1_dropShadow"/>
<feBlend mode="normal" in="SourceGraphic" in2="effect1_dropShadow" result="shape"/>
</filter>
<filter id="filter2_d" x="223" y="59" width="99" height="99" filterUnits="userSpaceOnUse" color-interpolation-filters="sRGB">
<feFlood flood-opacity="0" result="BackgroundImageFix"/>
<feColorMatrix in="SourceAlpha" type="matrix" values="0 0 0 0 0 0 0 0 0 0 0 0 0 0 0 0 0 0 127 0" result="hardAlpha"/>
<feOffset dx="2" dy="2"/>
<feGaussianBlur stdDeviation="12"/>
<feColorMatrix type="matrix" values="0 0 0 0 0 0 0 0 0 0 0 0 0 0 0 0 0 0 0.03 0"/>
<feBlend mode="normal" in2="BackgroundImageFix" result="effect1_dropShadow"/>
<feBlend mode="normal" in="SourceGraphic" in2="effect1_dropShadow" result="shape"/>
</filter>
<filter id="filter3_d" x="90" y="10" width="92" height="92" filterUnits="userSpaceOnUse" color-interpolation-filters="sRGB">
<feFlood flood-opacity="0" result="BackgroundImageFix"/>
<feColorMatrix in="SourceAlpha" type="matrix" values="0 0 0 0 0 0 0 0 0 0 0 0 0 0 0 0 0 0 127 0" result="hardAlpha"/>
<feOffset dx="2" dy="2"/>
<feGaussianBlur stdDeviation="12"/>
<feColorMatrix type="matrix" values="0 0 0 0 0 0 0 0 0 0 0 0 0 0 0 0 0 0 0.03 0"/>
<feBlend mode="normal" in2="BackgroundImageFix" result="effect1_dropShadow"/>
<feBlend mode="normal" in="SourceGraphic" in2="effect1_dropShadow" result="shape"/>
</filter>
<filter id="filter4_d" x="164" y="-22" width="118" height="118" filterUnits="userSpaceOnUse" color-interpolation-filters="sRGB">
<feFlood flood-opacity="0" result="BackgroundImageFix"/>
<feColorMatrix in="SourceAlpha" type="matrix" values="0 0 0 0 0 0 0 0 0 0 0 0 0 0 0 0 0 0 127 0" result="hardAlpha"/>
<feOffset dx="2" dy="2"/>
<feGaussianBlur stdDeviation="12"/>
<feColorMatrix type="matrix" values="0 0 0 0 0 0 0 0 0 0 0 0 0 0 0 0 0 0 0.03 0"/>
<feBlend mode="normal" in2="BackgroundImageFix" result="effect1_dropShadow"/>
<feBlend mode="normal" in="SourceGraphic" in2="effect1_dropShadow" result="shape"/>
</filter>
<clipPath id="clip0">
<rect width="304" height="132" fill="white"/>
</clipPath>
</defs>
</svg>
