<svg width="752" height="272" viewBox="0 0 752 272" fill="none" xmlns="http://www.w3.org/2000/svg">
<g filter="url(#filter0_d)">
<path d="M111 139C111 92.6081 148.608 55 195 55C241.392 55 279 92.6081 279 139C279 185.392 241.392 223 195 223C148.608 223 111 185.392 111 139Z" fill="white"/>
<path d="M144.519 109.794C144.519 109.794 152.631 99.7282 165.816 91.7927" stroke="#E31235" stroke-linecap="round"/>
<path d="M173.958 87.5404C188.063 81.2816 206.125 78.966 225.63 90.6857C249.76 105.185 252.454 129.365 250.393 146.629" stroke="#E31235" stroke-linecap="round"/>
<path d="M245.135 166.679C245.856 165.479 247.512 161.301 248.873 155.37" stroke="#E31235" stroke-linecap="round"/>
<path d="M212.048 192.772C223.674 173.423 223.582 183.187 232.646 168.102C236.207 162.175 239.004 153.172 239.456 143.444" stroke="#76BC21" stroke-linecap="round"/>
<path d="M212.799 98.6685C214.818 99.5432 216.863 100.593 218.931 101.836C230.931 109.047 236.758 120.014 238.725 131.29" stroke="#76BC21" stroke-linecap="round"/>
<path d="M147.002 126.461C147.002 126.461 172.68 86.7449 207.294 96.6871" stroke="#76BC21" stroke-linecap="round"/>
<path d="M167.542 121.842C179.553 110.352 195.378 101.967 211.969 111.936C224.743 119.611 228.209 131.419 226.805 142.958" stroke="#E31235" stroke-linecap="round"/>
<path d="M223.755 154.725C222.609 157.639 221.221 160.422 219.679 162.988C213.467 173.327 208.532 172.183 203.871 178.485" stroke="#E31235" stroke-linecap="round"/>
<path d="M197.088 195.388C198.358 190.405 199.612 186.68 200.87 183.823" stroke="#E31235" stroke-linecap="round"/>
<path d="M145.805 150.737C145.805 150.737 152.732 137.571 163.68 125.77" stroke="#E31235" stroke-linecap="round"/>
<path d="M169.867 138.415C179.557 125.188 192.068 115.154 205.269 123.086C212.507 127.435 214.822 133.174 214.879 138.68" stroke="#76BC21" stroke-linecap="round"/>
<path d="M150.843 174.296C150.843 174.296 155.459 161.915 162.983 149.008" stroke="#76BC21" stroke-linecap="round"/>
<path d="M160.875 184.341C160.875 184.341 164.889 165.775 177.299 151.807" stroke="#E31235" stroke-linecap="round"/>
<path d="M187.006 159.425C185.48 161.36 184.096 163.372 182.845 165.405" stroke="#E31235" stroke-linecap="round"/>
<path d="M172.287 192.091C172.287 192.091 174.184 182.065 179.684 171.094" stroke="#E31235" stroke-linecap="round"/>
<path d="M211.974 150.771C211.134 152.607 210.275 154.125 209.645 155.174C206.181 160.939 196.183 164.773 189.183 180.372" stroke="#76BC21" stroke-linecap="round"/>
<path d="M184.621 194.592C185.296 191.503 186.074 188.704 186.929 186.159" stroke="#76BC21" stroke-linecap="round"/>
</g>
<g filter="url(#filter1_d)">
<path d="M432 74C432 45.2812 455.281 22 484 22C512.719 22 536 45.2812 536 74C536 102.719 512.719 126 484 126C455.281 126 432 102.719 432 74Z" fill="white"/>
<path fill-rule="evenodd" clip-rule="evenodd" d="M476.501 67.0999C474.347 67.0999 472.601 68.8459 472.601 70.9999V76.9999C472.601 79.1538 474.347 80.8999 476.501 80.8999H494.501C494.865 80.8999 495.193 80.6806 495.332 80.3443C495.471 80.008 495.394 79.6209 495.137 79.3635L493.016 77.2421C492.622 76.8483 492.401 76.3142 492.401 75.7572V70.9999C492.401 68.8459 490.654 67.0999 488.501 67.0999H476.501ZM474.401 70.9999C474.401 69.8401 475.341 68.8999 476.501 68.8999H488.501C489.66 68.8999 490.601 69.8401 490.601 70.9999V75.7572C490.601 76.7916 491.011 77.7835 491.743 78.5149L492.328 79.0999H476.501C475.341 79.0999 474.401 78.1597 474.401 76.9999V70.9999Z" fill="#76BC21"/>
<path fill-rule="evenodd" clip-rule="evenodd" d="M474.101 46.9999C474.101 44.8459 475.847 43.0999 478.001 43.0999H490.001C492.154 43.0999 493.901 44.8459 493.901 46.9999V54.46C500.344 57.7313 504.953 64.0962 505.771 71.5999H506.5C507.825 71.5999 508.9 72.6744 508.9 73.9999C508.9 75.3253 507.825 76.3999 506.5 76.3999H505.771C504.953 83.9035 500.344 90.2685 493.901 93.5397V101C493.901 103.154 492.154 104.9 490.001 104.9H478.001C475.847 104.9 474.101 103.154 474.101 101V93.5397C466.98 89.9248 462.101 82.5322 462.101 73.9999C462.101 65.4675 466.98 58.0749 474.101 54.46V46.9999ZM505.901 73.9999C505.901 73.7992 505.898 73.5992 505.893 73.3999H506.5C506.831 73.3999 507.1 73.6685 507.1 73.9999C507.1 74.3312 506.831 74.5999 506.5 74.5999H505.893C505.898 74.4005 505.901 74.2005 505.901 73.9999ZM475.901 94.3531V101C475.901 102.16 476.841 103.1 478.001 103.1H490.001C491.16 103.1 492.101 102.16 492.101 101V94.3531C489.595 95.3511 486.862 95.8999 484.001 95.8999C481.139 95.8999 478.406 95.3511 475.901 94.3531ZM492.101 46.9999V53.6466C489.595 52.6486 486.862 52.0999 484.001 52.0999C481.139 52.0999 478.406 52.6486 475.901 53.6466V46.9999C475.901 45.8401 476.841 44.8999 478.001 44.8999H490.001C491.16 44.8999 492.101 45.8401 492.101 46.9999ZM463.901 73.9999C463.901 62.8989 472.9 53.8999 484.001 53.8999C495.102 53.8999 504.101 62.8989 504.101 73.9999C504.101 85.1008 495.102 94.0999 484.001 94.0999C472.9 94.0999 463.901 85.1008 463.901 73.9999Z" fill="#76BC21"/>
</g>
<g filter="url(#filter2_d)">
<path d="M536 182C536 170.954 544.954 162 556 162C567.046 162 576 170.954 576 182C576 193.046 567.046 202 556 202C544.954 202 536 193.046 536 182Z" fill="white"/>
<path d="M550.932 175.829C551.385 173.387 553.516 171.615 556 171.615V171.615C558.484 171.615 560.615 173.387 561.068 175.829L562.131 181.549C562.843 185.383 559.9 188.923 556 188.923V188.923C552.1 188.923 549.157 185.383 549.869 181.549L550.932 175.829Z" stroke="#76BC21"/>
<path d="M556 183.154V194.692" stroke="#76BC21"/>
<path d="M556 187.192L554.27 185.462" stroke="#76BC21"/>
<path d="M556.001 185.462L557.731 183.731" stroke="#76BC21"/>
</g>
<g filter="url(#filter3_d)">
<path d="M595 92C595 74.3269 609.327 60 627 60C644.673 60 659 74.3269 659 92C659 109.673 644.673 124 627 124C609.327 124 595 109.673 595 92Z" fill="white"/>
<path fill-rule="evenodd" clip-rule="evenodd" d="M623.307 76.8077C622.564 76.8077 621.961 77.4104 621.961 78.1538C621.961 78.8973 622.564 79.5 623.307 79.5C624.051 79.5 624.653 78.8973 624.653 78.1538C624.653 77.4104 624.051 76.8077 623.307 76.8077ZM620.961 78.1538C620.961 76.8581 622.011 75.8077 623.307 75.8077C624.603 75.8077 625.653 76.8581 625.653 78.1538C625.653 79.278 624.863 80.2175 623.807 80.4466V83.1923H628.346V80V79.5H628.846H630.245C630.474 78.4445 631.414 77.6538 632.538 77.6538C633.834 77.6538 634.884 78.7042 634.884 80C634.884 81.2957 633.834 82.3461 632.538 82.3461C631.414 82.3461 630.474 81.5555 630.245 80.5H629.346V83.1923H635.307H635.807V83.6923V85.9615H638.553C638.782 84.906 639.721 84.1154 640.846 84.1154C642.141 84.1154 643.192 85.1658 643.192 86.4615C643.192 87.7573 642.141 88.8077 640.846 88.8077C639.721 88.8077 638.782 88.0171 638.553 86.9615H635.807V91.5H638.999H639.499V92V93.3995C640.555 93.6287 641.346 94.5681 641.346 95.6923C641.346 96.988 640.295 98.0384 638.999 98.0384C637.704 98.0384 636.653 96.988 636.653 95.6923C636.653 94.5681 637.444 93.6287 638.499 93.3995V92.5H635.807V98.4615V98.9615H635.307H633.038V101.707C634.093 101.936 634.884 102.876 634.884 104C634.884 105.296 633.834 106.346 632.538 106.346C631.242 106.346 630.192 105.296 630.192 104C630.192 102.876 630.982 101.936 632.038 101.707V98.9615H627.499V102.154V102.654H626.999H625.6C625.371 103.709 624.431 104.5 623.307 104.5C622.011 104.5 620.961 103.45 620.961 102.154C620.961 100.858 622.011 99.8077 623.307 99.8077C624.431 99.8077 625.371 100.598 625.6 101.654H626.499V98.9615H620.538H620.038V98.4615V96.1923H617.292C617.063 97.2478 616.124 98.0384 614.999 98.0384C613.704 98.0384 612.653 96.988 612.653 95.6923C612.653 94.3966 613.704 93.3461 614.999 93.3461C616.124 93.3461 617.063 94.1368 617.292 95.1923H620.038V90.6538H616.846H616.346V90.1538V88.7543C615.29 88.5252 614.499 87.5857 614.499 86.4615C614.499 85.1658 615.55 84.1154 616.846 84.1154C618.141 84.1154 619.192 85.1658 619.192 86.4615C619.192 87.5857 618.401 88.5252 617.346 88.7543V89.6538H620.038V83.6923V83.1923H620.538H622.807V80.4466C621.752 80.2175 620.961 79.278 620.961 78.1538ZM621.038 97.9615V84.1923H634.807V97.9615H621.038ZM623.307 85.9615H622.807V86.4615V95.6923V96.1923H623.307H632.538H633.038V95.6923V86.4615V85.9615H632.538H623.307ZM623.807 95.1923V86.9615H632.038V95.1923H623.807ZM631.192 80C631.192 79.2565 631.794 78.6538 632.538 78.6538C633.281 78.6538 633.884 79.2565 633.884 80C633.884 80.7434 633.281 81.3461 632.538 81.3461C631.794 81.3461 631.192 80.7434 631.192 80ZM642.192 86.4615C642.192 85.7181 641.589 85.1154 640.846 85.1154C640.102 85.1154 639.499 85.7181 639.499 86.4615C639.499 87.205 640.102 87.8077 640.846 87.8077C641.589 87.8077 642.192 87.205 642.192 86.4615ZM638.999 94.3461C639.743 94.3461 640.346 94.9488 640.346 95.6923C640.346 96.4358 639.743 97.0384 638.999 97.0384C638.256 97.0384 637.653 96.4358 637.653 95.6923C637.653 94.9488 638.256 94.3461 638.999 94.3461ZM613.653 95.6923C613.653 96.4358 614.256 97.0384 614.999 97.0384C615.743 97.0384 616.346 96.4358 616.346 95.6923C616.346 94.9488 615.743 94.3461 614.999 94.3461C614.256 94.3461 613.653 94.9488 613.653 95.6923ZM616.846 87.8077C616.102 87.8077 615.499 87.205 615.499 86.4615C615.499 85.7181 616.102 85.1154 616.846 85.1154C617.589 85.1154 618.192 85.7181 618.192 86.4615C618.192 87.205 617.589 87.8077 616.846 87.8077ZM632.538 105.346C633.281 105.346 633.884 104.743 633.884 104C633.884 103.257 633.281 102.654 632.538 102.654C631.794 102.654 631.192 103.257 631.192 104C631.192 104.743 631.794 105.346 632.538 105.346ZM624.653 102.154C624.653 102.897 624.051 103.5 623.307 103.5C622.564 103.5 621.961 102.897 621.961 102.154C621.961 101.41 622.564 100.808 623.307 100.808C624.051 100.808 624.653 101.41 624.653 102.154Z" fill="#E31235"/>
</g>
<g filter="url(#filter4_d)">
<path d="M317 106C317 90.536 329.536 78 345 78C360.464 78 373 90.536 373 106C373 121.464 360.464 134 345 134C329.536 134 317 121.464 317 106Z" fill="white"/>
<path d="M340.422 101.315C340.188 101.142 339.935 100.987 339.663 100.855C337.258 99.6818 334.356 100.681 333.183 103.086L338.058 105.464" stroke="#E31235" stroke-linejoin="round"/>
<path d="M349.953 111.61C350.051 111.769 350.141 111.935 350.221 112.108C351.353 114.534 350.303 117.417 347.877 118.548L345.668 113.809" stroke="#E31235" stroke-linejoin="round"/>
<path d="M344.016 114.106L337.162 107.252C341.731 93.5452 357.723 91.2609 358.865 92.4031C360.007 93.5453 357.723 109.537 344.016 114.106Z" stroke="#E31235" stroke-linejoin="round"/>
<ellipse cx="350.653" cy="100.877" rx="3.23077" ry="3.23077" transform="rotate(45 350.653 100.877)" stroke="#E31235" stroke-linejoin="round"/>
<path d="M337.731 113.269L332.885 118.115" stroke="#E31235" stroke-linejoin="round"/>
<path d="M340.961 113.269L336.115 118.115" stroke="#E31235" stroke-linejoin="round"/>
<path d="M337.731 110.038L332.885 114.885" stroke="#E31235" stroke-linejoin="round"/>
</g>
<g filter="url(#filter5_d)">
<path d="M359 202C359 177.699 378.699 158 403 158C427.301 158 447 177.699 447 202C447 226.301 427.301 246 403 246C378.699 246 359 226.301 359 202Z" fill="white"/>
<ellipse cx="403" cy="203.269" rx="17.7692" ry="17.7692" stroke="#E31235"/>
<path d="M386.492 206.296C381.04 211.038 378.168 215.31 379.447 217.525C381.076 220.346 388.961 219.004 398.639 214.672M415.05 189.924C421.639 187.723 426.563 187.44 427.811 189.602C429.914 193.244 420.792 202.448 407.437 210.159C406.723 210.571 406.012 210.97 405.304 211.356" stroke="#E31235"/>
<ellipse rx="3.80769" ry="3.80769" transform="matrix(1 0 0 -1 401.731 213.423)" stroke="#E31235"/>
</g>
<defs>
<filter id="filter0_d" x="89" y="33" width="216" height="216" filterUnits="userSpaceOnUse" color-interpolation-filters="sRGB">
<feFlood flood-opacity="0" result="BackgroundImageFix"/>
<feColorMatrix in="SourceAlpha" type="matrix" values="0 0 0 0 0 0 0 0 0 0 0 0 0 0 0 0 0 0 127 0" result="hardAlpha"/>
<feOffset dx="2" dy="2"/>
<feGaussianBlur stdDeviation="12"/>
<feColorMatrix type="matrix" values="0 0 0 0 0 0 0 0 0 0 0 0 0 0 0 0 0 0 0.03 0"/>
<feBlend mode="normal" in2="BackgroundImageFix" result="effect1_dropShadow"/>
<feBlend mode="normal" in="SourceGraphic" in2="effect1_dropShadow" result="shape"/>
</filter>
<filter id="filter1_d" x="410" y="0" width="152" height="152" filterUnits="userSpaceOnUse" color-interpolation-filters="sRGB">
<feFlood flood-opacity="0" result="BackgroundImageFix"/>
<feColorMatrix in="SourceAlpha" type="matrix" values="0 0 0 0 0 0 0 0 0 0 0 0 0 0 0 0 0 0 127 0" result="hardAlpha"/>
<feOffset dx="2" dy="2"/>
<feGaussianBlur stdDeviation="12"/>
<feColorMatrix type="matrix" values="0 0 0 0 0 0 0 0 0 0 0 0 0 0 0 0 0 0 0.03 0"/>
<feBlend mode="normal" in2="BackgroundImageFix" result="effect1_dropShadow"/>
<feBlend mode="normal" in="SourceGraphic" in2="effect1_dropShadow" result="shape"/>
</filter>
<filter id="filter2_d" x="514" y="140" width="88" height="88" filterUnits="userSpaceOnUse" color-interpolation-filters="sRGB">
<feFlood flood-opacity="0" result="BackgroundImageFix"/>
<feColorMatrix in="SourceAlpha" type="matrix" values="0 0 0 0 0 0 0 0 0 0 0 0 0 0 0 0 0 0 127 0" result="hardAlpha"/>
<feOffset dx="2" dy="2"/>
<feGaussianBlur stdDeviation="12"/>
<feColorMatrix type="matrix" values="0 0 0 0 0 0 0 0 0 0 0 0 0 0 0 0 0 0 0.03 0"/>
<feBlend mode="normal" in2="BackgroundImageFix" result="effect1_dropShadow"/>
<feBlend mode="normal" in="SourceGraphic" in2="effect1_dropShadow" result="shape"/>
</filter>
<filter id="filter3_d" x="573" y="38" width="112" height="112" filterUnits="userSpaceOnUse" color-interpolation-filters="sRGB">
<feFlood flood-opacity="0" result="BackgroundImageFix"/>
<feColorMatrix in="SourceAlpha" type="matrix" values="0 0 0 0 0 0 0 0 0 0 0 0 0 0 0 0 0 0 127 0" result="hardAlpha"/>
<feOffset dx="2" dy="2"/>
<feGaussianBlur stdDeviation="12"/>
<feColorMatrix type="matrix" values="0 0 0 0 0 0 0 0 0 0 0 0 0 0 0 0 0 0 0.03 0"/>
<feBlend mode="normal" in2="BackgroundImageFix" result="effect1_dropShadow"/>
<feBlend mode="normal" in="SourceGraphic" in2="effect1_dropShadow" result="shape"/>
</filter>
<filter id="filter4_d" x="295" y="56" width="104" height="104" filterUnits="userSpaceOnUse" color-interpolation-filters="sRGB">
<feFlood flood-opacity="0" result="BackgroundImageFix"/>
<feColorMatrix in="SourceAlpha" type="matrix" values="0 0 0 0 0 0 0 0 0 0 0 0 0 0 0 0 0 0 127 0" result="hardAlpha"/>
<feOffset dx="2" dy="2"/>
<feGaussianBlur stdDeviation="12"/>
<feColorMatrix type="matrix" values="0 0 0 0 0 0 0 0 0 0 0 0 0 0 0 0 0 0 0.03 0"/>
<feBlend mode="normal" in2="BackgroundImageFix" result="effect1_dropShadow"/>
<feBlend mode="normal" in="SourceGraphic" in2="effect1_dropShadow" result="shape"/>
</filter>
<filter id="filter5_d" x="337" y="136" width="136" height="136" filterUnits="userSpaceOnUse" color-interpolation-filters="sRGB">
<feFlood flood-opacity="0" result="BackgroundImageFix"/>
<feColorMatrix in="SourceAlpha" type="matrix" values="0 0 0 0 0 0 0 0 0 0 0 0 0 0 0 0 0 0 127 0" result="hardAlpha"/>
<feOffset dx="2" dy="2"/>
<feGaussianBlur stdDeviation="12"/>
<feColorMatrix type="matrix" values="0 0 0 0 0 0 0 0 0 0 0 0 0 0 0 0 0 0 0.03 0"/>
<feBlend mode="normal" in2="BackgroundImageFix" result="effect1_dropShadow"/>
<feBlend mode="normal" in="SourceGraphic" in2="effect1_dropShadow" result="shape"/>
</filter>
</defs>
</svg>
