<svg width="40" height="40" viewBox="0 0 40 40" fill="none" xmlns="http://www.w3.org/2000/svg">
<path d="M15.4214 15.3148C15.187 15.1417 14.9336 14.9874 14.6623 14.8551C12.2568 13.6818 9.35551 14.6808 8.18223 17.0864L13.0569 19.464" stroke="#E31235" stroke-linejoin="round"/>
<path d="M24.9534 25.61C25.0511 25.7688 25.1408 25.9348 25.2215 26.1079C26.3526 28.5336 25.3031 31.417 22.8774 32.5481L20.6675 27.8089" stroke="#E31235" stroke-linejoin="round"/>
<path d="M19.0156 28.1059L12.1621 21.2524C16.731 7.54524 32.7227 5.26092 33.8649 6.40313C35.0071 7.54534 32.7227 23.537 19.0156 28.1059Z" stroke="#E31235" stroke-linejoin="round"/>
<ellipse cx="25.6543" cy="14.8767" rx="3.23077" ry="3.23077" transform="rotate(45 25.6543 14.8767)" stroke="#E31235" stroke-linejoin="round"/>
<path d="M12.7309 27.2692L7.88477 32.1154" stroke="#E31235" stroke-linejoin="round"/>
<path d="M15.9614 27.2692L11.1152 32.1154" stroke="#E31235" stroke-linejoin="round"/>
<path d="M12.7309 24.0385L7.88477 28.8846" stroke="#E31235" stroke-linejoin="round"/>
</svg>
