<svg width="14" height="10" viewBox="0 0 14 10" fill="none" xmlns="http://www.w3.org/2000/svg">
<path d="M5.88332 3.8842C4.88525 4.88228 4.88525 6.50048 5.88332 7.49856C6.8814 8.49663 8.4996 8.49663 9.49768 7.49856L12.2635 4.73273C13.2616 3.73465 13.2616 2.11645 12.2635 1.11837C11.2654 0.120293 9.64723 0.120293 8.64915 1.11837C8.41484 1.35268 8.41484 1.73258 8.64915 1.9669C8.88347 2.20121 9.26337 2.20121 9.49768 1.9669C10.0271 1.43745 10.8855 1.43745 11.415 1.9669C11.9444 2.49635 11.9444 3.35475 11.415 3.8842L8.64915 6.65003C8.1197 7.17948 7.2613 7.17948 6.73185 6.65003C6.2024 6.12058 6.2024 5.26218 6.73185 4.73273C6.96617 4.49841 6.96617 4.11851 6.73185 3.8842C6.49754 3.64988 6.11764 3.64988 5.88332 3.8842Z" fill="black"/>
<path d="M1.73293 5.26726C0.734856 6.26533 0.734856 7.88354 1.73293 8.88161C2.73101 9.87969 4.34921 9.87969 5.34729 8.88161C5.5816 8.6473 5.5816 8.2674 5.34729 8.03309C5.11298 7.79877 4.73308 7.79877 4.49876 8.03309C3.96931 8.56253 3.11091 8.56253 2.58146 8.03309C2.05201 7.50364 2.05201 6.64523 2.58146 6.11578L5.34729 3.34995C5.87674 2.82051 6.73514 2.82051 7.26459 3.34995C7.79404 3.8794 7.79404 4.73781 7.26459 5.26726C7.03028 5.50157 7.03028 5.88147 7.26459 6.11578C7.49891 6.3501 7.8788 6.3501 8.11312 6.11578C9.1112 5.11771 9.1112 3.4995 8.11312 2.50143C7.11504 1.50335 5.49684 1.50335 4.49876 2.50143L1.73293 5.26726Z" fill="black"/>
</svg>
