<svg width="47" height="62" viewBox="0 0 47 62" fill="none" xmlns="http://www.w3.org/2000/svg">
<path fill-rule="evenodd" clip-rule="evenodd" d="M14.5016 24.0999C12.3477 24.0999 10.6016 25.8459 10.6016 27.9999V33.9999C10.6016 36.1538 12.3477 37.8999 14.5016 37.8999H32.5016C32.8656 37.8999 33.1937 37.6806 33.3331 37.3443C33.4724 37.008 33.3954 36.6209 33.138 36.3635L31.0166 34.2421C30.6228 33.8483 30.4016 33.3142 30.4016 32.7572V27.9999C30.4016 25.8459 28.6555 24.0999 26.5016 24.0999H14.5016ZM12.4016 27.9999C12.4016 26.8401 13.3418 25.8999 14.5016 25.8999H26.5016C27.6614 25.8999 28.6016 26.8401 28.6016 27.9999V32.7572C28.6016 33.7916 29.0125 34.7835 29.7438 35.5149L30.3288 36.0999H14.5016C13.3418 36.0999 12.4016 35.1597 12.4016 33.9999V27.9999Z" fill="#76BC21"/>
<path fill-rule="evenodd" clip-rule="evenodd" d="M22.0016 12.0999C11.5634 12.0999 3.10156 20.5617 3.10156 30.9999C3.10156 41.438 11.5634 49.8999 22.0016 49.8999C32.4397 49.8999 40.9016 41.438 40.9016 30.9999C40.9016 20.5617 32.4397 12.0999 22.0016 12.0999ZM4.90156 30.9999C4.90156 21.5558 12.5575 13.8999 22.0016 13.8999C31.4456 13.8999 39.1016 21.5558 39.1016 30.9999C39.1016 40.4439 31.4456 48.0999 22.0016 48.0999C12.5575 48.0999 4.90156 40.4439 4.90156 30.9999Z" fill="#76BC21"/>
<path fill-rule="evenodd" clip-rule="evenodd" d="M12.1016 3.99985C12.1016 1.84594 13.8477 0.0998535 16.0016 0.0998535H28.0016C30.1555 0.0998535 31.9016 1.84594 31.9016 3.99985V11.46C38.3453 14.7313 42.9537 21.0962 43.7716 28.5999H44.501C45.8265 28.5999 46.901 29.6744 46.901 30.9999C46.901 32.3253 45.8265 33.3999 44.501 33.3999H43.7716C42.9537 40.9035 38.3453 47.2685 31.9016 50.5397V58C31.9016 60.1539 30.1555 61.9 28.0016 61.9H16.0016C13.8477 61.9 12.1016 60.1539 12.1016 58V50.5397C4.98095 46.9248 0.101562 39.5322 0.101562 30.9999C0.101562 22.4675 4.98095 15.0749 12.1016 11.46V3.99985ZM43.9016 30.9999C43.9016 30.7992 43.8989 30.5992 43.8935 30.3999H44.501C44.8323 30.3999 45.101 30.6685 45.101 30.9999C45.101 31.3312 44.8323 31.5999 44.501 31.5999H43.8935C43.8989 31.4005 43.9016 31.2005 43.9016 30.9999ZM13.9016 51.3531V58C13.9016 59.1598 14.8418 60.1 16.0016 60.1H28.0016C29.1614 60.1 30.1016 59.1598 30.1016 58V51.3531C27.5961 52.3511 24.8629 52.8999 22.0016 52.8999C19.1402 52.8999 16.4071 52.3511 13.9016 51.3531ZM30.1016 3.99985V10.6466C27.5961 9.64859 24.8629 9.09985 22.0016 9.09985C19.1402 9.09985 16.4071 9.6486 13.9016 10.6466V3.99985C13.9016 2.84006 14.8418 1.89985 16.0016 1.89985H28.0016C29.1614 1.89985 30.1016 2.84006 30.1016 3.99985ZM1.90156 30.9999C1.90156 19.8989 10.9006 10.8999 22.0016 10.8999C33.1025 10.8999 42.1016 19.8989 42.1016 30.9999C42.1016 42.1008 33.1025 51.0999 22.0016 51.0999C10.9006 51.0999 1.90156 42.1008 1.90156 30.9999Z" fill="#76BC21"/>
</svg>
