<svg width="24" height="24" viewBox="0 0 24 24" fill="none" xmlns="http://www.w3.org/2000/svg">
<path d="M2.81089 17.0252C2.60689 17.3582 2.37589 17.7482 2.19289 18.0572C2.11273 18.1975 2.08952 18.3632 2.12804 18.52C2.16656 18.6769 2.26389 18.813 2.39989 18.9002L6.50089 21.4322C6.572 21.4763 6.65116 21.5057 6.73377 21.5189C6.81638 21.532 6.90078 21.5286 6.98205 21.5087C7.06331 21.4889 7.13981 21.4531 7.20709 21.4034C7.27436 21.3537 7.33107 21.2911 7.37389 21.2192C7.53889 20.9432 7.74889 20.5862 7.97389 20.2052C9.59989 17.5352 11.2469 17.8622 14.1899 19.2632L18.2579 21.1952C18.3341 21.2317 18.4168 21.2525 18.5012 21.2564C18.5856 21.2602 18.67 21.2471 18.7492 21.2177C18.8284 21.1883 18.9009 21.1433 18.9623 21.0853C19.0238 21.0273 19.0729 20.9576 19.1069 20.8802L21.0599 16.4702C21.1262 16.3206 21.1321 16.1511 21.0761 15.9973C21.0202 15.8434 20.9069 15.7173 20.7599 15.6452C19.9019 15.2402 18.1949 14.4452 16.6649 13.6952C11.0999 11.0072 6.40489 11.1842 2.81089 17.0252Z" fill="url(#paint0_linear)"/>
<path d="M21.2004 7.00175C21.4074 6.66875 21.6384 6.27875 21.8184 5.96975C21.9019 5.82714 21.9258 5.65731 21.8848 5.49719C21.8438 5.33707 21.7412 5.19963 21.5994 5.11475L17.5044 2.58275C17.4333 2.53869 17.3541 2.50924 17.2715 2.4961C17.1889 2.48296 17.1045 2.48641 17.0232 2.50624C16.942 2.52606 16.8655 2.56187 16.7982 2.61158C16.7309 2.66129 16.6742 2.7239 16.6314 2.79575C16.4694 3.07175 16.2564 3.42875 16.0314 3.80975C14.3994 6.49175 12.7674 6.16475 9.82138 4.76375L5.75638 2.83175C5.6811 2.79478 5.59919 2.77322 5.51547 2.76833C5.43174 2.76343 5.34788 2.7753 5.2688 2.80325C5.18973 2.83119 5.11703 2.87464 5.05496 2.93105C4.9929 2.98746 4.94272 3.05569 4.90738 3.13175L2.95438 7.55375C2.88711 7.70371 2.8808 7.87395 2.93679 8.02847C2.99277 8.183 3.10667 8.30969 3.25438 8.38175C4.11538 8.78675 5.82238 9.58175 7.34938 10.3318C12.8994 13.0198 17.6094 12.8428 21.2004 7.00175Z" fill="url(#paint1_linear)"/>
<defs>
<linearGradient id="paint0_linear" x1="20.9369" y1="22.7432" x2="8.52889" y2="15.6122" gradientUnits="userSpaceOnUse">
<stop stop-color="#0052CC"/>
<stop offset="0.92" stop-color="#2380FB"/>
<stop offset="1" stop-color="#2684FF"/>
</linearGradient>
<linearGradient id="paint1_linear" x1="-262999" y1="-24811.1" x2="-262548" y2="-24293.1" gradientUnits="userSpaceOnUse">
<stop stop-color="#0052CC"/>
<stop offset="0.92" stop-color="#2380FB"/>
<stop offset="1" stop-color="#2684FF"/>
</linearGradient>
</defs>
</svg>
