<svg width="16" height="16" viewBox="0 0 16 16" fill="none" xmlns="http://www.w3.org/2000/svg">
<path d="M1.8736 11.35C1.7376 11.572 1.5836 11.832 1.4616 12.038C1.40816 12.1315 1.39269 12.242 1.41837 12.3466C1.44405 12.4512 1.50893 12.5419 1.5996 12.6L4.3336 14.288C4.38101 14.3174 4.43378 14.337 4.48886 14.3458C4.54393 14.3545 4.60019 14.3522 4.65437 14.339C4.70855 14.3258 4.75955 14.3019 4.8044 14.2688C4.84925 14.2357 4.88705 14.1939 4.9156 14.146C5.0256 13.962 5.1656 13.724 5.3156 13.47C6.3996 11.69 7.4976 11.908 9.4596 12.842L12.1716 14.13C12.2224 14.1543 12.2776 14.1682 12.3338 14.1708C12.3901 14.1734 12.4463 14.1646 12.4991 14.145C12.5519 14.1254 12.6002 14.0954 12.6412 14.0567C12.6822 14.0181 12.715 13.9716 12.7376 13.92L14.0396 10.98C14.0838 10.8803 14.0877 10.7673 14.0504 10.6647C14.0131 10.5622 13.9376 10.4781 13.8396 10.43C13.2676 10.16 12.1296 9.63002 11.1096 9.13002C7.3996 7.33802 4.2696 7.45602 1.8736 11.35Z" fill="url(#paint0_linear)"/>
<path d="M14.1336 4.66792C14.2716 4.44592 14.4256 4.18591 14.5456 3.97992C14.6013 3.88484 14.6172 3.77162 14.5899 3.66488C14.5625 3.55813 14.4941 3.4665 14.3996 3.40991L11.6696 1.72191C11.6222 1.69254 11.5694 1.67291 11.5143 1.66415C11.4593 1.65539 11.403 1.65769 11.3488 1.6709C11.2946 1.68412 11.2436 1.708 11.1988 1.74114C11.1539 1.77427 11.1161 1.81601 11.0876 1.86391C10.9796 2.04791 10.8376 2.28591 10.6876 2.53991C9.59959 4.32791 8.51159 4.10992 6.54759 3.17591L3.83759 1.88791C3.7874 1.86327 3.73279 1.8489 3.67698 1.84563C3.62116 1.84237 3.56525 1.85028 3.51254 1.86891C3.45982 1.88754 3.41135 1.91651 3.36998 1.95411C3.3286 1.99172 3.29515 2.03721 3.27159 2.08791L1.96959 5.03592C1.92474 5.13589 1.92053 5.24938 1.95786 5.3524C1.99518 5.45541 2.07111 5.53987 2.16959 5.58792C2.74359 5.85792 3.88159 6.38792 4.89959 6.88792C8.59959 8.67992 11.7396 8.56192 14.1336 4.66792Z" fill="url(#paint1_linear)"/>
<g style="mix-blend-mode:color">
<rect width="16" height="16" fill="rgba(243, 243, 243, 1)"/>
</g>
<defs>
<linearGradient id="paint0_linear" x1="13.9576" y1="15.162" x2="5.6856" y2="10.408" gradientUnits="userSpaceOnUse">
<stop stop-color="#0052CC"/>
<stop offset="0.92" stop-color="#2380FB"/>
<stop offset="1" stop-color="#2684FF"/>
</linearGradient>
<linearGradient id="paint1_linear" x1="-175333" y1="-16540.7" x2="-175032" y2="-16195.4" gradientUnits="userSpaceOnUse">
<stop stop-color="#0052CC"/>
<stop offset="0.92" stop-color="#2380FB"/>
<stop offset="1" stop-color="#2684FF"/>
</linearGradient>
</defs>
</svg>
