<svg width="24" height="24" viewBox="0 0 24 24" fill="none" xmlns="http://www.w3.org/2000/svg">
<path d="M2.81089 17.025C2.60689 17.358 2.37589 17.748 2.19289 18.057C2.11273 18.1972 2.08952 18.3629 2.12804 18.5198C2.16656 18.6767 2.26389 18.8128 2.39989 18.9L6.50089 21.432C6.572 21.476 6.65116 21.5055 6.73377 21.5186C6.81638 21.5318 6.90078 21.5283 6.98205 21.5085C7.06331 21.4887 7.13981 21.4528 7.20709 21.4031C7.27436 21.3534 7.33107 21.2908 7.37389 21.219C7.53889 20.943 7.74889 20.586 7.97389 20.205C9.59989 17.535 11.2469 17.862 14.1899 19.263L18.2579 21.195C18.3341 21.2315 18.4168 21.2523 18.5012 21.2561C18.5856 21.26 18.67 21.2468 18.7492 21.2174C18.8284 21.188 18.9009 21.143 18.9623 21.085C19.0238 21.0271 19.0729 20.9573 19.1069 20.88L21.0599 16.47C21.1262 16.3203 21.1321 16.1508 21.0761 15.997C21.0202 15.8432 20.9069 15.717 20.7599 15.645C19.9019 15.24 18.1949 14.445 16.6649 13.695C11.0999 11.007 6.40489 11.184 2.81089 17.025Z" fill="url(#paint0_linear)"/>
<path d="M21.2004 7.00199C21.4074 6.66899 21.6384 6.27899 21.8184 5.96999C21.9019 5.82739 21.9258 5.65755 21.8848 5.49743C21.8438 5.33732 21.7412 5.19987 21.5994 5.11499L17.5044 2.58299C17.4333 2.53894 17.3541 2.50948 17.2715 2.49634C17.1889 2.48321 17.1045 2.48665 17.0232 2.50648C16.942 2.52631 16.8655 2.56212 16.7982 2.61183C16.7309 2.66153 16.6742 2.72414 16.6314 2.79599C16.4694 3.07199 16.2564 3.42899 16.0314 3.80999C14.3994 6.49199 12.7674 6.16499 9.82138 4.76399L5.75638 2.83199C5.6811 2.79503 5.59919 2.77347 5.51547 2.76857C5.43174 2.76368 5.34788 2.77555 5.2688 2.80349C5.18973 2.83143 5.11703 2.87488 5.05496 2.93129C4.9929 2.9877 4.94272 3.05594 4.90738 3.13199L2.95438 7.55399C2.88711 7.70395 2.8808 7.87419 2.93679 8.02872C2.99277 8.18324 3.10667 8.30993 3.25438 8.38199C4.11538 8.78699 5.82238 9.58199 7.34938 10.332C12.8994 13.02 17.6094 12.843 21.2004 7.00199Z" fill="url(#paint1_linear)"/>
<g style="mix-blend-mode:color">
<rect width="24" height="24" fill="rgba(243, 243, 243, 1)"/>
</g>
<defs>
<linearGradient id="paint0_linear" x1="20.9369" y1="22.743" x2="8.52889" y2="15.612" gradientUnits="userSpaceOnUse">
<stop stop-color="#0052CC"/>
<stop offset="0.92" stop-color="#2380FB"/>
<stop offset="1" stop-color="#2684FF"/>
</linearGradient>
<linearGradient id="paint1_linear" x1="-262999" y1="-24811.1" x2="-262548" y2="-24293.1" gradientUnits="userSpaceOnUse">
<stop stop-color="#0052CC"/>
<stop offset="0.92" stop-color="#2380FB"/>
<stop offset="1" stop-color="#2684FF"/>
</linearGradient>
</defs>
</svg>
