<svg width="24" height="24" viewBox="0 0 24 24" fill="none" xmlns="http://www.w3.org/2000/svg">
<path fill-rule="evenodd" clip-rule="evenodd" d="M11.0341 5.82169H13.0996C13.1994 5.82169 13.2804 5.74109 13.281 5.64134V3.80046C13.2804 3.70068 13.1994 3.62012 13.0996 3.62012H11.0341C10.9344 3.62012 10.8537 3.70084 10.8537 3.80046V5.64131C10.8537 5.74093 10.9345 5.82169 11.0341 5.82169ZM7.34377 8.44409H5.27824C5.17829 8.44354 5.09743 8.36268 5.09688 8.26273V6.4229C5.09743 6.32311 5.17848 6.24255 5.27824 6.24255H7.34377C7.44336 6.24255 7.52411 6.32328 7.52411 6.4229V8.26273C7.52411 8.36248 7.44352 8.44354 7.34377 8.44409ZM21.5637 9.42883C22.8131 9.42883 23.4056 9.87617 23.469 9.92657L23.6998 10.1089L23.6041 10.389C23.4514 10.7754 23.2162 11.1237 22.9149 11.4097C22.4615 11.8581 21.6393 12.3931 20.3022 12.3931H20.0866C19.5456 13.7614 18.8181 15.301 17.5969 16.6834C16.8664 17.51 16.0073 18.2132 15.0527 18.766C13.8942 19.4221 12.6342 19.8798 11.3247 20.1202C10.3827 20.2955 9.42636 20.3822 8.46821 20.3792C6.34727 20.3792 4.4762 19.9761 3.32454 19.2708C2.2968 18.6431 1.50684 17.6174 0.975861 16.2249C0.511588 14.9568 0.282809 13.6145 0.300788 12.2641C0.302982 11.8616 0.629679 11.5362 1.03229 11.5357H16.4462C16.6346 11.5286 17.5656 11.449 18.146 11.1256C17.6654 10.3659 17.5293 9.4772 17.753 8.53106C17.8715 8.03581 18.0732 7.5643 18.3495 7.13658L18.5702 6.81816L18.9057 7.01164L18.9057 7.01168C18.968 7.04844 20.3375 7.85655 20.5793 9.51345C20.9046 9.45856 21.2338 9.43027 21.5637 9.42883ZM4.52849 11.1305H2.46296C2.36334 11.1305 2.28262 11.0497 2.28262 10.9501V9.11029V9.10928C2.28262 9.00969 2.36334 8.92893 2.46296 8.92893H4.52849H4.52951C4.6291 8.92949 4.7094 9.01067 4.70884 9.11029V10.9502C4.70884 11.0497 4.62812 11.1305 4.52849 11.1305ZM5.27827 11.1305H7.3438C7.44342 11.1305 7.52415 11.0497 7.52415 10.9502V9.11029C7.5247 9.01067 7.4444 8.92949 7.34478 8.92893H7.34377H5.27824C5.17806 8.92893 5.09688 9.01011 5.09688 9.11029V10.9501C5.09747 11.0499 5.17848 11.1305 5.27827 11.1305ZM10.2848 11.1305H8.21924C8.11966 11.1305 8.0389 11.0497 8.03887 10.9501V9.11029V9.10928C8.03887 9.00969 8.11959 8.92893 8.21921 8.92893H10.2847H10.2858C10.3854 8.92949 10.4657 9.01067 10.4651 9.11029V10.9502C10.4651 11.0497 10.3844 11.1305 10.2848 11.1305ZM11.0341 11.1305H13.0996C13.1994 11.1305 13.2804 11.0499 13.281 10.9502V9.11029C13.281 9.01011 13.1998 8.92893 13.0996 8.92893H11.0341C10.9344 8.92893 10.8537 9.00969 10.8537 9.10928V9.11029V10.9501C10.8537 11.0497 10.9345 11.1305 11.0341 11.1305ZM8.21921 8.44409H10.2847C10.3845 8.44354 10.4651 8.36248 10.4651 8.26273V6.4229C10.4651 6.32328 10.3843 6.24255 10.2847 6.24255H8.21921C8.11959 6.24255 8.03887 6.32331 8.03887 6.4229V8.26273C8.03887 8.36248 8.11946 8.44354 8.21921 8.44409ZM13.0996 8.44409H11.0341C10.9343 8.44354 10.8537 8.36248 10.8537 8.26273V6.4229C10.8537 6.32331 10.9344 6.24255 11.0341 6.24255H13.0996C13.1994 6.24255 13.2804 6.32311 13.281 6.4229V8.26273C13.2804 8.36268 13.1995 8.44354 13.0996 8.44409ZM15.9777 11.1305H13.9122C13.8126 11.1305 13.7318 11.0497 13.7318 10.9501V9.11029V9.10928C13.7318 9.00969 13.8126 8.92893 13.9122 8.92893H15.9777C16.0779 8.92893 16.1591 9.01011 16.1591 9.11029V10.9502C16.1585 11.0499 16.0775 11.1305 15.9777 11.1305Z" fill="#0091E2"/>
</svg>
