<svg width="24" height="24" viewBox="0 0 24 24" fill="none" xmlns="http://www.w3.org/2000/svg">
<path d="M22.7092 10.6226C22.6739 10.2298 22.6059 9.77663 22.475 9.2756C22.3441 8.77708 22.1502 8.23073 21.8708 7.66172C21.5862 7.09774 21.2161 6.50858 20.7378 5.93957C20.5514 5.71549 20.3475 5.49645 20.1259 5.27992C20.4558 3.97069 19.7256 2.8377 19.7256 2.8377C18.4667 2.75965 17.6661 3.22795 17.369 3.44448C17.3187 3.42434 17.2708 3.40168 17.2205 3.38154C17.0065 3.29341 16.7849 3.21285 16.5583 3.14235C16.3317 3.07185 16.1001 3.00639 15.8634 2.94848C15.6267 2.89309 15.385 2.84525 15.1408 2.80749C15.098 2.79993 15.0552 2.7949 15.0124 2.78986C14.4635 1.03247 12.8849 0.299805 12.8849 0.299805C11.1275 1.41517 10.7926 2.97618 10.7926 2.97618C10.7926 2.97618 10.7851 3.01143 10.775 3.06933C10.6768 3.09703 10.5811 3.12472 10.483 3.15494C10.347 3.19522 10.2161 3.24558 10.0801 3.29341C9.94667 3.34629 9.81323 3.39664 9.67979 3.45455C9.41543 3.56785 9.15106 3.69625 8.89425 3.83977C8.64499 3.98076 8.40077 4.13434 8.16158 4.30052C8.12634 4.28541 8.10116 4.27282 8.10116 4.27282C5.66649 3.34377 3.50374 4.46165 3.50374 4.46165C3.30736 7.05242 4.47559 8.68392 4.70723 8.9785C4.64932 9.13964 4.59645 9.30077 4.54609 9.46443C4.36481 10.0511 4.23137 10.6528 4.14829 11.2772C4.1357 11.3653 4.12563 11.456 4.11556 11.5466C1.8672 12.6569 1.2 14.9355 1.2 14.9355C3.07824 17.0957 5.26617 17.2292 5.26617 17.2292C5.26869 17.2267 5.2712 17.2267 5.2712 17.2241C5.55067 17.7201 5.87295 18.1935 6.23299 18.6341C6.38405 18.8179 6.54519 18.9966 6.70884 19.1679C6.02401 21.1241 6.80452 22.7556 6.80452 22.7556C8.89425 22.8337 10.2689 21.8417 10.556 21.6126C10.7649 21.6831 10.9739 21.746 11.1879 21.8014C11.83 21.9676 12.4871 22.0633 13.1442 22.0935C13.3079 22.101 13.4715 22.1035 13.6377 22.1035H13.7183L13.7711 22.101L13.8744 22.0985L13.9776 22.0935L13.9801 22.096C14.9646 23.5009 16.6968 23.6998 16.6968 23.6998C17.9279 22.4006 17.9984 21.1141 17.9984 20.8346C17.9984 20.8346 17.9984 20.8245 17.9984 20.817C17.9984 20.7943 17.9984 20.7767 17.9984 20.7767C17.9984 20.7566 17.9959 20.7389 17.9959 20.7163C18.2553 20.535 18.502 20.3411 18.7336 20.1321C19.2271 19.6865 19.6576 19.1779 20.0152 18.6316C20.0479 18.5812 20.0806 18.5283 20.1134 18.4755C21.5082 18.556 22.4901 17.6119 22.4901 17.6119C22.2585 16.1591 21.4301 15.4516 21.2589 15.3157C21.2589 15.3157 21.2514 15.3107 21.2413 15.3031C21.2312 15.2955 21.2262 15.2905 21.2262 15.2905C21.2161 15.2855 21.2061 15.2779 21.196 15.2704C21.2035 15.1822 21.2111 15.0966 21.2161 15.0085C21.2262 14.8524 21.2312 14.6963 21.2312 14.5402V14.4244V14.3665V14.3363C21.2312 14.296 21.2312 14.3111 21.2312 14.296L21.2262 14.1978L21.2187 14.0669C21.2161 14.0216 21.2136 13.9813 21.2086 13.941C21.2061 13.9007 21.201 13.8604 21.196 13.8201L21.1809 13.6993L21.1633 13.5784C21.1406 13.4198 21.1079 13.2612 21.0726 13.1026C20.9266 12.4757 20.6824 11.8815 20.3601 11.3477C20.0378 10.8139 19.635 10.3406 19.1843 9.9428C18.7311 9.54248 18.225 9.22272 17.6938 8.98354C17.1626 8.74435 16.6036 8.59077 16.0472 8.52027C15.7702 8.48502 15.4908 8.46991 15.2163 8.47243L15.1131 8.47495H15.0879C15.0804 8.47495 15.0502 8.47495 15.0527 8.47495L15.0099 8.47747L14.9092 8.48502C14.8714 8.48754 14.8311 8.49006 14.7959 8.49509C14.6549 8.50768 14.5139 8.52782 14.3779 8.55552C13.8265 8.65875 13.3054 8.85765 12.8446 9.13208C12.3864 9.40652 11.9861 9.75145 11.6613 10.1392C11.3365 10.5294 11.0847 10.96 10.911 11.4056C10.7372 11.8513 10.6416 12.312 10.6139 12.7602C10.6063 12.8709 10.6038 12.9842 10.6063 13.0925C10.6063 13.1202 10.6063 13.1479 10.6088 13.1756L10.6114 13.2662C10.6164 13.3191 10.6189 13.3745 10.6239 13.4274C10.6466 13.654 10.6869 13.8705 10.7473 14.082C10.8682 14.4999 11.062 14.8801 11.3037 15.2024C11.5429 15.5247 11.83 15.7915 12.1346 16.0005C12.4392 16.2095 12.764 16.358 13.0863 16.4512C13.4086 16.5469 13.7283 16.5872 14.0305 16.5872C14.0682 16.5872 14.106 16.5872 14.1438 16.5846C14.1639 16.5846 14.1841 16.5821 14.2042 16.5821C14.2243 16.5821 14.2445 16.5796 14.2646 16.5796C14.2973 16.5771 14.3276 16.572 14.3603 16.5695C14.3678 16.5695 14.3779 16.567 14.388 16.567L14.4182 16.562C14.4383 16.5595 14.456 16.5569 14.4761 16.5544C14.5164 16.5494 14.5491 16.5418 14.5869 16.5343C14.6221 16.5267 14.6574 16.5217 14.6926 16.5116C14.7631 16.4965 14.8286 16.4764 14.8941 16.4537C15.025 16.4109 15.1483 16.358 15.2642 16.3001C15.38 16.2397 15.4857 16.1742 15.5839 16.1063C15.6116 16.0861 15.6393 16.066 15.667 16.0433C15.7728 15.9602 15.7904 15.8066 15.7048 15.7034C15.6318 15.6128 15.5034 15.5901 15.4026 15.6455C15.3775 15.6581 15.3523 15.6732 15.3271 15.6858C15.239 15.7286 15.1483 15.7664 15.0502 15.7991C14.952 15.8293 14.8513 15.8545 14.7455 15.8746C14.6926 15.8822 14.6398 15.8897 14.5844 15.8948C14.5567 15.8973 14.529 15.8998 14.5038 15.8998C14.4761 15.8998 14.4484 15.9023 14.4232 15.9023C14.3981 15.9023 14.3704 15.9023 14.3452 15.8998C14.3125 15.8973 14.2797 15.8973 14.247 15.8948C14.247 15.8948 14.2294 15.8948 14.2445 15.8948H14.2344L14.2117 15.8923C14.1966 15.8897 14.1815 15.8897 14.1689 15.8872C14.1387 15.8847 14.111 15.8797 14.0808 15.8771C13.8442 15.8444 13.605 15.7764 13.3759 15.6707C13.1442 15.5675 12.9227 15.4214 12.7238 15.2427C12.5249 15.0639 12.3511 14.8474 12.2152 14.6032C12.0792 14.3589 11.9835 14.0895 11.9382 13.805C11.9156 13.664 11.9055 13.5155 11.9105 13.372C11.913 13.3317 11.913 13.2939 11.9156 13.2536C11.9156 13.2637 11.9156 13.2486 11.9156 13.2461V13.231L11.9181 13.2008C11.9206 13.1806 11.9206 13.163 11.9231 13.1429C11.9307 13.0648 11.9433 12.9868 11.9558 12.9087C12.0641 12.2893 12.3738 11.6851 12.8547 11.2269C12.9755 11.1136 13.1039 11.0053 13.2424 10.9121C13.3809 10.8165 13.5269 10.7334 13.678 10.6629C13.8316 10.5924 13.9902 10.5345 14.1538 10.4917C14.3175 10.4489 14.4862 10.4187 14.6549 10.4036C14.7405 10.396 14.8261 10.3935 14.9117 10.3935C14.9343 10.3935 14.952 10.3935 14.9696 10.3935L15.0401 10.396L15.0829 10.3985C15.1005 10.3985 15.0829 10.3985 15.0904 10.3985H15.1081L15.1786 10.4036C15.3624 10.4187 15.5462 10.4438 15.7274 10.4866C16.09 10.5672 16.4425 10.7006 16.7723 10.8819C17.4294 11.247 17.9909 11.816 18.3333 12.5034C18.507 12.8458 18.6279 13.2134 18.6883 13.5935C18.7034 13.6892 18.7135 13.7849 18.721 13.8806L18.7261 13.9536L18.7286 14.0266C18.7311 14.0518 18.7311 14.0744 18.7311 14.0996C18.7311 14.1248 18.7336 14.15 18.7311 14.1676V14.2305L18.7286 14.301C18.7261 14.3489 18.7236 14.4244 18.721 14.4722C18.7135 14.578 18.7034 14.6812 18.6908 14.787C18.6782 14.8902 18.6606 14.9934 18.643 15.0966C18.6228 15.1999 18.6002 15.3006 18.575 15.4013C18.5247 15.6027 18.4592 15.8041 18.3811 15.998C18.2276 16.3883 18.0211 16.7584 17.7744 17.1008C17.2784 17.7831 16.6011 18.3395 15.8307 18.692C15.4454 18.8657 15.0376 18.9941 14.6221 19.0621C14.4132 19.0974 14.2017 19.1175 13.9902 19.125L13.9499 19.1276H13.9172H13.8492H13.746H13.6931C13.7208 19.1276 13.6881 19.1276 13.6906 19.1276H13.6704C13.5571 19.125 13.4438 19.12 13.3305 19.1099C12.8773 19.0772 12.4317 18.9966 11.9986 18.8708C11.5656 18.7449 11.1451 18.5762 10.7473 18.3647C9.95171 17.9392 9.2417 17.3576 8.68528 16.6551C8.40581 16.3052 8.16158 15.93 7.96016 15.5347C7.75874 15.1394 7.60013 14.724 7.48179 14.301C7.36597 13.8755 7.29296 13.4425 7.26526 13.0044L7.26023 12.9213L7.25771 12.9012V12.8835V12.8483L7.25519 12.7753V12.7576V12.7325V12.6821L7.25268 12.5814V12.5613C7.25268 12.5638 7.25268 12.5638 7.25268 12.5537V12.5134C7.25268 12.4606 7.25519 12.4077 7.25519 12.3523C7.26275 12.1358 7.28037 11.9142 7.31058 11.6926C7.33828 11.4711 7.37605 11.247 7.42136 11.0254C7.46668 10.8039 7.52208 10.5848 7.5825 10.3708C7.70587 9.94028 7.85945 9.52234 8.04325 9.12705C8.40832 8.33647 8.8867 7.63906 9.46326 7.08011C9.60678 6.93912 9.75532 6.80568 9.91142 6.68231C10.065 6.55894 10.2261 6.44312 10.3923 6.33486C10.556 6.2266 10.7272 6.12589 10.9034 6.03525C10.989 5.98741 11.0797 5.94713 11.1678 5.90432C11.2131 5.88418 11.2584 5.86404 11.3037 5.8439C11.3491 5.82376 11.3944 5.80361 11.4397 5.78599C11.621 5.70794 11.8098 5.645 11.9986 5.58457C12.0465 5.56946 12.0943 5.55687 12.1422 5.54177C12.19 5.52666 12.2378 5.51659 12.2857 5.50148C12.3813 5.47379 12.4795 5.45113 12.5752 5.42847C12.623 5.41588 12.6734 5.40581 12.7212 5.39574C12.7691 5.38567 12.8194 5.3756 12.8673 5.36553C12.9176 5.35545 12.9655 5.3479 13.0158 5.33783L13.0888 5.32524L13.1618 5.31517C13.2122 5.30762 13.26 5.30006 13.3104 5.29251C13.3658 5.28244 13.4212 5.27992 13.4766 5.26985C13.5219 5.26481 13.5974 5.25474 13.6427 5.24971C13.678 5.24719 13.7132 5.24216 13.7485 5.23964L13.819 5.23208L13.8542 5.22957L13.8945 5.22705C13.9499 5.22453 14.0053 5.2195 14.0632 5.21698L14.1463 5.21194C14.1463 5.21194 14.1765 5.21194 14.1513 5.21194H14.1689L14.2042 5.20942C14.252 5.20691 14.2999 5.20439 14.3477 5.20187C14.5365 5.19684 14.7254 5.19684 14.9142 5.20187C15.2893 5.21698 15.6569 5.25726 16.0145 5.32524C16.7295 5.45868 17.4017 5.6878 18.011 5.98993C18.6203 6.28702 19.1667 6.65461 19.64 7.05242C19.6702 7.0776 19.6979 7.10278 19.7281 7.12795C19.7558 7.15313 19.7861 7.17831 19.8137 7.20349C19.8717 7.25384 19.927 7.30671 19.9824 7.35707C20.0378 7.40742 20.0907 7.4603 20.1436 7.51317C20.1964 7.56604 20.2493 7.61891 20.2972 7.67179C20.4986 7.8858 20.6849 8.09981 20.8511 8.31633C21.1884 8.74939 21.4578 9.18747 21.6718 9.60039C21.6844 9.62556 21.6995 9.65074 21.7121 9.67844C21.7247 9.70361 21.7373 9.72879 21.7499 9.75649C21.7751 9.80684 21.8003 9.8572 21.8229 9.90755C21.8456 9.95791 21.8708 10.0083 21.8909 10.0561C21.9136 10.1065 21.9337 10.1543 21.9538 10.2021C22.0344 10.396 22.1074 10.5798 22.1653 10.7535C22.2635 11.033 22.3365 11.2873 22.3919 11.5088C22.4146 11.597 22.4977 11.6549 22.5883 11.6473C22.6815 11.6398 22.7545 11.5617 22.757 11.4686C22.7419 11.2168 22.7369 10.9398 22.7092 10.6226Z" fill="url(#paint0_linear)"/>
<defs>
<linearGradient id="paint0_linear" x1="11.9696" y1="28.9573" x2="11.9696" y2="7.58256" gradientUnits="userSpaceOnUse">
<stop stop-color="#FFF100"/>
<stop offset="1" stop-color="#F05A28"/>
</linearGradient>
</defs>
</svg>
