<svg width="24" height="24" viewBox="0 0 24 24" fill="none" xmlns="http://www.w3.org/2000/svg">
<path fill-rule="evenodd" clip-rule="evenodd" d="M13.2527 3.9517C12.132 3.7772 10.9871 3.8387 9.89154 4.13226L9.56543 2.91519C10.8305 2.57622 12.1524 2.5052 13.4466 2.7067C14.7407 2.90819 15.9784 3.37776 17.0806 4.08532C18.1827 4.79288 19.1249 5.72283 19.8468 6.81561C20.5688 7.90839 21.0545 9.1399 21.2729 10.4313C21.4913 11.7226 21.4376 13.0454 21.1152 14.3148C20.7929 15.5842 20.2089 16.7723 19.4007 17.803C18.5926 18.8336 17.5781 19.6841 16.4222 20.3C15.2664 20.9159 13.9946 21.2836 12.6884 21.3795L12.5961 20.1229C13.7273 20.0398 14.8287 19.7214 15.8297 19.188C16.8308 18.6546 17.7093 17.9181 18.4092 17.0255C19.1091 16.1329 19.6148 15.104 19.894 14.0046C20.1732 12.9053 20.2197 11.7598 20.0306 10.6414C19.8414 9.52304 19.4208 8.45651 18.7955 7.51013C18.1703 6.56375 17.3544 5.75839 16.3999 5.14562C15.4454 4.53286 14.3735 4.1262 13.2527 3.9517Z" fill="url(#paint0_angular)"/>
<path fill-rule="evenodd" clip-rule="evenodd" d="M5.0181 7.8052C4.46721 8.72204 4.10229 9.73841 3.94419 10.7963C3.78609 11.8541 3.8379 12.9328 4.09667 13.9706C4.35543 15.0085 4.81608 15.9852 5.45231 16.845C6.08854 17.7048 6.8879 18.4309 7.80474 18.9818L7.15579 20.0618C6.09712 19.4257 5.17411 18.5873 4.43945 17.5945C3.7048 16.6017 3.17289 15.4739 2.8741 14.2755C2.5753 13.0771 2.51548 11.8316 2.69803 10.61C2.88059 9.38852 3.30195 8.21492 3.93807 7.15625L5.0181 7.8052Z" fill="url(#paint1_angular)"/>
<path fill-rule="evenodd" clip-rule="evenodd" d="M7.34643 10.6129C7.03853 11.6457 7.08295 12.7516 7.47268 13.7564C7.86242 14.7612 8.57532 15.6078 9.49912 16.1629L8.85017 17.2429C7.68669 16.5438 6.78881 15.4775 6.29796 14.212C5.8071 12.9465 5.75116 11.5537 6.13894 10.2529L7.34643 10.6129Z" fill="url(#paint2_angular)"/>
<path fill-rule="evenodd" clip-rule="evenodd" d="M12.9599 7.23961C11.8007 7.00587 10.596 7.20314 9.57189 7.79441L8.94189 6.70322C10.2317 5.95854 11.7489 5.71009 13.2089 6.00447C14.6689 6.29885 15.9713 7.11584 16.8718 8.30216C17.7722 9.48848 18.2089 10.9626 18.0998 12.448C17.9907 13.9333 17.3434 15.3278 16.2793 16.3699L15.3977 15.4697C16.2426 14.6423 16.7566 13.535 16.8432 12.3557C16.9298 11.1763 16.5831 10.0059 15.8681 9.06396C15.1532 8.12203 14.1191 7.47335 12.9599 7.23961Z" fill="url(#paint3_angular)"/>
<path fill-rule="evenodd" clip-rule="evenodd" d="M7.24307 5.98396C7.24307 6.0971 7.22918 6.20699 7.20302 6.31203L10.5482 9.6571C10.8114 9.49401 11.1005 9.37624 11.4035 9.30906C11.7569 9.23072 12.1223 9.22274 12.4787 9.2856C12.8352 9.34846 13.1758 9.48091 13.4811 9.6754C13.7864 9.86989 14.0504 10.1226 14.258 10.4191C14.4656 10.7156 14.6128 11.0501 14.6911 11.4035C14.7695 11.7569 14.7775 12.1223 14.7146 12.4788C14.6518 12.8352 14.5193 13.1758 14.3248 13.4811C14.1303 13.7864 13.8776 14.0504 13.5811 14.258C13.2939 14.4591 12.9711 14.6035 12.6301 14.6836V19.5773C13.0601 19.8039 13.3532 20.2553 13.3532 20.7752C13.3532 21.5224 12.7474 22.1283 12.0001 22.1283C11.2528 22.1283 10.647 21.5224 10.647 20.7752C10.647 20.2553 10.9401 19.804 11.3701 19.5774V14.6835C11.0686 14.6128 10.7809 14.4916 10.5191 14.3248C10.2138 14.1303 9.94981 13.8776 9.74219 13.5811C9.53457 13.2846 9.38738 12.9501 9.30904 12.5967C9.23069 12.2433 9.22272 11.878 9.28558 11.5215C9.34646 11.1762 9.47262 10.8458 9.65721 10.548L6.36166 7.25258C6.21479 7.30721 6.05587 7.33706 5.88997 7.33706C5.14267 7.33706 4.53687 6.73126 4.53687 5.98396C4.53687 5.23666 5.14267 4.63086 5.88997 4.63086C6.63726 4.63086 7.24307 5.23666 7.24307 5.98396ZM12.2599 10.5265C12.0664 10.4923 11.8681 10.4967 11.6762 10.5392C11.4844 10.5817 11.3028 10.6616 11.1418 10.7743C10.9808 10.8871 10.8436 11.0304 10.738 11.1961C10.6325 11.3618 10.5606 11.5467 10.5264 11.7403C10.4923 11.9338 10.4966 12.1321 10.5392 12.324C10.5817 12.5158 10.6616 12.6974 10.7743 12.8584C10.887 13.0194 11.0303 13.1566 11.1961 13.2622C11.3618 13.3677 11.5467 13.4397 11.7402 13.4738C11.9338 13.5079 12.1321 13.5036 12.324 13.461C12.5158 13.4185 12.6974 13.3386 12.8584 13.2259C13.0194 13.1132 13.1566 12.9699 13.2621 12.8041C13.3677 12.6384 13.4396 12.4535 13.4738 12.26C13.5079 12.0664 13.5035 11.8681 13.461 11.6762C13.4185 11.4844 13.3386 11.3028 13.2259 11.1418C13.1132 10.9809 12.9698 10.8437 12.8041 10.7381C12.6384 10.6325 12.4535 10.5606 12.2599 10.5265Z" fill="#061F80"/>
<defs>
<radialGradient id="paint0_angular" cx="0" cy="0" r="1" gradientUnits="userSpaceOnUse" gradientTransform="translate(11.9996 11.9997) rotate(-101.985) scale(8.97053)">
<stop offset="0.00017802" stop-color="#007CE9"/>
<stop offset="0.260762" stop-color="#0076EE"/>
<stop offset="0.525806" stop-color="#F3F5F5"/>
</radialGradient>
<radialGradient id="paint1_angular" cx="0" cy="0" r="1" gradientUnits="userSpaceOnUse" gradientTransform="translate(11.9997 12.0002) rotate(119.048) scale(9.5752)">
<stop offset="0.120812" stop-color="#47BED3"/>
<stop offset="0.252478" stop-color="#F5F5F5"/>
<stop offset="0.995249" stop-color="#00ACC1"/>
</radialGradient>
<radialGradient id="paint2_angular" cx="0" cy="0" r="1" gradientUnits="userSpaceOnUse" gradientTransform="translate(12.0003 12.0003) rotate(119.048) scale(5.98651)">
<stop stop-color="#F3F5F5"/>
<stop offset="0.0989583" stop-color="#2FB1D3"/>
<stop offset="0.213542" stop-color="#0098D2"/>
</radialGradient>
<radialGradient id="paint3_angular" cx="0" cy="0" r="1" gradientUnits="userSpaceOnUse" gradientTransform="translate(12 12) rotate(45.9613) scale(5.98721)">
<stop stop-color="#008EDB"/>
<stop offset="0.543083" stop-color="#EAF0F4"/>
<stop offset="0.744792" stop-color="#007BEA"/>
</radialGradient>
</defs>
</svg>
