<svg width="16" height="16" viewBox="0 0 16 16" fill="none" xmlns="http://www.w3.org/2000/svg">
<path d="M14.836 7.60003L8.59998 1.38003L7.99998 0.780029L3.31598 5.46403L1.17198 7.60003C1.1187 7.65316 1.07643 7.71629 1.04759 7.78578C1.01875 7.85528 1.00391 7.92979 1.00391 8.00503C1.00391 8.08027 1.01875 8.15478 1.04759 8.22427C1.07643 8.29377 1.1187 8.35689 1.17198 8.41003L5.45598 12.702L7.99998 15.25L12.694 10.562L12.766 10.49L14.836 8.41803C14.8905 8.36476 14.9338 8.30114 14.9633 8.2309C14.9929 8.16066 15.0081 8.08523 15.0081 8.00903C15.0081 7.93283 14.9929 7.85739 14.9633 7.78716C14.9338 7.71692 14.8905 7.6533 14.836 7.60003ZM7.99998 10.154L5.85998 8.01403L7.99998 5.87403L10.14 8.01403L7.99998 10.154Z" fill="#2684FF"/>
<path d="M8.00059 5.87405C7.3307 5.19963 6.95473 4.28763 6.95473 3.33705C6.95473 2.38647 7.3307 1.47447 8.00059 0.800049L3.30859 5.47405L5.85659 8.02205L8.00059 5.87405Z" fill="url(#paint0_linear)"/>
<path d="M10.15 8L8 10.154C8.33502 10.4884 8.6008 10.8855 8.78215 11.3228C8.96349 11.76 9.05683 12.2287 9.05683 12.702C9.05683 13.1753 8.96349 13.644 8.78215 14.0812C8.6008 14.5185 8.33502 14.9156 8 15.25L12.7 10.556L10.15 8Z" fill="url(#paint1_linear)"/>
<g style="mix-blend-mode:color">
<rect width="16" height="16" fill="rgba(243, 243, 243, 1)"/>
</g>
<defs>
<linearGradient id="paint0_linear" x1="7.62259" y1="3.70805" x2="4.63459" y2="6.69605" gradientUnits="userSpaceOnUse">
<stop offset="0.18" stop-color="#0052CC"/>
<stop offset="1" stop-color="#2684FF"/>
</linearGradient>
<linearGradient id="paint1_linear" x1="205.729" y1="453.657" x2="304.438" y2="389.624" gradientUnits="userSpaceOnUse">
<stop offset="0.18" stop-color="#0052CC"/>
<stop offset="1" stop-color="#2684FF"/>
</linearGradient>
</defs>
</svg>
