<svg width="24" height="24" viewBox="0 0 24 24" fill="none" xmlns="http://www.w3.org/2000/svg">
<path d="M21.653 5.63029C21.5192 5.20215 21.1981 4.85428 20.7967 4.64021L12.6352 0.733404C12.4212 0.626368 12.1803 0.599609 11.9663 0.599609C11.7522 0.599609 11.5114 0.599609 11.2973 0.653127L3.13581 4.58669C2.73443 4.774 2.44008 5.12187 2.33304 5.57677L0.326122 14.3805C0.245845 14.8354 0.352881 15.2903 0.62047 15.6649L6.26661 22.649C6.58771 22.9701 7.04261 23.1841 7.49752 23.2109H16.4885C16.9702 23.2644 17.4251 23.0504 17.7194 22.649L23.3656 15.6649C23.6332 15.2903 23.7402 14.8354 23.6867 14.3805L21.653 5.63029Z" fill="#326DE6"/>
<path d="M20.3955 14.0329C20.3687 14.0329 20.342 14.0329 20.342 14.0062C20.342 13.9794 20.2884 13.9794 20.2349 13.9794C20.1279 13.9526 20.0209 13.9526 19.9138 13.9526C19.8603 13.9526 19.8068 13.9526 19.7533 13.9259H19.7265C19.4322 13.8991 19.111 13.8456 18.8167 13.7653C18.7364 13.7386 18.6561 13.6583 18.6294 13.578C18.6561 13.578 18.6294 13.578 18.6294 13.578L18.4153 13.5245C18.5224 12.7485 18.4688 11.9457 18.3083 11.1697C18.121 10.3937 17.7999 9.64445 17.3717 8.97547L17.5323 8.81492V8.78816C17.5323 8.70788 17.559 8.60085 17.6125 8.54733C17.8534 8.33326 18.0942 8.17271 18.3618 8.01215C18.4153 7.98539 18.4688 7.95863 18.5224 7.93188C18.6294 7.87836 18.7097 7.82484 18.8167 7.77132C18.8435 7.74456 18.8702 7.74456 18.897 7.7178C18.9237 7.69105 18.897 7.69105 18.897 7.66429C19.1378 7.47697 19.1913 7.15587 19.004 6.91504C18.9237 6.808 18.7632 6.72772 18.6294 6.72772C18.4956 6.72772 18.3618 6.78124 18.2548 6.86152L18.228 6.88828C18.2012 6.91504 18.1745 6.9418 18.1477 6.9418C18.0674 7.02207 17.9872 7.10235 17.9337 7.18263C17.9069 7.23614 17.8534 7.2629 17.8266 7.28966C17.6393 7.50373 17.3985 7.7178 17.1576 7.87836C17.1041 7.90512 17.0506 7.93188 16.9971 7.93188C16.9703 7.93188 16.9168 7.93188 16.8901 7.90512H16.8633L16.6492 8.03891C16.4352 7.82484 16.1943 7.61077 15.9803 7.3967C14.9902 6.62069 13.7593 6.13903 12.5016 6.00523L12.4748 5.79116V5.81792C12.3946 5.7644 12.3678 5.68413 12.341 5.60385C12.341 5.3095 12.341 5.01515 12.3946 4.69405V4.66729C12.3946 4.61377 12.4213 4.56025 12.4213 4.50673C12.4481 4.3997 12.4481 4.29266 12.4748 4.18563V4.02507C12.5016 3.75748 12.2875 3.48989 12.0199 3.46313C11.8594 3.43638 11.6988 3.51665 11.565 3.65045C11.458 3.75748 11.4045 3.89128 11.4045 4.02507V4.15887C11.4045 4.2659 11.4312 4.37294 11.458 4.47997C11.4848 4.53349 11.4848 4.58701 11.4848 4.64053V4.66729C11.5383 4.96164 11.5383 5.25598 11.5383 5.57709C11.5115 5.65737 11.4848 5.73764 11.4045 5.79116V5.84468L11.3777 6.05875C11.0834 6.08551 10.789 6.13903 10.4679 6.19255C9.21025 6.46013 8.05961 7.12911 7.17657 8.06567L7.01601 7.95863H6.98925C6.9625 7.95863 6.93574 7.98539 6.88222 7.98539C6.8287 7.98539 6.77518 7.95863 6.72166 7.93188C6.48083 7.74456 6.24 7.53049 6.05269 7.31642C6.02593 7.2629 5.97242 7.23614 5.94566 7.20938C5.86538 7.12911 5.81186 7.04883 5.73158 6.96855C5.70483 6.9418 5.67807 6.9418 5.65131 6.91504C5.62455 6.88828 5.62455 6.88828 5.62455 6.88828C5.51751 6.808 5.38372 6.75448 5.24992 6.75448C5.08937 6.75448 4.95558 6.808 4.8753 6.9418C4.71475 7.18263 4.76826 7.50373 4.98233 7.69105C5.00909 7.69105 5.00909 7.7178 5.00909 7.7178C5.00909 7.7178 5.06261 7.77132 5.08937 7.77132C5.16965 7.82484 5.27668 7.87836 5.38372 7.93188C5.43724 7.95863 5.49075 7.98539 5.54427 8.01215C5.81186 8.17271 6.07945 8.33326 6.29352 8.54733C6.34704 8.60085 6.40056 8.70788 6.3738 8.78816V8.7614L6.53435 8.92196C6.50759 8.97547 6.48083 9.00223 6.45408 9.05575C5.62455 10.3669 5.27668 11.919 5.51751 13.4442L5.30344 13.4977C5.30344 13.5245 5.27668 13.5245 5.27668 13.5245C5.24992 13.6048 5.16965 13.6583 5.08937 13.7118C4.79502 13.7921 4.50067 13.8456 4.17957 13.8724C4.12605 13.8724 4.07253 13.8724 4.01901 13.8991C3.91198 13.8991 3.80494 13.9259 3.69791 13.9259C3.67115 13.9259 3.64439 13.9526 3.59087 13.9526C3.56411 13.9526 3.56411 13.9526 3.53735 13.9794C3.243 14.0329 3.05569 14.3005 3.10921 14.5948C3.16273 14.8357 3.40356 14.9962 3.64439 14.9695C3.69791 14.9695 3.72467 14.9695 3.77818 14.9427C3.80494 14.9427 3.80494 14.9427 3.80494 14.916C3.80494 14.8892 3.88522 14.916 3.91198 14.916C4.01901 14.8892 4.12605 14.8357 4.20633 14.8089C4.25984 14.7822 4.31336 14.7554 4.36688 14.7554H4.39364C4.68799 14.6484 4.95558 14.5681 5.27668 14.5146H5.30344C5.38372 14.5146 5.464 14.5413 5.51751 14.5948C5.54427 14.5948 5.54427 14.6216 5.54427 14.6216L5.7851 14.5948C6.18649 15.8258 6.93574 16.9229 7.97933 17.7256C8.22017 17.913 8.43424 18.0735 8.70183 18.2073L8.56803 18.3946C8.56803 18.4214 8.59479 18.4214 8.59479 18.4214C8.64831 18.5017 8.64831 18.6087 8.62155 18.689C8.51451 18.9566 8.35396 19.2241 8.19341 19.465V19.4917C8.16665 19.5452 8.13989 19.572 8.08637 19.6255C8.03285 19.679 7.97933 19.7861 7.89906 19.8931C7.8723 19.9199 7.8723 19.9466 7.84554 19.9734C7.84554 19.9734 7.84554 20.0002 7.81878 20.0002C7.68499 20.2677 7.79202 20.5888 8.03285 20.7226C8.08637 20.7494 8.16665 20.7762 8.22016 20.7762C8.43424 20.7762 8.62155 20.6424 8.72858 20.4551C8.72858 20.4551 8.72858 20.4283 8.75534 20.4283C8.75534 20.4015 8.7821 20.3748 8.80886 20.348C8.83562 20.241 8.88914 20.1607 8.9159 20.0537L8.96942 19.8931C9.04969 19.5988 9.18349 19.3312 9.31728 19.0636C9.3708 18.9833 9.45108 18.9298 9.53135 18.903C9.55811 18.903 9.55811 18.903 9.55811 18.8763L9.66515 18.6622C10.4144 18.9566 11.1904 19.0903 11.9932 19.0903C12.4748 19.0903 12.9565 19.0368 13.4382 18.903C13.7325 18.8495 14.0269 18.7425 14.2944 18.6622L14.4015 18.8495C14.4282 18.8495 14.4282 18.8495 14.4282 18.8763C14.5085 18.903 14.5888 18.9566 14.6423 19.0368C14.7761 19.3044 14.9099 19.572 14.9902 19.8664V19.8931L15.0437 20.0537C15.0704 20.1607 15.0972 20.2677 15.1507 20.348C15.1775 20.3748 15.1775 20.4015 15.2042 20.4283C15.2042 20.4283 15.2042 20.4551 15.231 20.4551C15.338 20.6424 15.5254 20.7762 15.7394 20.7762C15.8197 20.7762 15.8732 20.7494 15.9535 20.7226C16.0605 20.6691 16.1676 20.5621 16.1943 20.4283C16.2211 20.2945 16.2211 20.1607 16.1676 20.0269C16.1676 20.0002 16.1408 20.0002 16.1408 20.0002C16.1408 19.9734 16.114 19.9466 16.0873 19.9199C16.0338 19.8128 15.9803 19.7326 15.9 19.6523C15.8732 19.5988 15.8465 19.572 15.7929 19.5185V19.465C15.6056 19.2241 15.4718 18.9566 15.3648 18.689C15.338 18.6087 15.338 18.5017 15.3916 18.4214C15.3916 18.3946 15.4183 18.3946 15.4183 18.3946L15.338 18.1805C16.7027 17.351 17.7463 16.0666 18.228 14.5413L18.4421 14.5681C18.4688 14.5681 18.4688 14.5413 18.4688 14.5413C18.5224 14.4878 18.6026 14.4611 18.6829 14.4611H18.7097C19.004 14.5146 19.2984 14.5948 19.566 14.7019H19.5927C19.6462 14.7286 19.6997 14.7554 19.7533 14.7554C19.8603 14.8089 19.9406 14.8624 20.0476 14.8892C20.0744 14.8892 20.1011 14.916 20.1546 14.916C20.1814 14.916 20.1814 14.916 20.2082 14.9427C20.2617 14.9695 20.2884 14.9695 20.342 14.9695C20.5828 14.9695 20.7969 14.8089 20.8771 14.5948C20.8504 14.3005 20.6363 14.0864 20.3955 14.0329ZM12.6621 13.2034L11.9397 13.5513L11.2172 13.2034L11.0299 12.4274L11.5383 11.7852H12.341L12.8495 12.4274L12.6621 13.2034ZM17.0239 11.4641C17.1576 12.026 17.1844 12.5879 17.1309 13.1499L14.5888 12.4274C14.348 12.3739 14.2142 12.133 14.2677 11.8922C14.2944 11.8119 14.3212 11.7584 14.3747 11.7049L16.3816 9.88528C16.676 10.3669 16.8901 10.9021 17.0239 11.4641ZM15.5789 8.8952L13.3846 10.4472C13.1973 10.5543 12.9297 10.5275 12.7959 10.3402C12.7424 10.2867 12.7157 10.2331 12.7157 10.1529L12.5551 7.45022C13.7325 7.58401 14.7761 8.09243 15.5789 8.8952ZM10.7355 7.53049L11.2707 7.42346L11.1369 10.0993C11.1369 10.3402 10.9228 10.5275 10.682 10.5275C10.6017 10.5275 10.5482 10.5007 10.4679 10.474L8.24692 8.8952C8.94266 8.22622 9.79894 7.74456 10.7355 7.53049ZM7.47091 9.88528L9.45108 11.6514C9.63839 11.8119 9.66515 12.0795 9.50459 12.2668C9.45108 12.3471 9.39756 12.3739 9.29052 12.4006L6.69491 13.1499C6.61463 12.026 6.88222 10.8754 7.47091 9.88528ZM7.01601 14.4075L9.66515 13.9526C9.87922 13.9526 10.0933 14.0864 10.12 14.3005C10.1468 14.3808 10.1468 14.4878 10.0933 14.5681L9.07645 17.0299C8.13989 16.4145 7.39064 15.4779 7.01601 14.4075ZM13.0903 17.7256C12.7157 17.8059 12.341 17.8594 11.9397 17.8594C11.3777 17.8594 10.789 17.7524 10.2538 17.5918L11.565 15.2103C11.6988 15.0498 11.9129 14.9962 12.1002 15.1033C12.1805 15.1568 12.234 15.2103 12.3143 15.2906L13.5987 17.6186C13.4382 17.6454 13.2776 17.6721 13.0903 17.7256ZM16.3549 15.3976C15.9535 16.0398 15.3916 16.6018 14.7493 17.0032L13.7057 14.4878C13.6522 14.2737 13.7593 14.0597 13.9466 13.9794C14.0269 13.9526 14.1071 13.9259 14.1874 13.9259L16.8633 14.3808C16.7295 14.7554 16.569 15.1033 16.3549 15.3976Z" fill="white"/>
</svg>
