<svg width="16" height="16" viewBox="0 0 16 16" fill="none" xmlns="http://www.w3.org/2000/svg">
<path d="M5.84053 0.0394287C4.9608 0.0394287 4.24773 0.754095 4.24773 1.63543C4.24752 1.84481 4.28856 2.05218 4.36849 2.2457C4.44842 2.43922 4.56569 2.61511 4.71359 2.76331C4.8615 2.91151 5.03714 3.02913 5.2305 3.10945C5.42387 3.18977 5.63115 3.23122 5.84053 3.23143H7.4336V1.63543C7.43395 1.21254 7.26632 0.806833 6.96757 0.507533C6.66882 0.208232 6.26342 0.0398529 5.84053 0.0394287ZM5.84053 4.29543H1.5928C0.713067 4.29543 0 5.01009 0 5.8917C0 6.77303 0.713067 7.48769 1.5928 7.48769H5.8408C6.72027 7.48769 7.4336 6.77303 7.4336 5.8917C7.4336 5.01009 6.72027 4.29543 5.84053 4.29543Z" fill="#36C5F0"/>
<path d="M15.9287 5.8917C15.9287 5.01009 15.2154 4.29543 14.3356 4.29543C13.4559 4.29543 12.7428 5.01009 12.7428 5.8917V7.48769H14.3356C14.7585 7.48727 15.1639 7.31889 15.4627 7.01959C15.7614 6.72029 15.9291 6.31458 15.9287 5.8917ZM11.681 5.8917V1.63543C11.6813 1.21254 11.5137 0.806833 11.215 0.507533C10.9162 0.208232 10.5108 0.0398529 10.0879 0.0394287C9.20818 0.0394287 8.49512 0.754095 8.49512 1.63543V5.89143C8.49512 6.77329 9.20818 7.48796 10.0879 7.48796C10.5108 7.48754 10.9162 7.31916 11.215 7.01986C11.5137 6.72056 11.6813 6.31485 11.681 5.89196" fill="#2EB67D"/>
<path d="M10.0879 16C10.5108 15.9996 10.9162 15.8312 11.215 15.5319C11.5137 15.2326 11.6813 14.8269 11.681 14.404C11.6813 13.9811 11.5137 13.5754 11.215 13.2761C10.9162 12.9768 10.5108 12.8084 10.0879 12.808H8.49512V14.404C8.49512 15.2854 9.20818 16 10.0879 16ZM10.0879 11.744H14.3359C15.2154 11.744 15.9287 11.0294 15.9287 10.1478C15.9291 9.72487 15.7614 9.31916 15.4627 9.01986C15.1639 8.72056 14.7585 8.55218 14.3357 8.55176H10.0879C9.20818 8.55176 8.49512 9.26642 8.49512 10.1478C8.49491 10.3571 8.53594 10.5645 8.61587 10.758C8.6958 10.9516 8.81307 11.1274 8.96098 11.2756C9.10888 11.4238 9.28453 11.5415 9.47789 11.6218C9.67125 11.7021 9.87854 11.7435 10.0879 11.7438" fill="#ECB22E"/>
<path d="M8.03688e-07 10.1478C-0.000209417 10.3571 0.0408228 10.5645 0.120755 10.758C0.200687 10.9516 0.317953 11.1274 0.465858 11.2756C0.613763 11.4238 0.789411 11.5415 0.982772 11.6218C1.17613 11.7021 1.38342 11.7435 1.5928 11.7438C2.01569 11.7433 2.42109 11.575 2.71984 11.2757C3.01859 10.9764 3.18622 10.5706 3.18587 10.1478V8.55176H1.5928C0.713067 8.55176 8.03688e-07 9.26642 8.03688e-07 10.1478ZM4.24773 10.1478V14.4038C4.24773 15.2854 4.9608 16 5.84053 16C6.26342 15.9996 6.66882 15.8312 6.96757 15.5319C7.26632 15.2326 7.43396 14.8269 7.4336 14.404V10.1478C7.43381 9.93836 7.39277 9.73096 7.31282 9.53742C7.23287 9.34388 7.11558 9.16799 6.96765 9.01978C6.81972 8.87158 6.64404 8.75396 6.45065 8.67366C6.25725 8.59336 6.04994 8.55193 5.84053 8.55176C4.9608 8.55176 4.24773 9.26642 4.24773 10.1478Z" fill="#E01E5A"/>
<g style="mix-blend-mode:color">
<rect width="16" height="16" fill="rgba(243, 243, 243, 1)"/>
</g>
</svg>
