<svg width="24" height="24" viewBox="0 0 24 24" fill="none" xmlns="http://www.w3.org/2000/svg">
<path d="M8.7608 0.0595703C7.4412 0.0595703 6.3716 1.13157 6.3716 2.45357C6.37128 2.76764 6.43283 3.0787 6.55273 3.36898C6.67263 3.65926 6.84853 3.92309 7.07039 4.14539C7.29224 4.36769 7.55571 4.54412 7.84576 4.6646C8.1358 4.78508 8.44673 4.84726 8.7608 4.84757H11.1504V2.45357C11.1509 1.81924 10.8995 1.21068 10.4514 0.761726C10.0032 0.312776 9.39513 0.0602065 8.7608 0.0595703ZM8.7608 6.44357H2.3892C1.0696 6.44357 0 7.51557 0 8.83797C0 10.16 1.0696 11.232 2.3892 11.232H8.7612C10.0804 11.232 11.1504 10.16 11.1504 8.83797C11.1504 7.51557 10.0804 6.44357 8.7608 6.44357Z" fill="#36C5F0"/>
<path d="M23.8936 8.83797C23.8936 7.51557 22.8236 6.44357 21.504 6.44357C20.1844 6.44357 19.1148 7.51557 19.1148 8.83797V11.232H21.504C22.1383 11.2313 22.7464 10.9788 23.1945 10.5298C23.6426 10.0809 23.8941 9.4723 23.8936 8.83797ZM17.522 8.83797V2.45357C17.5225 1.81924 17.271 1.21068 16.8229 0.761726C16.3748 0.312776 15.7667 0.0602065 15.1324 0.0595703C13.8128 0.0595703 12.7432 1.13157 12.7432 2.45357V8.83757C12.7432 10.1604 13.8128 11.2324 15.1324 11.2324C15.7667 11.2317 16.3748 10.9792 16.8229 10.5302C17.271 10.0813 17.5225 9.4727 17.522 8.83837" fill="#2EB67D"/>
<path d="M15.1324 24.0005C15.7667 23.9999 16.3748 23.7473 16.8229 23.2984C17.271 22.8494 17.5225 22.2409 17.522 21.6065C17.5225 20.9722 17.271 20.3636 16.8229 19.9147C16.3748 19.4657 15.7667 19.2132 15.1324 19.2125H12.7432V21.6065C12.7432 22.9285 13.8128 24.0005 15.1324 24.0005ZM15.1324 17.6165H21.5044C22.8236 17.6165 23.8936 16.5445 23.8936 15.2221C23.8941 14.5878 23.6426 13.9792 23.1945 13.5303C22.7464 13.0813 22.1383 12.8288 21.504 12.8281H15.1324C13.8128 12.8281 12.7432 13.9001 12.7432 15.2221C12.7428 15.5362 12.8044 15.8473 12.9243 16.1375C13.0442 16.4278 13.2201 16.6916 13.442 16.9139C13.6638 17.1362 13.9273 17.3127 14.2173 17.4332C14.5074 17.5536 14.8183 17.6158 15.1324 17.6161" fill="#ECB22E"/>
<path d="M1.20553e-06 15.2221C-0.000314125 15.5362 0.0612342 15.8473 0.181132 16.1375C0.30103 16.4278 0.476929 16.6916 0.698787 16.9139C0.920645 17.1362 1.18412 17.3127 1.47416 17.4332C1.7642 17.5536 2.07513 17.6158 2.3892 17.6161C3.02353 17.6155 3.63163 17.3629 4.07976 16.914C4.52788 16.465 4.77933 15.8565 4.7788 15.2221V12.8281H2.3892C1.0696 12.8281 1.20553e-06 13.9001 1.20553e-06 15.2221ZM6.3716 15.2221V21.6061C6.3716 22.9285 7.4412 24.0005 8.7608 24.0005C9.39513 23.9999 10.0032 23.7473 10.4514 23.2984C10.8995 22.8494 11.1509 22.2409 11.1504 21.6065V15.2221C11.1507 14.908 11.0892 14.5969 10.9692 14.3066C10.8493 14.0163 10.6734 13.7525 10.4515 13.5302C10.2296 13.3079 9.96606 13.1314 9.67597 13.011C9.38588 12.8905 9.07491 12.8284 8.7608 12.8281C7.4412 12.8281 6.3716 13.9001 6.3716 15.2221Z" fill="#E01E5A"/>
</svg>
