<svg width="17" height="17" viewBox="0 0 17 17" fill="none" xmlns="http://www.w3.org/2000/svg">
<path d="M7.94319 15.5654C3.73999 15.5654 0.320312 12.146 0.320312 7.94267C0.320312 3.73931 3.73999 0.319946 7.94319 0.319946C12.1464 0.319946 15.5661 3.73963 15.5661 7.94283C15.5661 12.146 12.1464 15.5654 7.94319 15.5654Z" fill="#85EA2D"/>
<path d="M8.00432 0.76304C12.0037 0.76304 15.2456 4.00496 15.2456 8.00432C15.2456 12.0035 12.0037 15.2456 8.00432 15.2456C4.00512 15.2456 0.76304 12.0035 0.76304 8.00432C0.76304 4.00512 4.00512 0.76304 8.00432 0.76304ZM8.00432 0C3.59072 0 0 3.59072 0 8.00432C0 12.4179 3.59072 16.0086 8.00432 16.0086C12.4179 16.0086 16.0088 12.4179 16.0088 8.00432C16.0088 3.59072 12.4179 0 8.00432 0Z" fill="#173647"/>
<path d="M5.10836 5.34309C5.08372 5.61701 5.11748 5.90021 5.09924 6.17717C5.07764 6.45429 5.04372 6.72821 4.98836 7.00213C4.9114 7.39301 4.6682 7.68853 4.33284 7.93477C4.98548 8.35957 5.05924 9.01813 5.10228 9.68613C5.12388 10.0463 5.1146 10.4095 5.15156 10.7665C5.17924 11.0434 5.28692 11.1143 5.57332 11.1234C5.69028 11.1265 5.81012 11.1234 5.9458 11.1234V11.9791C5.0994 12.1237 4.40068 11.8837 4.2282 11.1666C4.17268 10.905 4.13572 10.6372 4.12356 10.3663C4.105 10.0801 4.13572 9.79381 4.11428 9.50757C4.05268 8.72261 3.95108 8.45797 3.2002 8.42101V7.44533C3.25556 7.43301 3.30788 7.42373 3.36324 7.41765C3.77572 7.39605 3.95108 7.26981 4.04036 6.86357C4.08356 6.63589 4.1082 6.40501 4.11732 6.17109C4.1482 5.72485 4.13588 5.26933 4.21268 4.82613C4.32036 4.18901 4.71444 3.88117 5.37012 3.84421C5.55476 3.83493 5.7426 3.84421 5.95492 3.84421V4.71845C5.86564 4.72469 5.78868 4.73685 5.70868 4.73685C5.1762 4.71829 5.14836 4.89989 5.10836 5.34309ZM6.13332 7.36837H6.121C5.81316 7.35301 5.54852 7.59301 5.533 7.90085C5.51764 8.21173 5.75764 8.47653 6.06548 8.49173H6.10244C6.40724 8.51029 6.66867 8.27621 6.68724 7.97157V7.94085C6.69348 7.62997 6.4442 7.37461 6.13332 7.36837ZM8.06324 7.36837C7.76468 7.35909 7.51523 7.59301 7.50611 7.88853C7.50611 7.90709 7.50611 7.92245 7.50932 7.94085C7.50932 8.27637 7.737 8.49189 8.0818 8.49189C8.42036 8.49189 8.63284 8.27029 8.63284 7.92245C8.62964 7.58693 8.40484 7.36533 8.06324 7.36837ZM10.0394 7.36837C9.72547 7.36213 9.46372 7.61157 9.4546 7.92549C9.4546 8.23941 9.70692 8.49173 10.0208 8.49173H10.0271C10.3103 8.54101 10.5965 8.26709 10.6151 7.93781C10.6303 7.63301 10.3533 7.36837 10.0394 7.36837ZM12.7511 7.41445C12.394 7.39909 12.2154 7.27909 12.1263 6.94037C12.0708 6.72501 12.037 6.50021 12.0247 6.27861C12 5.86613 12.0031 5.45061 11.9754 5.03813C11.9108 4.05941 11.2029 3.71781 10.1748 3.88693V4.73653C10.3378 4.73653 10.464 4.73653 10.5903 4.73957C10.8088 4.74261 10.9751 4.82581 10.9965 5.06901C11.0181 5.29061 11.0181 5.51525 11.0397 5.74005C11.0829 6.18645 11.1074 6.63877 11.1844 7.07893C11.2522 7.44213 11.5015 7.71301 11.8122 7.93461C11.2676 8.30085 11.1074 8.82405 11.0797 9.41205C11.0644 9.81525 11.0551 10.2215 11.0336 10.6279C11.0151 10.9972 10.886 11.1172 10.5135 11.1265C10.4088 11.1295 10.3072 11.1388 10.1903 11.145V12.0161C10.4088 12.0161 10.6088 12.0284 10.8088 12.0161C11.4306 11.9791 11.8061 11.6775 11.9293 11.0741C11.9816 10.7417 12.0124 10.4063 12.0216 10.0708C12.0431 9.76293 12.0402 9.45205 12.0709 9.14741C12.117 8.67029 12.3356 8.47333 12.8127 8.44261C12.8589 8.43637 12.902 8.42725 12.9452 8.41189V7.43605C12.865 7.42677 12.8095 7.41765 12.7511 7.41445Z" fill="#173647"/>
<g style="mix-blend-mode:color">
<rect width="16" height="16" fill="rgba(243, 243, 243, 1)"/>
</g>
</svg>
