<svg width="25" height="25" viewBox="0 0 25 25" fill="none" xmlns="http://www.w3.org/2000/svg">
<path d="M11.9148 23.3481C5.60999 23.3481 0.480469 18.2191 0.480469 11.9141C0.480469 5.60902 5.60999 0.47998 11.9148 0.47998C18.2196 0.47998 23.3491 5.6095 23.3491 11.9143C23.3491 18.2191 18.2196 23.3481 11.9148 23.3481Z" fill="#85EA2D"/>
<path d="M12.0065 1.14456C18.0055 1.14456 22.8684 6.00744 22.8684 12.0065C22.8684 18.0053 18.0055 22.8684 12.0065 22.8684C6.00768 22.8684 1.14456 18.0053 1.14456 12.0065C1.14456 6.00768 6.00768 1.14456 12.0065 1.14456ZM12.0065 0C5.38608 0 0 5.38608 0 12.0065C0 18.6269 5.38608 24.013 12.0065 24.013C18.6269 24.013 24.0132 18.6269 24.0132 12.0065C24.0132 5.38608 18.6269 0 12.0065 0Z" fill="#173647"/>
<path d="M7.66204 8.01452C7.62508 8.4254 7.67572 8.8502 7.64836 9.26564C7.61596 9.68132 7.56508 10.0922 7.48204 10.5031C7.3666 11.0894 7.0018 11.5327 6.49876 11.902C7.47772 12.5392 7.58836 13.5271 7.65292 14.5291C7.68532 15.0693 7.6714 15.6141 7.72684 16.1496C7.76836 16.565 7.92988 16.6713 8.35948 16.685C8.53492 16.6896 8.71468 16.685 8.9182 16.685V17.9685C7.6486 18.1855 6.60052 17.8255 6.3418 16.7498C6.25852 16.3574 6.20308 15.9556 6.18484 15.5493C6.157 15.12 6.20308 14.6906 6.17092 14.2612C6.07852 13.0838 5.92612 12.6868 4.7998 12.6314V11.1679C4.88284 11.1494 4.96132 11.1355 5.04436 11.1264C5.66308 11.094 5.92612 10.9046 6.06004 10.2952C6.12484 9.95372 6.1618 9.6074 6.17548 9.25652C6.2218 8.58716 6.20332 7.90388 6.31852 7.23908C6.48004 6.2834 7.07116 5.82164 8.05468 5.7662C8.33164 5.75228 8.6134 5.7662 8.93188 5.7662V7.07756C8.79796 7.08692 8.68252 7.10516 8.56252 7.10516C7.7638 7.07732 7.72204 7.34972 7.66204 8.01452ZM9.19948 11.0524H9.181C8.71924 11.0294 8.32228 11.3894 8.299 11.8512C8.27596 12.3175 8.63596 12.7147 9.09772 12.7375H9.15316C9.61036 12.7653 10.0025 12.4142 10.0304 11.9572V11.9112C10.0397 11.4448 9.6658 11.0618 9.19948 11.0524ZM12.0944 11.0524C11.6465 11.0385 11.2724 11.3894 11.2587 11.8327C11.2587 11.8605 11.2587 11.8836 11.2635 11.9112C11.2635 12.4144 11.605 12.7377 12.1222 12.7377C12.63 12.7377 12.9488 12.4053 12.9488 11.8836C12.944 11.3803 12.6068 11.0479 12.0944 11.0524ZM15.0586 11.0524C14.5877 11.0431 14.1951 11.4172 14.1814 11.8881C14.1814 12.359 14.5599 12.7375 15.0308 12.7375H15.0401C15.4649 12.8114 15.8943 12.4005 15.9221 11.9066C15.9449 11.4494 15.5295 11.0524 15.0586 11.0524ZM19.1261 11.1216C18.5904 11.0985 18.3226 10.9185 18.1889 10.4104C18.1056 10.0874 18.055 9.7502 18.0365 9.4178C17.9996 8.79908 18.0041 8.1758 17.9626 7.55708C17.8656 6.089 16.8039 5.5766 15.2616 5.83028V7.10468C15.5062 7.10468 15.6956 7.10468 15.8849 7.10924C16.2128 7.1138 16.4621 7.2386 16.4943 7.6034C16.5267 7.9358 16.5267 8.27276 16.5591 8.60996C16.6239 9.27956 16.6606 9.95804 16.776 10.6183C16.8778 11.1631 17.2517 11.5694 17.7178 11.9018C16.9008 12.4512 16.6606 13.236 16.6191 14.118C16.596 14.7228 16.5821 15.3321 16.55 15.9417C16.5221 16.4956 16.3284 16.6756 15.7697 16.6896C15.6128 16.6941 15.4604 16.708 15.2849 16.7174V18.024C15.6128 18.024 15.9128 18.0424 16.2128 18.024C17.1454 17.9685 17.7087 17.5161 17.8935 16.6111C17.972 16.1124 18.018 15.6093 18.032 15.106C18.0641 14.6443 18.0598 14.178 18.1059 13.721C18.175 13.0053 18.5028 12.7099 19.2185 12.6638C19.2879 12.6544 19.3524 12.6408 19.4172 12.6177V11.154C19.297 11.14 19.2137 11.1264 19.1261 11.1216Z" fill="#173647"/>
<g style="mix-blend-mode:color">
<rect width="24" height="24" fill="rgba(243, 243, 243, 1)"/>
</g>
</svg>
