<svg width="264" height="264" viewBox="0 0 264 264" fill="none" xmlns="http://www.w3.org/2000/svg">
<path fill-rule="evenodd" clip-rule="evenodd" d="M99 57.75C57.9929 57.75 24.75 90.9929 24.75 132C24.75 173.007 57.9929 206.25 99 206.25C140.007 206.25 173.25 173.007 173.25 132C173.25 90.9929 140.007 57.75 99 57.75ZM8.25 132C8.25 81.8802 48.8802 41.25 99 41.25C149.12 41.25 189.75 81.8802 189.75 132C189.75 182.12 149.12 222.75 99 222.75C48.8802 222.75 8.25 182.12 8.25 132Z" fill="#76BC21"/>
<path fill-rule="evenodd" clip-rule="evenodd" d="M165 57.75C123.993 57.75 90.75 90.9929 90.75 132C90.75 173.007 123.993 206.25 165 206.25C206.007 206.25 239.25 173.007 239.25 132C239.25 90.9929 206.007 57.75 165 57.75ZM74.25 132C74.25 81.8802 114.88 41.25 165 41.25C215.12 41.25 255.75 81.8802 255.75 132C255.75 182.12 215.12 222.75 165 222.75C114.88 222.75 74.25 182.12 74.25 132Z" fill="#E31235"/>
<path d="M111.379 205.223C117.682 209.846 124.605 213.676 131.999 216.563C139.393 213.676 146.316 209.846 152.619 205.223C145.331 203.999 138.403 201.714 131.999 198.532C125.595 201.714 118.667 203.999 111.379 205.223Z" fill="#5D0101"/>
<path d="M131.999 65.468C125.595 62.2857 118.667 60.0007 111.379 58.7774C117.682 54.1536 124.605 50.3242 131.999 47.4365C139.393 50.3242 146.316 54.1536 152.619 58.7774C145.331 60.0007 138.403 62.2857 131.999 65.468Z" fill="#5D0101"/>
</svg>
