<svg width="349" height="73" viewBox="0 0 349 73" fill="none" xmlns="http://www.w3.org/2000/svg">
<path d="M22.254 11.4002L12.9 2.07017L12 1.17017L4.97396 8.19617L1.75797 11.4002C1.67805 11.4799 1.61465 11.5746 1.57139 11.6788C1.52813 11.783 1.50586 11.8948 1.50586 12.0077C1.50586 12.1205 1.52813 12.2323 1.57139 12.3365C1.61465 12.4408 1.67805 12.5355 1.75797 12.6152L8.18396 19.0532L12 22.8752L19.041 15.8432L19.149 15.7352L22.254 12.6272C22.3357 12.5473 22.4006 12.4518 22.445 12.3465C22.4893 12.2411 22.5121 12.128 22.5121 12.0137C22.5121 11.8994 22.4893 11.7862 22.445 11.6809C22.4006 11.5755 22.3357 11.4801 22.254 11.4002ZM12 15.2312L8.78996 12.0212L12 8.81117L15.21 12.0212L12 15.2312Z" fill="#2684FF"/>
<path d="M12.0009 8.81095C10.996 7.79932 10.4321 6.43132 10.4321 5.00545C10.4321 3.57958 10.996 2.21158 12.0009 1.19995L4.96289 8.21095L8.78489 12.033L12.0009 8.81095Z" fill="url(#paint0_linear)"/>
<path d="M15.225 12L12 15.231C12.5025 15.7326 12.9012 16.3283 13.1732 16.9841C13.4452 17.64 13.5853 18.343 13.5853 19.053C13.5853 19.763 13.4452 20.466 13.1732 21.1219C12.9012 21.7777 12.5025 22.3734 12 22.875L19.05 15.834L15.225 12Z" fill="url(#paint1_linear)"/>
<g style="mix-blend-mode:color">
<rect width="24" height="24" fill="#f3f3f3"/>
</g>
<path d="M38.552 4.95V13.842C38.552 16.2 37.346 16.74 36.284 16.74C34.988 16.74 33.908 15.786 33.908 13.968H32.198C32.198 16.794 33.746 18.234 36.284 18.234C38.84 18.234 40.388 16.704 40.388 13.86V4.95H38.552ZM44.8656 4.95H43.2276V6.93H44.8656V4.95ZM44.8656 8.316H43.2276V18H44.8656V8.316ZM52.288 10.026V8.28C52.108 8.262 51.964 8.262 51.802 8.262C50.542 8.298 49.552 8.91 49.066 10.008V8.316H47.464V18H49.102V12.924C49.102 10.8 49.858 9.954 51.37 9.954C51.64 9.954 51.946 9.99 52.288 10.026ZM52.9348 15.444C52.9348 17.226 54.4468 18.234 56.2648 18.234C57.9748 18.234 58.9828 17.658 59.5768 16.668C59.5948 17.244 59.6488 17.64 59.7028 18H61.3588C61.1788 17.082 61.0888 15.966 61.1068 14.346L61.1248 12.114C61.1428 9.396 59.9368 8.118 57.2728 8.118C55.3828 8.118 53.5468 9.288 53.3848 11.376H55.0768C55.1488 10.188 55.9408 9.45 57.2908 9.45C58.4968 9.45 59.4868 10.044 59.4868 11.808V12.042C55.5088 12.492 52.9348 13.158 52.9348 15.444ZM59.6128 13.338V13.95C59.6128 16.236 58.1548 16.938 56.6248 16.938C55.4548 16.938 54.7528 16.326 54.7528 15.408C54.7528 14.076 56.6428 13.644 59.6128 13.338Z" fill="black"/>
<path d="M77.8109 17.025C77.6069 17.358 77.3759 17.748 77.1929 18.057C77.1127 18.1972 77.0895 18.3629 77.128 18.5198C77.1666 18.6767 77.2639 18.8128 77.3999 18.9L81.5009 21.432C81.572 21.476 81.6512 21.5055 81.7338 21.5186C81.8164 21.5318 81.9008 21.5283 81.982 21.5085C82.0633 21.4887 82.1398 21.4528 82.2071 21.4031C82.2744 21.3534 82.3311 21.2908 82.3739 21.219C82.5389 20.943 82.7489 20.586 82.9739 20.205C84.5999 17.535 86.2469 17.862 89.1899 19.263L93.2579 21.195C93.3341 21.2315 93.4168 21.2523 93.5012 21.2561C93.5856 21.26 93.67 21.2468 93.7492 21.2174C93.8284 21.188 93.9009 21.143 93.9623 21.085C94.0238 21.0271 94.0729 20.9573 94.1069 20.88L96.0599 16.47C96.1262 16.3203 96.1321 16.1508 96.0761 15.997C96.0202 15.8432 95.9069 15.717 95.7599 15.645C94.9019 15.24 93.1949 14.445 91.6649 13.695C86.0999 11.007 81.4049 11.184 77.8109 17.025Z" fill="url(#paint2_linear)"/>
<path d="M96.2004 7.00199C96.4074 6.66899 96.6384 6.27899 96.8184 5.96999C96.9019 5.82739 96.9258 5.65755 96.8848 5.49743C96.8438 5.33732 96.7412 5.19987 96.5994 5.11499L92.5044 2.58299C92.4333 2.53894 92.3541 2.50948 92.2715 2.49634C92.1889 2.48321 92.1045 2.48665 92.0232 2.50648C91.942 2.52631 91.8655 2.56212 91.7982 2.61183C91.7309 2.66153 91.6742 2.72414 91.6314 2.79599C91.4694 3.07199 91.2564 3.42899 91.0314 3.80999C89.3994 6.49199 87.7674 6.16499 84.8214 4.76399L80.7564 2.83199C80.6811 2.79503 80.5992 2.77347 80.5155 2.76857C80.4317 2.76368 80.3479 2.77555 80.2688 2.80349C80.1897 2.83143 80.117 2.87488 80.055 2.93129C79.9929 2.9877 79.9427 3.05594 79.9074 3.13199L77.9544 7.55399C77.8871 7.70395 77.8808 7.87419 77.9368 8.02872C77.9928 8.18324 78.1067 8.30993 78.2544 8.38199C79.1154 8.78699 80.8224 9.58199 82.3494 10.332C87.8994 13.02 92.6094 12.843 96.2004 7.00199Z" fill="url(#paint3_linear)"/>
<g style="mix-blend-mode:color">
<rect x="75" width="24" height="24" fill="#f3f3f3"/>
</g>
<path d="M119.492 13.842H117.71C117.296 15.516 116.018 16.686 113.948 16.686C111.518 16.686 109.79 14.742 109.79 11.448C109.79 8.064 111.59 6.264 113.894 6.264C115.982 6.264 117.242 7.488 117.638 9.108H119.42C118.862 6.318 116.684 4.716 113.984 4.716C110.294 4.716 107.918 7.398 107.918 11.448C107.918 15.426 110.096 18.234 113.84 18.234C116.666 18.234 118.916 16.722 119.492 13.842ZM130.19 13.194C130.19 9.684 127.796 8.154 125.546 8.154C123.296 8.154 120.902 9.684 120.902 13.194C120.902 16.704 123.296 18.234 125.546 18.234C127.796 18.234 130.19 16.704 130.19 13.194ZM125.546 16.794C124.07 16.794 122.648 15.768 122.648 13.194C122.648 10.548 124.07 9.594 125.546 9.594C127.022 9.594 128.444 10.62 128.444 13.194C128.444 15.678 127.022 16.794 125.546 16.794ZM133.788 9.774V8.316H132.15V18H133.788V12.744C133.788 10.674 134.76 9.576 136.344 9.576C138.216 9.576 138.468 10.872 138.468 12.366V18H140.106V11.88C140.106 9.666 139.26 8.154 136.92 8.154C135.282 8.154 134.346 8.856 133.788 9.774ZM142.97 7.614V8.316H141.62V9.63H142.97V18H144.608V9.63H146.426V8.316H144.608V7.524C144.608 6.516 144.752 6.318 145.616 6.318H146.426V4.95H145.58C143.384 4.95 142.97 5.598 142.97 7.614ZM149.836 18V4.95H148.198V18H149.836ZM158.429 16.614V18H160.067V8.316H158.429V13.644C158.429 15.714 157.511 16.812 155.963 16.812C154.181 16.812 153.929 15.516 153.929 14.022V8.316H152.291V14.508C152.291 16.722 153.137 18.234 155.387 18.234C156.989 18.234 157.871 17.532 158.429 16.614ZM163.763 13.698H171.215C171.431 10.638 169.649 8.154 166.697 8.154C164.051 8.154 161.999 10.116 161.999 13.176C161.999 16.038 163.691 18.234 166.751 18.234C169.109 18.234 170.639 16.866 171.089 15.192H169.397C168.983 16.146 168.191 16.794 166.751 16.794C165.311 16.794 163.835 15.786 163.763 13.698ZM163.781 12.294C163.925 10.35 165.239 9.558 166.697 9.558C168.425 9.558 169.451 10.926 169.487 12.294H163.781ZM174.762 9.774V8.316H173.124V18H174.762V12.744C174.762 10.674 175.734 9.576 177.318 9.576C179.19 9.576 179.442 10.872 179.442 12.366V18H181.08V11.88C181.08 9.666 180.234 8.154 177.894 8.154C176.256 8.154 175.32 8.856 174.762 9.774ZM191.594 11.556C191.378 9.918 189.884 8.154 187.544 8.154C184.682 8.154 182.864 10.296 182.864 13.176C182.864 16.128 184.61 18.234 187.382 18.234C189.632 18.234 191.378 16.668 191.702 14.85H190.01C189.776 15.876 188.804 16.794 187.436 16.794C185.996 16.794 184.646 15.624 184.646 13.158C184.646 10.728 185.978 9.594 187.436 9.594C188.696 9.594 189.704 10.404 189.938 11.556H191.594ZM194.736 13.698H202.188C202.404 10.638 200.622 8.154 197.67 8.154C195.024 8.154 192.972 10.116 192.972 13.176C192.972 16.038 194.664 18.234 197.724 18.234C200.082 18.234 201.612 16.866 202.062 15.192H200.37C199.956 16.146 199.164 16.794 197.724 16.794C196.284 16.794 194.808 15.786 194.736 13.698ZM194.754 12.294C194.898 10.35 196.212 9.558 197.67 9.558C199.398 9.558 200.424 10.926 200.46 12.294H194.754Z" fill="black"/>
<path d="M213.275 24H228.913C229.41 24 229.812 23.5971 229.812 23.1V5.90625L223.906 0H213.275C212.778 0 212.375 0.402944 212.375 0.900001V23.1C212.375 23.5971 212.778 24 213.275 24Z" fill="#3086F6"/>
<path d="M223.906 5.90625V0L229.812 5.90625H223.906Z" fill="#0C67D6"/>
<rect x="216.125" y="9.1875" width="9.9375" height="1.5" fill="#FDFFFF"/>
<rect x="216.125" y="12.375" width="9.9375" height="1.5" fill="#FDFFFF"/>
<rect x="216.125" y="15.5625" width="7.125" height="1.5" fill="#FDFFFF"/>
<g style="mix-blend-mode:color">
<rect x="209" width="24" height="24" fill="#f3f3f3"/>
</g>
<path d="M253.384 8.748C252.844 6.228 250.684 4.716 247.984 4.716C244.312 4.716 241.918 7.398 241.918 11.448C241.918 15.426 244.06 18.234 247.822 18.234C249.568 18.234 251.098 17.694 251.944 16.362L252.034 18H253.474V11.34H248.29V12.924H251.746V13.266C251.746 15.966 249.64 16.686 247.894 16.686C245.482 16.686 243.79 14.742 243.79 11.448C243.79 8.064 245.59 6.264 247.894 6.264C249.982 6.264 251.17 7.29 251.602 8.748H253.384ZM264.806 13.194C264.806 9.684 262.412 8.154 260.162 8.154C257.912 8.154 255.518 9.684 255.518 13.194C255.518 16.704 257.912 18.234 260.162 18.234C262.412 18.234 264.806 16.704 264.806 13.194ZM260.162 16.794C258.686 16.794 257.264 15.768 257.264 13.194C257.264 10.548 258.686 9.594 260.162 9.594C261.638 9.594 263.06 10.62 263.06 13.194C263.06 15.678 261.638 16.794 260.162 16.794ZM275.563 13.194C275.563 9.684 273.169 8.154 270.919 8.154C268.669 8.154 266.275 9.684 266.275 13.194C266.275 16.704 268.669 18.234 270.919 18.234C273.169 18.234 275.563 16.704 275.563 13.194ZM270.919 16.794C269.443 16.794 268.021 15.768 268.021 13.194C268.021 10.548 269.443 9.594 270.919 9.594C272.395 9.594 273.817 10.62 273.817 13.194C273.817 15.678 272.395 16.794 270.919 16.794ZM284.179 8.316V9.846C283.585 8.82 282.649 8.154 281.101 8.154C278.959 8.154 276.997 9.9 276.997 12.996C276.997 16.11 278.959 17.838 281.101 17.838C282.649 17.838 283.585 17.19 284.179 16.164V17.082C284.179 18.396 283.909 18.846 283.549 19.224C283.117 19.692 282.451 19.944 281.569 19.944C280.057 19.944 279.535 19.278 279.319 18.414H277.573C277.879 20.376 279.355 21.384 281.551 21.384C282.991 21.384 284.197 20.916 284.899 20.106C285.457 19.494 285.817 18.684 285.817 16.704V8.316H284.179ZM281.515 9.558C282.973 9.558 284.251 10.548 284.251 12.996C284.251 15.462 282.973 16.452 281.515 16.452C279.913 16.452 278.779 15.21 278.779 12.996C278.779 10.8 279.913 9.558 281.515 9.558ZM290.041 18V4.95H288.403V18H290.041ZM293.738 13.698H301.19C301.406 10.638 299.624 8.154 296.672 8.154C294.026 8.154 291.974 10.116 291.974 13.176C291.974 16.038 293.666 18.234 296.726 18.234C299.084 18.234 300.614 16.866 301.064 15.192H299.372C298.958 16.146 298.166 16.794 296.726 16.794C295.286 16.794 293.81 15.786 293.738 13.698ZM293.756 12.294C293.9 10.35 295.214 9.558 296.672 9.558C298.4 9.558 299.426 10.926 299.462 12.294H293.756ZM311.186 4.95H307.622V18H311.186C315.326 18 318.296 16.452 318.296 11.466C318.296 6.498 315.326 4.95 311.186 4.95ZM311.132 6.498C313.832 6.498 316.424 7.038 316.424 11.466C316.424 15.912 313.832 16.452 311.132 16.452H309.458V6.498H311.132ZM329.177 13.194C329.177 9.684 326.783 8.154 324.533 8.154C322.283 8.154 319.889 9.684 319.889 13.194C319.889 16.704 322.283 18.234 324.533 18.234C326.783 18.234 329.177 16.704 329.177 13.194ZM324.533 16.794C323.057 16.794 321.635 15.768 321.635 13.194C321.635 10.548 323.057 9.594 324.533 9.594C326.009 9.594 327.431 10.62 327.431 13.194C327.431 15.678 326.009 16.794 324.533 16.794ZM339.34 11.556C339.124 9.918 337.63 8.154 335.29 8.154C332.428 8.154 330.61 10.296 330.61 13.176C330.61 16.128 332.356 18.234 335.128 18.234C337.378 18.234 339.124 16.668 339.448 14.85H337.756C337.522 15.876 336.55 16.794 335.182 16.794C333.742 16.794 332.392 15.624 332.392 13.158C332.392 10.728 333.724 9.594 335.182 9.594C336.442 9.594 337.45 10.404 337.684 11.556H339.34ZM346.928 11.142H348.638C348.332 9.306 346.91 8.136 344.822 8.136C342.68 8.136 340.952 9.126 340.952 10.836C340.952 12.636 342.392 13.248 343.706 13.518L345.146 13.806C346.19 14.022 347.108 14.436 347.108 15.408C347.108 16.308 346.1 16.848 344.858 16.848C343.418 16.848 342.644 16.11 342.392 14.868H340.664C340.844 16.56 342.284 18.234 344.822 18.234C347.036 18.234 348.764 17.136 348.764 15.228C348.764 13.356 347.216 12.69 345.452 12.348L344.084 12.078C343.148 11.898 342.608 11.538 342.608 10.764C342.608 9.882 343.688 9.54 344.642 9.54C345.776 9.54 346.676 9.99 346.928 11.142Z" fill="black"/>
<path d="M12.0852 71.1955L16.405 57.8474H7.77148L12.0852 71.1955Z" fill="#E24329"/>
<path d="M1.71967 57.8474L0.404171 61.9027C0.285146 62.271 0.413695 62.6774 0.72787 62.907L12.0841 71.1954L1.71967 57.8474Z" fill="#FCA326"/>
<path d="M1.71973 57.8474H7.77043L5.16635 49.8085C5.03308 49.3972 4.45228 49.3972 4.3142 49.8085L1.71973 57.8474Z" fill="#E24329"/>
<path d="M22.4556 57.8474L23.7664 61.9027C23.8854 62.271 23.7568 62.6774 23.4427 62.907L12.085 71.1955L22.4556 57.8474Z" fill="#FCA326"/>
<path d="M22.455 57.8474H16.4043L19.0036 49.8085C19.1368 49.3972 19.7176 49.3972 19.8557 49.8085L22.455 57.8474Z" fill="#E24329"/>
<path d="M12.085 71.1955L16.4049 57.8474H22.4556L12.085 71.1955Z" fill="#FC6D26"/>
<path d="M12.0841 71.1955L1.71973 57.8474H7.77043L12.0841 71.1955Z" fill="#FC6D26"/>
<g style="mix-blend-mode:color">
<rect y="48" width="24" height="24" fill="#f3f3f3"/>
</g>
<path d="M44.384 56.748C43.844 54.228 41.684 52.716 38.984 52.716C35.312 52.716 32.918 55.398 32.918 59.448C32.918 63.426 35.06 66.234 38.822 66.234C40.568 66.234 42.098 65.694 42.944 64.362L43.034 66H44.474V59.34H39.29V60.924H42.746V61.266C42.746 63.966 40.64 64.686 38.894 64.686C36.482 64.686 34.79 62.742 34.79 59.448C34.79 56.064 36.59 54.264 38.894 54.264C40.982 54.264 42.17 55.29 42.602 56.748H44.384ZM48.7856 52.95H47.1476V54.93H48.7856V52.95ZM48.7856 56.316H47.1476V66H48.7856V56.316ZM51.8519 53.886V56.316H50.3219V57.63H51.8519V63.57C51.8519 65.586 52.2839 66 54.1379 66H55.3259V64.632H54.4979C53.5619 64.632 53.4899 64.38 53.4899 63.372V57.63H55.3259V56.316H53.4899V53.886H51.8519ZM59.0512 66V52.95H57.4132V66H59.0512ZM61.0735 63.444C61.0735 65.226 62.5855 66.234 64.4035 66.234C66.1135 66.234 67.1215 65.658 67.7155 64.668C67.7335 65.244 67.7875 65.64 67.8415 66H69.4975C69.3175 65.082 69.2275 63.966 69.2455 62.346L69.2635 60.114C69.2815 57.396 68.0755 56.118 65.4115 56.118C63.5215 56.118 61.6855 57.288 61.5235 59.376H63.2155C63.2875 58.188 64.0795 57.45 65.4295 57.45C66.6355 57.45 67.6255 58.044 67.6255 59.808V60.042C63.6475 60.492 61.0735 61.158 61.0735 63.444ZM67.7515 61.338V61.95C67.7515 64.236 66.2935 64.938 64.7635 64.938C63.5935 64.938 62.8915 64.326 62.8915 63.408C62.8915 62.076 64.7815 61.644 67.7515 61.338ZM73.3422 52.95H71.7042V66H73.3422V64.542C73.9362 65.568 74.9622 66.234 76.5102 66.234C78.7242 66.234 80.6502 64.398 80.6502 61.194C80.6502 58.008 78.7242 56.154 76.5102 56.154C74.9622 56.154 73.9362 56.82 73.3422 57.846V52.95ZM76.0962 64.83C74.6382 64.83 73.2702 63.75 73.2702 61.194C73.2702 58.638 74.6382 57.558 76.0962 57.558C77.7702 57.558 78.8682 58.89 78.8682 61.194C78.8682 63.498 77.7702 64.83 76.0962 64.83ZM97.9822 61.842H96.2002C95.7862 63.516 94.5082 64.686 92.4382 64.686C90.0082 64.686 88.2802 62.742 88.2802 59.448C88.2802 56.064 90.0802 54.264 92.3842 54.264C94.4722 54.264 95.7322 55.488 96.1282 57.108H97.9102C97.3522 54.318 95.1742 52.716 92.4742 52.716C88.7842 52.716 86.4082 55.398 86.4082 59.448C86.4082 63.426 88.5862 66.234 92.3302 66.234C95.1562 66.234 97.4062 64.722 97.9822 61.842ZM101.935 66V52.95H100.099V66H101.935Z" fill="black"/>
<path d="M120.761 48.0591C119.441 48.0591 118.372 49.1311 118.372 50.4531C118.371 50.7672 118.433 51.0782 118.553 51.3685C118.673 51.6588 118.849 51.9226 119.07 52.1449C119.292 52.3672 119.556 52.5436 119.846 52.6641C120.136 52.7846 120.447 52.8468 120.761 52.8471H123.15V50.4531C123.151 49.8188 122.899 49.2102 122.451 48.7612C122.003 48.3123 121.395 48.0597 120.761 48.0591ZM120.761 54.4431H114.389C113.07 54.4431 112 55.5151 112 56.8375C112 58.1595 113.07 59.2315 114.389 59.2315H120.761C122.08 59.2315 123.15 58.1595 123.15 56.8375C123.15 55.5151 122.08 54.4431 120.761 54.4431Z" fill="#36C5F0"/>
<path d="M135.894 56.8375C135.894 55.5151 134.824 54.4431 133.504 54.4431C132.184 54.4431 131.115 55.5151 131.115 56.8375V59.2315H133.504C134.138 59.2308 134.746 58.9783 135.195 58.5293C135.643 58.0804 135.894 57.4718 135.894 56.8375ZM129.522 56.8375V50.4531C129.522 49.8188 129.271 49.2102 128.823 48.7612C128.375 48.3123 127.767 48.0597 127.132 48.0591C125.813 48.0591 124.743 49.1311 124.743 50.4531V56.8371C124.743 58.1599 125.813 59.2319 127.132 59.2319C127.767 59.2312 128.375 58.9787 128.823 58.5297C129.271 58.0808 129.522 57.4722 129.522 56.8379" fill="#2EB67D"/>
<path d="M127.132 72C127.767 71.9994 128.375 71.7468 128.823 71.2979C129.271 70.8489 129.522 70.2404 129.522 69.606C129.522 68.9717 129.271 68.3631 128.823 67.9142C128.375 67.4652 127.767 67.2127 127.132 67.212H124.743V69.606C124.743 70.928 125.813 72 127.132 72ZM127.132 65.616H133.504C134.824 65.616 135.894 64.544 135.894 63.2216C135.894 62.5873 135.643 61.9787 135.195 61.5298C134.746 61.0808 134.138 60.8283 133.504 60.8276H127.132C125.813 60.8276 124.743 61.8996 124.743 63.2216C124.743 63.5357 124.804 63.8468 124.924 64.137C125.044 64.4273 125.22 64.6912 125.442 64.9135C125.664 65.1358 125.927 65.3122 126.217 65.4327C126.507 65.5532 126.818 65.6153 127.132 65.6156" fill="#ECB22E"/>
<path d="M112 63.2216C112 63.5357 112.061 63.8468 112.181 64.137C112.301 64.4273 112.477 64.6912 112.699 64.9135C112.921 65.1358 113.184 65.3122 113.474 65.4327C113.764 65.5532 114.075 65.6153 114.389 65.6156C115.024 65.615 115.632 65.3624 116.08 64.9135C116.528 64.4645 116.779 63.856 116.779 63.2216V60.8276H114.389C113.07 60.8276 112 61.8996 112 63.2216ZM118.372 63.2216V69.6056C118.372 70.928 119.441 72 120.761 72C121.395 71.9994 122.003 71.7468 122.451 71.2979C122.899 70.8489 123.151 70.2404 123.15 69.606V63.2216C123.151 62.9075 123.089 62.5964 122.969 62.3061C122.849 62.0158 122.673 61.752 122.451 61.5297C122.23 61.3074 121.966 61.1309 121.676 61.0105C121.386 60.89 121.075 60.8279 120.761 60.8276C119.441 60.8276 118.372 61.8996 118.372 63.2216Z" fill="#E01E5A"/>
<g style="mix-blend-mode:color">
<rect x="112" y="48" width="24" height="24" fill="#f3f3f3"/>
</g>
<path d="M149.724 52.716C147.618 52.716 145.008 53.796 145.008 56.28C145.008 58.458 146.808 59.448 148.59 59.844L150.21 60.186C151.848 60.546 153.018 61.122 153.018 62.49C153.018 63.768 151.902 64.686 149.976 64.686C147.978 64.686 146.718 63.75 146.376 61.95H144.576C144.918 64.56 146.862 66.234 149.94 66.234C152.532 66.234 154.908 64.884 154.908 62.328C154.908 59.7 152.514 58.944 150.516 58.512L149.004 58.17C147.798 57.9 146.88 57.324 146.88 56.172C146.88 54.714 148.644 54.264 149.652 54.264C150.966 54.264 152.442 54.768 152.892 56.28H154.674C154.17 53.76 152.064 52.716 149.724 52.716ZM158.465 66V52.95H156.827V66H158.465ZM160.488 63.444C160.488 65.226 162 66.234 163.818 66.234C165.528 66.234 166.536 65.658 167.13 64.668C167.148 65.244 167.202 65.64 167.256 66H168.912C168.732 65.082 168.642 63.966 168.66 62.346L168.678 60.114C168.696 57.396 167.49 56.118 164.826 56.118C162.936 56.118 161.1 57.288 160.938 59.376H162.63C162.702 58.188 163.494 57.45 164.844 57.45C166.05 57.45 167.04 58.044 167.04 59.808V60.042C163.062 60.492 160.488 61.158 160.488 63.444ZM167.166 61.338V61.95C167.166 64.236 165.708 64.938 164.178 64.938C163.008 64.938 162.306 64.326 162.306 63.408C162.306 62.076 164.196 61.644 167.166 61.338ZM179.182 59.556C178.966 57.918 177.472 56.154 175.132 56.154C172.27 56.154 170.452 58.296 170.452 61.176C170.452 64.128 172.198 66.234 174.97 66.234C177.22 66.234 178.966 64.668 179.29 62.85H177.598C177.364 63.876 176.392 64.794 175.024 64.794C173.584 64.794 172.234 63.624 172.234 61.158C172.234 58.728 173.566 57.594 175.024 57.594C176.284 57.594 177.292 58.404 177.526 59.556H179.182ZM182.776 52.95H181.138V66H182.776V62.76L183.91 61.536L187.204 66H189.202L185.008 60.33L188.698 56.316H186.682L182.776 60.672V52.95Z" fill="black"/>
<path d="M211.915 71.3481C205.61 71.3481 200.48 66.2191 200.48 59.9141C200.48 53.609 205.61 48.48 211.915 48.48C218.22 48.48 223.349 53.6095 223.349 59.9143C223.349 66.2191 218.22 71.3481 211.915 71.3481Z" fill="#85EA2D"/>
<path d="M212.006 49.1446C218.006 49.1446 222.868 54.0074 222.868 60.0065C222.868 66.0053 218.006 70.8684 212.006 70.8684C206.008 70.8684 201.145 66.0053 201.145 60.0065C201.145 54.0077 206.008 49.1446 212.006 49.1446ZM212.006 48C205.386 48 200 53.3861 200 60.0065C200 66.6269 205.386 72.013 212.006 72.013C218.627 72.013 224.013 66.6269 224.013 60.0065C224.013 53.3861 218.627 48 212.006 48Z" fill="#173647"/>
<path d="M207.662 56.0145C207.625 56.4254 207.676 56.8502 207.648 57.2656C207.616 57.6813 207.565 58.0922 207.482 58.5031C207.367 59.0894 207.002 59.5327 206.499 59.902C207.478 60.5392 207.588 61.5271 207.653 62.5291C207.685 63.0693 207.671 63.6141 207.727 64.1496C207.768 64.565 207.93 64.6713 208.359 64.685C208.535 64.6896 208.715 64.685 208.918 64.685V65.9685C207.649 66.1855 206.601 65.8255 206.342 64.7498C206.259 64.3574 206.203 63.9556 206.185 63.5493C206.157 63.12 206.203 62.6906 206.171 62.2612C206.079 61.0838 205.926 60.6868 204.8 60.6314V59.1679C204.883 59.1494 204.961 59.1355 205.044 59.1264C205.663 59.094 205.926 58.9046 206.06 58.2952C206.125 57.9537 206.162 57.6074 206.175 57.2565C206.222 56.5872 206.203 55.9039 206.319 55.2391C206.48 54.2834 207.071 53.8216 208.055 53.7662C208.332 53.7523 208.613 53.7662 208.932 53.7662V55.0776C208.798 55.0869 208.683 55.1052 208.563 55.1052C207.764 55.0773 207.722 55.3497 207.662 56.0145ZM209.199 59.0524H209.181C208.719 59.0294 208.322 59.3894 208.299 59.8512C208.276 60.3175 208.636 60.7147 209.098 60.7375H209.153C209.61 60.7653 210.003 60.4142 210.03 59.9572V59.9112C210.04 59.4448 209.666 59.0618 209.199 59.0524ZM212.094 59.0524C211.647 59.0385 211.272 59.3894 211.259 59.8327C211.259 59.8605 211.259 59.8836 211.263 59.9112C211.263 60.4144 211.605 60.7377 212.122 60.7377C212.63 60.7377 212.949 60.4053 212.949 59.8836C212.944 59.3803 212.607 59.0479 212.094 59.0524ZM215.059 59.0524C214.588 59.0431 214.195 59.4172 214.181 59.8881C214.181 60.359 214.56 60.7375 215.031 60.7375H215.04C215.465 60.8114 215.894 60.4005 215.922 59.9066C215.945 59.4494 215.529 59.0524 215.059 59.0524ZM219.126 59.1216C218.59 59.0985 218.323 58.9185 218.189 58.4104C218.106 58.0874 218.055 57.7502 218.037 57.4178C218 56.7991 218.004 56.1758 217.963 55.5571C217.866 54.089 216.804 53.5766 215.262 53.8303V55.1047C215.506 55.1047 215.696 55.1047 215.885 55.1092C216.213 55.1138 216.462 55.2386 216.494 55.6034C216.527 55.9358 216.527 56.2728 216.559 56.61C216.624 57.2796 216.661 57.958 216.776 58.6183C216.878 59.1631 217.252 59.5694 217.718 59.9018C216.901 60.4512 216.661 61.236 216.619 62.118C216.596 62.7228 216.582 63.3321 216.55 63.9417C216.522 64.4956 216.328 64.6756 215.77 64.6896C215.613 64.6941 215.46 64.708 215.285 64.7174V66.024C215.613 66.024 215.913 66.0424 216.213 66.024C217.145 65.9685 217.709 65.5161 217.893 64.6111C217.972 64.1124 218.018 63.6093 218.032 63.106C218.064 62.6443 218.06 62.178 218.106 61.721C218.175 61.0053 218.503 60.7099 219.219 60.6638C219.288 60.6544 219.352 60.6408 219.417 60.6177V59.154C219.297 59.14 219.214 59.1264 219.126 59.1216Z" fill="#173647"/>
<g style="mix-blend-mode:color">
<rect x="200" y="48" width="24" height="24" fill="#f3f3f3"/>
</g>
<path d="M237.724 52.716C235.618 52.716 233.008 53.796 233.008 56.28C233.008 58.458 234.808 59.448 236.59 59.844L238.21 60.186C239.848 60.546 241.018 61.122 241.018 62.49C241.018 63.768 239.902 64.686 237.976 64.686C235.978 64.686 234.718 63.75 234.376 61.95H232.576C232.918 64.56 234.862 66.234 237.94 66.234C240.532 66.234 242.908 64.884 242.908 62.328C242.908 59.7 240.514 58.944 238.516 58.512L237.004 58.17C235.798 57.9 234.88 57.324 234.88 56.172C234.88 54.714 236.644 54.264 237.652 54.264C238.966 54.264 240.442 54.768 240.892 56.28H242.674C242.17 53.76 240.064 52.716 237.724 52.716ZM249.165 56.316L247.239 63.48L245.385 56.316H243.621L246.411 66H247.905L249.975 58.206L252.117 66H253.611L256.401 56.316H254.637L252.783 63.48L250.857 56.316H249.165ZM257.031 63.444C257.031 65.226 258.543 66.234 260.361 66.234C262.071 66.234 263.079 65.658 263.673 64.668C263.691 65.244 263.745 65.64 263.799 66H265.455C265.275 65.082 265.185 63.966 265.203 62.346L265.221 60.114C265.239 57.396 264.033 56.118 261.369 56.118C259.479 56.118 257.643 57.288 257.481 59.376H259.173C259.245 58.188 260.037 57.45 261.387 57.45C262.593 57.45 263.583 58.044 263.583 59.808V60.042C259.605 60.492 257.031 61.158 257.031 63.444ZM263.709 61.338V61.95C263.709 64.236 262.251 64.938 260.721 64.938C259.551 64.938 258.849 64.326 258.849 63.408C258.849 62.076 260.739 61.644 263.709 61.338ZM274.177 56.316V57.846C273.583 56.82 272.647 56.154 271.099 56.154C268.957 56.154 266.995 57.9 266.995 60.996C266.995 64.11 268.957 65.838 271.099 65.838C272.647 65.838 273.583 65.19 274.177 64.164V65.082C274.177 66.396 273.907 66.846 273.547 67.224C273.115 67.692 272.449 67.944 271.567 67.944C270.055 67.944 269.533 67.278 269.317 66.414H267.571C267.877 68.376 269.353 69.384 271.549 69.384C272.989 69.384 274.195 68.916 274.897 68.106C275.455 67.494 275.815 66.684 275.815 64.704V56.316H274.177ZM271.513 57.558C272.971 57.558 274.249 58.548 274.249 60.996C274.249 63.462 272.971 64.452 271.513 64.452C269.911 64.452 268.777 63.21 268.777 60.996C268.777 58.8 269.911 57.558 271.513 57.558ZM284.917 56.316V57.846C284.323 56.82 283.387 56.154 281.839 56.154C279.697 56.154 277.735 57.9 277.735 60.996C277.735 64.11 279.697 65.838 281.839 65.838C283.387 65.838 284.323 65.19 284.917 64.164V65.082C284.917 66.396 284.647 66.846 284.287 67.224C283.855 67.692 283.189 67.944 282.307 67.944C280.795 67.944 280.273 67.278 280.057 66.414H278.311C278.617 68.376 280.093 69.384 282.289 69.384C283.729 69.384 284.935 68.916 285.637 68.106C286.195 67.494 286.555 66.684 286.555 64.704V56.316H284.917ZM282.253 57.558C283.711 57.558 284.989 58.548 284.989 60.996C284.989 63.462 283.711 64.452 282.253 64.452C280.651 64.452 279.517 63.21 279.517 60.996C279.517 58.8 280.651 57.558 282.253 57.558ZM290.24 61.698H297.692C297.908 58.638 296.126 56.154 293.174 56.154C290.528 56.154 288.476 58.116 288.476 61.176C288.476 64.038 290.168 66.234 293.228 66.234C295.586 66.234 297.116 64.866 297.566 63.192H295.874C295.46 64.146 294.668 64.794 293.228 64.794C291.788 64.794 290.312 63.786 290.24 61.698ZM290.258 60.294C290.402 58.35 291.716 57.558 293.174 57.558C294.902 57.558 295.928 58.926 295.964 60.294H290.258ZM304.425 58.026V56.28C304.245 56.262 304.101 56.262 303.939 56.262C302.679 56.298 301.689 56.91 301.203 58.008V56.316H299.601V66H301.239V60.924C301.239 58.8 301.995 57.954 303.507 57.954C303.777 57.954 304.083 57.99 304.425 58.026Z" fill="black"/>
<defs>
<linearGradient id="paint0_linear" x1="11.4339" y1="5.56195" x2="6.95189" y2="10.044" gradientUnits="userSpaceOnUse">
<stop offset="0.18" stop-color="#0052CC"/>
<stop offset="1" stop-color="#2684FF"/>
</linearGradient>
<linearGradient id="paint1_linear" x1="308.593" y1="680.486" x2="456.657" y2="584.436" gradientUnits="userSpaceOnUse">
<stop offset="0.18" stop-color="#0052CC"/>
<stop offset="1" stop-color="#2684FF"/>
</linearGradient>
<linearGradient id="paint2_linear" x1="95.9369" y1="22.743" x2="83.5289" y2="15.612" gradientUnits="userSpaceOnUse">
<stop stop-color="#0052CC"/>
<stop offset="0.92" stop-color="#2380FB"/>
<stop offset="1" stop-color="#2684FF"/>
</linearGradient>
<linearGradient id="paint3_linear" x1="-262924" y1="-24811.1" x2="-262473" y2="-24293.1" gradientUnits="userSpaceOnUse">
<stop stop-color="#0052CC"/>
<stop offset="0.92" stop-color="#2380FB"/>
<stop offset="1" stop-color="#2684FF"/>
</linearGradient>
</defs>
</svg>
