<svg width="2001" height="1668" fill="none" xmlns="http://www.w3.org/2000/svg"><path d="M820.2 984.1c.1.1 0 .1 0 .1-.1 0-.1-.1-.1-.1 0-.1.1-.1.1-.1.1 0 .2.1.2.2s-.1.2-.2.2-.2-.1-.2-.2c0-.2.1-.3.3-.3.2 0 .4.2.4.4s-.2.4-.4.4c-.3 0-.5-.2-.5-.5s.3-.6.6-.6c.4 0 .7.3.7.7 0 .5-.4.9-.9.9-.6 0-1.1-.5-1.1-1.1 0-.7.6-1.3 1.3-1.3.9 0 1.5.7 1.5 1.5 0 1-.8 1.8-1.8 1.8-1.2 0-2.2-1-2.2-2.2 0-1.5 1.2-2.7 2.7-2.7 1.8 0 3.2 1.4 3.2 3.2 0 2.1-1.7 3.8-3.8 3.8-2.5 0-4.6-2.1-4.6-4.6 0-3 2.5-5.5 5.5-5.5 3.7 0 6.6 3 6.6 6.6 0 4.4-3.6 7.9-7.9 7.9-5.3 0-9.5-4.3-9.5-9.5 0-6.3 5.1-11.4 11.4-11.4 7.6 0 13.7 6.1 13.7 13.7 0 9.1-7.4 16.5-16.5 16.5-10.9 0-19.8-8.8-19.8-19.8 0-13.1 10.6-23.7 23.7-23.7 15.7 0 28.5 12.7 28.5 28.5 0 18.9-15.3 34.1-34.1 34.1-22.6 0-41-18.3-41-41 0-27.2 22-49.2 49.2-49.2 32.6 0 59 26.4 59 59 0 39.1-31.7 70.8-70.8 70.8-46.9 0-85-38-85-85 0-56.3 45.6-102 102-102 67.6 0 122.4 54.8 122.4 122.4 0 81.1-65.7 146.8-146.8 146.8-97.3 0-176.2-78.9-176.2-176.2 0-116.8 94.7-211.4 211.4-211.4 140.1 0 253.7 113.6 253.7 253.7 0 168.1-136.3 304.5-304.5 304.5-201.8 0-365.3-163.6-365.3-365.3 0-242.1 196.3-438.4 438.4-438.4 290.6 0 526.1 235.5 526.1 526.1 0 348.7-282.6 631.3-631.3 631.3C339.7 1667.2.5 1328 .5 909.6.5 407.5 407.5.5 909.6.5c602.5 0 1090.9 488.4 1090.9 1090.9M820.2 984.1s-.1 0 0 0c-.1 0 0 0 0 0zm0 0s0 .1 0 0v0zm0 0c-.1.1-.1 0 0 0v0zm0 0c-.1 0-.1-.1 0 0v0zm0 0c0-.1.1 0 0 0v0z" stroke="#969696" stroke-miterlimit="10"/><path d="M619.026 995.44l.001-.001c5.905-5.775 13.707-8.939 21.96-8.939H641.784c17.369.425 31.128 14.93 30.707 32.28-.211 8.28-3.585 16-9.517 21.78-5.933 5.78-13.735 8.94-21.961 8.94H640.216c-17.369-.43-31.128-14.93-30.707-32.28.211-8.28 3.585-16 9.517-21.78zM875.188 990.899v-.001a15.367 15.367 0 0110.805-4.398H886.389c8.545.211 15.314 7.346 15.106 15.88a15.402 15.402 0 01-4.683 10.72 15.42 15.42 0 01-10.805 4.4H885.611c-8.544-.21-15.314-7.35-15.106-15.88a15.412 15.412 0 014.683-10.721z" fill="#F3F3F3" stroke="#76BC21"/><path d="M771.768 975.629l.001-.001a7.432 7.432 0 015.228-2.128H777.191c4.133.104 7.407 3.555 7.307 7.685a7.456 7.456 0 01-2.266 5.186 7.455 7.455 0 01-5.229 2.129H776.809c-4.133-.104-7.407-3.556-7.307-7.685a7.456 7.456 0 012.266-5.186zM918.026 1249.44h.001c5.905-5.78 13.707-8.94 21.96-8.94H940.784c17.369.42 31.128 14.93 30.707 32.28-.211 8.28-3.585 16-9.517 21.78-5.933 5.78-13.735 8.94-21.961 8.94H939.216c-17.369-.43-31.128-14.93-30.707-32.28.211-8.28 3.585-16 9.517-21.78z" fill="#F3F3F3" stroke="#E31235"/><path d="M1362.45 1088.71h0c7.4-7.24 17.19-11.21 27.53-11.21H1390.98c21.78.53 39.04 18.72 38.51 40.48-.27 10.38-4.5 20.07-11.94 27.31-7.43 7.24-17.22 11.21-27.53 11.21h0-.01 0-.01 0-.01 0-.01 0-.01 0-.01 0-.01 0-.01 0-.01 0-.01 0-.01 0-.01 0-.01 0-.01 0-.01 0-.01 0-.01 0-.01 0-.01 0-.01 0-.01 0-.01 0-.01 0-.01 0-.01 0-.01 0-.01 0-.01 0-.01 0-.01 0-.01 0-.01 0-.01 0-.01 0-.01 0-.01 0-.01 0-.01 0-.01 0-.01 0-.01 0-.01 0-.01 0-.01 0-.01 0-.01 0-.01 0-.01 0-.01 0-.01 0-.01 0-.01 0-.01 0-.01 0-.01 0-.01 0-.01 0-.01 0-.01 0-.01 0-.01 0-.01 0-.01 0-.01 0-.01 0-.01 0-.01 0-.01 0-.01 0-.01 0-.01 0-.01 0-.01 0-.01 0-.01 0-.01 0-.01 0-.01 0-.01 0-.01 0-.01 0-.01 0-.01 0-.01 0-.01 0-.01 0-.01 0-.01 0-.01 0-.01 0-.01 0-.01 0-.01 0-.01 0-.01 0-.01 0-.01 0-.01 0-.01 0-.01 0c-21.78-.53-39.04-18.72-38.51-40.47.27-10.39 4.5-20.08 11.94-27.32z" fill="#F3F3F3" stroke="#76BC21"/></svg>