<svg width="128" height="144" viewBox="0 0 128 144" fill="none" xmlns="http://www.w3.org/2000/svg">
<path d="M61.7063 59.0752C47.375 72.8418 21.9244 106.33 21.9244 143.589M21.3733 2.30084C24.1468 2.30084 25.2939 4.32359 27.0608 6.84128C28.7351 4.32359 29.8821 2.30084 32.7483 2.30084M0.0585938 8.91183C2.83215 8.91183 3.9792 10.9346 5.74609 13.4523C7.42038 10.9346 8.56744 8.91183 11.4336 8.91183M60.3733 59.1757C64.2727 49.6472 73.7169 42.9257 84.7483 42.9257C93.7829 42.9257 101.753 47.4341 106.484 54.3007C107.53 55.8182 108.417 57.451 109.123 59.1757H60.3733ZM60.3733 59.1757C60.8112 58.1056 61.3187 57.071 61.8908 56.0773M60.3733 59.1757H16.4983C20.3977 49.6472 29.8419 42.9257 40.8733 42.9257C44.2953 42.9257 47.5645 43.5725 50.5629 44.7492L61.8908 56.0773M63.2085 59.1757H62.1969L66.2996 106.096C67.9562 105.243 69.5055 104.217 70.9262 103.043C77.3544 97.7312 81.1516 89.3987 80.3646 80.3984C80.2143 78.6802 79.9038 77.0149 79.4492 75.4164L63.2085 59.1757ZM63.2085 59.1757H84.2946C86.7653 60.4167 89.0847 62.07 91.1498 64.135C97.5382 70.5235 99.9859 79.3471 98.4761 87.548C98.1425 89.3605 97.6155 91.1426 96.895 92.8612L63.2085 59.1757ZM61.8908 56.0773C63.103 53.972 64.6039 52.0505 66.3402 50.3655C66.8558 43.0324 64.2873 35.4929 58.6464 29.8519C50.8461 22.0516 39.4151 20.1264 29.9202 24.1067L61.8908 56.0773ZM127.382 13.2937C127.382 20.2622 121.733 25.9113 114.764 25.9113C107.796 25.9113 102.147 20.2622 102.147 13.2937C102.147 6.32514 107.796 0.676025 114.764 0.676025C121.733 0.676025 127.382 6.32514 127.382 13.2937Z" stroke="#76BC21" stroke-width="1.2"/>
</svg>
