<svg width="921" height="284" viewBox="0 0 921 284" fill="none" xmlns="http://www.w3.org/2000/svg">
<path fill-rule="evenodd" clip-rule="evenodd" d="M686.378 1.37198H546.555C510.972 1.37198 482.127 30.242 482.127 65.8551C482.127 101.468 510.972 130.338 546.555 130.338H686.378C721.961 130.338 750.807 101.468 750.807 65.8551C750.807 30.242 721.961 1.37198 686.378 1.37198ZM546.555 0C510.215 0 480.756 29.4843 480.756 65.8551C480.756 102.226 510.215 131.71 546.555 131.71H686.378C722.718 131.71 752.178 102.226 752.178 65.8551C752.178 29.4843 722.718 0 686.378 0H546.555Z" fill="#E31235"/>
<path fill-rule="evenodd" clip-rule="evenodd" d="M632.916 65.8551C632.916 95.4063 656.851 119.362 686.378 119.362C715.904 119.362 739.839 95.4063 739.839 65.8551C739.839 36.3038 715.904 12.3478 686.378 12.3478C656.851 12.3478 632.916 36.3038 632.916 65.8551ZM686.378 10.9758C656.094 10.9758 631.545 35.5461 631.545 65.8551C631.545 96.164 656.094 120.734 686.378 120.734C716.661 120.734 741.21 96.164 741.21 65.8551C741.21 35.5461 716.661 10.9758 686.378 10.9758Z" fill="#E31235"/>
<path fill-rule="evenodd" clip-rule="evenodd" d="M205.622 1.37198H65.7992C30.2164 1.37198 1.37082 30.242 1.37082 65.8551C1.37082 101.468 30.2164 130.338 65.7992 130.338H205.622C241.205 130.338 270.051 101.468 270.051 65.8551C270.051 30.242 241.205 1.37198 205.622 1.37198ZM65.7992 0C29.4593 0 0 29.4843 0 65.8551C0 102.226 29.4593 131.71 65.7992 131.71H205.622C241.962 131.71 271.422 102.226 271.422 65.8551C271.422 29.4843 241.962 0 205.622 0H65.7992Z" fill="#76BC21"/>
<path fill-rule="evenodd" clip-rule="evenodd" d="M152.16 65.8551C152.16 95.4063 176.096 119.362 205.622 119.362C235.148 119.362 259.084 95.4063 259.084 65.8551C259.084 36.3038 235.148 12.3478 205.622 12.3478C176.096 12.3478 152.16 36.3038 152.16 65.8551ZM205.622 10.9758C175.338 10.9758 150.789 35.5461 150.789 65.8551C150.789 96.164 175.338 120.734 205.622 120.734C235.905 120.734 260.454 96.164 260.454 65.8551C260.454 35.5461 235.905 10.9758 205.622 10.9758Z" fill="#76BC21"/>
<path fill-rule="evenodd" clip-rule="evenodd" d="M477.044 153.662H337.221C301.638 153.662 272.793 182.532 272.793 218.145C272.793 253.758 301.638 282.628 337.221 282.628H477.044C512.627 282.628 541.473 253.758 541.473 218.145C541.473 182.532 512.627 153.662 477.044 153.662ZM337.221 152.29C300.881 152.29 271.422 181.774 271.422 218.145C271.422 254.516 300.881 284 337.221 284H477.044C513.384 284 542.844 254.516 542.844 218.145C542.844 181.774 513.384 152.29 477.044 152.29H337.221Z" fill="#E31235"/>
<path fill-rule="evenodd" clip-rule="evenodd" d="M423.582 218.145C423.582 247.696 447.517 271.652 477.044 271.652C506.57 271.652 530.505 247.696 530.505 218.145C530.505 188.594 506.57 164.638 477.044 164.638C447.517 164.638 423.582 188.594 423.582 218.145ZM477.044 163.266C446.76 163.266 422.211 187.836 422.211 218.145C422.211 248.454 446.76 273.024 477.044 273.024C507.327 273.024 531.876 248.454 531.876 218.145C531.876 187.836 507.327 163.266 477.044 163.266Z" fill="#E31235"/>
<path fill-rule="evenodd" clip-rule="evenodd" d="M957.798 153.662H817.975C782.392 153.662 753.547 182.532 753.547 218.145C753.547 253.758 782.392 282.628 817.975 282.628H957.798C993.381 282.628 1022.23 253.758 1022.23 218.145C1022.23 182.532 993.381 153.662 957.798 153.662ZM817.975 152.29C781.635 152.29 752.176 181.774 752.176 218.145C752.176 254.516 781.635 284 817.975 284H957.798C994.138 284 1023.6 254.516 1023.6 218.145C1023.6 181.774 994.138 152.29 957.798 152.29H817.975Z" fill="#76BC21"/>
<path fill-rule="evenodd" clip-rule="evenodd" d="M904.336 218.145C904.336 247.696 928.271 271.652 957.797 271.652C987.324 271.652 1011.26 247.696 1011.26 218.145C1011.26 188.594 987.324 164.638 957.797 164.638C928.271 164.638 904.336 188.594 904.336 218.145ZM957.797 163.266C927.514 163.266 902.965 187.836 902.965 218.145C902.965 248.454 927.514 273.024 957.797 273.024C988.081 273.024 1012.63 248.454 1012.63 218.145C1012.63 187.836 988.081 163.266 957.797 163.266Z" fill="#76BC21"/>
<path d="M936.953 67.0261H774.109V65.6541H936.953L927.156 55.8493L928.125 54.8792L939.577 66.3401L928.125 77.801L927.156 76.8309L936.953 67.0261Z" fill="#E31235"/>
<path d="M456.199 67.0261H293.355V65.6541H456.199L446.402 55.8493L447.372 54.8792L458.823 66.3401L447.372 77.801L446.402 76.8309L456.199 67.0261Z" fill="#76BC21"/>
<path d="M727.621 218.831H564.777V217.459H727.621L717.824 207.654L718.793 206.684L730.245 218.145L718.793 229.606L717.824 228.636L727.621 218.831Z" fill="#E31235"/>
</svg>
