<svg width="24" height="24" viewBox="0 0 24 24" fill="none" xmlns="http://www.w3.org/2000/svg">
<path d="M12.0852 23.1957L16.405 9.84766H7.77148L12.0852 23.1957Z" fill="#E24329"/>
<path d="M1.71967 9.84766L0.404171 13.903C0.285146 14.2712 0.413695 14.6777 0.72787 14.9072L12.0841 23.1956L1.71967 9.84766Z" fill="#FCA326"/>
<path d="M1.71973 9.84735H7.77043L5.16635 1.80848C5.03308 1.39717 4.45228 1.39717 4.3142 1.80848L1.71973 9.84735Z" fill="#E24329"/>
<path d="M22.4556 9.84766L23.7664 13.903C23.8854 14.2712 23.7568 14.6777 23.4427 14.9072L12.085 23.1957L22.4556 9.84766Z" fill="#FCA326"/>
<path d="M22.455 9.84735H16.4043L19.0036 1.80848C19.1368 1.39717 19.7176 1.39717 19.8557 1.80848L22.455 9.84735Z" fill="#E24329"/>
<path d="M12.085 23.1957L16.4049 9.84766H22.4556L12.085 23.1957Z" fill="#FC6D26"/>
<path d="M12.0841 23.1957L1.71973 9.84766H7.77043L12.0841 23.1957Z" fill="#FC6D26"/>
</svg>
