<svg width="16" height="16" viewBox="0 0 16 16" fill="none" xmlns="http://www.w3.org/2000/svg">
<path d="M8.05744 15.4636L10.9373 6.56494H5.18164L8.05744 15.4636Z" fill="#E24329"/>
<path d="M1.14645 6.56494L0.269447 9.26849C0.190097 9.51399 0.275797 9.78494 0.485247 9.93799L8.05605 15.4636L1.14645 6.56494Z" fill="#FCA326"/>
<path d="M1.14648 6.5649H5.18028L3.44423 1.20565C3.35538 0.93145 2.96818 0.93145 2.87613 1.20565L1.14648 6.5649Z" fill="#E24329"/>
<path d="M14.9704 6.56494L15.8442 9.26849C15.9236 9.51399 15.8379 9.78494 15.6284 9.93799L8.05664 15.4636L14.9704 6.56494Z" fill="#FCA326"/>
<path d="M14.9693 6.5649H10.9355L12.6684 1.20565C12.7572 0.93145 13.1444 0.93145 13.2365 1.20565L14.9693 6.5649Z" fill="#E24329"/>
<path d="M8.05664 15.4636L10.9366 6.56494H14.9704L8.05664 15.4636Z" fill="#FC6D26"/>
<path d="M8.05603 15.4636L1.14648 6.56494H5.18028L8.05603 15.4636Z" fill="#FC6D26"/>
<g style="mix-blend-mode:color">
<rect width="16" height="16" fill="rgba(243, 243, 243, 1)"/>
</g>
</svg>
