<svg width="24" height="24" viewBox="0 0 24 24" fill="none" xmlns="http://www.w3.org/2000/svg">
<path fill-rule="evenodd" clip-rule="evenodd" d="M20.2068 11.5753C20.2068 16.2114 16.5324 19.9697 11.9998 19.9697C7.46733 19.9697 3.79297 16.2114 3.79297 11.5753C3.79297 6.93908 7.46733 3.18068 11.9998 3.18068C16.5324 3.18068 20.2068 6.93908 20.2068 11.5753Z" fill="#D33833"/>
<path d="M4.12769 13.6553C4.12769 13.6553 3.53357 4.90125 11.5998 4.6511L11.0371 3.71316L6.66012 5.18263L5.40951 6.62076L4.31528 8.71555L3.68994 11.1542L3.87753 12.7799" fill="#EF3D3A"/>
<path d="M6.37844 5.8497C4.93852 7.32301 4.04749 9.3572 4.04749 11.6076C4.04749 13.8575 4.93852 15.892 6.37844 17.365C7.81905 18.838 9.80443 19.747 11.9993 19.747C14.1943 19.747 16.1798 18.838 17.6203 17.365C19.0601 15.892 19.9514 13.8575 19.9514 11.6076C19.9514 9.3572 19.0601 7.32301 17.6203 5.8497C16.1798 4.37695 14.1943 3.468 11.9993 3.46781C9.80443 3.468 7.81905 4.37695 6.37844 5.8497ZM6.01396 17.7213C4.48366 16.1563 3.5376 13.9934 3.5376 11.6076C3.5376 9.22139 4.48366 7.0587 6.01396 5.49357C7.5439 3.92815 9.66173 2.95786 11.9993 2.95814C14.337 2.95786 16.455 3.92815 17.9847 5.49357C19.5151 7.0587 20.4613 9.22157 20.4611 11.6076C20.4613 13.9934 19.5151 16.1563 17.9847 17.7213C16.455 19.2867 14.337 20.2568 11.9993 20.2568C9.66173 20.2568 7.5439 19.2867 6.01396 17.7213Z" fill="#231F20"/>
<path fill-rule="evenodd" clip-rule="evenodd" d="M15.4544 11.6229L14.2038 11.8105L12.5155 11.9981L11.4212 12.0293L10.3582 11.9981L9.54529 11.7479L8.8262 10.9663L8.26344 9.37185L8.13839 9.02791L7.38804 8.77785L6.95033 8.05874L6.6377 7.02701L6.98165 6.12031L7.79447 5.83893L8.45102 6.15163L8.76373 6.83942L9.1389 6.77686L9.26391 6.6206L9.1389 5.90149L9.10758 4.99479L9.29516 3.74424L9.28784 3.02991L9.85792 2.11852L10.8584 1.3994L12.6093 0.649053L14.5476 0.930433L16.2359 2.14975L17.0176 3.4003L17.5178 4.307L17.6428 6.55804L17.2676 8.49647L16.5798 10.216L15.9233 11.1227" fill="#F0D6B7"/>
<path fill-rule="evenodd" clip-rule="evenodd" d="M14.3908 17.0314L9.91993 17.219V17.9693L10.2951 20.5955L10.1075 20.8145L6.98112 19.7514L6.76221 19.3762L6.44957 15.8434L5.73059 13.7174L5.57422 13.2172L8.07532 11.4977L8.85699 11.185L9.54476 12.0291L10.1388 12.5606L10.8267 12.7794L11.1392 12.8732L11.5144 14.499L11.7958 14.8429L12.5149 14.5928L12.0146 15.562L14.7347 16.8438L14.3908 17.0314Z" fill="#335061"/>
<path fill-rule="evenodd" clip-rule="evenodd" d="M6.98157 6.11975L7.79438 5.83837L8.45093 6.15108L8.76364 6.83887L9.13882 6.77631L9.23261 6.40113L9.04502 5.68211L9.23261 3.9625L9.07624 3.02457L9.639 2.36801L10.8583 1.39885L10.5144 0.92988L8.79486 1.77402L8.07576 2.33678L7.66934 3.21216L7.04403 4.0563L6.85645 5.05679L6.98157 6.11975Z" fill="#6D6B6D"/>
<path fill-rule="evenodd" clip-rule="evenodd" d="M8.26345 3.1806C8.26345 3.1806 8.73242 2.02385 10.6083 1.46109C12.4842 0.898326 10.7021 1.05459 10.7021 1.05459L8.66995 1.83626L7.88828 2.61784L7.54443 3.24316L8.26345 3.1806Z" fill="#DCD9D8"/>
<path fill-rule="evenodd" clip-rule="evenodd" d="M7.32541 5.9013C7.32541 5.9013 6.66886 3.71272 9.17003 3.40011L9.07624 3.02493L7.35674 3.43143L6.85645 5.05716L6.98157 6.12012L7.32541 5.9013Z" fill="#DCD9D8"/>
<path fill-rule="evenodd" clip-rule="evenodd" d="M8.32666 8.80839L8.73602 8.41174C8.73602 8.41174 8.92079 8.43322 8.952 8.65204C8.98322 8.87095 9.07701 10.8406 10.4214 11.9037C10.544 12.0007 9.42097 11.7472 9.42097 11.7472L8.42045 10.1841" fill="#F7E4CD"/>
<path fill-rule="evenodd" clip-rule="evenodd" d="M14.0787 8.21484C14.0787 8.21484 14.1516 7.26715 14.4068 7.34003C14.662 7.41291 14.662 7.66812 14.662 7.66812C14.662 7.66812 14.0422 8.06909 14.0787 8.21484Z" fill="#F7E4CD"/>
<path d="M16.6748 4.74382C16.6748 4.74382 16.1595 4.85262 16.112 5.30658C16.0645 5.76064 16.6748 5.40038 16.7686 5.36914" fill="#F7E4CD"/>
<path d="M12.891 4.77544C12.891 4.77544 12.2031 4.86924 12.2031 5.30688C12.2031 5.74461 12.9848 5.71338 13.2036 5.52579" fill="#F7E4CD"/>
<path fill-rule="evenodd" clip-rule="evenodd" d="M8.63955 6.80772C8.63955 6.80772 7.45145 6.08861 7.32644 6.77649C7.2014 7.46428 6.91994 7.96457 7.51403 8.68359L7.1076 8.55857L6.73243 7.5894L6.60742 6.65146L7.32644 5.90102L8.13933 5.96358L8.6083 6.33876L8.63955 6.80772Z" fill="#F7E4CD"/>
<path fill-rule="evenodd" clip-rule="evenodd" d="M9.20121 4.83789C9.20121 4.83789 9.73272 2.08665 12.4215 1.55512C14.6351 1.11757 15.798 1.64891 16.2357 2.14911C16.2357 2.14911 14.2661 -0.19563 12.3902 0.523391C10.5143 1.24251 9.13874 2.55561 9.16995 3.39966C9.22319 4.83733 9.20121 4.83789 9.20121 4.83789Z" fill="#F7E4CD"/>
<path fill-rule="evenodd" clip-rule="evenodd" d="M16.4555 2.46241C16.4555 2.46241 15.5489 2.43118 15.5176 3.24409C15.5176 3.24409 15.5175 3.36911 15.58 3.49414C15.58 3.49414 16.2993 2.68123 16.7369 3.11897" fill="#F7E4CD"/>
<path fill-rule="evenodd" clip-rule="evenodd" d="M12.4845 3.57833C12.4845 3.57833 12.3284 2.3306 11.2646 3.056C10.5768 3.52496 10.6394 4.18152 10.7644 4.30654C10.8894 4.43167 10.8554 4.6835 10.9506 4.51064C11.0458 4.33778 11.0144 3.77502 11.3584 3.61876C11.7023 3.4624 12.2661 3.28776 12.4845 3.57833Z" fill="#F7E4CD"/>
<path fill-rule="evenodd" clip-rule="evenodd" d="M9.54476 12.0286L6.60595 13.3418C6.60595 13.3418 7.82526 18.1878 7.19992 19.6885L6.76221 19.5322L6.73096 17.6876L5.91818 14.186L5.57422 13.2167L8.63808 11.1534L9.54476 12.0286Z" fill="#49728B"/>
<path fill-rule="evenodd" clip-rule="evenodd" d="M9.84748 14.7092L10.2644 15.2179V17.0938H9.76413C9.76413 17.0938 9.70166 15.7806 9.70166 15.6243C9.70166 15.4679 9.76413 14.9052 9.76413 14.9052" fill="#49728B"/>
<path fill-rule="evenodd" clip-rule="evenodd" d="M9.85807 17.3748L8.45117 17.4373L8.85767 17.7187L9.85807 17.875" fill="#49728B"/>
<path fill-rule="evenodd" clip-rule="evenodd" d="M14.6733 17.0621L15.8301 17.0308L16.1115 19.9072L14.9234 20.0635L14.6733 17.0621Z" fill="#335061"/>
<path fill-rule="evenodd" clip-rule="evenodd" d="M14.9858 17.0625L16.7367 16.9687C16.7367 16.9687 17.4557 15.1554 17.4557 15.0616C17.4557 14.9678 18.081 12.4354 18.081 12.4354L16.6741 10.966L16.3927 10.7159L15.6424 11.4662V14.3738L14.9858 17.0625Z" fill="#335061"/>
<path fill-rule="evenodd" clip-rule="evenodd" d="M15.7675 16.8441L14.6733 17.0629L14.8296 17.9384C15.236 18.126 15.9239 17.6257 15.9239 17.6257" fill="#49728B"/>
<path fill-rule="evenodd" clip-rule="evenodd" d="M15.7988 11.3723L17.9873 12.998L18.0499 12.2477L16.3928 10.7158L15.7988 11.3723Z" fill="#49728B"/>
<path fill-rule="evenodd" clip-rule="evenodd" d="M10.9429 23.2215L10.2956 20.595L9.97365 18.6569L9.92041 17.2184L12.85 17.0624L14.6727 17.0621L14.507 20.3452L14.7883 22.8776L14.7571 23.3466L12.3811 23.5342L10.9429 23.2215Z" fill="white"/>
<path fill-rule="evenodd" clip-rule="evenodd" d="M14.2666 17.0313C14.2666 17.0313 14.1103 20.2828 14.5793 22.5963C14.5793 22.5963 13.6413 23.1904 12.2656 23.3467L14.8919 23.2529L15.2045 23.0653L14.8293 17.938L14.7355 16.8436" fill="#DCD9D8"/>
<path fill-rule="evenodd" clip-rule="evenodd" d="M16.1652 19.6572L17.3845 19.3133L19.698 19.1883L20.042 18.1253L19.4167 16.2807L18.6976 16.1869L17.6971 16.4995L16.7373 16.9682L16.2277 16.8747L15.8306 17.0307" fill="white"/>
<path fill-rule="evenodd" clip-rule="evenodd" d="M16.1421 19.0319C16.1421 19.0319 16.9549 18.6568 17.08 18.6881L16.7362 16.9685L17.1426 16.8122C17.1426 16.8122 17.424 18.4379 17.424 18.6255C17.424 18.6255 19.1747 18.7193 19.3311 18.7193C19.3311 18.7193 19.7062 18.0002 19.6124 17.2498L19.9564 18.2503L19.9876 18.8131L19.4874 19.5634L18.9247 19.6885L17.9867 19.6572L17.6741 19.2508L16.5798 19.4071L16.2359 19.5322" fill="#DCD9D8"/>
<path d="M14.9137 16.8125L14.226 15.0616L13.5068 14.0299C13.5068 14.0299 13.6631 13.5922 13.882 13.5922H14.6011L15.2889 13.8423L15.2264 14.9991L14.9137 16.8125Z" fill="white"/>
<path fill-rule="evenodd" clip-rule="evenodd" d="M15.0476 16.2185C15.0476 16.2185 14.1721 14.5303 14.1721 14.2802C14.1721 14.2802 14.3284 13.905 14.5473 13.9988C14.7662 14.0926 15.2352 14.3427 15.2352 14.3427V13.7487L14.1721 13.5298L13.4531 13.6236L14.6724 16.4999L14.9225 16.5312" fill="#DCD9D8"/>
<path d="M11.224 12.0915L10.3579 11.9973L9.54492 11.7471V12.0285L9.94212 12.4665L11.1927 13.0293" fill="white"/>
<path fill-rule="evenodd" clip-rule="evenodd" d="M9.82719 12.1855C9.82719 12.1855 10.7965 12.592 11.1091 12.4982L11.1402 12.873L10.2649 12.6858L9.7334 12.3107L9.82719 12.1855Z" fill="#DCD9D8"/>
<path fill-rule="evenodd" clip-rule="evenodd" d="M16.1608 13.6992C15.6303 13.6836 15.151 13.6206 14.7314 13.5023C14.7599 13.3302 14.7066 13.1614 14.7494 13.0375C14.8664 12.9533 15.0624 12.9546 15.2392 12.9348C15.0863 12.8597 14.8715 12.8299 14.6951 12.8734C14.691 12.754 14.6374 12.68 14.605 12.5865C14.9032 12.4801 15.6073 11.7822 16.0034 12.0133C16.1921 12.1232 16.2723 12.7511 16.287 13.0564C16.2992 13.3096 16.264 13.5651 16.1608 13.6992Z" fill="#D33833"/>
<path fill-rule="evenodd" clip-rule="evenodd" d="M16.1608 13.6992C15.6303 13.6836 15.151 13.6206 14.7314 13.5023C14.7599 13.3302 14.7066 13.1614 14.7494 13.0375C14.8664 12.9533 15.0624 12.9546 15.2392 12.9348C15.0863 12.8597 14.8715 12.8299 14.6951 12.8734C14.691 12.754 14.6374 12.68 14.605 12.5865C14.9032 12.4801 15.6073 11.7822 16.0034 12.0133C16.1922 12.1232 16.2723 12.7511 16.287 13.0564C16.2992 13.3096 16.264 13.5651 16.1608 13.6992Z" stroke="#D33833" stroke-width="2.5"/>
<path fill-rule="evenodd" clip-rule="evenodd" d="M13.6244 12.8318C13.623 12.872 13.6213 12.9124 13.6197 12.9529C13.4541 13.0617 13.1867 13.0604 13.0049 13.1518C13.2729 13.1636 13.4838 13.2281 13.6663 13.3191C13.6623 13.4202 13.6584 13.5212 13.6545 13.6223C13.3509 13.8301 13.0735 14.1397 12.7161 14.3346C12.5471 14.4268 11.9539 14.664 11.7741 14.622C11.6723 14.5984 11.6632 14.4722 11.6225 14.3531C11.5359 14.0983 11.3364 13.6926 11.319 13.309C11.2968 12.8245 11.2479 12.0124 11.77 12.1122C12.1913 12.1926 12.6813 12.3867 13.0074 12.5649C13.2067 12.6739 13.322 12.8085 13.6244 12.8318Z" fill="#D33833"/>
<path fill-rule="evenodd" clip-rule="evenodd" d="M13.6244 12.8318C13.623 12.872 13.6213 12.9124 13.6197 12.9529C13.4541 13.0617 13.1867 13.0604 13.0049 13.1518C13.2729 13.1636 13.4838 13.2281 13.6663 13.3191C13.6623 13.4202 13.6584 13.5212 13.6545 13.6223C13.3509 13.8301 13.0735 14.1397 12.7161 14.3346C12.5471 14.4268 11.9539 14.664 11.7741 14.622C11.6723 14.5984 11.6632 14.4722 11.6225 14.3531C11.5359 14.0983 11.3364 13.6926 11.319 13.309C11.2968 12.8245 11.2479 12.0124 11.77 12.1122C12.1913 12.1926 12.6813 12.3867 13.0074 12.5649C13.2067 12.6739 13.322 12.8085 13.6244 12.8318Z" stroke="#D33833" stroke-width="2.5"/>
<path fill-rule="evenodd" clip-rule="evenodd" d="M13.9251 13.4099C13.8787 13.1459 13.8252 13.0706 13.8459 12.8404C14.5498 12.371 14.682 13.6465 13.9251 13.4099Z" fill="#D33833"/>
<path fill-rule="evenodd" clip-rule="evenodd" d="M13.9251 13.4099C13.8787 13.1459 13.8252 13.0706 13.8459 12.8404C14.5498 12.371 14.682 13.6465 13.9251 13.4099Z" stroke="#D33833" stroke-width="2.5"/>
<path fill-rule="evenodd" clip-rule="evenodd" d="M14.9455 13.624C14.9455 13.624 14.7266 13.3113 14.883 13.2175C15.0393 13.1237 15.1957 13.2176 15.2895 13.0613C15.3833 12.9049 15.2895 12.8111 15.3207 12.6235C15.352 12.4359 15.5084 12.4046 15.6647 12.3734C15.8209 12.3421 16.2587 12.2796 16.3212 12.4359L16.1336 11.8732L15.7585 11.7482L14.5704 12.4359L14.5078 12.7799V13.4677" fill="#EF3D3A"/>
<path fill-rule="evenodd" clip-rule="evenodd" d="M11.6629 14.6553C11.6253 14.1674 11.5856 13.6801 11.5413 13.1926C11.4752 12.4648 11.7162 12.5918 12.3471 12.5918C12.4434 12.5918 12.9404 12.7067 12.976 12.7794C13.1465 13.1276 12.6908 13.0503 13.1724 13.3129C13.5789 13.5345 14.2969 13.1783 14.1327 12.6856C14.0408 12.5761 13.6538 12.6515 13.5151 12.5795C13.2708 12.4529 13.0266 12.3263 12.7823 12.1997C12.4716 12.0384 11.7534 11.8034 11.422 12.0287C10.5826 12.5996 11.475 14.0261 11.7745 14.6217" fill="#EF3D3A"/>
<path fill-rule="evenodd" clip-rule="evenodd" d="M12.4858 3.57844C11.6336 3.37997 11.2102 3.93504 10.9519 4.51074C10.7213 4.45484 10.813 4.1412 10.8713 3.98137C11.0238 3.56193 11.6385 3.00358 12.1407 3.07927C12.3569 3.11181 12.6493 3.30944 12.4858 3.57844Z" fill="#231F20"/>
<path fill-rule="evenodd" clip-rule="evenodd" d="M16.6378 4.54904C16.6512 4.54961 16.6648 4.55007 16.6782 4.55064C16.8708 4.95067 17.0375 5.37443 17.2804 5.72756C17.1177 6.10658 16.0481 6.44198 16.0646 5.76142C16.2959 5.66031 16.6952 5.74078 16.9002 5.61163C16.7817 5.28626 16.6106 5.00929 16.6378 4.54904Z" fill="#231F20"/>
<path fill-rule="evenodd" clip-rule="evenodd" d="M12.9218 4.55917C13.1045 4.8941 13.164 5.24602 13.4237 5.49917C13.5407 5.61312 13.7681 5.75203 13.6554 6.06896C13.629 6.14371 13.4365 6.31039 13.3253 6.34312C12.9193 6.46299 11.9732 6.36788 12.2936 5.86168C12.6294 5.87734 13.0807 6.07975 13.3317 5.83598C13.1389 5.52787 12.7953 4.9183 12.9218 4.55917Z" fill="#231F20"/>
<path fill-rule="evenodd" clip-rule="evenodd" d="M16.484 7.96304C15.8727 8.35575 15.191 8.7828 14.1893 8.68375C13.9752 8.49766 13.8936 8.08357 14.1016 7.81006C14.2098 7.99615 14.1418 8.3384 14.4434 8.3899C15.0118 8.48716 15.6734 8.0422 16.0822 7.88669C16.3357 7.45928 16.0604 7.30208 15.832 7.02698C15.3644 6.46338 14.7372 5.7648 14.76 4.92104C14.949 4.784 14.9653 5.1302 14.9924 5.19323C15.2366 5.76462 15.851 6.49536 16.2994 6.9844C16.4095 7.10483 16.5908 7.22038 16.611 7.30002C16.6692 7.53159 16.4597 7.80903 16.484 7.96304Z" fill="#231F20"/>
<path fill-rule="evenodd" clip-rule="evenodd" d="M8.42561 7.55024C8.23399 7.44087 8.18838 6.95915 7.96341 6.94546C7.64192 6.92595 7.70054 7.5704 7.70182 7.94727C7.48053 7.74636 7.44161 7.12779 7.60418 6.81011C7.4189 6.71913 7.33617 6.91047 7.2334 6.97791C7.36548 6.0184 8.63701 6.53286 8.42561 7.55024Z" fill="#231F20"/>
<path fill-rule="evenodd" clip-rule="evenodd" d="M16.8735 8.36302C16.5889 8.90468 16.1863 9.5012 15.3513 9.51855C15.3343 9.34363 15.3213 9.07744 15.3522 8.97211C15.9906 8.91077 16.3847 8.58587 16.8735 8.36302Z" fill="#231F20"/>
<path fill-rule="evenodd" clip-rule="evenodd" d="M12.874 8.71396C13.4066 8.99403 14.3854 9.02414 15.1093 9.00294C15.1482 9.16154 15.1472 9.35748 15.1487 9.55088C14.2182 9.59731 13.118 9.36705 12.874 8.71396Z" fill="#231F20"/>
<path fill-rule="evenodd" clip-rule="evenodd" d="M12.772 9.23608C13.1403 10.1608 14.4062 10.0543 15.4736 10.0288C15.4267 10.1489 15.3248 10.2907 15.1982 10.342C14.8561 10.4812 13.9126 10.5868 13.4378 10.3346C13.1366 10.1745 12.9431 9.81272 12.7781 9.60065C12.6984 9.49823 12.3016 9.23664 12.772 9.23608Z" fill="#231F20"/>
<path fill-rule="evenodd" clip-rule="evenodd" d="M16.441 14.3368C16.0088 15.077 15.5953 15.8373 15.0825 16.4902C15.2975 15.8582 15.3895 14.8002 15.422 13.9937C15.8717 13.7832 16.2568 14.0411 16.441 14.3368Z" fill="#81B0C4"/>
<path fill-rule="evenodd" clip-rule="evenodd" d="M18.7666 16.9978C18.2828 17.0946 17.9428 17.5649 17.4707 17.5347C17.7301 17.169 18.1848 17.0148 18.7666 16.9978Z" fill="#231F20"/>
<path fill-rule="evenodd" clip-rule="evenodd" d="M18.9794 17.7542C18.585 17.7959 18.1217 17.8597 17.7217 17.8268C17.911 17.5376 18.6407 17.6374 18.9794 17.7542Z" fill="#231F20"/>
<path fill-rule="evenodd" clip-rule="evenodd" d="M19.1162 18.4075C18.6729 18.4171 18.122 18.4083 17.7007 18.3729C17.9499 18.1052 18.8287 18.2736 19.1162 18.4075Z" fill="#231F20"/>
<path fill-rule="evenodd" clip-rule="evenodd" d="M15.6055 20.1942C15.669 20.7509 15.8897 21.3149 15.8621 21.9246C15.617 22.0073 15.4762 22.0795 15.1478 22.0791C15.1247 21.561 15.0554 20.7689 15.0761 20.275C15.2376 20.2857 15.4757 20.1596 15.6055 20.1942Z" fill="#DCD9D8"/>
<path fill-rule="evenodd" clip-rule="evenodd" d="M14.8919 11.9899C14.6693 12.1352 14.4798 12.3166 14.266 12.4718C13.792 12.4952 13.5333 12.4389 13.1851 12.1667C13.1908 12.1449 13.2258 12.1546 13.2271 12.1278C13.7345 12.354 14.3795 12.0357 14.8919 11.9899Z" fill="#F0D6B7"/>
<path fill-rule="evenodd" clip-rule="evenodd" d="M12.2271 15.449C12.3665 14.8448 12.9127 14.532 13.4088 14.1993C13.9208 14.8491 14.2322 15.6848 14.5751 16.4912C13.7649 16.247 12.9371 15.8507 12.2271 15.449Z" fill="#81B0C4"/>
<path fill-rule="evenodd" clip-rule="evenodd" d="M15.0769 20.2752C15.0562 20.7691 15.1255 21.5612 15.1487 22.0793C15.477 22.0798 15.6178 22.0075 15.8629 21.9248C15.8906 21.3152 15.6699 20.7511 15.6063 20.1945C15.4766 20.1598 15.2384 20.2859 15.0769 20.2752ZM9.96384 17.4662C10.1804 19.4568 10.494 21.1301 11.0692 22.8928C12.3459 23.2805 13.8849 23.3142 15.0133 22.9645C14.8061 21.9696 14.8966 20.7584 14.7756 19.6967C14.6843 18.8987 14.7308 18.0958 14.6057 17.2817C13.2384 16.9972 11.3057 17.2152 9.96384 17.4662ZM14.929 17.2942C14.9175 18.1491 14.9673 18.9924 15.0325 19.8484C15.3608 19.7991 15.5836 19.7662 15.8886 19.6993C15.7896 18.8753 15.8017 17.948 15.6 17.2191C15.3668 17.2213 15.1615 17.2163 14.929 17.2942ZM16.5943 17.1564C16.4385 17.1207 16.2571 17.155 16.1083 17.1579C16.1782 17.8548 16.348 18.6238 16.4077 19.3553C16.6419 19.3626 16.7671 19.2521 16.9597 19.215C16.97 18.5729 16.9036 17.6882 16.5943 17.1564ZM19.1158 19.4602C19.604 19.3417 19.911 18.7437 19.7745 18.1297C19.6828 17.717 19.5196 16.9399 19.345 16.6759C19.2159 16.4806 18.866 16.225 18.5866 16.4039C18.132 16.6949 17.3313 16.7794 16.9999 17.1317C17.1661 17.6851 17.2177 18.4452 17.2862 19.1464C17.854 19.1818 18.5527 18.9901 19.025 19.1935C18.6953 19.3003 18.2675 19.3012 17.9826 19.4568C18.2154 19.5692 18.7605 19.5465 19.1158 19.4602ZM14.576 16.4913C14.2331 15.6849 13.9217 14.8492 13.4096 14.1994C12.9136 14.5321 12.3673 14.8449 12.2279 15.4491C12.938 15.8508 13.7658 16.2471 14.576 16.4913ZM15.4212 13.9941C15.3888 14.8006 15.2968 15.8585 15.0818 16.4906C15.5946 15.8377 16.0081 15.0774 16.4403 14.3371C16.2561 14.0414 15.871 13.7836 15.4212 13.9941ZM14.463 13.6536C14.2688 13.6327 14.1039 13.8769 13.8513 13.7713C13.7934 13.8353 13.7408 13.9046 13.6818 13.967C14.2397 14.6394 14.4932 15.5932 14.9241 16.3833C15.1553 15.6244 15.1287 14.7929 15.1796 13.9645C14.8619 13.9847 14.6857 13.6772 14.463 13.6536ZM13.8469 12.8404C13.8262 13.0707 13.8797 13.146 13.9261 13.4099C14.683 13.6466 14.5508 12.3711 13.8469 12.8404ZM13.0075 12.5648C12.6814 12.3866 12.1914 12.1926 11.7702 12.1122C11.248 12.0123 11.2969 12.8244 11.3191 13.309C11.3365 13.6926 11.536 14.0983 11.6226 14.3531C11.6633 14.4721 11.6725 14.5984 11.7742 14.622C11.954 14.6639 12.5472 14.4267 12.7162 14.3345C13.0737 14.1396 13.351 13.8301 13.6546 13.6223C13.6586 13.5211 13.6624 13.4201 13.6664 13.319C13.4839 13.228 13.273 13.1635 13.005 13.1518C13.1868 13.0603 13.4542 13.0617 13.6198 12.9529C13.6214 12.9123 13.6231 12.8719 13.6245 12.8318C13.3221 12.8085 13.2069 12.6738 13.0075 12.5648ZM9.89233 11.999C9.62164 12.2738 10.6515 12.6484 10.9794 12.6686C10.9776 12.4947 11.0786 12.3307 11.0582 12.206C10.6688 12.1376 10.1569 12.1827 9.89233 11.999ZM13.2268 12.128C13.2255 12.1549 13.1905 12.1451 13.1848 12.167C13.5331 12.4391 13.7918 12.4954 14.2658 12.472C14.4795 12.3168 14.6691 12.1354 14.8917 11.9902C14.3793 12.0359 13.7343 12.3542 13.2268 12.128ZM16.2875 13.0561C16.2729 12.7508 16.1927 12.123 16.004 12.013C15.6079 11.7818 14.9038 12.4799 14.6055 12.5863C14.638 12.6797 14.6915 12.7537 14.6956 12.8731C14.8721 12.8297 15.0869 12.8594 15.2397 12.9346C15.0629 12.9544 14.8669 12.953 14.7499 13.0373C14.7071 13.1612 14.7605 13.33 14.7319 13.502C15.1516 13.6204 15.6309 13.6834 16.1614 13.699C16.2645 13.5649 16.2997 13.3094 16.2875 13.0561ZM9.43662 12.2648C9.35162 12.2042 8.77659 11.456 8.69781 11.487C7.65729 11.8974 6.68436 12.6069 5.81495 13.278C6.64388 15.0567 6.9785 17.2359 7.03763 19.3363C7.98721 19.7805 8.82128 20.4207 10.1098 20.4876C9.96073 19.4326 9.82462 18.4913 9.73998 17.4981C9.41621 17.3616 8.95171 17.5043 8.64872 17.4558C8.64615 17.0906 9.11146 17.2959 9.15021 17.0503C9.17942 16.8646 8.89419 16.8505 8.98707 16.5581C9.22394 16.6442 9.34832 16.8344 9.60094 16.9058C9.83176 16.4008 9.59771 15.5073 9.63098 15.0852C9.63728 15.006 9.67055 14.6462 9.84806 14.7093C10.0052 14.7652 9.83909 15.6662 9.85631 16.0657C9.87199 16.4337 9.81186 16.7898 9.96091 17.0209C11.2061 16.8514 12.4713 16.7418 13.8186 16.7049C13.5222 16.5777 13.1701 16.4573 12.7841 16.2398C12.5748 16.1218 11.9151 15.8763 11.8547 15.6775C11.7584 15.3608 12.1075 15.1921 12.1672 14.9206C11.5387 15.2633 11.4161 14.592 11.2674 14.1164C11.1327 13.6856 11.056 13.3638 11.023 13.1153C10.4815 12.8572 9.90265 12.5958 9.43662 12.2648ZM15.7376 11.5776C16.6045 11.1572 16.7608 13.1487 16.421 13.7902C16.4735 13.9816 16.6541 14.0548 16.7279 14.2269C16.2441 15.0935 15.7067 15.9025 15.2131 16.7589C15.5803 16.5303 16.1048 16.718 16.5369 16.5469C16.6948 16.4845 16.8092 16.1229 16.9288 15.8336C17.2577 15.0378 17.6031 14.0345 17.7567 13.275C17.7914 13.102 17.8859 12.7249 17.8647 12.5709C17.8269 12.2952 17.4528 12.0907 17.2625 11.9202C16.9119 11.6052 16.6911 11.3281 16.3254 11.0336C16.1771 11.2525 15.8589 11.3995 15.7376 11.5776ZM7.45395 3.8895C7.04085 4.34402 7.12732 5.19567 7.17733 5.80157C7.92401 5.33185 8.91507 5.83871 8.90573 6.63764C9.26222 6.62817 9.03891 6.19241 8.97443 5.91168C8.76369 4.99476 9.32945 3.99858 9.00008 3.16006C8.36056 3.20856 7.83516 3.46977 7.45395 3.8895ZM10.4097 1.25146C9.47454 1.51652 8.27599 2.19605 7.8917 3.03616C8.18927 2.99292 8.39584 2.84285 8.68939 2.82428C8.80033 2.81706 8.94567 2.87081 9.07317 2.8391C9.32726 2.77607 9.5417 2.20637 9.73338 1.9944C9.92024 1.7874 10.1448 1.69895 10.2985 1.51024C10.3973 1.46259 10.5433 1.46587 10.5489 1.31758C10.5061 1.27181 10.461 1.23692 10.4097 1.25146ZM15.2779 1.50076C14.3072 0.953104 12.6643 0.541162 11.6317 1.0559C10.7986 1.47131 9.67238 2.15863 9.28842 3.0296C9.6471 3.87008 9.18217 4.64022 9.15249 5.49355C9.13673 5.94761 9.36628 6.34398 9.38386 6.83827C9.26112 7.04077 8.88613 7.06572 8.62655 7.05184C8.53917 6.61457 8.3862 6.12309 7.93593 6.07376C7.29879 6.00407 6.83293 6.53138 6.80399 7.08241C6.76973 7.73043 7.30171 8.80446 8.05573 8.7299C8.347 8.7011 8.41856 8.40912 8.73592 8.41212C8.90793 8.75531 8.47059 8.86308 8.42559 9.10854C8.41387 9.17194 8.46186 9.41975 8.48978 9.53596C8.62673 10.1018 8.93204 10.8342 9.23255 11.2649C9.61395 11.8114 10.3633 11.8937 11.1694 11.9473C11.3134 11.6371 11.8438 11.6626 12.1894 11.7438C11.7752 11.5797 11.3902 11.182 11.071 10.83C10.7045 10.4262 10.3332 9.99292 10.3144 9.46505C11.0071 10.4261 11.5794 11.2653 12.839 11.688C13.7921 12.0077 14.9053 11.5415 15.6376 11.0273C15.9415 10.8135 16.1229 10.4744 16.3389 10.1639C17.1471 9.00133 17.5243 7.34194 17.4413 5.73357C17.4072 5.07026 17.4087 4.40921 17.1861 3.96294C16.9535 3.49632 16.1668 3.07884 15.7063 3.50091C15.6209 3.04714 16.0892 2.76651 16.6393 2.9298C16.2471 2.4236 15.8354 1.81535 15.2779 1.50076ZM17.0863 16.4671C17.8448 16.09 19.2621 15.4522 19.7376 16.4685C19.9131 16.8431 20.119 17.4764 20.2099 17.8631C20.3383 18.4087 20.0707 19.5555 19.5099 19.7385C19.0145 19.9002 18.4366 19.8904 17.84 19.7705C17.7697 19.7121 17.6915 19.6102 17.6368 19.5041C17.2108 19.4875 16.8119 19.5269 16.4754 19.702C16.5073 20.0171 16.2942 20.0677 16.0944 20.1325C15.9463 20.7198 16.3907 21.4867 16.2843 22.0221C16.2084 22.4036 15.7391 22.4626 15.3941 22.534C15.3829 22.7459 15.4092 22.9229 15.4328 23.1022C15.3539 23.3929 15.0001 23.5584 14.6649 23.5989C13.562 23.7315 11.8873 23.7911 10.8265 23.4096C10.5304 22.6835 10.2972 21.8003 10.0507 20.9712C9.01601 21.0817 8.1792 20.5247 7.39031 20.1598C7.11717 20.0332 6.73933 19.9635 6.63729 19.7461C6.53836 19.5356 6.57885 19.1321 6.5543 18.7511C6.49183 17.7778 6.43834 16.839 6.18132 15.8424C6.06592 15.3952 5.86477 15.0006 5.72444 14.5697C5.59475 14.1704 5.36814 13.6768 5.30904 13.2786C5.22141 12.6884 5.7772 12.6555 6.1326 12.3998C6.68198 12.0042 7.11322 11.7855 7.70821 11.4285C7.88444 11.3228 8.41589 11.0552 8.47634 10.932C8.5965 10.6876 8.27006 10.3431 8.18279 10.1516C8.04473 9.84876 7.97274 9.59148 7.95296 9.29266C7.45384 9.21378 7.07547 8.91673 6.84693 8.5818C6.46886 8.02748 6.20667 7.00194 6.53378 6.22186C6.55943 6.16042 6.68737 6.03962 6.70624 5.94526C6.74346 5.75946 6.63618 5.5124 6.62951 5.31478C6.59515 4.30087 6.80106 3.42728 7.48362 3.12152C7.76072 2.01766 8.75247 1.65065 9.68685 1.10205C10.0361 0.897015 10.4212 0.765984 10.8188 0.619667C12.2452 0.0947056 14.4338 0.193563 15.6176 1.08892C16.1196 1.46859 16.922 2.27025 17.209 2.85064C17.9671 4.38294 17.9132 6.94379 17.383 8.80774C17.3117 9.05799 17.2084 9.42584 17.064 9.72645C16.9634 9.93636 16.6506 10.3564 16.6886 10.5417C16.7277 10.7333 17.4018 11.2452 17.5463 11.3845C17.8066 11.6356 18.3011 11.9689 18.3411 12.2857C18.3842 12.6229 18.1925 13.0842 18.0955 13.4095C17.7709 14.4954 17.4543 15.4991 17.0863 16.4671Z" fill="#231F20"/>
<path fill-rule="evenodd" clip-rule="evenodd" d="M12.0251 8.95081C12.0663 8.89603 12.2925 8.81284 12.6091 8.96525C12.6091 8.96525 12.2339 9.02781 12.2651 9.65332L12.1088 9.62199C12.1088 9.62199 11.9472 9.05482 12.0251 8.95081Z" fill="#F7E4CD"/>
<path fill-rule="evenodd" clip-rule="evenodd" d="M14.7668 14.3271C14.7668 14.422 14.6898 14.499 14.5948 14.499C14.4999 14.499 14.4229 14.422 14.4229 14.3271C14.4229 14.2322 14.4999 14.1551 14.5948 14.1551C14.6898 14.1551 14.7668 14.2322 14.7668 14.3271Z" fill="#1D1919"/>
<path fill-rule="evenodd" clip-rule="evenodd" d="M14.9382 15.124C14.9382 15.2189 14.8612 15.2959 14.7662 15.2959C14.6712 15.2959 14.5942 15.2189 14.5942 15.124C14.5942 15.0291 14.6712 14.952 14.7662 14.952C14.8612 14.952 14.9382 15.0291 14.9382 15.124Z" fill="#1D1919"/>
</svg>
