<svg width="24" height="24" viewBox="0 0 24 24" fill="none" xmlns="http://www.w3.org/2000/svg">
<path d="M22.254 11.3999L12.9 2.06992L12 1.16992L4.97396 8.19592L1.75797 11.3999C1.67805 11.4796 1.61465 11.5743 1.57139 11.6786C1.52813 11.7828 1.50586 11.8946 1.50586 12.0074C1.50586 12.1203 1.52813 12.232 1.57139 12.3363C1.61465 12.4405 1.67805 12.5352 1.75797 12.6149L8.18396 19.0529L12 22.8749L19.041 15.8429L19.149 15.7349L22.254 12.6269C22.3357 12.547 22.4006 12.4516 22.445 12.3462C22.4893 12.2409 22.5121 12.1277 22.5121 12.0134C22.5121 11.8991 22.4893 11.786 22.445 11.6806C22.4006 11.5753 22.3357 11.4798 22.254 11.3999ZM12 15.2309L8.78996 12.0209L12 8.81092L15.21 12.0209L12 15.2309Z" fill="#2684FF"/>
<path d="M12.0009 8.8112C10.996 7.79956 10.4321 6.43157 10.4321 5.0057C10.4321 3.57982 10.996 2.21183 12.0009 1.2002L4.96289 8.2112L8.78489 12.0332L12.0009 8.8112Z" fill="url(#paint0_linear)"/>
<path d="M15.225 12L12 15.231C12.5025 15.7326 12.9012 16.3283 13.1732 16.9841C13.4452 17.64 13.5853 18.343 13.5853 19.053C13.5853 19.763 13.4452 20.466 13.1732 21.1219C12.9012 21.7777 12.5025 22.3734 12 22.875L19.05 15.834L15.225 12Z" fill="url(#paint1_linear)"/>
<defs>
<linearGradient id="paint0_linear" x1="11.4339" y1="5.5622" x2="6.95189" y2="10.0442" gradientUnits="userSpaceOnUse">
<stop offset="0.18" stop-color="#0052CC"/>
<stop offset="1" stop-color="#2684FF"/>
</linearGradient>
<linearGradient id="paint1_linear" x1="308.593" y1="680.486" x2="456.657" y2="584.436" gradientUnits="userSpaceOnUse">
<stop offset="0.18" stop-color="#0052CC"/>
<stop offset="1" stop-color="#2684FF"/>
</linearGradient>
</defs>
</svg>
