<svg width="24" height="24" viewBox="0 0 24 24" fill="none" xmlns="http://www.w3.org/2000/svg">
<path d="M0.299988 3.95605C0.299988 1.93676 1.93695 0.299805 3.95624 0.299805H20.0437C22.0631 0.299805 23.7 1.93676 23.7 3.95605V20.0436C23.7 22.0629 22.0631 23.6998 20.0437 23.6998H3.95624C1.93695 23.6998 0.299988 22.0629 0.299988 20.0436V3.95605Z" fill="#FFD02F"/>
<path fill-rule="evenodd" clip-rule="evenodd" d="M16.4835 3.22461H13.9152L16.0555 6.98531L11.347 3.22461H8.77865L11.1329 7.82106L6.21034 3.22461H3.64206L6.21034 9.07461L3.64206 20.7746H6.21034L11.1329 8.23891L8.77865 20.7746H11.347L16.0555 7.40316L13.9152 20.7746H16.4835L21.1921 6.14961L16.4835 3.22461Z" fill="#050038"/>
</svg>
