<svg width="24" height="24" viewBox="0 0 24 24" fill="none" xmlns="http://www.w3.org/2000/svg">
<path d="M13.4903 0.395109C11.195 0.100358 8.86394 0.492869 6.79174 1.523C4.71957 2.55314 2.99941 4.17462 1.84881 6.1824C0.698204 8.19021 0.168832 10.4941 0.327637 12.8027C0.486442 15.1114 1.32629 17.3211 2.74098 19.1524C4.15566 20.9837 6.08164 22.3544 8.27536 23.0911C10.469 23.8278 12.8319 23.8974 15.0652 23.2912C17.2985 22.6849 19.3019 21.43 20.8219 19.6852C22.342 17.9403 23.3104 15.7839 23.6049 13.4886C23.9997 10.411 23.1559 7.30267 21.2591 4.84722C19.3623 2.39177 16.5678 0.790313 13.4903 0.395109Z" fill="#FF6C37"/>
<path d="M8.75818 12.7397C8.76271 12.749 8.77039 12.7564 8.77975 12.7606C8.78911 12.7649 8.79971 12.7658 8.80966 12.7631L10.6817 12.3595L9.89425 11.5615L8.77222 12.6835C8.76337 12.6895 8.75708 12.6985 8.75445 12.7089C8.75189 12.7193 8.75321 12.7303 8.75818 12.7397Z" fill="white"/>
<path d="M17.524 4.70118C17.263 4.70144 17.0056 4.76022 16.7704 4.87318C16.5352 4.98613 16.3284 5.1504 16.1651 5.35387C16.0019 5.55734 15.8863 5.79485 15.827 6.04889C15.7676 6.30293 15.766 6.56705 15.8223 6.82179C15.8786 7.07654 15.9913 7.31542 16.152 7.52086C16.3128 7.72629 16.5176 7.89301 16.7514 8.00884C16.9852 8.12467 17.2419 8.18654 17.5028 8.18998C17.7637 8.19341 18.0219 8.13828 18.2587 8.02866L17.0723 6.84228C17.0587 6.82869 17.0479 6.81256 17.0405 6.79479C17.0331 6.77702 17.0293 6.75798 17.0293 6.73874C17.0293 6.7195 17.0331 6.70045 17.0405 6.68268C17.0479 6.66492 17.0587 6.64878 17.0723 6.63519L18.6226 5.08611C18.3112 4.83579 17.9234 4.69991 17.524 4.70118Z" fill="white"/>
<path d="M18.836 5.28809L17.3828 6.73538L18.5224 7.87496C18.6063 7.81602 18.6847 7.7494 18.7564 7.67606C19.0687 7.36162 19.2505 6.94065 19.2653 6.4977C19.28 6.05475 19.1266 5.62262 18.836 5.28809Z" fill="white"/>
<path d="M15.9274 7.95901H15.9016C15.8714 7.95871 15.8412 7.96149 15.8116 7.9672H15.801C15.7684 7.97422 15.7364 7.98358 15.7051 7.99528L15.6805 8.00698C15.657 8.01677 15.6343 8.02847 15.6127 8.04208L15.5869 8.05846C15.5586 8.07798 15.532 8.09992 15.5074 8.12398L11.1982 12.4342L11.7318 12.9677L16.2948 8.96287C16.3206 8.9402 16.344 8.91512 16.365 8.88799L16.3849 8.86225C16.4004 8.83936 16.4145 8.81552 16.427 8.79088C16.434 8.77684 16.4398 8.7628 16.4457 8.74876C16.4536 8.73004 16.4602 8.71088 16.4656 8.69143C16.4656 8.67739 16.4738 8.66335 16.4773 8.64931C16.4831 8.62028 16.487 8.59103 16.489 8.56156V8.52295C16.489 8.50189 16.489 8.48083 16.489 8.45977C16.489 8.43871 16.489 8.43169 16.4831 8.41765C16.4615 8.30723 16.4076 8.20566 16.3283 8.12588C16.2489 8.04617 16.1477 7.99169 16.0374 7.96954H16.0151C15.9862 7.96391 15.9569 7.96039 15.9274 7.95901Z" fill="white"/>
<path d="M10.0959 11.3541L10.9805 12.234L15.3013 7.91315C15.4419 7.77567 15.6251 7.69026 15.8208 7.67096C15.0567 7.08596 14.2237 7.23923 10.0959 11.3541Z" fill="white"/>
<path d="M16.539 9.13086L16.4863 9.18234L11.9233 13.1861L12.6991 13.9606C14.6225 12.1413 16.3296 10.4085 16.539 9.13086Z" fill="white"/>
<path d="M5.15754 18.5112C5.15991 18.5195 5.16478 18.5268 5.17147 18.5323C5.17816 18.5377 5.18637 18.541 5.19498 18.5416L7.18397 18.6785L6.06897 17.5635L5.1669 18.4644C5.16105 18.4705 5.15706 18.4781 5.1554 18.4864C5.15375 18.4947 5.15449 18.5033 5.15754 18.5112Z" fill="white"/>
<path d="M6.2771 17.3563L7.45294 18.5321C7.4669 18.547 7.48558 18.5567 7.50582 18.5595C7.52606 18.5622 7.54665 18.5579 7.56409 18.5473C7.58232 18.5383 7.59685 18.5232 7.60517 18.5046C7.61351 18.486 7.61512 18.4651 7.60972 18.4455L7.41199 17.6008C7.39919 17.546 7.40501 17.4885 7.42853 17.4375C7.45205 17.3865 7.49193 17.3447 7.54186 17.3188C9.60339 16.2857 11.266 15.2222 12.4863 14.1598L11.6673 13.3408L9.91227 13.7187L6.2771 17.3563Z" fill="white"/>
<path d="M11.4152 13.0932L10.9753 12.6533L10.3669 13.2606C10.3625 13.2658 10.3601 13.2725 10.3601 13.2793C10.3601 13.2861 10.3625 13.2927 10.3669 13.298C10.3697 13.3042 10.3747 13.3093 10.3809 13.312C10.3872 13.3148 10.3943 13.3153 10.4008 13.3132L11.4152 13.0932Z" fill="white"/>
<path d="M18.8766 6.23039C18.8706 6.21197 18.8608 6.19506 18.8477 6.18078C18.8347 6.1665 18.8186 6.15518 18.8008 6.14759C18.783 6.14 18.7638 6.1363 18.7444 6.13676C18.725 6.13722 18.706 6.14181 18.6886 6.15023C18.6712 6.15866 18.6557 6.17072 18.6433 6.1856C18.6309 6.20048 18.6219 6.21784 18.6168 6.23652C18.6116 6.2552 18.6105 6.27475 18.6136 6.29387C18.6167 6.31299 18.6238 6.33125 18.6344 6.34738C18.6694 6.41775 18.6833 6.49673 18.6744 6.57478C18.6655 6.65284 18.6341 6.72666 18.5841 6.78731C18.5678 6.80712 18.5573 6.83119 18.5541 6.85672C18.5508 6.88224 18.5549 6.90816 18.5658 6.93146C18.5767 6.95476 18.594 6.97448 18.6157 6.98831C18.6374 7.00215 18.6626 7.00953 18.6883 7.00961C18.7082 7.00939 18.7278 7.0049 18.7457 6.99641C18.7637 6.98793 18.7796 6.97567 18.7924 6.96046C18.8752 6.85978 18.9272 6.73735 18.9422 6.60784C18.9571 6.47834 18.9343 6.34728 18.8766 6.23039Z" fill="#FF6C37"/>
</svg>
