<svg width="81" height="81" viewBox="0 0 81 81" fill="none" xmlns="http://www.w3.org/2000/svg">
<path d="M39.714 77.8273C18.698 77.8273 1.59961 60.7305 1.59961 39.7137C1.59961 18.6969 18.698 1.6001 39.714 1.6001C60.73 1.6001 77.8284 18.6985 77.8284 39.7145C77.8284 60.7305 60.73 77.8273 39.714 77.8273Z" fill="#85EA2D"/>
<path d="M40.0216 3.8152C60.0184 3.8152 76.228 20.0248 76.228 40.0216C76.228 60.0176 60.0184 76.228 40.0216 76.228C20.0256 76.228 3.8152 60.0176 3.8152 40.0216C3.8152 20.0256 20.0256 3.8152 40.0216 3.8152ZM40.0216 0C17.9536 0 0 17.9536 0 40.0216C0 62.0896 17.9536 80.0432 40.0216 80.0432C62.0896 80.0432 80.044 62.0896 80.044 40.0216C80.044 17.9536 62.0896 0 40.0216 0Z" fill="#173647"/>
<path d="M25.5408 26.715C25.4176 28.0846 25.5864 29.5006 25.4952 30.8854C25.3872 32.271 25.2176 33.6406 24.9408 35.0102C24.556 36.9646 23.34 38.4422 21.6632 39.6734C24.9264 41.7974 25.2952 45.0902 25.5104 48.4302C25.6184 50.231 25.572 52.047 25.7568 53.8318C25.8952 55.2166 26.4336 55.571 27.8656 55.6166C28.4504 55.6318 29.0496 55.6166 29.728 55.6166V59.895C25.496 60.6182 22.0024 59.4182 21.14 55.8326C20.8624 54.5246 20.6776 53.1854 20.6168 51.831C20.524 50.3998 20.6776 48.9686 20.5704 47.5374C20.2624 43.6126 19.7544 42.2894 16 42.1046V37.2262C16.2768 37.1646 16.5384 37.1182 16.8152 37.0878C18.8776 36.9798 19.7544 36.3486 20.2008 34.3174C20.4168 33.179 20.54 32.0246 20.5856 30.855C20.74 28.6238 20.6784 26.3462 21.0624 24.1302C21.6008 20.9446 23.5712 19.4054 26.8496 19.2206C27.7728 19.1742 28.712 19.2206 29.7736 19.2206V23.5918C29.3272 23.623 28.9424 23.6838 28.5424 23.6838C25.88 23.591 25.7408 24.499 25.5408 26.715ZM30.6656 36.8414H30.604C29.0648 36.7646 27.7416 37.9646 27.664 39.5038C27.5872 41.0582 28.7872 42.3822 30.3264 42.4582H30.5112C32.0352 42.551 33.3424 41.3806 33.4352 39.8574V39.7038C33.4664 38.1494 32.22 36.8726 30.6656 36.8414ZM40.3152 36.8414C38.8224 36.795 37.5752 37.9646 37.5296 39.4422C37.5296 39.535 37.5296 39.6118 37.5456 39.7038C37.5456 41.3814 38.684 42.459 40.408 42.459C42.1008 42.459 43.1632 41.351 43.1632 39.6118C43.1472 37.9342 42.0232 36.8262 40.3152 36.8414ZM50.196 36.8414C48.6264 36.8102 47.3176 38.0574 47.272 39.627C47.272 41.1966 48.5336 42.4582 50.1032 42.4582H50.1344C51.5504 42.7046 52.9816 41.335 53.0744 39.6886C53.1504 38.1646 51.7656 36.8414 50.196 36.8414ZM63.7544 37.0718C61.9688 36.995 61.076 36.395 60.6304 34.7014C60.3528 33.6246 60.184 32.5006 60.1224 31.3926C59.9992 29.3302 60.0144 27.2526 59.876 25.1902C59.5528 20.2966 56.0136 18.5886 50.8728 19.4342V23.6822C51.688 23.6822 52.3192 23.6822 52.9504 23.6974C54.0432 23.7126 54.8744 24.1286 54.9816 25.3446C55.0896 26.4526 55.0896 27.5758 55.1976 28.6998C55.4136 30.9318 55.536 33.1934 55.9208 35.3942C56.26 37.2102 57.5064 38.5646 59.06 39.6726C56.3368 41.5038 55.536 44.1198 55.3976 47.0598C55.3208 49.0758 55.2744 51.107 55.1672 53.139C55.0744 54.9854 54.4288 55.5854 52.5664 55.6318C52.0432 55.647 51.5352 55.6934 50.9504 55.7246V60.0798C52.0432 60.0798 53.0432 60.1414 54.0432 60.0798C57.152 59.895 59.0296 58.387 59.6456 55.3702C59.9072 53.7078 60.0608 52.031 60.1072 50.3534C60.2144 48.8142 60.2 47.2598 60.3536 45.7366C60.584 43.351 61.6768 42.3662 64.0624 42.2126C64.2936 42.1814 64.5088 42.1358 64.7248 42.059V37.1798C64.324 37.1334 64.0464 37.0878 63.7544 37.0718Z" fill="#173647"/>
</svg>
