<svg width="304" height="41" viewBox="0 0 304 41" fill="none" xmlns="http://www.w3.org/2000/svg">
<path d="M14.836 7.60003L8.59998 1.38003L7.99998 0.780029L3.31598 5.46403L1.17198 7.60003C1.1187 7.65316 1.07643 7.71629 1.04759 7.78578C1.01875 7.85528 1.00391 7.92979 1.00391 8.00503C1.00391 8.08027 1.01875 8.15478 1.04759 8.22427C1.07643 8.29377 1.1187 8.35689 1.17198 8.41003L5.45598 12.702L7.99998 15.25L12.694 10.562L12.766 10.49L14.836 8.41803C14.8905 8.36476 14.9338 8.30114 14.9633 8.2309C14.9929 8.16066 15.0081 8.08523 15.0081 8.00903C15.0081 7.93283 14.9929 7.85739 14.9633 7.78716C14.9338 7.71692 14.8905 7.6533 14.836 7.60003ZM7.99998 10.154L5.85998 8.01403L7.99998 5.87403L10.14 8.01403L7.99998 10.154Z" fill="#2684FF"/>
<path d="M8.00059 5.87405C7.3307 5.19963 6.95473 4.28763 6.95473 3.33705C6.95473 2.38647 7.3307 1.47447 8.00059 0.800049L3.30859 5.47405L5.85659 8.02205L8.00059 5.87405Z" fill="url(#paint0_linear)"/>
<path d="M10.15 8L8 10.154C8.33502 10.4884 8.6008 10.8855 8.78215 11.3228C8.96349 11.76 9.05683 12.2287 9.05683 12.702C9.05683 13.1753 8.96349 13.644 8.78215 14.0812C8.6008 14.5185 8.33502 14.9156 8 15.25L12.7 10.556L10.15 8Z" fill="url(#paint1_linear)"/>
<g style="mix-blend-mode:color">
<rect width="16" height="16" fill="#f3f3f3"/>
</g>
<path d="M29.096 9.766C29.096 11.614 28.158 12.02 27.332 12.02C26.324 12.02 25.484 11.264 25.484 9.864H24.154C24.154 12.062 25.358 13.182 27.332 13.182C29.334 13.182 30.524 12.006 30.524 9.78V2.85H29.096V9.766ZM32.7326 5.468V13H34.0066V5.468H32.7326ZM32.7326 2.85V4.39H34.0066V2.85H32.7326ZM39.7795 5.44C39.6255 5.426 39.5275 5.426 39.4015 5.426C38.4075 5.468 37.6515 5.93 37.2735 6.784V5.468H36.0275V13H37.3015V9.052C37.3015 7.386 37.8895 6.742 39.0655 6.742C39.2755 6.742 39.5135 6.756 39.7795 6.798V5.44ZM45.4767 9.85C45.4767 11.628 44.3427 12.174 43.1527 12.174C42.2427 12.174 41.6967 11.698 41.6967 10.984C41.6967 9.948 43.1667 9.598 45.4767 9.374V9.85ZM42.8727 13.182C44.2167 13.182 44.9867 12.748 45.4487 11.964C45.4627 12.412 45.5047 12.72 45.5467 13H46.8347C46.6807 12.286 46.6247 11.432 46.6387 10.158L46.6527 8.422C46.6667 6.294 45.7427 5.314 43.6567 5.314C42.2007 5.314 40.7447 6.224 40.6327 7.848H41.9487C42.0047 6.91 42.6067 6.35 43.6707 6.35C44.6227 6.35 45.3787 6.798 45.3787 8.184V8.366C42.2987 8.702 40.2827 9.234 40.2827 11.012C40.2827 12.398 41.4587 13.182 42.8727 13.182Z" fill="black"/>
<path d="M65.8736 11.35C65.7376 11.572 65.5836 11.832 65.4616 12.038C65.4082 12.1315 65.3927 12.242 65.4184 12.3466C65.4441 12.4512 65.5089 12.5419 65.5996 12.6L68.3336 14.288C68.381 14.3174 68.4338 14.337 68.4889 14.3458C68.5439 14.3545 68.6002 14.3522 68.6544 14.339C68.7085 14.3258 68.7595 14.3019 68.8044 14.2688C68.8492 14.2357 68.8871 14.1939 68.9156 14.146C69.0256 13.962 69.1656 13.724 69.3156 13.47C70.3996 11.69 71.4976 11.908 73.4596 12.842L76.1716 14.13C76.2224 14.1543 76.2776 14.1682 76.3338 14.1708C76.3901 14.1734 76.4463 14.1646 76.4991 14.145C76.5519 14.1254 76.6002 14.0954 76.6412 14.0567C76.6822 14.0181 76.715 13.9716 76.7376 13.92L78.0396 10.98C78.0838 10.8803 78.0877 10.7673 78.0504 10.6647C78.0131 10.5622 77.9376 10.4781 77.8396 10.43C77.2676 10.16 76.1296 9.63002 75.1096 9.13002C71.3996 7.33802 68.2696 7.45602 65.8736 11.35Z" fill="url(#paint2_linear)"/>
<path d="M78.1336 4.66792C78.2716 4.44592 78.4256 4.18591 78.5456 3.97992C78.6013 3.88484 78.6172 3.77162 78.5899 3.66488C78.5625 3.55813 78.4941 3.4665 78.3996 3.40991L75.6696 1.72191C75.6222 1.69254 75.5694 1.67291 75.5143 1.66415C75.4593 1.65539 75.403 1.65769 75.3488 1.6709C75.2946 1.68412 75.2436 1.708 75.1988 1.74114C75.1539 1.77427 75.1161 1.81601 75.0876 1.86391C74.9796 2.04791 74.8376 2.28591 74.6876 2.53991C73.5996 4.32791 72.5116 4.10992 70.5476 3.17591L67.8376 1.88791C67.7874 1.86327 67.7328 1.8489 67.677 1.84563C67.6212 1.84237 67.5653 1.85028 67.5125 1.86891C67.4598 1.88754 67.4114 1.91651 67.37 1.95411C67.3286 1.99172 67.2951 2.03721 67.2716 2.08791L65.9696 5.03592C65.9247 5.13589 65.9205 5.24938 65.9579 5.3524C65.9952 5.45541 66.0711 5.53987 66.1696 5.58792C66.7436 5.85792 67.8816 6.38792 68.8996 6.88792C72.5996 8.67992 75.7396 8.56192 78.1336 4.66792Z" fill="url(#paint3_linear)"/>
<g style="mix-blend-mode:color">
<rect x="64" width="16" height="16" fill="#f3f3f3"/>
</g>
<path d="M96.33 9.766C96.008 11.068 95.028 11.978 93.404 11.978C91.514 11.978 90.17 10.48 90.17 7.904C90.17 5.272 91.57 3.872 93.362 3.872C94.972 3.872 95.98 4.81 96.274 6.084H97.66C97.212 3.914 95.532 2.668 93.432 2.668C90.576 2.668 88.714 4.768 88.714 7.904C88.714 10.984 90.408 13.182 93.32 13.182C95.518 13.182 97.268 12.006 97.716 9.766H96.33ZM100.171 9.262C100.171 7.204 101.263 6.462 102.425 6.462C103.587 6.462 104.679 7.246 104.679 9.262C104.679 11.194 103.587 12.062 102.425 12.062C101.263 12.062 100.171 11.278 100.171 9.262ZM102.425 5.342C100.675 5.342 98.8129 6.532 98.8129 9.262C98.8129 11.992 100.675 13.182 102.425 13.182C104.175 13.182 106.037 11.992 106.037 9.262C106.037 6.532 104.175 5.342 102.425 5.342ZM108.835 5.468H107.561V13H108.835V8.912C108.835 7.288 109.591 6.448 110.823 6.448C112.279 6.448 112.475 7.456 112.475 8.618V13H113.749V8.24C113.749 6.518 113.091 5.342 111.271 5.342C109.997 5.342 109.269 5.888 108.835 6.602V5.468ZM115.976 5.468H114.926V6.49H115.976V13H117.25V6.49H118.664V5.468H117.25V4.852C117.25 4.068 117.362 3.914 118.034 3.914H118.664V2.85H118.006C116.284 2.85 115.976 3.354 115.976 4.922V5.468ZM121.317 2.85H120.043V13H121.317V2.85ZM128 13H129.274V5.468H128V9.612C128 11.236 127.3 12.076 126.082 12.076C124.682 12.076 124.5 11.068 124.5 9.906V5.468H123.226V10.284C123.226 12.006 123.898 13.182 125.634 13.182C126.88 13.182 127.566 12.636 128 11.922V13ZM137.945 9.654C138.099 7.26 136.741 5.342 134.431 5.342C132.373 5.342 130.777 6.854 130.777 9.248C130.777 11.474 132.093 13.182 134.473 13.182C136.307 13.182 137.511 12.104 137.847 10.816H136.531C136.209 11.558 135.593 12.062 134.473 12.062C133.367 12.062 132.191 11.278 132.149 9.654H137.945ZM134.431 6.434C135.789 6.434 136.559 7.498 136.601 8.562H132.163C132.275 7.05 133.311 6.434 134.431 6.434ZM140.704 5.468H139.43V13H140.704V8.912C140.704 7.288 141.46 6.448 142.692 6.448C144.148 6.448 144.344 7.456 144.344 8.618V13H145.618V8.24C145.618 6.518 144.96 5.342 143.14 5.342C141.866 5.342 141.138 5.888 140.704 6.602V5.468ZM150.646 5.342C148.42 5.342 147.006 7.008 147.006 9.248C147.006 11.544 148.35 13.182 150.52 13.182C152.284 13.182 153.614 11.964 153.88 10.55H152.564C152.382 11.334 151.64 12.062 150.562 12.062C149.442 12.062 148.392 11.138 148.392 9.234C148.392 7.344 149.442 6.462 150.562 6.462C151.556 6.462 152.326 7.092 152.508 7.988H153.796C153.614 6.7 152.494 5.342 150.646 5.342ZM162.035 9.654C162.189 7.26 160.831 5.342 158.521 5.342C156.463 5.342 154.867 6.854 154.867 9.248C154.867 11.474 156.183 13.182 158.563 13.182C160.397 13.182 161.601 12.104 161.937 10.816H160.621C160.299 11.558 159.683 12.062 158.563 12.062C157.457 12.062 156.281 11.278 156.239 9.654H162.035ZM158.521 6.434C159.879 6.434 160.649 7.498 160.691 8.562H156.253C156.365 7.05 157.401 6.434 158.521 6.434Z" fill="black"/>
<path d="M181.85 16H192.275C192.606 16 192.875 15.7314 192.875 15.4V3.9375L188.938 0H181.85C181.519 0 181.25 0.26863 181.25 0.6V15.4C181.25 15.7314 181.519 16 181.85 16Z" fill="#3086F6"/>
<path d="M188.938 3.9375V0L192.875 3.9375H188.938Z" fill="#0C67D6"/>
<rect x="183.75" y="6.125" width="6.625" height="1" fill="#FDFFFF"/>
<rect x="183.75" y="8.25" width="6.625" height="1" fill="#FDFFFF"/>
<rect x="183.75" y="10.375" width="4.75" height="1" fill="#FDFFFF"/>
<g style="mix-blend-mode:color">
<rect x="179" width="16" height="16" fill="#f3f3f3"/>
</g>
<path d="M208.432 2.668C205.576 2.668 203.714 4.768 203.714 7.904C203.714 10.984 205.394 13.182 208.306 13.182C209.664 13.182 210.854 12.776 211.512 11.726L211.582 13H212.702V7.82H208.67V9.052H211.358V9.318C211.358 11.418 209.706 11.978 208.362 11.978C206.5 11.978 205.17 10.48 205.17 7.904C205.17 5.272 206.57 3.872 208.362 3.872C209.986 3.872 210.91 4.67 211.246 5.804H212.632C212.212 3.844 210.532 2.668 208.432 2.668ZM215.649 9.262C215.649 7.204 216.741 6.462 217.903 6.462C219.065 6.462 220.157 7.246 220.157 9.262C220.157 11.194 219.065 12.062 217.903 12.062C216.741 12.062 215.649 11.278 215.649 9.262ZM217.903 5.342C216.153 5.342 214.291 6.532 214.291 9.262C214.291 11.992 216.153 13.182 217.903 13.182C219.653 13.182 221.515 11.992 221.515 9.262C221.515 6.532 219.653 5.342 217.903 5.342ZM224.017 9.262C224.017 7.204 225.109 6.462 226.271 6.462C227.433 6.462 228.525 7.246 228.525 9.262C228.525 11.194 227.433 12.062 226.271 12.062C225.109 12.062 224.017 11.278 224.017 9.262ZM226.271 5.342C224.521 5.342 222.659 6.532 222.659 9.262C222.659 11.992 224.521 13.182 226.271 13.182C228.021 13.182 229.883 11.992 229.883 9.262C229.883 6.532 228.021 5.342 226.271 5.342ZM236.584 6.658C236.122 5.86 235.408 5.342 234.19 5.342C232.524 5.342 230.998 6.7 230.998 9.108C230.998 11.53 232.524 12.874 234.19 12.874C235.408 12.874 236.122 12.37 236.584 11.572V12.286C236.584 13.322 236.36 13.644 236.094 13.952C235.744 14.33 235.24 14.512 234.554 14.512C233.392 14.512 232.958 13.994 232.804 13.322H231.446C231.684 14.848 232.818 15.632 234.54 15.632C235.66 15.632 236.598 15.268 237.144 14.638C237.578 14.162 237.858 13.518 237.858 11.992V5.468H236.584V6.658ZM236.64 9.108C236.64 11.026 235.632 11.796 234.512 11.796C233.266 11.796 232.384 10.844 232.384 9.108C232.384 7.386 233.266 6.434 234.512 6.434C235.632 6.434 236.64 7.204 236.64 9.108ZM241.143 2.85H239.869V13H241.143V2.85ZM249.814 9.654C249.968 7.26 248.61 5.342 246.3 5.342C244.242 5.342 242.646 6.854 242.646 9.248C242.646 11.474 243.962 13.182 246.342 13.182C248.176 13.182 249.38 12.104 249.716 10.816H248.4C248.078 11.558 247.462 12.062 246.342 12.062C245.236 12.062 244.06 11.278 244.018 9.654H249.814ZM246.3 6.434C247.658 6.434 248.428 7.498 248.47 8.562H244.032C244.144 7.05 245.18 6.434 246.3 6.434ZM261.663 7.918C261.663 11.376 259.633 11.796 257.547 11.796H256.245V4.054H257.547C259.633 4.054 261.663 4.474 261.663 7.918ZM254.817 2.85V13H257.589C260.795 13 263.119 11.782 263.119 7.918C263.119 4.068 260.795 2.85 257.589 2.85H254.817ZM265.716 9.262C265.716 7.204 266.808 6.462 267.97 6.462C269.132 6.462 270.224 7.246 270.224 9.262C270.224 11.194 269.132 12.062 267.97 12.062C266.808 12.062 265.716 11.278 265.716 9.262ZM267.97 5.342C266.22 5.342 264.358 6.532 264.358 9.262C264.358 11.992 266.22 13.182 267.97 13.182C269.72 13.182 271.582 11.992 271.582 9.262C271.582 6.532 269.72 5.342 267.97 5.342ZM276.337 5.342C274.111 5.342 272.697 7.008 272.697 9.248C272.697 11.544 274.041 13.182 276.211 13.182C277.975 13.182 279.305 11.964 279.571 10.55H278.255C278.073 11.334 277.331 12.062 276.253 12.062C275.133 12.062 274.083 11.138 274.083 9.234C274.083 7.344 275.133 6.462 276.253 6.462C277.247 6.462 278.017 7.092 278.199 7.988H279.487C279.305 6.7 278.185 5.342 276.337 5.342ZM286.718 7.666C286.48 6.224 285.388 5.328 283.75 5.328C282.084 5.328 280.74 6.098 280.74 7.428C280.74 8.842 281.86 9.29 282.882 9.514L284.002 9.738C284.814 9.92 285.528 10.214 285.528 10.984C285.528 11.698 284.744 12.104 283.778 12.104C282.658 12.104 282.07 11.53 281.86 10.564H280.516C280.67 11.88 281.776 13.182 283.75 13.182C285.472 13.182 286.816 12.342 286.816 10.844C286.816 9.402 285.612 8.856 284.24 8.604L283.176 8.394C282.448 8.24 282.028 7.974 282.028 7.372C282.028 6.686 282.868 6.42 283.61 6.42C284.506 6.42 285.178 6.77 285.388 7.666H286.718Z" fill="black"/>
<path d="M8.05744 39.4636L10.9373 30.5649H5.18164L8.05744 39.4636Z" fill="#E24329"/>
<path d="M1.14645 30.5649L0.269447 33.2685C0.190097 33.514 0.275797 33.7849 0.485247 33.938L8.05605 39.4636L1.14645 30.5649Z" fill="#FCA326"/>
<path d="M1.14648 30.5649H5.18028L3.44423 25.2057C3.35538 24.9315 2.96818 24.9315 2.87613 25.2057L1.14648 30.5649Z" fill="#E24329"/>
<path d="M14.9704 30.5649L15.8442 33.2685C15.9236 33.514 15.8379 33.7849 15.6284 33.938L8.05664 39.4636L14.9704 30.5649Z" fill="#FCA326"/>
<path d="M14.9693 30.5649H10.9355L12.6684 25.2057C12.7572 24.9315 13.1444 24.9315 13.2365 25.2057L14.9693 30.5649Z" fill="#E24329"/>
<path d="M8.05664 39.4636L10.9366 30.5649H14.9704L8.05664 39.4636Z" fill="#FC6D26"/>
<path d="M8.05603 39.4636L1.14648 30.5649H5.18028L8.05603 39.4636Z" fill="#FC6D26"/>
<g style="mix-blend-mode:color">
<rect y="24" width="16" height="16" fill="#f3f3f3"/>
</g>
<path d="M29.432 26.668C26.576 26.668 24.714 28.768 24.714 31.904C24.714 34.984 26.394 37.182 29.306 37.182C30.664 37.182 31.854 36.776 32.512 35.726L32.582 37H33.702V31.82H29.67V33.052H32.358V33.318C32.358 35.418 30.706 35.978 29.362 35.978C27.5 35.978 26.17 34.48 26.17 31.904C26.17 29.272 27.57 27.872 29.362 27.872C30.986 27.872 31.91 28.67 32.246 29.804H33.632C33.212 27.844 31.532 26.668 29.432 26.668ZM35.7814 29.468V37H37.0554V29.468H35.7814ZM35.7814 26.85V28.39H37.0554V26.85H35.7814ZM39.4404 29.468H38.2504V30.49H39.4404V35.11C39.4404 36.678 39.7764 37 41.2184 37H42.1424V35.936H41.4984C40.7704 35.936 40.7144 35.74 40.7144 34.956V30.49H42.1424V29.468H40.7144V27.578H39.4404V29.468ZM45.0398 26.85H43.7658V37H45.0398V26.85ZM51.8067 33.85C51.8067 35.628 50.6727 36.174 49.4827 36.174C48.5727 36.174 48.0267 35.698 48.0267 34.984C48.0267 33.948 49.4967 33.598 51.8067 33.374V33.85ZM49.2027 37.182C50.5467 37.182 51.3167 36.748 51.7787 35.964C51.7927 36.412 51.8347 36.72 51.8767 37H53.1647C53.0107 36.286 52.9547 35.432 52.9687 34.158L52.9827 32.422C52.9967 30.294 52.0727 29.314 49.9867 29.314C48.5307 29.314 47.0747 30.224 46.9627 31.848H48.2787C48.3347 30.91 48.9367 30.35 50.0007 30.35C50.9527 30.35 51.7087 30.798 51.7087 32.184V32.366C48.6287 32.702 46.6127 33.234 46.6127 35.012C46.6127 36.398 47.7887 37.182 49.2027 37.182ZM56.099 33.262C56.099 31.274 57.163 30.434 58.297 30.434C59.599 30.434 60.453 31.456 60.453 33.262C60.453 35.068 59.599 36.09 58.297 36.09C57.163 36.09 56.099 35.25 56.099 33.262ZM54.881 26.85V37H56.155V35.866C56.617 36.664 57.401 37.182 58.619 37.182C60.355 37.182 61.839 35.768 61.839 33.262C61.839 30.798 60.355 29.342 58.619 29.342C57.401 29.342 56.617 29.86 56.155 30.658V26.85H54.881ZM73.9335 33.766C73.6115 35.068 72.6315 35.978 71.0075 35.978C69.1175 35.978 67.7735 34.48 67.7735 31.904C67.7735 29.272 69.1735 27.872 70.9655 27.872C72.5755 27.872 73.5835 28.81 73.8775 30.084H75.2635C74.8155 27.914 73.1355 26.668 71.0355 26.668C68.1795 26.668 66.3175 28.768 66.3175 31.904C66.3175 34.984 68.0115 37.182 70.9235 37.182C73.1215 37.182 74.8715 36.006 75.3195 33.766H73.9335ZM78.3937 26.85H76.9657V37H78.3937V26.85Z" fill="black"/>
<path d="M101.841 24.0394C100.961 24.0394 100.248 24.7541 100.248 25.6354C100.248 25.8448 100.289 26.0522 100.368 26.2457C100.448 26.4392 100.566 26.6151 100.714 26.7633C100.861 26.9115 101.037 27.0291 101.231 27.1095C101.424 27.1898 101.631 27.2312 101.841 27.2314H103.434V25.6354C103.434 25.2125 103.266 24.8068 102.968 24.5075C102.669 24.2082 102.263 24.0399 101.841 24.0394ZM101.841 28.2954H97.5928C96.7131 28.2954 96 29.0101 96 29.8917C96 30.773 96.7131 31.4877 97.5928 31.4877H101.841C102.72 31.4877 103.434 30.773 103.434 29.8917C103.434 29.0101 102.72 28.2954 101.841 28.2954Z" fill="#36C5F0"/>
<path d="M111.929 29.8917C111.929 29.0101 111.215 28.2954 110.336 28.2954C109.456 28.2954 108.743 29.0101 108.743 29.8917V31.4877H110.336C110.759 31.4873 111.164 31.3189 111.463 31.0196C111.761 30.7203 111.929 30.3146 111.929 29.8917ZM107.681 29.8917V25.6354C107.681 25.2125 107.514 24.8068 107.215 24.5075C106.916 24.2082 106.511 24.0399 106.088 24.0394C105.208 24.0394 104.495 24.7541 104.495 25.6354V29.8914C104.495 30.7733 105.208 31.488 106.088 31.488C106.511 31.4875 106.916 31.3192 107.215 31.0199C107.514 30.7206 107.681 30.3148 107.681 29.892" fill="#2EB67D"/>
<path d="M106.088 40C106.511 39.9996 106.916 39.8312 107.215 39.5319C107.514 39.2326 107.681 38.8269 107.681 38.404C107.681 37.9811 107.514 37.5754 107.215 37.2761C106.916 36.9768 106.511 36.8084 106.088 36.808H104.495V38.404C104.495 39.2854 105.208 40 106.088 40ZM106.088 35.744H110.336C111.215 35.744 111.929 35.0294 111.929 34.1478C111.929 33.7249 111.761 33.3192 111.463 33.0199C111.164 32.7206 110.759 32.5522 110.336 32.5518H106.088C105.208 32.5518 104.495 33.2664 104.495 34.1478C104.495 34.3571 104.536 34.5645 104.616 34.758C104.696 34.9516 104.813 35.1274 104.961 35.2756C105.109 35.4238 105.285 35.5415 105.478 35.6218C105.671 35.7021 105.879 35.7435 106.088 35.7438" fill="#ECB22E"/>
<path d="M96 34.1478C95.9998 34.3571 96.0408 34.5645 96.1208 34.758C96.2007 34.9516 96.318 35.1274 96.4659 35.2756C96.6138 35.4238 96.7894 35.5415 96.9828 35.6218C97.1761 35.7021 97.3834 35.7435 97.5928 35.7438C98.0157 35.7433 98.4211 35.575 98.7198 35.2757C99.0186 34.9764 99.1862 34.5706 99.1859 34.1478V32.5518H97.5928C96.7131 32.5518 96 33.2664 96 34.1478ZM100.248 34.1478V38.4038C100.248 39.2854 100.961 40 101.841 40C102.263 39.9996 102.669 39.8312 102.968 39.5319C103.266 39.2326 103.434 38.8269 103.434 38.404V34.1478C103.434 33.9384 103.393 33.731 103.313 33.5374C103.233 33.3439 103.116 33.168 102.968 33.0198C102.82 32.8716 102.644 32.754 102.451 32.6737C102.257 32.5934 102.05 32.5519 101.841 32.5518C100.961 32.5518 100.248 33.2664 100.248 34.1478Z" fill="#E01E5A"/>
<g style="mix-blend-mode:color">
<rect x="96" y="24" width="16" height="16" fill="#f3f3f3"/>
</g>
<path d="M120.784 29.44C120.784 31.12 122.17 31.904 123.57 32.212L124.83 32.478C126.09 32.772 127.014 33.192 127.014 34.27C127.014 35.278 126.16 35.978 124.648 35.978C123.08 35.978 122.114 35.25 121.848 33.85H120.448C120.714 35.866 122.226 37.182 124.62 37.182C126.636 37.182 128.484 36.118 128.484 34.144C128.484 32.1 126.622 31.512 125.068 31.176L123.892 30.91C122.94 30.7 122.24 30.252 122.24 29.356C122.24 28.222 123.612 27.872 124.396 27.872C125.404 27.872 126.58 28.278 126.916 29.44H128.302C127.896 27.494 126.286 26.668 124.452 26.668C122.814 26.668 120.784 27.494 120.784 29.44ZM131.251 26.85H129.977V37H131.251V26.85ZM138.018 33.85C138.018 35.628 136.884 36.174 135.694 36.174C134.784 36.174 134.238 35.698 134.238 34.984C134.238 33.948 135.708 33.598 138.018 33.374V33.85ZM135.414 37.182C136.758 37.182 137.528 36.748 137.99 35.964C138.004 36.412 138.046 36.72 138.088 37H139.376C139.222 36.286 139.166 35.432 139.18 34.158L139.194 32.422C139.208 30.294 138.284 29.314 136.198 29.314C134.742 29.314 133.286 30.224 133.174 31.848H134.49C134.546 30.91 135.148 30.35 136.212 30.35C137.164 30.35 137.92 30.798 137.92 32.184V32.366C134.84 32.702 132.824 33.234 132.824 35.012C132.824 36.398 134 37.182 135.414 37.182ZM144.214 29.342C141.988 29.342 140.574 31.008 140.574 33.248C140.574 35.544 141.918 37.182 144.088 37.182C145.852 37.182 147.182 35.964 147.448 34.55H146.132C145.95 35.334 145.208 36.062 144.13 36.062C143.01 36.062 141.96 35.138 141.96 33.234C141.96 31.344 143.01 30.462 144.13 30.462C145.124 30.462 145.894 31.092 146.076 31.988H147.364C147.182 30.7 146.062 29.342 144.214 29.342ZM148.885 26.85V37H150.159V34.48L151.041 33.528L153.603 37H155.157L151.895 32.59L154.765 29.468H153.197L150.159 32.856V26.85H148.885Z" fill="black"/>
<path d="M178.943 39.5654C174.74 39.5654 171.32 36.146 171.32 31.9427C171.32 27.7393 174.74 24.3199 178.943 24.3199C183.146 24.3199 186.566 27.7396 186.566 31.9428C186.566 36.146 183.146 39.5654 178.943 39.5654Z" fill="#85EA2D"/>
<path d="M179.004 24.763C183.004 24.763 186.246 28.005 186.246 32.0043C186.246 36.0035 183.004 39.2456 179.004 39.2456C175.005 39.2456 171.763 36.0035 171.763 32.0043C171.763 28.0051 175.005 24.763 179.004 24.763ZM179.004 24C174.591 24 171 27.5907 171 32.0043C171 36.4179 174.591 40.0086 179.004 40.0086C183.418 40.0086 187.009 36.4179 187.009 32.0043C187.009 27.5907 183.418 24 179.004 24Z" fill="#173647"/>
<path d="M176.108 29.3431C176.084 29.617 176.117 29.9002 176.099 30.1772C176.078 30.4543 176.044 30.7282 175.988 31.0021C175.911 31.393 175.668 31.6885 175.333 31.9348C175.985 32.3596 176.059 33.0181 176.102 33.6861C176.124 34.0463 176.115 34.4095 176.152 34.7665C176.179 35.0434 176.287 35.1143 176.573 35.1234C176.69 35.1265 176.81 35.1234 176.946 35.1234V35.9791C176.099 36.1237 175.401 35.8837 175.228 35.1666C175.173 34.905 175.136 34.6372 175.124 34.3663C175.105 34.0801 175.136 33.7938 175.114 33.5076C175.053 32.7226 174.951 32.458 174.2 32.421V31.4453C174.256 31.433 174.308 31.4237 174.363 31.4177C174.776 31.3961 174.951 31.2698 175.04 30.8636C175.084 30.6359 175.108 30.405 175.117 30.1711C175.148 29.7249 175.136 29.2693 175.213 28.8261C175.32 28.189 175.714 27.8812 176.37 27.8442C176.555 27.8349 176.743 27.8442 176.955 27.8442V28.7185C176.866 28.7247 176.789 28.7369 176.709 28.7369C176.176 28.7183 176.148 28.8999 176.108 29.3431ZM177.133 31.3684H177.121C176.813 31.353 176.549 31.593 176.533 31.9009C176.518 32.2117 176.758 32.4765 177.065 32.4917H177.102C177.407 32.5103 177.669 32.2762 177.687 31.9716V31.9409C177.693 31.63 177.444 31.3746 177.133 31.3684ZM179.063 31.3684C178.765 31.3591 178.515 31.593 178.506 31.8885C178.506 31.9071 178.506 31.9225 178.509 31.9409C178.509 32.2764 178.737 32.4919 179.082 32.4919C179.42 32.4919 179.633 32.2703 179.633 31.9225C179.63 31.5869 179.405 31.3653 179.063 31.3684ZM181.039 31.3684C180.725 31.3621 180.464 31.6116 180.455 31.9255C180.455 32.2394 180.707 32.4917 181.021 32.4917H181.027C181.31 32.541 181.597 32.2671 181.615 31.9378C181.63 31.633 181.353 31.3684 181.039 31.3684ZM183.751 31.4145C183.394 31.3991 183.215 31.2791 183.126 30.9404C183.071 30.725 183.037 30.5002 183.025 30.2786C183 29.8661 183.003 29.4506 182.975 29.0381C182.911 28.0594 182.203 27.7178 181.175 27.8869V28.7365C181.338 28.7365 181.464 28.7365 181.59 28.7396C181.809 28.7426 181.975 28.8258 181.997 29.069C182.018 29.2906 182.018 29.5153 182.04 29.7401C182.083 30.1865 182.107 30.6388 182.184 31.0789C182.252 31.4421 182.501 31.713 182.812 31.9346C182.268 32.3009 182.107 32.8241 182.08 33.4121C182.064 33.8153 182.055 34.2215 182.034 34.6279C182.015 34.9972 181.886 35.1172 181.513 35.1265C181.409 35.1295 181.307 35.1388 181.19 35.145V36.0161C181.409 36.0161 181.609 36.0284 181.809 36.0161C182.431 35.9791 182.806 35.6775 182.929 35.0741C182.982 34.7417 183.012 34.4063 183.022 34.0708C183.043 33.7629 183.04 33.4521 183.071 33.1474C183.117 32.6703 183.336 32.4733 183.813 32.4426C183.859 32.4364 183.902 32.4273 183.945 32.4119V31.4361C183.865 31.4268 183.809 31.4177 183.751 31.4145Z" fill="#173647"/>
<g style="mix-blend-mode:color">
<rect x="171" y="24" width="16" height="16" fill="#f3f3f3"/>
</g>
<path d="M195.784 29.44C195.784 31.12 197.17 31.904 198.57 32.212L199.83 32.478C201.09 32.772 202.014 33.192 202.014 34.27C202.014 35.278 201.16 35.978 199.648 35.978C198.08 35.978 197.114 35.25 196.848 33.85H195.448C195.714 35.866 197.226 37.182 199.62 37.182C201.636 37.182 203.484 36.118 203.484 34.144C203.484 32.1 201.622 31.512 200.068 31.176L198.892 30.91C197.94 30.7 197.24 30.252 197.24 29.356C197.24 28.222 198.612 27.872 199.396 27.872C200.404 27.872 201.58 28.278 201.916 29.44H203.302C202.896 27.494 201.286 26.668 199.452 26.668C197.814 26.668 195.784 27.494 195.784 29.44ZM206.853 35.04L205.411 29.468H204.039L206.209 37H207.371L208.981 30.938L210.647 37H211.809L213.979 29.468H212.607L211.165 35.04L209.667 29.468H208.351L206.853 35.04ZM219.662 33.85C219.662 35.628 218.528 36.174 217.338 36.174C216.428 36.174 215.882 35.698 215.882 34.984C215.882 33.948 217.352 33.598 219.662 33.374V33.85ZM217.058 37.182C218.402 37.182 219.172 36.748 219.634 35.964C219.648 36.412 219.69 36.72 219.732 37H221.02C220.866 36.286 220.81 35.432 220.824 34.158L220.838 32.422C220.852 30.294 219.928 29.314 217.842 29.314C216.386 29.314 214.93 30.224 214.818 31.848H216.134C216.19 30.91 216.792 30.35 217.856 30.35C218.808 30.35 219.564 30.798 219.564 32.184V32.366C216.484 32.702 214.468 33.234 214.468 35.012C214.468 36.398 215.644 37.182 217.058 37.182ZM227.805 30.658C227.343 29.86 226.629 29.342 225.411 29.342C223.745 29.342 222.219 30.7 222.219 33.108C222.219 35.53 223.745 36.874 225.411 36.874C226.629 36.874 227.343 36.37 227.805 35.572V36.286C227.805 37.322 227.581 37.644 227.315 37.952C226.965 38.33 226.461 38.512 225.775 38.512C224.613 38.512 224.179 37.994 224.025 37.322H222.667C222.905 38.848 224.039 39.632 225.761 39.632C226.881 39.632 227.819 39.268 228.365 38.638C228.799 38.162 229.079 37.518 229.079 35.992V29.468H227.805V30.658ZM227.861 33.108C227.861 35.026 226.853 35.796 225.733 35.796C224.487 35.796 223.605 34.844 223.605 33.108C223.605 31.386 224.487 30.434 225.733 30.434C226.853 30.434 227.861 31.204 227.861 33.108ZM236.158 30.658C235.696 29.86 234.982 29.342 233.764 29.342C232.098 29.342 230.572 30.7 230.572 33.108C230.572 35.53 232.098 36.874 233.764 36.874C234.982 36.874 235.696 36.37 236.158 35.572V36.286C236.158 37.322 235.934 37.644 235.668 37.952C235.318 38.33 234.814 38.512 234.128 38.512C232.966 38.512 232.532 37.994 232.378 37.322H231.02C231.258 38.848 232.392 39.632 234.114 39.632C235.234 39.632 236.172 39.268 236.718 38.638C237.152 38.162 237.432 37.518 237.432 35.992V29.468H236.158V30.658ZM236.214 33.108C236.214 35.026 235.206 35.796 234.086 35.796C232.84 35.796 231.958 34.844 231.958 33.108C231.958 31.386 232.84 30.434 234.086 30.434C235.206 30.434 236.214 31.204 236.214 33.108ZM246.094 33.654C246.248 31.26 244.89 29.342 242.58 29.342C240.522 29.342 238.926 30.854 238.926 33.248C238.926 35.474 240.242 37.182 242.622 37.182C244.456 37.182 245.66 36.104 245.996 34.816H244.68C244.358 35.558 243.742 36.062 242.622 36.062C241.516 36.062 240.34 35.278 240.298 33.654H246.094ZM242.58 30.434C243.938 30.434 244.708 31.498 244.75 32.562H240.312C240.424 31.05 241.46 30.434 242.58 30.434ZM251.33 29.44C251.176 29.426 251.078 29.426 250.952 29.426C249.958 29.468 249.202 29.93 248.824 30.784V29.468H247.578V37H248.852V33.052C248.852 31.386 249.44 30.742 250.616 30.742C250.826 30.742 251.064 30.756 251.33 30.798V29.44Z" fill="black"/>
<defs>
<linearGradient id="paint0_linear" x1="7.62259" y1="3.70805" x2="4.63459" y2="6.69605" gradientUnits="userSpaceOnUse">
<stop offset="0.18" stop-color="#0052CC"/>
<stop offset="1" stop-color="#2684FF"/>
</linearGradient>
<linearGradient id="paint1_linear" x1="205.729" y1="453.657" x2="304.438" y2="389.624" gradientUnits="userSpaceOnUse">
<stop offset="0.18" stop-color="#0052CC"/>
<stop offset="1" stop-color="#2684FF"/>
</linearGradient>
<linearGradient id="paint2_linear" x1="77.9576" y1="15.162" x2="69.6856" y2="10.408" gradientUnits="userSpaceOnUse">
<stop stop-color="#0052CC"/>
<stop offset="0.92" stop-color="#2380FB"/>
<stop offset="1" stop-color="#2684FF"/>
</linearGradient>
<linearGradient id="paint3_linear" x1="-175269" y1="-16540.7" x2="-174968" y2="-16195.4" gradientUnits="userSpaceOnUse">
<stop stop-color="#0052CC"/>
<stop offset="0.92" stop-color="#2380FB"/>
<stop offset="1" stop-color="#2684FF"/>
</linearGradient>
</defs>
</svg>
