<svg width="19" height="20" viewBox="0 0 19 20" fill="none" xmlns="http://www.w3.org/2000/svg">
<path fill-rule="evenodd" clip-rule="evenodd" d="M10.0001 0C5.02951 0 1.00008 4.02944 1.00008 9C1.00008 11.2255 1.80786 13.2624 3.14623 14.8334L0.292969 17.6866L1.70718 19.1008L4.60424 16.2038C6.10771 17.3317 7.97585 18 10.0001 18C14.9706 18 19.0001 13.9706 19.0001 9C19.0001 4.02944 14.9706 0 10.0001 0ZM3.00008 9C3.00008 5.13401 6.13408 2 10.0001 2C13.8661 2 17.0001 5.13401 17.0001 9C17.0001 12.866 13.8661 16 10.0001 16C6.13408 16 3.00008 12.866 3.00008 9Z" fill="black"/>
</svg>
