<svg width="10" height="10" viewBox="0 0 10 10" fill="none" xmlns="http://www.w3.org/2000/svg">
<path fill-rule="evenodd" clip-rule="evenodd" d="M4.50039 0.399994C2.23602 0.399994 0.400391 2.23563 0.400391 4.49999C0.400391 6.76436 2.23602 8.59999 4.50039 8.59999C5.41615 8.59999 6.26178 8.29977 6.94424 7.79237L8.57613 9.42426L9.42465 8.57573L7.79276 6.94384C8.30016 6.26139 8.60039 5.41575 8.60039 4.49999C8.60039 2.23563 6.76476 0.399994 4.50039 0.399994ZM1.60039 4.49999C1.60039 2.89837 2.89876 1.59999 4.50039 1.59999C6.10202 1.59999 7.40039 2.89837 7.40039 4.49999C7.40039 6.10162 6.10202 7.39999 4.50039 7.39999C2.89876 7.39999 1.60039 6.10162 1.60039 4.49999Z" fill="black"/>
</svg>
