<svg width="43" height="66" viewBox="0 0 43 66" fill="none" xmlns="http://www.w3.org/2000/svg">
<path fill-rule="evenodd" clip-rule="evenodd" d="M2.81641 21C2.81641 10.5066 11.323 2 21.8164 2C32.3098 2 40.8164 10.5066 40.8164 21C40.8164 31.4934 32.3098 40 21.8164 40C11.323 40 2.81641 31.4934 2.81641 21ZM22.8164 41.9766C33.95 41.4547 42.8164 32.2628 42.8164 21C42.8164 9.40202 33.4144 0 21.8164 0C10.2184 0 0.816406 9.40202 0.816406 21C0.816406 32.2628 9.68277 41.4547 20.8164 41.9766V65C20.8164 65.5523 21.2641 66 21.8164 66C22.3687 66 22.8164 65.5523 22.8164 65V41.9766Z" fill="#E31235"/>
</svg>
