<svg width="24" height="24" viewBox="0 0 24 24" fill="none" xmlns="http://www.w3.org/2000/svg">
<path d="M23.7002 11.9999C23.7002 18.4619 18.4622 23.6998 12.0001 23.6998C5.5386 23.6998 0.300049 18.4619 0.300049 11.9999C0.300049 5.53836 5.5386 0.299805 12.0001 0.299805C18.4622 0.299805 23.7002 5.53836 23.7002 11.9999Z" fill="#1A1918"/>
<path d="M12.1973 7.44757L15.2251 14.9204L10.6517 11.3179L12.1973 7.44757ZM17.576 16.6418L12.9188 5.43374C12.7858 5.1105 12.52 4.93945 12.1973 4.93945C11.8741 4.93945 11.5889 5.1105 11.4559 5.43374L6.34424 17.7276H8.09286L10.1164 12.6588L16.1549 17.5373C16.3978 17.7336 16.573 17.8225 16.8008 17.8225C17.257 17.8225 17.6558 17.4805 17.6558 16.9868C17.6558 16.9065 17.6274 16.779 17.576 16.6418Z" fill="white"/>
</svg>
