<svg width="24" height="24" viewBox="0 0 24 24" fill="none" xmlns="http://www.w3.org/2000/svg">
<path d="M11.9004 11.9996C11.9004 11.0979 12.2586 10.2331 12.8963 9.59544C13.5339 8.95782 14.3987 8.59961 15.3004 8.59961C16.2022 8.59961 17.067 8.95782 17.7046 9.59544C18.3422 10.2331 18.7004 11.0979 18.7004 11.9996C18.7004 12.9013 18.3422 13.7661 17.7046 14.4038C17.067 15.0414 16.2022 15.3996 15.3004 15.3996C14.3987 15.3996 13.5339 15.0414 12.8963 14.4038C12.2586 13.7661 11.9004 12.9013 11.9004 11.9996Z" fill="#1ABCFE"/>
<path d="M5.10001 18.8004C5.10001 17.8986 5.45822 17.0338 6.09584 16.3962C6.73346 15.7586 7.59827 15.4004 8.5 15.4004H11.9V18.8004C11.9 19.7021 11.5418 20.5669 10.9042 21.2045C10.2665 21.8422 9.40174 22.2004 8.5 22.2004C7.59827 22.2004 6.73346 21.8422 6.09584 21.2045C5.45822 20.5669 5.10001 19.7021 5.10001 18.8004V18.8004Z" fill="#0ACF83"/>
<path d="M11.9004 1.7998V8.5998H15.3004C16.2022 8.5998 17.067 8.24158 17.7046 7.60396C18.3422 6.96634 18.7004 6.10153 18.7004 5.1998C18.7004 4.29807 18.3422 3.43326 17.7046 2.79564C17.067 2.15802 16.2022 1.7998 15.3004 1.7998L11.9004 1.7998Z" fill="#FF7262"/>
<path d="M5.10001 5.1998C5.10001 6.10153 5.45822 6.96634 6.09584 7.60396C6.73346 8.24158 7.59827 8.5998 8.5 8.5998H11.9V1.7998H8.5C7.59827 1.7998 6.73346 2.15802 6.09584 2.79564C5.45822 3.43326 5.10001 4.29807 5.10001 5.1998V5.1998Z" fill="#F24E1E"/>
<path d="M5.10001 11.9996C5.10001 12.9013 5.45822 13.7661 6.09584 14.4038C6.73346 15.0414 7.59827 15.3996 8.5 15.3996H11.9V8.59961H8.5C7.59827 8.59961 6.73346 8.95782 6.09584 9.59544C5.45822 10.2331 5.10001 11.0979 5.10001 11.9996V11.9996Z" fill="#A259FF"/>
</svg>
