<svg width="24" height="24" viewBox="0 0 24 24" fill="none" xmlns="http://www.w3.org/2000/svg">
<path fill-rule="evenodd" clip-rule="evenodd" d="M22.428 4.38706C21.7479 3.70663 20.8301 3.317 19.8682 3.30036C18.9063 3.28372 17.9755 3.64138 17.2723 4.29788C17.2375 4.33065 17.2096 4.36996 17.1901 4.41355C17.1707 4.45715 17.16 4.50416 17.1588 4.55189C17.1593 4.64789 17.1971 4.73993 17.2641 4.8086L17.7262 5.28689C17.7865 5.34691 17.8664 5.38322 17.9512 5.38917C18.0361 5.39513 18.1202 5.37033 18.1883 5.31932C18.5548 5.0427 19.0018 4.89369 19.461 4.89507C19.8823 4.89323 20.2946 5.0167 20.6455 5.24978C20.9964 5.48287 21.2701 5.81503 21.4317 6.20406C21.5933 6.59308 21.6356 7.02138 21.5532 7.4345C21.4708 7.84762 21.2674 8.2269 20.9689 8.52413C19.7447 9.74827 18.3502 9.03816 16.4979 8.09491C13.8932 6.7686 10.3834 4.98134 5.1691 7.46216C5.01731 7.53312 4.88186 7.63474 4.77129 7.76064C4.66071 7.88653 4.57742 8.03397 4.52664 8.19365C4.47587 8.35333 4.45872 8.52179 4.47628 8.68843C4.49384 8.85506 4.54572 9.01625 4.62866 9.16185L6.1581 11.8073C6.31771 12.0826 6.57908 12.2841 6.88588 12.3686C7.19269 12.453 7.52038 12.4135 7.79834 12.2586L7.83617 12.2369L7.80645 12.2586L8.4847 11.8776C9.24059 11.4082 9.95479 10.8748 10.6194 10.2833C10.6875 10.2249 10.7743 10.1927 10.864 10.1927C10.9537 10.1927 11.0404 10.2249 11.1085 10.2833C11.1495 10.3154 11.1827 10.3564 11.2057 10.4032C11.2286 10.45 11.2407 10.5014 11.2409 10.5535C11.2419 10.6042 11.232 10.6545 11.212 10.7011C11.192 10.7477 11.1622 10.7895 11.1247 10.8237C10.4247 11.4451 9.67151 12.0039 8.87382 12.4937H8.8522L8.17395 12.872C7.88726 13.0344 7.5631 13.1192 7.23358 13.1179C6.8932 13.1179 6.55874 13.0289 6.26342 12.8596C5.9681 12.6904 5.72218 12.4469 5.55011 12.1532L4.10443 9.65365C1.32657 11.6154 -0.359601 15.3958 0.545636 20.1922C0.561733 20.2724 0.604876 20.3446 0.66784 20.3967C0.730805 20.4489 0.80977 20.4778 0.891517 20.4787H2.53986C2.62553 20.4787 2.70825 20.4473 2.77245 20.3906C2.83665 20.3339 2.8779 20.2556 2.88844 20.1706C2.96189 19.5875 3.24565 19.0512 3.68647 18.6624C4.12728 18.2736 4.69483 18.0591 5.28259 18.0591C5.87035 18.0591 6.4379 18.2736 6.87872 18.6624C7.31953 19.0512 7.60329 19.5875 7.67674 20.1706C7.6879 20.2559 7.7297 20.3341 7.79434 20.3908C7.85899 20.4475 7.94205 20.4787 8.02803 20.4787H9.63313C9.71881 20.4787 9.80152 20.4473 9.86572 20.3906C9.92992 20.3339 9.97117 20.2556 9.98172 20.1706C10.0575 19.5889 10.3424 19.0547 10.7832 18.6676C11.224 18.2806 11.7906 18.0671 12.3772 18.0671C12.9638 18.0671 13.5304 18.2806 13.9712 18.6676C14.412 19.0547 14.6969 19.5889 14.7727 20.1706C14.7833 20.2556 14.8245 20.3339 14.8887 20.3906C14.9529 20.4473 15.0356 20.4787 15.1213 20.4787H16.7075C16.7997 20.4787 16.8883 20.4424 16.954 20.3777C17.0197 20.313 17.0574 20.225 17.0588 20.1328C17.0966 17.8981 17.6992 15.331 19.4178 14.0447C25.3707 9.5915 23.8062 5.77329 22.428 4.38706ZM15.2213 10.5535L16.3562 11.1236V11.1263C16.4547 11.0542 16.533 10.958 16.5837 10.847C16.6343 10.736 16.6557 10.6138 16.6456 10.4921C16.6356 10.3705 16.5945 10.2535 16.5263 10.1522C16.4581 10.051 16.3651 9.96899 16.2561 9.91399C16.1472 9.85899 16.0259 9.83287 15.904 9.83812C15.782 9.84337 15.6635 9.87982 15.5596 9.94398C15.4558 10.0081 15.3702 10.0979 15.3109 10.2046C15.2517 10.3113 15.2208 10.4314 15.2213 10.5535Z" fill="#02303A"/>
</svg>
