<svg width="24" height="24" viewBox="0 0 24 24" fill="none" xmlns="http://www.w3.org/2000/svg">
<path d="M22.254 11.4002L12.9 2.07017L12 1.17017L4.97396 8.19617L1.75797 11.4002C1.67805 11.4799 1.61465 11.5746 1.57139 11.6788C1.52813 11.783 1.50586 11.8948 1.50586 12.0077C1.50586 12.1205 1.52813 12.2323 1.57139 12.3365C1.61465 12.4408 1.67805 12.5355 1.75797 12.6152L8.18396 19.0532L12 22.8752L19.041 15.8432L19.149 15.7352L22.254 12.6272C22.3357 12.5473 22.4006 12.4518 22.445 12.3465C22.4893 12.2411 22.5121 12.128 22.5121 12.0137C22.5121 11.8994 22.4893 11.7862 22.445 11.6809C22.4006 11.5755 22.3357 11.4801 22.254 11.4002ZM12 15.2312L8.78996 12.0212L12 8.81117L15.21 12.0212L12 15.2312Z" fill="#2684FF"/>
<path d="M12.0009 8.81095C10.996 7.79932 10.4321 6.43132 10.4321 5.00545C10.4321 3.57958 10.996 2.21158 12.0009 1.19995L4.96289 8.21095L8.78489 12.033L12.0009 8.81095Z" fill="url(#paint0_linear)"/>
<path d="M15.225 12L12 15.231C12.5025 15.7326 12.9012 16.3283 13.1732 16.9841C13.4452 17.64 13.5853 18.343 13.5853 19.053C13.5853 19.763 13.4452 20.466 13.1732 21.1219C12.9012 21.7777 12.5025 22.3734 12 22.875L19.05 15.834L15.225 12Z" fill="url(#paint1_linear)"/>
<g style="mix-blend-mode:color">
<rect width="24" height="24" fill="rgba(243, 243, 243, 1)"/>
</g>
<defs>
<linearGradient id="paint0_linear" x1="11.4339" y1="5.56195" x2="6.95189" y2="10.044" gradientUnits="userSpaceOnUse">
<stop offset="0.18" stop-color="#0052CC"/>
<stop offset="1" stop-color="#2684FF"/>
</linearGradient>
<linearGradient id="paint1_linear" x1="308.593" y1="680.486" x2="456.657" y2="584.436" gradientUnits="userSpaceOnUse">
<stop offset="0.18" stop-color="#0052CC"/>
<stop offset="1" stop-color="#2684FF"/>
</linearGradient>
</defs>
</svg>
