<svg width="24" height="24" viewBox="0 0 24 24" fill="none" xmlns="http://www.w3.org/2000/svg">
<path d="M14.1236 23.6998C13.5398 23.6998 12.903 23.5474 12.3765 23.0504C11.8678 22.5706 11.6682 21.958 11.5484 21.5917C11.53 21.5345 11.5121 21.4798 11.499 21.4446C11.2594 20.7978 11.1784 19.8735 11.1312 18.685C11.1243 18.509 11.1191 18.3214 11.1138 18.1296C11.1107 18.0114 11.1065 17.8747 11.1017 17.7313C10.2962 18.0844 9.35201 18.1474 8.34421 17.8952C8.06593 17.8259 7.80006 17.7139 7.55604 17.5632C7.39767 17.4663 7.25576 17.3448 7.13569 17.2032C6.33229 17.8726 5.56829 17.7744 5.14794 17.6341C4.39761 17.384 3.72924 16.6883 3.10502 15.5039C2.66522 14.6695 2.24014 13.5829 1.8408 12.2751C1.14616 9.9994 0.704793 7.59865 0.665385 6.81049C0.54138 4.32672 1.2129 2.54809 2.66207 1.52453C3.85903 0.679093 5.49526 0.4211 7.52504 0.752655C8.22982 0.87089 8.92403 1.04519 9.60107 1.27389C10.4418 0.7763 11.4275 0.531443 12.5436 0.549834C13.1093 0.556738 13.6737 0.608392 14.2313 0.704314C15.1671 0.427158 16.139 0.290975 17.1149 0.300248C19.4316 0.327571 21.3516 1.23081 22.6673 2.91275C23.1643 3.54801 23.5899 4.952 22.7939 8.0353C22.3016 9.9416 21.4461 11.9672 20.3942 13.7432C20.7896 13.7259 21.1827 13.6742 21.5691 13.5887C21.819 13.53 22.0772 13.5158 22.332 13.5467C22.7939 13.6155 23.1517 13.9034 23.2878 14.3164C23.6861 15.5213 21.9957 16.414 21.4682 16.6583C20.8009 16.9689 19.7132 17.157 18.8247 17.1165L18.7837 17.1139L18.6261 17.0997C18.6214 17.1402 18.6166 17.1812 18.6119 17.2206C18.6051 17.2799 18.5977 17.3414 18.5903 17.4066C18.5304 19.697 18.201 21.1509 17.5232 22.1161C16.8059 23.1371 15.815 23.4218 14.9422 23.6089C14.6733 23.6679 14.3989 23.6983 14.1236 23.6998ZM12.4259 15.2785C12.9865 15.7267 13.0348 16.5454 13.0774 18.0734C13.0827 18.2567 13.0874 18.4364 13.0942 18.6046C13.1142 19.1038 13.1609 20.2734 13.3417 20.7589C13.368 20.8309 13.3916 20.9029 13.4168 20.9796C13.6202 21.6033 13.7043 21.8613 14.5281 21.6847C15.2548 21.5271 15.6269 21.391 15.9132 20.9838C16.3409 20.3748 16.5805 19.1384 16.6247 17.3094L17.6067 17.333L16.6315 17.2158L16.6583 16.9909C16.7434 16.259 16.8107 15.6805 17.333 15.3069C17.6629 15.0715 18.0339 15.04 18.3555 15.0694C18.1685 14.8848 18.0383 14.6505 17.9803 14.3942L17.8983 13.9912L18.1285 13.6497C19.3459 11.8432 20.3516 9.62213 20.8876 7.55452C21.4882 5.23784 21.2233 4.25526 21.1198 4.11917C18.9361 1.33327 15.1356 2.47243 14.7178 2.60957L14.6443 2.64898L14.2765 2.71676L14.0878 2.67788C13.5686 2.57446 13.0409 2.51975 12.5115 2.51447C11.6282 2.50028 10.9126 2.70783 10.3288 3.15078L9.88113 3.49021L9.36094 3.27636C8.34001 2.86073 5.35759 2.0237 3.79335 3.13186C2.93162 3.7419 2.53964 4.94674 2.62791 6.71381C2.65839 7.32542 3.07349 9.62003 3.75814 11.8269C4.69921 14.8582 5.52941 15.6989 5.76534 15.7693C5.79476 15.7567 5.89932 15.7026 6.06536 15.5029C7.0863 14.2749 8.05732 13.2514 8.0983 13.2083L8.66683 12.6103L9.35411 13.0669C9.58135 13.2204 9.8439 13.3135 10.1171 13.3375L11.7496 11.9441L11.5121 14.3685C11.5062 14.4447 11.5103 14.5213 11.5242 14.5965L11.5957 15.0557L11.2856 15.402L11.2772 15.4115L12.0391 15.763L12.4259 15.2785Z" fill="black"/>
<path d="M21.768 14.5507C19.125 15.0961 18.9432 14.2013 18.9432 14.2013C21.7339 10.0603 22.9003 4.80425 21.8962 3.51744C19.1471 0.00852823 14.3929 1.66945 14.3135 1.71096L14.2878 1.71569C13.7071 1.59935 13.1167 1.53778 12.5244 1.53179C11.3285 1.51235 10.4226 1.84705 9.73274 2.36777C9.73274 2.36777 1.25156 -1.12643 1.64617 6.76205C1.73024 8.43979 4.05165 19.4594 6.82021 16.1312C7.83221 14.9138 8.81269 13.885 8.81269 13.885C9.30522 14.2174 9.89777 14.3687 10.4894 14.3132L10.5367 14.2727C10.5228 14.4305 10.5291 14.5895 10.5556 14.7456C9.84255 15.5427 10.0522 15.6825 8.62615 15.9762C7.18329 16.2731 8.03083 16.8027 8.58412 16.9409C9.25511 17.1091 10.8073 17.3466 11.8561 15.8785L11.814 16.0461C12.0936 16.2699 12.2901 17.5021 12.257 18.6208C12.2239 19.7394 12.2044 20.5045 12.4225 21.1035C12.6405 21.7025 12.8618 23.0476 14.7344 22.6488C16.3008 22.3131 17.1126 21.4435 17.225 19.9922C17.3054 18.9607 17.4878 19.1131 17.4983 18.191L17.6438 17.7543C17.8114 16.3561 17.6701 15.9053 18.6353 16.1149L18.8697 16.1354C19.5801 16.168 20.5096 16.0214 21.055 15.7676C22.2299 15.2222 22.9266 14.3121 21.768 14.5512V14.5507Z" fill="#336791"/>
<path d="M14.2169 23.0912C12.6405 23.0912 12.1403 21.8433 11.9359 21.3326C11.6868 20.7084 11.5991 18.6208 11.6143 16.5863C10.812 17.3098 9.72274 17.5378 8.48375 17.2273C8.37866 17.201 7.46807 16.9562 7.48015 16.3734C7.49119 15.8396 8.25255 15.683 8.53892 15.6236C9.54672 15.4161 9.61188 15.3336 9.92504 14.9364C9.99072 14.8528 10.068 14.7546 10.1636 14.6416C10.1636 14.6342 10.1636 14.6263 10.1636 14.619C9.7061 14.6077 9.25778 14.4883 8.85524 14.2706C8.58201 14.5612 7.84429 15.3578 7.05507 16.3078C6.38513 17.1133 5.75197 17.118 5.33845 16.9798C4.31594 16.6388 3.34176 14.9805 2.44851 12.0506C1.76911 9.82485 1.33878 7.50187 1.29937 6.74523C1.18692 4.50159 1.76596 2.9137 3.02072 2.02622C5.2507 0.449894 8.84578 1.64318 9.68071 1.95424C10.4641 1.41618 11.4147 1.15346 12.5102 1.17133C13.0653 1.17855 13.6178 1.24906 14.157 1.3815C14.5705 1.23858 15.6897 0.944336 16.9896 0.944336H17.0112C19.1686 0.94959 20.9394 1.75772 22.1316 3.28151C22.9355 4.30875 22.4054 6.80933 22.14 7.8371C21.5878 9.97355 20.5637 12.265 19.3215 14.1598C19.5112 14.2985 20.085 14.5276 21.6824 14.196C22.2215 14.0846 22.5457 14.1829 22.646 14.4876C22.841 15.0767 21.7675 15.7545 21.1748 16.0303C20.7544 16.2263 20.116 16.3708 19.4692 16.4176C19.1329 16.4418 18.5675 16.4538 18.1424 16.3193C18.0226 17.4175 17.7689 19.4631 17.6212 20.3195C17.3448 21.9232 16.6297 22.6504 14.984 23.0035C14.7321 23.0596 14.4749 23.089 14.2169 23.0912ZM12.2864 15.5411C12.2191 18.1794 12.3284 20.5481 12.5444 21.0882C12.8828 21.9337 13.3961 22.674 14.8463 22.363C16.2445 22.0629 16.7421 21.5596 16.9754 20.2087C17.1515 19.1872 17.5009 16.2999 17.5482 15.6736C17.4862 14.4377 18.1524 14.1913 18.5229 14.0846C18.4756 14.0163 18.413 13.9385 18.3489 13.8582C18.2927 13.7883 18.2312 13.711 18.1666 13.6254C18.163 13.6212 18.1597 13.6168 18.1566 13.6122C17.9431 13.3314 17.7665 13.0243 17.6312 12.6985C17.597 12.6165 17.4893 12.4226 17.3643 12.1988C16.6812 10.9761 15.2625 8.4319 16.181 7.12144C16.6013 6.51981 17.432 6.27811 18.6505 6.40159C18.4929 5.93394 18.1088 5.0512 17.3333 4.13483C16.6759 3.35822 15.6371 2.46497 14.1349 2.05355C14.0994 2.05062 14.0648 2.04155 14.0324 2.02675C13.5315 1.90032 13.0174 1.8333 12.5008 1.82708C11.2749 1.80659 10.2703 2.18281 9.51572 2.94522C8.31613 4.15374 7.99719 6.06373 7.91312 7.08414C7.96934 7.05314 8.02977 7.02056 8.09492 6.98746C8.39863 6.8335 9.00762 6.5671 9.67125 6.49617C10.782 6.3811 11.5145 6.87659 11.7336 7.89069C12.3195 10.5994 11.7799 11.7979 11.3858 12.6722C11.3127 12.8341 11.2439 12.9875 11.1887 13.1351C11.0638 13.4556 10.9585 13.7834 10.8735 14.1167C11.1562 14.0505 11.391 14.1477 11.5198 14.2013C11.8508 14.3384 12.1266 14.6694 12.2401 15.0651C12.2858 15.2194 12.3015 15.381 12.2864 15.5411ZM8.20579 16.4029C8.34015 16.4891 8.48787 16.5525 8.64296 16.5905C9.51677 16.8096 10.7337 16.8243 11.5686 15.6552C11.6033 15.6053 11.6253 15.5478 11.6327 15.4875C11.6327 15.4529 11.6327 15.4182 11.6354 15.3825C11.6318 15.3355 11.6236 15.289 11.6107 15.2437C11.5534 15.0446 11.4131 14.8644 11.2691 14.8045C11.0915 14.7309 10.9933 14.6905 10.7789 14.9301C10.6349 15.0903 10.5309 15.2222 10.4394 15.3388C10.0396 15.8464 9.85673 16.0182 8.67133 16.2626C8.51127 16.2918 8.35507 16.3392 8.20579 16.4039V16.4029ZM5.91066 1.88593C5.0174 1.88593 4.11259 2.0567 3.39956 2.56165C2.3408 3.31146 1.85476 4.70808 1.95512 6.71265C1.98665 7.34686 2.38808 9.60942 3.07484 11.862C3.86878 14.4629 4.76887 16.1023 5.54442 16.3614C5.66317 16.4013 6.02573 16.5221 6.55012 15.8916C7.29047 15.001 7.98615 14.2422 8.3072 13.8986C8.22612 13.8294 8.1486 13.7561 8.07495 13.679C7.3593 12.9328 7.03142 11.9014 7.17329 10.8453L7.22899 7.79506C7.22426 7.5728 7.18853 4.36655 9.04965 2.48809C9.06279 2.47443 9.07645 2.46129 9.08958 2.44815C8.41597 2.22432 7.17119 1.88593 5.91066 1.88593ZM18.2018 15.6341C18.2817 15.6988 18.6195 15.8044 19.2848 15.7734C19.8864 15.745 20.5201 15.6131 20.8989 15.4376C21.2387 15.2861 21.553 15.0832 21.8311 14.836L21.8163 14.8386C20.4707 15.1166 19.5181 15.0782 18.9837 14.7257C18.9519 14.7048 18.9212 14.6824 18.8917 14.6584C18.8471 14.6742 18.8008 14.6873 18.753 14.7004C18.4504 14.7856 18.1661 14.8659 18.2018 15.6341ZM7.88264 7.89017L7.8301 10.8742L7.82695 10.9136C7.70609 11.7763 7.96987 12.6181 8.54943 13.2255C8.76487 13.4565 9.02501 13.6413 9.31406 13.7686C9.6031 13.896 9.91501 13.9633 10.2308 13.9664H10.2398C10.3316 13.6075 10.4454 13.2546 10.5808 12.9097C10.6433 12.7411 10.7169 12.5782 10.7941 12.4058C11.1709 11.5693 11.6396 10.5284 11.0994 8.03099C10.9943 7.54863 10.7442 7.26804 10.3323 7.17346C9.93818 7.08309 9.39644 7.1598 8.80847 7.3889C8.32559 7.57333 7.99561 7.79086 7.88264 7.89017ZM18.8224 13.4021L18.8602 13.4494C18.887 13.483 18.9127 13.5161 18.939 13.5487C21.5352 9.46334 22.4322 4.72753 21.6188 3.68662C20.5563 2.32888 19.0362 1.62741 17.1 1.60061C16.4901 1.59499 15.8813 1.65168 15.283 1.76981C16.2494 2.20906 17.1068 2.85664 17.7936 3.66613C18.8371 4.88096 19.3489 6.22241 19.3914 6.67114C19.3976 6.72892 19.3942 6.78733 19.3814 6.84401C19.3983 7.31323 19.3373 7.70994 19.2764 8.09404C19.2189 8.42753 19.1823 8.7643 19.1671 9.10237C19.1555 9.44811 19.1954 9.82012 19.2375 10.2142C19.3441 11.1968 19.4618 12.3018 18.8224 13.4021ZM18.061 7.02529C17.4977 7.02529 16.9702 7.13826 16.7185 7.49819C16.0354 8.47236 17.3685 10.861 17.9375 11.8809C18.0836 12.1436 18.1892 12.3323 18.2375 12.45C18.2859 12.5669 18.341 12.6809 18.4025 12.7915C18.7703 11.9624 18.6789 11.1101 18.5906 10.2846C18.546 9.86741 18.504 9.47385 18.5166 9.0824C18.5321 8.71807 18.5711 8.35512 18.6332 7.99578C18.6873 7.68999 18.7202 7.38081 18.7315 7.07048C18.5091 7.0417 18.2852 7.02661 18.061 7.02529Z" fill="white"/>
<path d="M9.68974 7.74477C9.6745 7.84986 9.88573 8.1378 10.1626 8.17616C10.4395 8.21452 10.6734 7.9912 10.6881 7.88401C10.7028 7.77682 10.4921 7.65912 10.2152 7.62129C9.93827 7.58346 9.70445 7.63863 9.68974 7.7453V7.74477Z" fill="white"/>
<path d="M18.066 7.52679C18.0812 7.63187 17.87 7.91982 17.5931 7.95765C17.3162 7.99548 17.0823 7.77269 17.0676 7.66603C17.0529 7.55936 17.2641 7.44061 17.5405 7.40331C17.8169 7.366 18.0512 7.42065 18.066 7.52784V7.52679Z" fill="white"/>
</svg>
