<svg width="24" height="24" viewBox="0 0 24 24" fill="none" xmlns="http://www.w3.org/2000/svg">
<path d="M12.0003 0.299805C5.53867 0.299805 0.299988 5.53787 0.299988 11.9997C0.299988 18.4613 5.53867 23.6998 12.0003 23.6998C18.4619 23.6998 23.7004 18.4613 23.7004 11.9997C23.7004 5.53787 18.4617 0.299805 12.0003 0.299805ZM12.0003 22.1975C10.1618 22.1975 8.6713 20.9694 8.6713 19.4549H15.3293C15.3293 20.9692 13.8387 22.1975 12.0003 22.1975ZM17.4987 18.5466H6.50125V16.5525H17.4989V18.5466H17.4987ZM17.4593 15.5261H6.53264C6.4963 15.4842 6.45913 15.4429 6.42403 15.4003C5.29833 14.0335 5.03322 13.3199 4.77574 12.5927C4.77141 12.5687 6.14075 12.8725 7.1118 13.0909C7.1118 13.0909 7.61147 13.2065 8.34198 13.3397C7.64058 12.5175 7.22412 11.4724 7.22412 10.4041C7.22412 8.05872 9.02293 6.00925 8.37398 4.3527C9.00559 4.40411 9.68117 5.6857 9.7268 7.68954C10.3983 6.76164 10.6793 5.0671 10.6793 4.02812C10.6793 2.95239 11.3881 1.7028 12.0971 1.66006C11.4651 2.70173 12.2609 3.59473 12.9683 5.81C13.2336 6.64209 13.1997 8.04241 13.4045 8.93045C13.4725 7.08601 13.7896 4.39482 14.9597 3.46568C14.4435 4.63578 15.0361 6.09989 15.4414 6.80376C16.0953 7.93937 16.4917 8.79976 16.4917 10.427C16.4917 11.518 16.0889 12.5452 15.4094 13.3482C16.182 13.2032 16.7156 13.0725 16.7156 13.0725L19.2246 12.583C19.2249 12.5828 18.8602 14.0822 17.4593 15.5261Z" fill="#E6522C"/>
</svg>
