<svg width="24" height="24" viewBox="0 0 24 24" fill="none" xmlns="http://www.w3.org/2000/svg">
<path fill-rule="evenodd" clip-rule="evenodd" d="M0 17.7391H11.9932L23.7303 6H0V17.7391Z" fill="url(#paint0_linear)"/>
<path fill-rule="evenodd" clip-rule="evenodd" d="M14.083 8.34794H11.7394L11.7472 13.8601L9.70641 8.34612H7.68285L5.94076 12.9512C5.75554 11.7794 4.54406 11.3751 3.59085 11.0722C2.96137 10.87 2.29328 10.5726 2.30006 10.2439C2.30528 9.9742 2.65746 9.72403 3.35737 9.76133C3.82693 9.78664 4.24172 9.82446 5.06685 10.2231L5.87815 8.80916C5.1258 8.4262 4.08546 8.18438 3.23241 8.18359H3.22719C2.2325 8.18359 1.40424 8.50577 0.890847 9.03664C0.532934 9.40707 0.339891 9.8782 0.332065 10.3992C0.319021 11.116 0.581717 11.6242 1.13372 12.0304C1.60015 12.3721 2.19676 12.5939 2.72241 12.7566C3.37067 12.9575 3.90024 13.1323 3.89372 13.5043C3.8885 13.6399 3.83737 13.7667 3.7398 13.869C3.57806 14.0359 3.33024 14.0985 2.98719 14.1053C2.32537 14.1194 1.83493 14.0153 1.05337 13.5533L0.331543 14.9855C1.11233 15.4295 1.94111 15.6523 2.88285 15.6523L3.09467 15.6507C3.91432 15.6359 4.57954 15.4394 5.10806 15.0142C5.13832 14.9899 5.16545 14.9654 5.19363 14.9406L5.10493 15.3977L7.08232 15.3914L7.43711 14.4831C7.81015 14.6104 8.23432 14.6808 8.68458 14.6808C9.12337 14.6808 9.53606 14.614 9.90206 14.494L10.1494 15.3914L13.6972 15.3948L13.7058 13.324H14.4608C16.2855 13.324 17.3642 12.3953 17.3642 10.8379C17.3637 9.10342 16.315 8.34794 14.083 8.34794ZM8.68458 13.0598C8.41198 13.0598 8.15632 13.0123 7.93641 12.9288L8.67624 10.5927H8.69058L9.41841 12.9353C9.19928 13.0136 8.94963 13.0598 8.68432 13.0598H8.68458ZM14.2202 11.7176H13.7053V9.8349H14.2205C14.9066 9.8349 15.4544 10.0634 15.4544 10.7641C15.4539 11.4893 14.9066 11.7176 14.2205 11.7176" fill="white"/>
<defs>
<linearGradient id="paint0_linear" x1="11.8651" y1="6" x2="11.8651" y2="17.7394" gradientUnits="userSpaceOnUse">
<stop stop-color="#00AEEF"/>
<stop offset="0.212" stop-color="#0097DC"/>
<stop offset="0.519" stop-color="#007CC5"/>
<stop offset="0.792" stop-color="#006CB8"/>
<stop offset="1" stop-color="#0066B3"/>
</linearGradient>
</defs>
</svg>
