<svg width="24" height="24" viewBox="0 0 24 24" fill="none" xmlns="http://www.w3.org/2000/svg">
<path d="M21.6462 1.67966C21.3326 2.45166 20.8984 3.19953 20.3918 3.87503C15.9045 -0.781076 8.49818 -0.9017 3.8662 3.58553C-0.765784 8.07276 -0.910533 15.4791 3.5767 20.1111C3.72145 20.28 3.89032 20.4247 4.0592 20.5695L4.49344 20.9555C9.41492 25.1049 16.7971 24.4777 20.9466 19.5562C22.5389 17.6745 23.5039 15.3102 23.6727 12.8495C24.0105 9.93038 23.1179 6.1669 21.6462 1.67966ZM5.74794 20.6901C5.41019 21.1243 4.78294 21.1726 4.34869 20.8348C3.91445 20.4971 3.8662 19.8698 4.20395 19.4356C4.54169 19.0013 5.16894 18.9531 5.60319 19.2908C6.01331 19.6286 6.08569 20.2558 5.74794 20.6901ZM21.5739 17.192C18.703 21.0278 12.527 19.7251 8.59468 19.9181C8.59468 19.9181 7.89505 19.9663 7.19543 20.0628C7.19543 20.0628 7.46081 19.9422 7.79855 19.8216C10.5729 18.8566 11.8757 18.6636 13.5644 17.7951C16.7248 16.1787 19.8851 12.6324 20.5124 8.96538C19.3061 12.4876 15.6391 15.5274 12.3099 16.7577C10.018 17.6021 5.89269 18.4223 5.89269 18.4223L5.72381 18.3258C2.92533 16.9507 2.82883 10.8713 7.9433 8.91713C10.1869 8.04864 12.3099 8.53114 14.7465 7.95214C17.3279 7.34902 20.3194 5.41902 21.5256 2.88591C22.8766 6.96302 24.5171 13.2837 21.5739 17.192Z" fill="#6DB33F"/>
<path d="M21.5748 17.1918C18.704 21.0277 12.528 19.7249 8.59565 19.9179C8.59565 19.9179 7.89603 19.9662 7.1964 20.0627C7.1964 20.0627 7.46178 19.942 7.79953 19.8214C10.5739 18.8564 11.8766 18.6634 13.5654 17.7949C16.7257 16.1786 19.8861 12.6322 20.5133 8.96522C19.3071 12.4874 15.6401 15.5272 12.3109 16.7576C10.019 17.6019 5.89366 18.4222 5.89366 18.4222L5.72479 18.3257C2.9263 16.9506 2.8298 10.8711 7.94428 8.91697C10.1879 8.04847 12.3109 8.53097 14.7475 7.95197C17.3289 7.34885 20.3203 5.41886 21.5266 2.88574C22.8776 6.96285 24.5181 13.2836 21.5748 17.1918Z" fill="white"/>
<path d="M5.74806 20.6902C5.41031 21.1245 4.78307 21.1727 4.34882 20.835C3.91457 20.4972 3.86632 19.87 4.20407 19.4357C4.54182 19.0015 5.16907 18.9532 5.60331 19.291C6.01344 19.6287 6.08581 20.256 5.74806 20.6902Z" fill="white"/>
</svg>
