<svg width="233" height="105" viewBox="0 0 233 105" fill="none" xmlns="http://www.w3.org/2000/svg">
<path d="M22.254 11.4002L12.9 2.07017L12 1.17017L4.97396 8.19617L1.75797 11.4002C1.67805 11.4799 1.61465 11.5746 1.57139 11.6788C1.52813 11.783 1.50586 11.8948 1.50586 12.0077C1.50586 12.1205 1.52813 12.2323 1.57139 12.3365C1.61465 12.4408 1.67805 12.5355 1.75797 12.6152L8.18396 19.0532L12 22.8752L19.041 15.8432L19.149 15.7352L22.254 12.6272C22.3357 12.5473 22.4006 12.4518 22.445 12.3465C22.4893 12.2411 22.5121 12.128 22.5121 12.0137C22.5121 11.8994 22.4893 11.7862 22.445 11.6809C22.4006 11.5755 22.3357 11.4801 22.254 11.4002ZM12 15.2312L8.78996 12.0212L12 8.81117L15.21 12.0212L12 15.2312Z" fill="#2684FF"/>
<path d="M12.0009 8.81095C10.996 7.79932 10.4321 6.43132 10.4321 5.00545C10.4321 3.57958 10.996 2.21158 12.0009 1.19995L4.96289 8.21095L8.78489 12.033L12.0009 8.81095Z" fill="url(#paint0_linear)"/>
<path d="M15.225 12L12 15.231C12.5025 15.7326 12.9012 16.3283 13.1732 16.9841C13.4452 17.64 13.5853 18.343 13.5853 19.053C13.5853 19.763 13.4452 20.466 13.1732 21.1219C12.9012 21.7777 12.5025 22.3734 12 22.875L19.05 15.834L15.225 12Z" fill="url(#paint1_linear)"/>
<g style="mix-blend-mode:color">
<rect width="24" height="24" fill="#f3f3f3"/>
</g>
<path d="M37.824 14.304C37.824 16.416 36.752 16.88 35.808 16.88C34.656 16.88 33.696 16.016 33.696 14.416H32.176C32.176 16.928 33.552 18.208 35.808 18.208C38.096 18.208 39.456 16.864 39.456 14.32V6.4H37.824V14.304ZM41.9801 9.392V18H43.4361V9.392H41.9801ZM41.9801 6.4V8.16H43.4361V6.4H41.9801ZM50.0338 9.36C49.8578 9.344 49.7458 9.344 49.6018 9.344C48.4658 9.392 47.6018 9.92 47.1698 10.896V9.392H45.7458V18H47.2018V13.488C47.2018 11.584 47.8738 10.848 49.2178 10.848C49.4578 10.848 49.7298 10.864 50.0338 10.912V9.36ZM56.5448 14.4C56.5448 16.432 55.2488 17.056 53.8888 17.056C52.8488 17.056 52.2248 16.512 52.2248 15.696C52.2248 14.512 53.9048 14.112 56.5448 13.856V14.4ZM53.5688 18.208C55.1048 18.208 55.9848 17.712 56.5128 16.816C56.5288 17.328 56.5768 17.68 56.6248 18H58.0968C57.9208 17.184 57.8568 16.208 57.8728 14.752L57.8888 12.768C57.9048 10.336 56.8488 9.216 54.4648 9.216C52.8008 9.216 51.1368 10.256 51.0088 12.112H52.5128C52.5768 11.04 53.2648 10.4 54.4808 10.4C55.5688 10.4 56.4328 10.912 56.4328 12.496V12.704C52.9128 13.088 50.6088 13.696 50.6088 15.728C50.6088 17.312 51.9528 18.208 53.5688 18.208Z" fill="black"/>
<path d="M77.8114 17.025C77.6074 17.358 77.3764 17.748 77.1934 18.057C77.1132 18.1972 77.09 18.3629 77.1285 18.5198C77.1671 18.6767 77.2644 18.8128 77.4004 18.9L81.5014 21.432C81.5725 21.476 81.6517 21.5055 81.7343 21.5186C81.8169 21.5318 81.9013 21.5283 81.9825 21.5085C82.0638 21.4887 82.1403 21.4528 82.2076 21.4031C82.2749 21.3534 82.3316 21.2908 82.3744 21.219C82.5394 20.943 82.7494 20.586 82.9744 20.205C84.6004 17.535 86.2474 17.862 89.1904 19.263L93.2584 21.195C93.3346 21.2315 93.4173 21.2523 93.5017 21.2561C93.5861 21.26 93.6704 21.2468 93.7496 21.2174C93.8289 21.188 93.9013 21.143 93.9628 21.085C94.0243 21.0271 94.0734 20.9573 94.1074 20.88L96.0604 16.47C96.1267 16.3203 96.1326 16.1508 96.0766 15.997C96.0207 15.8432 95.9073 15.717 95.7604 15.645C94.9024 15.24 93.1954 14.445 91.6654 13.695C86.1004 11.007 81.4054 11.184 77.8114 17.025Z" fill="url(#paint2_linear)"/>
<path d="M96.2009 7.00199C96.4079 6.66899 96.6389 6.27899 96.8189 5.96999C96.9024 5.82739 96.9263 5.65755 96.8853 5.49743C96.8443 5.33732 96.7417 5.19987 96.5999 5.11499L92.5049 2.58299C92.4338 2.53894 92.3546 2.50948 92.272 2.49634C92.1894 2.48321 92.105 2.48665 92.0237 2.50648C91.9425 2.52631 91.866 2.56212 91.7987 2.61183C91.7314 2.66153 91.6747 2.72414 91.6319 2.79599C91.4699 3.07199 91.2569 3.42899 91.0319 3.80999C89.3999 6.49199 87.7679 6.16499 84.8219 4.76399L80.7569 2.83199C80.6816 2.79503 80.5997 2.77347 80.516 2.76857C80.4322 2.76368 80.3484 2.77555 80.2693 2.80349C80.1902 2.83143 80.1175 2.87488 80.0555 2.93129C79.9934 2.9877 79.9432 3.05594 79.9079 3.13199L77.9549 7.55399C77.8876 7.70395 77.8813 7.87419 77.9373 8.02872C77.9933 8.18324 78.1072 8.30993 78.2549 8.38199C79.1159 8.78699 80.8229 9.58199 82.3499 10.332C87.8999 13.02 92.6099 12.843 96.2009 7.00199Z" fill="url(#paint3_linear)"/>
<g style="mix-blend-mode:color">
<rect x="75" width="24" height="24" fill="#f3f3f3"/>
</g>
<path d="M116.52 14.304C116.152 15.792 115.032 16.832 113.176 16.832C111.016 16.832 109.48 15.12 109.48 12.176C109.48 9.168 111.08 7.568 113.128 7.568C114.968 7.568 116.12 8.64 116.456 10.096H118.04C117.528 7.616 115.608 6.192 113.208 6.192C109.944 6.192 107.816 8.592 107.816 12.176C107.816 15.696 109.752 18.208 113.08 18.208C115.592 18.208 117.592 16.864 118.104 14.304H116.52ZM120.91 13.728C120.91 11.376 122.158 10.528 123.486 10.528C124.814 10.528 126.062 11.424 126.062 13.728C126.062 15.936 124.814 16.928 123.486 16.928C122.158 16.928 120.91 16.032 120.91 13.728ZM123.486 9.248C121.486 9.248 119.358 10.608 119.358 13.728C119.358 16.848 121.486 18.208 123.486 18.208C125.486 18.208 127.614 16.848 127.614 13.728C127.614 10.608 125.486 9.248 123.486 9.248ZM130.811 9.392H129.355V18H130.811V13.328C130.811 11.472 131.675 10.512 133.083 10.512C134.747 10.512 134.971 11.664 134.971 12.992V18H136.427V12.56C136.427 10.592 135.675 9.248 133.595 9.248C132.139 9.248 131.307 9.872 130.811 10.688V9.392ZM138.973 9.392H137.773V10.56H138.973V18H140.429V10.56H142.045V9.392H140.429V8.688C140.429 7.792 140.557 7.616 141.325 7.616H142.045V6.4H141.293C139.325 6.4 138.973 6.976 138.973 8.768V9.392ZM145.077 6.4H143.621V18H145.077V6.4ZM152.714 18H154.17V9.392H152.714V14.128C152.714 15.984 151.914 16.944 150.522 16.944C148.922 16.944 148.714 15.792 148.714 14.464V9.392H147.258V14.896C147.258 16.864 148.026 18.208 150.01 18.208C151.434 18.208 152.218 17.584 152.714 16.768V18ZM164.08 14.176C164.256 11.44 162.704 9.248 160.064 9.248C157.712 9.248 155.888 10.976 155.888 13.712C155.888 16.256 157.392 18.208 160.112 18.208C162.208 18.208 163.584 16.976 163.968 15.504H162.464C162.096 16.352 161.392 16.928 160.112 16.928C158.848 16.928 157.504 16.032 157.456 14.176H164.08ZM160.064 10.496C161.616 10.496 162.496 11.712 162.544 12.928H157.472C157.6 11.2 158.784 10.496 160.064 10.496ZM167.233 9.392H165.777V18H167.233V13.328C167.233 11.472 168.097 10.512 169.505 10.512C171.169 10.512 171.393 11.664 171.393 12.992V18H172.849V12.56C172.849 10.592 172.097 9.248 170.017 9.248C168.561 9.248 167.729 9.872 167.233 10.688V9.392ZM178.595 9.248C176.051 9.248 174.435 11.152 174.435 13.712C174.435 16.336 175.971 18.208 178.451 18.208C180.467 18.208 181.987 16.816 182.291 15.2H180.787C180.579 16.096 179.731 16.928 178.499 16.928C177.219 16.928 176.019 15.872 176.019 13.696C176.019 11.536 177.219 10.528 178.499 10.528C179.635 10.528 180.515 11.248 180.723 12.272H182.195C181.987 10.8 180.707 9.248 178.595 9.248ZM191.611 14.176C191.787 11.44 190.235 9.248 187.595 9.248C185.243 9.248 183.419 10.976 183.419 13.712C183.419 16.256 184.923 18.208 187.643 18.208C189.739 18.208 191.115 16.976 191.499 15.504H189.995C189.627 16.352 188.923 16.928 187.643 16.928C186.379 16.928 185.035 16.032 184.987 14.176H191.611ZM187.595 10.496C189.147 10.496 190.027 11.712 190.075 12.928H185.003C185.131 11.2 186.315 10.496 187.595 10.496Z" fill="black"/>
<path d="M4.275 64H19.9125C20.4096 64 20.8125 63.5971 20.8125 63.1V45.9062L14.9062 40H4.275C3.77794 40 3.375 40.4029 3.375 40.9V63.1C3.375 63.5971 3.77794 64 4.275 64Z" fill="#3086F6"/>
<path d="M14.9062 45.9062V40L20.8125 45.9062H14.9062Z" fill="#0C67D6"/>
<rect x="7.125" y="49.1875" width="9.9375" height="1.5" fill="#FDFFFF"/>
<rect x="7.125" y="52.375" width="9.9375" height="1.5" fill="#FDFFFF"/>
<rect x="7.125" y="55.5625" width="7.125" height="1.5" fill="#FDFFFF"/>
<g style="mix-blend-mode:color">
<rect y="40" width="24" height="24" fill="#f3f3f3"/>
</g>
<path d="M38.208 46.192C34.944 46.192 32.816 48.592 32.816 52.176C32.816 55.696 34.736 58.208 38.064 58.208C39.616 58.208 40.976 57.744 41.728 56.544L41.808 58H43.088V52.08H38.48V53.488H41.552V53.792C41.552 56.192 39.664 56.832 38.128 56.832C36 56.832 34.48 55.12 34.48 52.176C34.48 49.168 36.08 47.568 38.128 47.568C39.984 47.568 41.04 48.48 41.424 49.776H43.008C42.528 47.536 40.608 46.192 38.208 46.192ZM46.4565 53.728C46.4565 51.376 47.7045 50.528 49.0325 50.528C50.3605 50.528 51.6085 51.424 51.6085 53.728C51.6085 55.936 50.3605 56.928 49.0325 56.928C47.7045 56.928 46.4565 56.032 46.4565 53.728ZM49.0325 49.248C47.0325 49.248 44.9045 50.608 44.9045 53.728C44.9045 56.848 47.0325 58.208 49.0325 58.208C51.0325 58.208 53.1605 56.848 53.1605 53.728C53.1605 50.608 51.0325 49.248 49.0325 49.248ZM56.019 53.728C56.019 51.376 57.267 50.528 58.595 50.528C59.923 50.528 61.171 51.424 61.171 53.728C61.171 55.936 59.923 56.928 58.595 56.928C57.267 56.928 56.019 56.032 56.019 53.728ZM58.595 49.248C56.595 49.248 54.467 50.608 54.467 53.728C54.467 56.848 56.595 58.208 58.595 58.208C60.595 58.208 62.723 56.848 62.723 53.728C62.723 50.608 60.595 49.248 58.595 49.248ZM70.3815 50.752C69.8535 49.84 69.0375 49.248 67.6455 49.248C65.7415 49.248 63.9975 50.8 63.9975 53.552C63.9975 56.32 65.7415 57.856 67.6455 57.856C69.0375 57.856 69.8535 57.28 70.3815 56.368V57.184C70.3815 58.368 70.1255 58.736 69.8215 59.088C69.4215 59.52 68.8455 59.728 68.0615 59.728C66.7335 59.728 66.2375 59.136 66.0615 58.368H64.5095C64.7815 60.112 66.0775 61.008 68.0455 61.008C69.3255 61.008 70.3975 60.592 71.0215 59.872C71.5175 59.328 71.8375 58.592 71.8375 56.848V49.392H70.3815V50.752ZM70.4455 53.552C70.4455 55.744 69.2935 56.624 68.0135 56.624C66.5895 56.624 65.5815 55.536 65.5815 53.552C65.5815 51.584 66.5895 50.496 68.0135 50.496C69.2935 50.496 70.4455 51.376 70.4455 53.552ZM75.5924 46.4H74.1364V58H75.5924V46.4ZM85.502 54.176C85.678 51.44 84.126 49.248 81.486 49.248C79.134 49.248 77.31 50.976 77.31 53.712C77.31 56.256 78.814 58.208 81.534 58.208C83.63 58.208 85.006 56.976 85.39 55.504H83.886C83.518 56.352 82.814 56.928 81.534 56.928C80.27 56.928 78.926 56.032 78.878 54.176H85.502ZM81.486 50.496C83.038 50.496 83.918 51.712 83.966 52.928H78.894C79.022 51.2 80.206 50.496 81.486 50.496ZM99.0438 52.192C99.0438 56.144 96.7238 56.624 94.3398 56.624H92.8518V47.776H94.3398C96.7238 47.776 99.0438 48.256 99.0438 52.192ZM91.2198 46.4V58H94.3878C98.0518 58 100.708 56.608 100.708 52.192C100.708 47.792 98.0518 46.4 94.3878 46.4H91.2198ZM103.675 53.728C103.675 51.376 104.923 50.528 106.251 50.528C107.579 50.528 108.827 51.424 108.827 53.728C108.827 55.936 107.579 56.928 106.251 56.928C104.923 56.928 103.675 56.032 103.675 53.728ZM106.251 49.248C104.251 49.248 102.123 50.608 102.123 53.728C102.123 56.848 104.251 58.208 106.251 58.208C108.251 58.208 110.379 56.848 110.379 53.728C110.379 50.608 108.251 49.248 106.251 49.248ZM115.814 49.248C113.27 49.248 111.654 51.152 111.654 53.712C111.654 56.336 113.19 58.208 115.67 58.208C117.686 58.208 119.206 56.816 119.51 55.2H118.006C117.798 56.096 116.95 56.928 115.718 56.928C114.438 56.928 113.238 55.872 113.238 53.696C113.238 51.536 114.438 50.528 115.718 50.528C116.854 50.528 117.734 51.248 117.942 52.272H119.414C119.206 50.8 117.926 49.248 115.814 49.248ZM127.678 51.904C127.406 50.256 126.158 49.232 124.286 49.232C122.382 49.232 120.846 50.112 120.846 51.632C120.846 53.248 122.126 53.76 123.294 54.016L124.574 54.272C125.502 54.48 126.318 54.816 126.318 55.696C126.318 56.512 125.422 56.976 124.318 56.976C123.038 56.976 122.366 56.32 122.126 55.216H120.59C120.766 56.72 122.03 58.208 124.286 58.208C126.254 58.208 127.79 57.248 127.79 55.536C127.79 53.888 126.414 53.264 124.846 52.976L123.63 52.736C122.798 52.56 122.318 52.256 122.318 51.568C122.318 50.784 123.278 50.48 124.126 50.48C125.15 50.48 125.918 50.88 126.158 51.904H127.678Z" fill="black"/>
<path d="M149.085 63.1955L153.405 49.8474H144.771L149.085 63.1955Z" fill="#E24329"/>
<path d="M138.72 49.8474L137.404 53.9027C137.285 54.271 137.414 54.6774 137.728 54.907L149.084 63.1954L138.72 49.8474Z" fill="#FCA326"/>
<path d="M138.72 49.8474H144.77L142.166 41.8085C142.033 41.3972 141.452 41.3972 141.314 41.8085L138.72 49.8474Z" fill="#E24329"/>
<path d="M159.456 49.8474L160.766 53.9027C160.885 54.271 160.757 54.6774 160.443 54.907L149.085 63.1955L159.456 49.8474Z" fill="#FCA326"/>
<path d="M159.455 49.8474H153.404L156.004 41.8085C156.137 41.3972 156.718 41.3972 156.856 41.8085L159.455 49.8474Z" fill="#E24329"/>
<path d="M149.085 63.1955L153.405 49.8474H159.456L149.085 63.1955Z" fill="#FC6D26"/>
<path d="M149.084 63.1955L138.72 49.8474H144.77L149.084 63.1955Z" fill="#FC6D26"/>
<g style="mix-blend-mode:color">
<rect x="137" y="40" width="24" height="24" fill="#f3f3f3"/>
</g>
<path d="M175.208 46.192C171.944 46.192 169.816 48.592 169.816 52.176C169.816 55.696 171.736 58.208 175.064 58.208C176.616 58.208 177.976 57.744 178.728 56.544L178.808 58H180.088V52.08H175.48V53.488H178.552V53.792C178.552 56.192 176.664 56.832 175.128 56.832C173 56.832 171.48 55.12 171.48 52.176C171.48 49.168 173.08 47.568 175.128 47.568C176.984 47.568 178.04 48.48 178.424 49.776H180.008C179.528 47.536 177.608 46.192 175.208 46.192ZM182.465 49.392V58H183.921V49.392H182.465ZM182.465 46.4V48.16H183.921V46.4H182.465ZM186.646 49.392H185.286V50.56H186.646V55.84C186.646 57.632 187.03 58 188.678 58H189.734V56.784H188.998C188.166 56.784 188.102 56.56 188.102 55.664V50.56H189.734V49.392H188.102V47.232H186.646V49.392ZM193.046 46.4H191.59V58H193.046V46.4ZM200.779 54.4C200.779 56.432 199.483 57.056 198.123 57.056C197.083 57.056 196.459 56.512 196.459 55.696C196.459 54.512 198.139 54.112 200.779 53.856V54.4ZM197.803 58.208C199.339 58.208 200.219 57.712 200.747 56.816C200.763 57.328 200.811 57.68 200.859 58H202.331C202.155 57.184 202.091 56.208 202.107 54.752L202.123 52.768C202.139 50.336 201.083 49.216 198.699 49.216C197.035 49.216 195.371 50.256 195.243 52.112H196.747C196.811 51.04 197.499 50.4 198.715 50.4C199.803 50.4 200.667 50.912 200.667 52.496V52.704C197.147 53.088 194.843 53.696 194.843 55.728C194.843 57.312 196.187 58.208 197.803 58.208ZM205.685 53.728C205.685 51.456 206.901 50.496 208.197 50.496C209.685 50.496 210.661 51.664 210.661 53.728C210.661 55.792 209.685 56.96 208.197 56.96C206.901 56.96 205.685 56 205.685 53.728ZM204.293 46.4V58H205.749V56.704C206.277 57.616 207.173 58.208 208.565 58.208C210.549 58.208 212.245 56.592 212.245 53.728C212.245 50.912 210.549 49.248 208.565 49.248C207.173 49.248 206.277 49.84 205.749 50.752V46.4H204.293ZM226.067 54.304C225.699 55.792 224.579 56.832 222.723 56.832C220.563 56.832 219.027 55.12 219.027 52.176C219.027 49.168 220.627 47.568 222.675 47.568C224.515 47.568 225.667 48.64 226.003 50.096H227.587C227.075 47.616 225.155 46.192 222.755 46.192C219.491 46.192 217.363 48.592 217.363 52.176C217.363 55.696 219.299 58.208 222.627 58.208C225.139 58.208 227.139 56.864 227.651 54.304H226.067ZM231.164 46.4H229.532V58H231.164V46.4Z" fill="black"/>
<path d="M8.7608 80.0591C7.4412 80.0591 6.3716 81.1311 6.3716 82.4531C6.37128 82.7672 6.43283 83.0782 6.55273 83.3685C6.67263 83.6588 6.84853 83.9226 7.07039 84.1449C7.29224 84.3672 7.55571 84.5436 7.84576 84.6641C8.1358 84.7846 8.44673 84.8468 8.7608 84.8471H11.1504V82.4531C11.1509 81.8188 10.8995 81.2102 10.4514 80.7612C10.0032 80.3123 9.39513 80.0597 8.7608 80.0591ZM8.7608 86.4431H2.3892C1.0696 86.4431 0 87.5151 0 88.8375C0 90.1595 1.0696 91.2315 2.3892 91.2315H8.7612C10.0804 91.2315 11.1504 90.1595 11.1504 88.8375C11.1504 87.5151 10.0804 86.4431 8.7608 86.4431Z" fill="#36C5F0"/>
<path d="M23.8936 88.8375C23.8936 87.5151 22.8236 86.4431 21.504 86.4431C20.1844 86.4431 19.1148 87.5151 19.1148 88.8375V91.2315H21.504C22.1383 91.2308 22.7464 90.9783 23.1945 90.5293C23.6426 90.0804 23.8941 89.4718 23.8936 88.8375ZM17.522 88.8375V82.4531C17.5225 81.8188 17.271 81.2102 16.8229 80.7612C16.3748 80.3123 15.7667 80.0597 15.1324 80.0591C13.8128 80.0591 12.7432 81.1311 12.7432 82.4531V88.8371C12.7432 90.1599 13.8128 91.2319 15.1324 91.2319C15.7667 91.2312 16.3748 90.9787 16.8229 90.5297C17.271 90.0808 17.5225 89.4722 17.522 88.8379" fill="#2EB67D"/>
<path d="M15.1324 104C15.7667 103.999 16.3748 103.747 16.8229 103.298C17.271 102.849 17.5225 102.24 17.522 101.606C17.5225 100.972 17.271 100.363 16.8229 99.9142C16.3748 99.4652 15.7667 99.2127 15.1324 99.212H12.7432V101.606C12.7432 102.928 13.8128 104 15.1324 104ZM15.1324 97.616H21.5044C22.8236 97.616 23.8936 96.544 23.8936 95.2216C23.8941 94.5873 23.6426 93.9787 23.1945 93.5298C22.7464 93.0808 22.1383 92.8283 21.504 92.8276H15.1324C13.8128 92.8276 12.7432 93.8996 12.7432 95.2216C12.7428 95.5357 12.8044 95.8468 12.9243 96.137C13.0442 96.4273 13.2201 96.6912 13.442 96.9135C13.6638 97.1358 13.9273 97.3122 14.2173 97.4327C14.5074 97.5532 14.8183 97.6153 15.1324 97.6156" fill="#ECB22E"/>
<path d="M1.20553e-06 95.2216C-0.000314125 95.5357 0.0612342 95.8468 0.181132 96.137C0.30103 96.4273 0.476929 96.6912 0.698787 96.9135C0.920645 97.1358 1.18412 97.3122 1.47416 97.4327C1.7642 97.5532 2.07513 97.6153 2.3892 97.6156C3.02353 97.615 3.63163 97.3624 4.07976 96.9135C4.52788 96.4645 4.77933 95.856 4.7788 95.2216V92.8276H2.3892C1.0696 92.8276 1.20553e-06 93.8996 1.20553e-06 95.2216ZM6.3716 95.2216V101.606C6.3716 102.928 7.4412 104 8.7608 104C9.39513 103.999 10.0032 103.747 10.4514 103.298C10.8995 102.849 11.1509 102.24 11.1504 101.606V95.2216C11.1507 94.9075 11.0892 94.5964 10.9692 94.3061C10.8493 94.0158 10.6734 93.752 10.4515 93.5297C10.2296 93.3074 9.96606 93.1309 9.67597 93.0105C9.38588 92.89 9.07491 92.8279 8.7608 92.8276C7.4412 92.8276 6.3716 93.8996 6.3716 95.2216Z" fill="#E01E5A"/>
<g style="mix-blend-mode:color">
<rect y="80" width="24" height="24" fill="#f3f3f3"/>
</g>
<path d="M32.896 89.36C32.896 91.28 34.48 92.176 36.08 92.528L37.52 92.832C38.96 93.168 40.016 93.648 40.016 94.88C40.016 96.032 39.04 96.832 37.312 96.832C35.52 96.832 34.416 96 34.112 94.4H32.512C32.816 96.704 34.544 98.208 37.28 98.208C39.584 98.208 41.696 96.992 41.696 94.736C41.696 92.4 39.568 91.728 37.792 91.344L36.448 91.04C35.36 90.8 34.56 90.288 34.56 89.264C34.56 87.968 36.128 87.568 37.024 87.568C38.176 87.568 39.52 88.032 39.904 89.36H41.488C41.024 87.136 39.184 86.192 37.088 86.192C35.216 86.192 32.896 87.136 32.896 89.36ZM44.858 86.4H43.402V98H44.858V86.4ZM52.5916 94.4C52.5916 96.432 51.2956 97.056 49.9356 97.056C48.8956 97.056 48.2716 96.512 48.2716 95.696C48.2716 94.512 49.9516 94.112 52.5916 93.856V94.4ZM49.6156 98.208C51.1516 98.208 52.0316 97.712 52.5596 96.816C52.5756 97.328 52.6236 97.68 52.6716 98H54.1436C53.9676 97.184 53.9036 96.208 53.9196 94.752L53.9356 92.768C53.9516 90.336 52.8956 89.216 50.5116 89.216C48.8476 89.216 47.1836 90.256 47.0556 92.112H48.5596C48.6236 91.04 49.3116 90.4 50.5276 90.4C51.6156 90.4 52.4796 90.912 52.4796 92.496V92.704C48.9596 93.088 46.6556 93.696 46.6556 95.728C46.6556 97.312 47.9996 98.208 49.6156 98.208ZM59.6731 89.248C57.1291 89.248 55.5131 91.152 55.5131 93.712C55.5131 96.336 57.0491 98.208 59.5291 98.208C61.5451 98.208 63.0651 96.816 63.3691 95.2H61.8651C61.6571 96.096 60.8091 96.928 59.5771 96.928C58.2971 96.928 57.0971 95.872 57.0971 93.696C57.0971 91.536 58.2971 90.528 59.5771 90.528C60.7131 90.528 61.5931 91.248 61.8011 92.272H63.2731C63.0651 90.8 61.7851 89.248 59.6731 89.248ZM65.0114 86.4V98H66.4674V95.12L67.4754 94.032L70.4034 98H72.1794L68.4514 92.96L71.7314 89.392H69.9394L66.4674 93.264V86.4H65.0114Z" fill="black"/>
<path d="M99.9148 103.348C93.61 103.348 88.4805 98.2191 88.4805 91.9141C88.4805 85.609 93.61 80.48 99.9148 80.48C106.22 80.48 111.349 85.6095 111.349 91.9143C111.349 98.2191 106.22 103.348 99.9148 103.348Z" fill="#85EA2D"/>
<path d="M100.006 81.1446C106.006 81.1446 110.868 86.0074 110.868 92.0065C110.868 98.0053 106.006 102.868 100.006 102.868C94.0077 102.868 89.1446 98.0053 89.1446 92.0065C89.1446 86.0077 94.0077 81.1446 100.006 81.1446ZM100.006 80C93.3861 80 88 85.3861 88 92.0065C88 98.6269 93.3861 104.013 100.006 104.013C106.627 104.013 112.013 98.6269 112.013 92.0065C112.013 85.3861 106.627 80 100.006 80Z" fill="#173647"/>
<path d="M95.662 88.0145C95.6251 88.4254 95.6757 88.8502 95.6484 89.2656C95.616 89.6813 95.5651 90.0922 95.482 90.5031C95.3666 91.0894 95.0018 91.5327 94.4988 91.902C95.4777 92.5392 95.5884 93.5271 95.6529 94.5291C95.6853 95.0693 95.6714 95.6141 95.7268 96.1496C95.7684 96.565 95.9299 96.6713 96.3595 96.685C96.5349 96.6896 96.7147 96.685 96.9182 96.685V97.9685C95.6486 98.1855 94.6005 97.8255 94.3418 96.7498C94.2585 96.3574 94.2031 95.9556 94.1848 95.5493C94.157 95.12 94.2031 94.6906 94.1709 94.2612C94.0785 93.0838 93.9261 92.6868 92.7998 92.6314V91.1679C92.8828 91.1494 92.9613 91.1355 93.0444 91.1264C93.6631 91.094 93.9261 90.9046 94.06 90.2952C94.1248 89.9537 94.1618 89.6074 94.1755 89.2565C94.2218 88.5872 94.2033 87.9039 94.3185 87.2391C94.48 86.2834 95.0712 85.8216 96.0547 85.7662C96.3316 85.7523 96.6134 85.7662 96.9319 85.7662V87.0776C96.798 87.0869 96.6825 87.1052 96.5625 87.1052C95.7638 87.0773 95.722 87.3497 95.662 88.0145ZM97.1995 91.0524H97.181C96.7192 91.0294 96.3223 91.3894 96.299 91.8512C96.276 92.3175 96.636 92.7147 97.0977 92.7375H97.1532C97.6104 92.7653 98.0025 92.4142 98.0304 91.9572V91.9112C98.0397 91.4448 97.6658 91.0618 97.1995 91.0524ZM100.094 91.0524C99.6465 91.0385 99.2724 91.3894 99.2587 91.8327C99.2587 91.8605 99.2587 91.8836 99.2635 91.9112C99.2635 92.4144 99.605 92.7377 100.122 92.7377C100.63 92.7377 100.949 92.4053 100.949 91.8836C100.944 91.3803 100.607 91.0479 100.094 91.0524ZM103.059 91.0524C102.588 91.0431 102.195 91.4172 102.181 91.8881C102.181 92.359 102.56 92.7375 103.031 92.7375H103.04C103.465 92.8114 103.894 92.4005 103.922 91.9066C103.945 91.4494 103.529 91.0524 103.059 91.0524ZM107.126 91.1216C106.59 91.0985 106.323 90.9185 106.189 90.4104C106.106 90.0874 106.055 89.7502 106.037 89.4178C106 88.7991 106.004 88.1758 105.963 87.5571C105.866 86.089 104.804 85.5766 103.262 85.8303V87.1047C103.506 87.1047 103.696 87.1047 103.885 87.1092C104.213 87.1138 104.462 87.2386 104.494 87.6034C104.527 87.9358 104.527 88.2728 104.559 88.61C104.624 89.2796 104.661 89.958 104.776 90.6183C104.878 91.1631 105.252 91.5694 105.718 91.9018C104.901 92.4512 104.661 93.236 104.619 94.118C104.596 94.7228 104.582 95.3321 104.55 95.9417C104.522 96.4956 104.328 96.6756 103.77 96.6896C103.613 96.6941 103.46 96.708 103.285 96.7174V98.024C103.613 98.024 103.913 98.0424 104.213 98.024C105.145 97.9685 105.709 97.5161 105.893 96.6111C105.972 96.1124 106.018 95.6093 106.032 95.106C106.064 94.6443 106.06 94.178 106.106 93.721C106.175 93.0053 106.503 92.7099 107.219 92.6638C107.288 92.6544 107.352 92.6408 107.417 92.6177V91.154C107.297 91.14 107.214 91.1264 107.126 91.1216Z" fill="#173647"/>
<g style="mix-blend-mode:color">
<rect x="88" y="80" width="24" height="24" fill="#f3f3f3"/>
</g>
<path d="M120.896 89.36C120.896 91.28 122.48 92.176 124.08 92.528L125.52 92.832C126.96 93.168 128.016 93.648 128.016 94.88C128.016 96.032 127.04 96.832 125.312 96.832C123.52 96.832 122.416 96 122.112 94.4H120.512C120.816 96.704 122.544 98.208 125.28 98.208C127.584 98.208 129.696 96.992 129.696 94.736C129.696 92.4 127.568 91.728 125.792 91.344L124.448 91.04C123.36 90.8 122.56 90.288 122.56 89.264C122.56 87.968 124.128 87.568 125.024 87.568C126.176 87.568 127.52 88.032 127.904 89.36H129.488C129.024 87.136 127.184 86.192 125.088 86.192C123.216 86.192 120.896 87.136 120.896 89.36ZM133.546 95.76L131.898 89.392H130.33L132.81 98H134.138L135.978 91.072L137.882 98H139.21L141.69 89.392H140.122L138.474 95.76L136.762 89.392H135.258L133.546 95.76ZM148.185 94.4C148.185 96.432 146.889 97.056 145.529 97.056C144.489 97.056 143.865 96.512 143.865 95.696C143.865 94.512 145.545 94.112 148.185 93.856V94.4ZM145.209 98.208C146.745 98.208 147.625 97.712 148.153 96.816C148.169 97.328 148.217 97.68 148.265 98H149.737C149.561 97.184 149.497 96.208 149.513 94.752L149.529 92.768C149.545 90.336 148.489 89.216 146.105 89.216C144.441 89.216 142.777 90.256 142.649 92.112H144.153C144.217 91.04 144.905 90.4 146.121 90.4C147.209 90.4 148.073 90.912 148.073 92.496V92.704C144.553 93.088 142.249 93.696 142.249 95.728C142.249 97.312 143.593 98.208 145.209 98.208ZM157.491 90.752C156.963 89.84 156.147 89.248 154.755 89.248C152.851 89.248 151.107 90.8 151.107 93.552C151.107 96.32 152.851 97.856 154.755 97.856C156.147 97.856 156.963 97.28 157.491 96.368V97.184C157.491 98.368 157.235 98.736 156.931 99.088C156.531 99.52 155.955 99.728 155.171 99.728C153.843 99.728 153.347 99.136 153.171 98.368H151.619C151.891 100.112 153.187 101.008 155.155 101.008C156.435 101.008 157.507 100.592 158.131 99.872C158.627 99.328 158.947 98.592 158.947 96.848V89.392H157.491V90.752ZM157.555 93.552C157.555 95.744 156.403 96.624 155.123 96.624C153.699 96.624 152.691 95.536 152.691 93.552C152.691 91.584 153.699 90.496 155.123 90.496C156.403 90.496 157.555 91.376 157.555 93.552ZM167.038 90.752C166.51 89.84 165.694 89.248 164.302 89.248C162.398 89.248 160.654 90.8 160.654 93.552C160.654 96.32 162.398 97.856 164.302 97.856C165.694 97.856 166.51 97.28 167.038 96.368V97.184C167.038 98.368 166.782 98.736 166.478 99.088C166.078 99.52 165.502 99.728 164.718 99.728C163.39 99.728 162.894 99.136 162.718 98.368H161.166C161.438 100.112 162.734 101.008 164.702 101.008C165.982 101.008 167.054 100.592 167.678 99.872C168.174 99.328 168.494 98.592 168.494 96.848V89.392H167.038V90.752ZM167.102 93.552C167.102 95.744 165.95 96.624 164.67 96.624C163.246 96.624 162.238 95.536 162.238 93.552C162.238 91.584 163.246 90.496 164.67 90.496C165.95 90.496 167.102 91.376 167.102 93.552ZM178.393 94.176C178.569 91.44 177.017 89.248 174.377 89.248C172.025 89.248 170.201 90.976 170.201 93.712C170.201 96.256 171.705 98.208 174.425 98.208C176.521 98.208 177.897 96.976 178.281 95.504H176.777C176.409 96.352 175.705 96.928 174.425 96.928C173.161 96.928 171.817 96.032 171.769 94.176H178.393ZM174.377 90.496C175.929 90.496 176.809 91.712 176.857 92.928H171.785C171.913 91.2 173.097 90.496 174.377 90.496ZM184.378 89.36C184.202 89.344 184.09 89.344 183.946 89.344C182.81 89.392 181.946 89.92 181.514 90.896V89.392H180.09V98H181.546V93.488C181.546 91.584 182.218 90.848 183.562 90.848C183.802 90.848 184.074 90.864 184.378 90.912V89.36Z" fill="black"/>
<defs>
<linearGradient id="paint0_linear" x1="11.4339" y1="5.56195" x2="6.95189" y2="10.044" gradientUnits="userSpaceOnUse">
<stop offset="0.18" stop-color="#0052CC"/>
<stop offset="1" stop-color="#2684FF"/>
</linearGradient>
<linearGradient id="paint1_linear" x1="308.593" y1="680.486" x2="456.657" y2="584.436" gradientUnits="userSpaceOnUse">
<stop offset="0.18" stop-color="#0052CC"/>
<stop offset="1" stop-color="#2684FF"/>
</linearGradient>
<linearGradient id="paint2_linear" x1="95.9374" y1="22.743" x2="83.5294" y2="15.612" gradientUnits="userSpaceOnUse">
<stop stop-color="#0052CC"/>
<stop offset="0.92" stop-color="#2380FB"/>
<stop offset="1" stop-color="#2684FF"/>
</linearGradient>
<linearGradient id="paint3_linear" x1="-262924" y1="-24811.1" x2="-262473" y2="-24293.1" gradientUnits="userSpaceOnUse">
<stop stop-color="#0052CC"/>
<stop offset="0.92" stop-color="#2380FB"/>
<stop offset="1" stop-color="#2684FF"/>
</linearGradient>
</defs>
</svg>
