<svg width="338" height="65" viewBox="0 0 338 65" fill="none" xmlns="http://www.w3.org/2000/svg">
<path d="M22.254 11.4002L12.9 2.07017L12 1.17017L4.97396 8.19617L1.75797 11.4002C1.67805 11.4799 1.61465 11.5746 1.57139 11.6788C1.52813 11.783 1.50586 11.8948 1.50586 12.0077C1.50586 12.1205 1.52813 12.2323 1.57139 12.3365C1.61465 12.4408 1.67805 12.5355 1.75797 12.6152L8.18396 19.0532L12 22.8752L19.041 15.8432L19.149 15.7352L22.254 12.6272C22.3357 12.5473 22.4006 12.4518 22.445 12.3465C22.4893 12.2411 22.5121 12.128 22.5121 12.0137C22.5121 11.8994 22.4893 11.7862 22.445 11.6809C22.4006 11.5755 22.3357 11.4801 22.254 11.4002ZM12 15.2312L8.78996 12.0212L12 8.81117L15.21 12.0212L12 15.2312Z" fill="#2684FF"/>
<path d="M12.0009 8.81095C10.996 7.79932 10.4321 6.43132 10.4321 5.00545C10.4321 3.57958 10.996 2.21158 12.0009 1.19995L4.96289 8.21095L8.78489 12.033L12.0009 8.81095Z" fill="url(#paint0_linear)"/>
<path d="M15.225 12L12 15.231C12.5025 15.7326 12.9012 16.3283 13.1732 16.9841C13.4452 17.64 13.5853 18.343 13.5853 19.053C13.5853 19.763 13.4452 20.466 13.1732 21.1219C12.9012 21.7777 12.5025 22.3734 12 22.875L19.05 15.834L15.225 12Z" fill="url(#paint1_linear)"/>
<g style="mix-blend-mode:color">
<rect width="24" height="24" fill="#f3f3f3"/>
</g>
<path d="M37.824 14.304C37.824 16.416 36.752 16.88 35.808 16.88C34.656 16.88 33.696 16.016 33.696 14.416H32.176C32.176 16.928 33.552 18.208 35.808 18.208C38.096 18.208 39.456 16.864 39.456 14.32V6.4H37.824V14.304ZM41.9801 9.392V18H43.4361V9.392H41.9801ZM41.9801 6.4V8.16H43.4361V6.4H41.9801ZM50.0338 9.36C49.8578 9.344 49.7458 9.344 49.6018 9.344C48.4658 9.392 47.6018 9.92 47.1698 10.896V9.392H45.7458V18H47.2018V13.488C47.2018 11.584 47.8738 10.848 49.2178 10.848C49.4578 10.848 49.7298 10.864 50.0338 10.912V9.36ZM56.5448 14.4C56.5448 16.432 55.2488 17.056 53.8888 17.056C52.8488 17.056 52.2248 16.512 52.2248 15.696C52.2248 14.512 53.9048 14.112 56.5448 13.856V14.4ZM53.5688 18.208C55.1048 18.208 55.9848 17.712 56.5128 16.816C56.5288 17.328 56.5768 17.68 56.6248 18H58.0968C57.9208 17.184 57.8568 16.208 57.8728 14.752L57.8888 12.768C57.9048 10.336 56.8488 9.216 54.4648 9.216C52.8008 9.216 51.1368 10.256 51.0088 12.112H52.5128C52.5768 11.04 53.2648 10.4 54.4808 10.4C55.5688 10.4 56.4328 10.912 56.4328 12.496V12.704C52.9128 13.088 50.6088 13.696 50.6088 15.728C50.6088 17.312 51.9528 18.208 53.5688 18.208Z" fill="black"/>
<path d="M77.8114 17.025C77.6074 17.358 77.3764 17.748 77.1934 18.057C77.1132 18.1972 77.09 18.3629 77.1285 18.5198C77.1671 18.6767 77.2644 18.8128 77.4004 18.9L81.5014 21.432C81.5725 21.476 81.6517 21.5055 81.7343 21.5186C81.8169 21.5318 81.9013 21.5283 81.9825 21.5085C82.0638 21.4887 82.1403 21.4528 82.2076 21.4031C82.2749 21.3534 82.3316 21.2908 82.3744 21.219C82.5394 20.943 82.7494 20.586 82.9744 20.205C84.6004 17.535 86.2474 17.862 89.1904 19.263L93.2584 21.195C93.3346 21.2315 93.4173 21.2523 93.5017 21.2561C93.5861 21.26 93.6704 21.2468 93.7496 21.2174C93.8289 21.188 93.9013 21.143 93.9628 21.085C94.0243 21.0271 94.0734 20.9573 94.1074 20.88L96.0604 16.47C96.1267 16.3203 96.1326 16.1508 96.0766 15.997C96.0207 15.8432 95.9073 15.717 95.7604 15.645C94.9024 15.24 93.1954 14.445 91.6654 13.695C86.1004 11.007 81.4054 11.184 77.8114 17.025Z" fill="url(#paint2_linear)"/>
<path d="M96.2009 7.00199C96.4079 6.66899 96.6389 6.27899 96.8189 5.96999C96.9024 5.82739 96.9263 5.65755 96.8853 5.49743C96.8443 5.33732 96.7417 5.19987 96.5999 5.11499L92.5049 2.58299C92.4338 2.53894 92.3546 2.50948 92.272 2.49634C92.1894 2.48321 92.105 2.48665 92.0237 2.50648C91.9425 2.52631 91.866 2.56212 91.7987 2.61183C91.7314 2.66153 91.6747 2.72414 91.6319 2.79599C91.4699 3.07199 91.2569 3.42899 91.0319 3.80999C89.3999 6.49199 87.7679 6.16499 84.8219 4.76399L80.7569 2.83199C80.6816 2.79503 80.5997 2.77347 80.516 2.76857C80.4322 2.76368 80.3484 2.77555 80.2693 2.80349C80.1902 2.83143 80.1175 2.87488 80.0555 2.93129C79.9934 2.9877 79.9432 3.05594 79.9079 3.13199L77.9549 7.55399C77.8876 7.70395 77.8813 7.87419 77.9373 8.02872C77.9933 8.18324 78.1072 8.30993 78.2549 8.38199C79.1159 8.78699 80.8229 9.58199 82.3499 10.332C87.8999 13.02 92.6099 12.843 96.2009 7.00199Z" fill="url(#paint3_linear)"/>
<g style="mix-blend-mode:color">
<rect x="75" width="24" height="24" fill="#f3f3f3"/>
</g>
<path d="M116.52 14.304C116.152 15.792 115.032 16.832 113.176 16.832C111.016 16.832 109.48 15.12 109.48 12.176C109.48 9.168 111.08 7.568 113.128 7.568C114.968 7.568 116.12 8.64 116.456 10.096H118.04C117.528 7.616 115.608 6.192 113.208 6.192C109.944 6.192 107.816 8.592 107.816 12.176C107.816 15.696 109.752 18.208 113.08 18.208C115.592 18.208 117.592 16.864 118.104 14.304H116.52ZM120.91 13.728C120.91 11.376 122.158 10.528 123.486 10.528C124.814 10.528 126.062 11.424 126.062 13.728C126.062 15.936 124.814 16.928 123.486 16.928C122.158 16.928 120.91 16.032 120.91 13.728ZM123.486 9.248C121.486 9.248 119.358 10.608 119.358 13.728C119.358 16.848 121.486 18.208 123.486 18.208C125.486 18.208 127.614 16.848 127.614 13.728C127.614 10.608 125.486 9.248 123.486 9.248ZM130.811 9.392H129.355V18H130.811V13.328C130.811 11.472 131.675 10.512 133.083 10.512C134.747 10.512 134.971 11.664 134.971 12.992V18H136.427V12.56C136.427 10.592 135.675 9.248 133.595 9.248C132.139 9.248 131.307 9.872 130.811 10.688V9.392ZM138.973 9.392H137.773V10.56H138.973V18H140.429V10.56H142.045V9.392H140.429V8.688C140.429 7.792 140.557 7.616 141.325 7.616H142.045V6.4H141.293C139.325 6.4 138.973 6.976 138.973 8.768V9.392ZM145.077 6.4H143.621V18H145.077V6.4ZM152.714 18H154.17V9.392H152.714V14.128C152.714 15.984 151.914 16.944 150.522 16.944C148.922 16.944 148.714 15.792 148.714 14.464V9.392H147.258V14.896C147.258 16.864 148.026 18.208 150.01 18.208C151.434 18.208 152.218 17.584 152.714 16.768V18ZM164.08 14.176C164.256 11.44 162.704 9.248 160.064 9.248C157.712 9.248 155.888 10.976 155.888 13.712C155.888 16.256 157.392 18.208 160.112 18.208C162.208 18.208 163.584 16.976 163.968 15.504H162.464C162.096 16.352 161.392 16.928 160.112 16.928C158.848 16.928 157.504 16.032 157.456 14.176H164.08ZM160.064 10.496C161.616 10.496 162.496 11.712 162.544 12.928H157.472C157.6 11.2 158.784 10.496 160.064 10.496ZM167.233 9.392H165.777V18H167.233V13.328C167.233 11.472 168.097 10.512 169.505 10.512C171.169 10.512 171.393 11.664 171.393 12.992V18H172.849V12.56C172.849 10.592 172.097 9.248 170.017 9.248C168.561 9.248 167.729 9.872 167.233 10.688V9.392ZM178.595 9.248C176.051 9.248 174.435 11.152 174.435 13.712C174.435 16.336 175.971 18.208 178.451 18.208C180.467 18.208 181.987 16.816 182.291 15.2H180.787C180.579 16.096 179.731 16.928 178.499 16.928C177.219 16.928 176.019 15.872 176.019 13.696C176.019 11.536 177.219 10.528 178.499 10.528C179.635 10.528 180.515 11.248 180.723 12.272H182.195C181.987 10.8 180.707 9.248 178.595 9.248ZM191.611 14.176C191.787 11.44 190.235 9.248 187.595 9.248C185.243 9.248 183.419 10.976 183.419 13.712C183.419 16.256 184.923 18.208 187.643 18.208C189.739 18.208 191.115 16.976 191.499 15.504H189.995C189.627 16.352 188.923 16.928 187.643 16.928C186.379 16.928 185.035 16.032 184.987 14.176H191.611ZM187.595 10.496C189.147 10.496 190.027 11.712 190.075 12.928H185.003C185.131 11.2 186.315 10.496 187.595 10.496Z" fill="black"/>
<path d="M213.275 24H228.913C229.41 24 229.812 23.5971 229.812 23.1V5.90625L223.906 0H213.275C212.778 0 212.375 0.402944 212.375 0.900001V23.1C212.375 23.5971 212.778 24 213.275 24Z" fill="#3086F6"/>
<path d="M223.906 5.90625V0L229.812 5.90625H223.906Z" fill="#0C67D6"/>
<rect x="216.125" y="9.1875" width="9.9375" height="1.5" fill="#FDFFFF"/>
<rect x="216.125" y="12.375" width="9.9375" height="1.5" fill="#FDFFFF"/>
<rect x="216.125" y="15.5625" width="7.125" height="1.5" fill="#FDFFFF"/>
<g style="mix-blend-mode:color">
<rect x="209" width="24" height="24" fill="#f3f3f3"/>
</g>
<path d="M247.208 6.192C243.944 6.192 241.816 8.592 241.816 12.176C241.816 15.696 243.736 18.208 247.064 18.208C248.616 18.208 249.976 17.744 250.728 16.544L250.808 18H252.088V12.08H247.48V13.488H250.552V13.792C250.552 16.192 248.664 16.832 247.128 16.832C245 16.832 243.48 15.12 243.48 12.176C243.48 9.168 245.08 7.568 247.128 7.568C248.984 7.568 250.04 8.48 250.424 9.776H252.008C251.528 7.536 249.608 6.192 247.208 6.192ZM255.457 13.728C255.457 11.376 256.705 10.528 258.033 10.528C259.361 10.528 260.609 11.424 260.609 13.728C260.609 15.936 259.361 16.928 258.033 16.928C256.705 16.928 255.457 16.032 255.457 13.728ZM258.033 9.248C256.033 9.248 253.905 10.608 253.905 13.728C253.905 16.848 256.033 18.208 258.033 18.208C260.033 18.208 262.161 16.848 262.161 13.728C262.161 10.608 260.033 9.248 258.033 9.248ZM265.019 13.728C265.019 11.376 266.267 10.528 267.595 10.528C268.923 10.528 270.171 11.424 270.171 13.728C270.171 15.936 268.923 16.928 267.595 16.928C266.267 16.928 265.019 16.032 265.019 13.728ZM267.595 9.248C265.595 9.248 263.467 10.608 263.467 13.728C263.467 16.848 265.595 18.208 267.595 18.208C269.595 18.208 271.723 16.848 271.723 13.728C271.723 10.608 269.595 9.248 267.595 9.248ZM279.382 10.752C278.854 9.84 278.038 9.248 276.646 9.248C274.742 9.248 272.998 10.8 272.998 13.552C272.998 16.32 274.742 17.856 276.646 17.856C278.038 17.856 278.854 17.28 279.382 16.368V17.184C279.382 18.368 279.126 18.736 278.822 19.088C278.422 19.52 277.846 19.728 277.062 19.728C275.734 19.728 275.238 19.136 275.062 18.368H273.51C273.782 20.112 275.078 21.008 277.046 21.008C278.326 21.008 279.398 20.592 280.022 19.872C280.517 19.328 280.838 18.592 280.838 16.848V9.392H279.382V10.752ZM279.446 13.552C279.446 15.744 278.294 16.624 277.014 16.624C275.59 16.624 274.582 15.536 274.582 13.552C274.582 11.584 275.59 10.496 277.014 10.496C278.294 10.496 279.446 11.376 279.446 13.552ZM284.592 6.4H283.136V18H284.592V6.4ZM294.502 14.176C294.678 11.44 293.126 9.248 290.486 9.248C288.134 9.248 286.31 10.976 286.31 13.712C286.31 16.256 287.814 18.208 290.534 18.208C292.63 18.208 294.006 16.976 294.39 15.504H292.886C292.518 16.352 291.814 16.928 290.534 16.928C289.27 16.928 287.926 16.032 287.878 14.176H294.502ZM290.486 10.496C292.038 10.496 292.918 11.712 292.966 12.928H287.894C288.022 11.2 289.206 10.496 290.486 10.496ZM308.044 12.192C308.044 16.144 305.724 16.624 303.34 16.624H301.852V7.776H303.34C305.724 7.776 308.044 8.256 308.044 12.192ZM300.22 6.4V18H303.388C307.052 18 309.708 16.608 309.708 12.192C309.708 7.792 307.052 6.4 303.388 6.4H300.22ZM312.675 13.728C312.675 11.376 313.923 10.528 315.251 10.528C316.579 10.528 317.827 11.424 317.827 13.728C317.827 15.936 316.579 16.928 315.251 16.928C313.923 16.928 312.675 16.032 312.675 13.728ZM315.251 9.248C313.251 9.248 311.123 10.608 311.123 13.728C311.123 16.848 313.251 18.208 315.251 18.208C317.251 18.208 319.379 16.848 319.379 13.728C319.379 10.608 317.251 9.248 315.251 9.248ZM324.814 9.248C322.27 9.248 320.654 11.152 320.654 13.712C320.654 16.336 322.19 18.208 324.67 18.208C326.686 18.208 328.206 16.816 328.51 15.2H327.006C326.798 16.096 325.95 16.928 324.718 16.928C323.438 16.928 322.238 15.872 322.238 13.696C322.238 11.536 323.438 10.528 324.718 10.528C325.854 10.528 326.734 11.248 326.942 12.272H328.414C328.206 10.8 326.926 9.248 324.814 9.248ZM336.678 11.904C336.406 10.256 335.158 9.232 333.286 9.232C331.382 9.232 329.846 10.112 329.846 11.632C329.846 13.248 331.126 13.76 332.294 14.016L333.574 14.272C334.502 14.48 335.318 14.816 335.318 15.696C335.318 16.512 334.422 16.976 333.318 16.976C332.038 16.976 331.366 16.32 331.126 15.216H329.59C329.766 16.72 331.03 18.208 333.286 18.208C335.254 18.208 336.79 17.248 336.79 15.536C336.79 13.888 335.414 13.264 333.846 12.976L332.63 12.736C331.798 12.56 331.318 12.256 331.318 11.568C331.318 10.784 332.278 10.48 333.126 10.48C334.15 10.48 334.918 10.88 335.158 11.904H336.678Z" fill="black"/>
<path d="M12.0852 63.1955L16.405 49.8474H7.77148L12.0852 63.1955Z" fill="#E24329"/>
<path d="M1.71967 49.8474L0.404171 53.9027C0.285146 54.271 0.413695 54.6774 0.72787 54.907L12.0841 63.1954L1.71967 49.8474Z" fill="#FCA326"/>
<path d="M1.71973 49.8474H7.77043L5.16635 41.8085C5.03308 41.3972 4.45228 41.3972 4.3142 41.8085L1.71973 49.8474Z" fill="#E24329"/>
<path d="M22.4556 49.8474L23.7664 53.9027C23.8854 54.271 23.7568 54.6774 23.4427 54.907L12.085 63.1955L22.4556 49.8474Z" fill="#FCA326"/>
<path d="M22.455 49.8474H16.4043L19.0036 41.8085C19.1368 41.3972 19.7176 41.3972 19.8557 41.8085L22.455 49.8474Z" fill="#E24329"/>
<path d="M12.085 63.1955L16.4049 49.8474H22.4556L12.085 63.1955Z" fill="#FC6D26"/>
<path d="M12.0841 63.1955L1.71973 49.8474H7.77043L12.0841 63.1955Z" fill="#FC6D26"/>
<g style="mix-blend-mode:color">
<rect y="40" width="24" height="24" fill="#f3f3f3"/>
</g>
<path d="M38.208 46.192C34.944 46.192 32.816 48.592 32.816 52.176C32.816 55.696 34.736 58.208 38.064 58.208C39.616 58.208 40.976 57.744 41.728 56.544L41.808 58H43.088V52.08H38.48V53.488H41.552V53.792C41.552 56.192 39.664 56.832 38.128 56.832C36 56.832 34.48 55.12 34.48 52.176C34.48 49.168 36.08 47.568 38.128 47.568C39.984 47.568 41.04 48.48 41.424 49.776H43.008C42.528 47.536 40.608 46.192 38.208 46.192ZM45.4645 49.392V58H46.9205V49.392H45.4645ZM45.4645 46.4V48.16H46.9205V46.4H45.4645ZM49.6461 49.392H48.2861V50.56H49.6461V55.84C49.6461 57.632 50.0301 58 51.6781 58H52.7341V56.784H51.9981C51.1661 56.784 51.1021 56.56 51.1021 55.664V50.56H52.7341V49.392H51.1021V47.232H49.6461V49.392ZM56.0455 46.4H54.5895V58H56.0455V46.4ZM63.7791 54.4C63.7791 56.432 62.4831 57.056 61.1231 57.056C60.0831 57.056 59.4591 56.512 59.4591 55.696C59.4591 54.512 61.1391 54.112 63.7791 53.856V54.4ZM60.8031 58.208C62.3391 58.208 63.2191 57.712 63.7471 56.816C63.7631 57.328 63.8111 57.68 63.8591 58H65.3311C65.1551 57.184 65.0911 56.208 65.1071 54.752L65.1231 52.768C65.1391 50.336 64.0831 49.216 61.6991 49.216C60.0351 49.216 58.3711 50.256 58.2431 52.112H59.7471C59.8111 51.04 60.4991 50.4 61.7151 50.4C62.8031 50.4 63.6671 50.912 63.6671 52.496V52.704C60.1471 53.088 57.8431 53.696 57.8431 55.728C57.8431 57.312 59.1871 58.208 60.8031 58.208ZM68.6846 53.728C68.6846 51.456 69.9006 50.496 71.1966 50.496C72.6846 50.496 73.6606 51.664 73.6606 53.728C73.6606 55.792 72.6846 56.96 71.1966 56.96C69.9006 56.96 68.6846 56 68.6846 53.728ZM67.2926 46.4V58H68.7486V56.704C69.2766 57.616 70.1726 58.208 71.5646 58.208C73.5486 58.208 75.2446 56.592 75.2446 53.728C75.2446 50.912 73.5486 49.248 71.5646 49.248C70.1726 49.248 69.2766 49.84 68.7486 50.752V46.4H67.2926ZM89.0669 54.304C88.6989 55.792 87.5789 56.832 85.7229 56.832C83.5629 56.832 82.0269 55.12 82.0269 52.176C82.0269 49.168 83.6269 47.568 85.6749 47.568C87.5149 47.568 88.6669 48.64 89.0029 50.096H90.5869C90.0749 47.616 88.1549 46.192 85.7549 46.192C82.4909 46.192 80.3629 48.592 80.3629 52.176C80.3629 55.696 82.2989 58.208 85.6269 58.208C88.1389 58.208 90.1389 56.864 90.6509 54.304H89.0669ZM94.1643 46.4H92.5323V58H94.1643V46.4Z" fill="black"/>
<path d="M120.761 40.0591C119.441 40.0591 118.372 41.1311 118.372 42.4531C118.371 42.7672 118.433 43.0782 118.553 43.3685C118.673 43.6588 118.849 43.9226 119.07 44.1449C119.292 44.3672 119.556 44.5436 119.846 44.6641C120.136 44.7846 120.447 44.8468 120.761 44.8471H123.15V42.4531C123.151 41.8188 122.899 41.2102 122.451 40.7612C122.003 40.3123 121.395 40.0597 120.761 40.0591ZM120.761 46.4431H114.389C113.07 46.4431 112 47.5151 112 48.8375C112 50.1595 113.07 51.2315 114.389 51.2315H120.761C122.08 51.2315 123.15 50.1595 123.15 48.8375C123.15 47.5151 122.08 46.4431 120.761 46.4431Z" fill="#36C5F0"/>
<path d="M135.894 48.8375C135.894 47.5151 134.824 46.4431 133.504 46.4431C132.184 46.4431 131.115 47.5151 131.115 48.8375V51.2315H133.504C134.138 51.2308 134.746 50.9783 135.195 50.5293C135.643 50.0804 135.894 49.4718 135.894 48.8375ZM129.522 48.8375V42.4531C129.522 41.8188 129.271 41.2102 128.823 40.7612C128.375 40.3123 127.767 40.0597 127.132 40.0591C125.813 40.0591 124.743 41.1311 124.743 42.4531V48.8371C124.743 50.1599 125.813 51.2319 127.132 51.2319C127.767 51.2312 128.375 50.9787 128.823 50.5297C129.271 50.0808 129.522 49.4722 129.522 48.8379" fill="#2EB67D"/>
<path d="M127.132 64C127.767 63.9994 128.375 63.7468 128.823 63.2979C129.271 62.8489 129.522 62.2404 129.522 61.606C129.522 60.9717 129.271 60.3631 128.823 59.9142C128.375 59.4652 127.767 59.2127 127.132 59.212H124.743V61.606C124.743 62.928 125.813 64 127.132 64ZM127.132 57.616H133.504C134.824 57.616 135.894 56.544 135.894 55.2216C135.894 54.5873 135.643 53.9787 135.195 53.5298C134.746 53.0808 134.138 52.8283 133.504 52.8276H127.132C125.813 52.8276 124.743 53.8996 124.743 55.2216C124.743 55.5357 124.804 55.8468 124.924 56.137C125.044 56.4273 125.22 56.6912 125.442 56.9135C125.664 57.1358 125.927 57.3122 126.217 57.4327C126.507 57.5532 126.818 57.6153 127.132 57.6156" fill="#ECB22E"/>
<path d="M112 55.2216C112 55.5357 112.061 55.8468 112.181 56.137C112.301 56.4273 112.477 56.6912 112.699 56.9135C112.921 57.1358 113.184 57.3122 113.474 57.4327C113.764 57.5532 114.075 57.6153 114.389 57.6156C115.024 57.615 115.632 57.3624 116.08 56.9135C116.528 56.4645 116.779 55.856 116.779 55.2216V52.8276H114.389C113.07 52.8276 112 53.8996 112 55.2216ZM118.372 55.2216V61.6056C118.372 62.928 119.441 64 120.761 64C121.395 63.9994 122.003 63.7468 122.451 63.2979C122.899 62.8489 123.151 62.2404 123.15 61.606V55.2216C123.151 54.9075 123.089 54.5964 122.969 54.3061C122.849 54.0158 122.673 53.752 122.451 53.5297C122.23 53.3074 121.966 53.1309 121.676 53.0105C121.386 52.89 121.075 52.8279 120.761 52.8276C119.441 52.8276 118.372 53.8996 118.372 55.2216Z" fill="#E01E5A"/>
<g style="mix-blend-mode:color">
<rect x="112" y="40" width="24" height="24" fill="#f3f3f3"/>
</g>
<path d="M144.896 49.36C144.896 51.28 146.48 52.176 148.08 52.528L149.52 52.832C150.96 53.168 152.016 53.648 152.016 54.88C152.016 56.032 151.04 56.832 149.312 56.832C147.52 56.832 146.416 56 146.112 54.4H144.512C144.816 56.704 146.544 58.208 149.28 58.208C151.584 58.208 153.696 56.992 153.696 54.736C153.696 52.4 151.568 51.728 149.792 51.344L148.448 51.04C147.36 50.8 146.56 50.288 146.56 49.264C146.56 47.968 148.128 47.568 149.024 47.568C150.176 47.568 151.52 48.032 151.904 49.36H153.488C153.024 47.136 151.184 46.192 149.088 46.192C147.216 46.192 144.896 47.136 144.896 49.36ZM156.858 46.4H155.402V58H156.858V46.4ZM164.592 54.4C164.592 56.432 163.296 57.056 161.936 57.056C160.896 57.056 160.272 56.512 160.272 55.696C160.272 54.512 161.952 54.112 164.592 53.856V54.4ZM161.616 58.208C163.152 58.208 164.032 57.712 164.56 56.816C164.576 57.328 164.624 57.68 164.672 58H166.144C165.968 57.184 165.904 56.208 165.92 54.752L165.936 52.768C165.952 50.336 164.896 49.216 162.512 49.216C160.848 49.216 159.184 50.256 159.056 52.112H160.56C160.624 51.04 161.312 50.4 162.528 50.4C163.616 50.4 164.48 50.912 164.48 52.496V52.704C160.96 53.088 158.656 53.696 158.656 55.728C158.656 57.312 160 58.208 161.616 58.208ZM171.673 49.248C169.129 49.248 167.513 51.152 167.513 53.712C167.513 56.336 169.049 58.208 171.529 58.208C173.545 58.208 175.065 56.816 175.369 55.2H173.865C173.657 56.096 172.809 56.928 171.577 56.928C170.297 56.928 169.097 55.872 169.097 53.696C169.097 51.536 170.297 50.528 171.577 50.528C172.713 50.528 173.593 51.248 173.801 52.272H175.273C175.065 50.8 173.785 49.248 171.673 49.248ZM177.011 46.4V58H178.467V55.12L179.475 54.032L182.403 58H184.179L180.451 52.96L183.731 49.392H181.939L178.467 53.264V46.4H177.011Z" fill="black"/>
<path d="M211.915 63.3481C205.61 63.3481 200.48 58.2191 200.48 51.9141C200.48 45.609 205.61 40.48 211.915 40.48C218.22 40.48 223.349 45.6095 223.349 51.9143C223.349 58.2191 218.22 63.3481 211.915 63.3481Z" fill="#85EA2D"/>
<path d="M212.006 41.1446C218.006 41.1446 222.868 46.0074 222.868 52.0065C222.868 58.0053 218.006 62.8684 212.006 62.8684C206.008 62.8684 201.145 58.0053 201.145 52.0065C201.145 46.0077 206.008 41.1446 212.006 41.1446ZM212.006 40C205.386 40 200 45.3861 200 52.0065C200 58.6269 205.386 64.013 212.006 64.013C218.627 64.013 224.013 58.6269 224.013 52.0065C224.013 45.3861 218.627 40 212.006 40Z" fill="#173647"/>
<path d="M207.662 48.0145C207.625 48.4254 207.676 48.8502 207.648 49.2656C207.616 49.6813 207.565 50.0922 207.482 50.5031C207.367 51.0894 207.002 51.5327 206.499 51.902C207.478 52.5392 207.588 53.5271 207.653 54.5291C207.685 55.0693 207.671 55.6141 207.727 56.1496C207.768 56.565 207.93 56.6713 208.359 56.685C208.535 56.6896 208.715 56.685 208.918 56.685V57.9685C207.649 58.1855 206.601 57.8255 206.342 56.7498C206.259 56.3574 206.203 55.9556 206.185 55.5493C206.157 55.12 206.203 54.6906 206.171 54.2612C206.079 53.0838 205.926 52.6868 204.8 52.6314V51.1679C204.883 51.1494 204.961 51.1355 205.044 51.1264C205.663 51.094 205.926 50.9046 206.06 50.2952C206.125 49.9537 206.162 49.6074 206.175 49.2565C206.222 48.5872 206.203 47.9039 206.319 47.2391C206.48 46.2834 207.071 45.8216 208.055 45.7662C208.332 45.7523 208.613 45.7662 208.932 45.7662V47.0776C208.798 47.0869 208.683 47.1052 208.563 47.1052C207.764 47.0773 207.722 47.3497 207.662 48.0145ZM209.199 51.0524H209.181C208.719 51.0294 208.322 51.3894 208.299 51.8512C208.276 52.3175 208.636 52.7147 209.098 52.7375H209.153C209.61 52.7653 210.003 52.4142 210.03 51.9572V51.9112C210.04 51.4448 209.666 51.0618 209.199 51.0524ZM212.094 51.0524C211.647 51.0385 211.272 51.3894 211.259 51.8327C211.259 51.8605 211.259 51.8836 211.263 51.9112C211.263 52.4144 211.605 52.7377 212.122 52.7377C212.63 52.7377 212.949 52.4053 212.949 51.8836C212.944 51.3803 212.607 51.0479 212.094 51.0524ZM215.059 51.0524C214.588 51.0431 214.195 51.4172 214.181 51.8881C214.181 52.359 214.56 52.7375 215.031 52.7375H215.04C215.465 52.8114 215.894 52.4005 215.922 51.9066C215.945 51.4494 215.529 51.0524 215.059 51.0524ZM219.126 51.1216C218.59 51.0985 218.323 50.9185 218.189 50.4104C218.106 50.0874 218.055 49.7502 218.037 49.4178C218 48.7991 218.004 48.1758 217.963 47.5571C217.866 46.089 216.804 45.5766 215.262 45.8303V47.1047C215.506 47.1047 215.696 47.1047 215.885 47.1092C216.213 47.1138 216.462 47.2386 216.494 47.6034C216.527 47.9358 216.527 48.2728 216.559 48.61C216.624 49.2796 216.661 49.958 216.776 50.6183C216.878 51.1631 217.252 51.5694 217.718 51.9018C216.901 52.4512 216.661 53.236 216.619 54.118C216.596 54.7228 216.582 55.3321 216.55 55.9417C216.522 56.4956 216.328 56.6756 215.77 56.6896C215.613 56.6941 215.46 56.708 215.285 56.7174V58.024C215.613 58.024 215.913 58.0424 216.213 58.024C217.145 57.9685 217.709 57.5161 217.893 56.6111C217.972 56.1124 218.018 55.6093 218.032 55.106C218.064 54.6443 218.06 54.178 218.106 53.721C218.175 53.0053 218.503 52.7099 219.219 52.6638C219.288 52.6544 219.352 52.6408 219.417 52.6177V51.154C219.297 51.14 219.214 51.1264 219.126 51.1216Z" fill="#173647"/>
<g style="mix-blend-mode:color">
<rect x="200" y="40" width="24" height="24" fill="#f3f3f3"/>
</g>
<path d="M232.896 49.36C232.896 51.28 234.48 52.176 236.08 52.528L237.52 52.832C238.96 53.168 240.016 53.648 240.016 54.88C240.016 56.032 239.04 56.832 237.312 56.832C235.52 56.832 234.416 56 234.112 54.4H232.512C232.816 56.704 234.544 58.208 237.28 58.208C239.584 58.208 241.696 56.992 241.696 54.736C241.696 52.4 239.568 51.728 237.792 51.344L236.448 51.04C235.36 50.8 234.56 50.288 234.56 49.264C234.56 47.968 236.128 47.568 237.024 47.568C238.176 47.568 239.52 48.032 239.904 49.36H241.488C241.024 47.136 239.184 46.192 237.088 46.192C235.216 46.192 232.896 47.136 232.896 49.36ZM245.546 55.76L243.898 49.392H242.33L244.81 58H246.138L247.978 51.072L249.882 58H251.21L253.69 49.392H252.122L250.474 55.76L248.762 49.392H247.258L245.546 55.76ZM260.185 54.4C260.185 56.432 258.889 57.056 257.529 57.056C256.489 57.056 255.865 56.512 255.865 55.696C255.865 54.512 257.545 54.112 260.185 53.856V54.4ZM257.209 58.208C258.745 58.208 259.625 57.712 260.153 56.816C260.169 57.328 260.217 57.68 260.265 58H261.737C261.561 57.184 261.497 56.208 261.513 54.752L261.529 52.768C261.545 50.336 260.489 49.216 258.105 49.216C256.441 49.216 254.777 50.256 254.649 52.112H256.153C256.217 51.04 256.905 50.4 258.121 50.4C259.209 50.4 260.073 50.912 260.073 52.496V52.704C256.553 53.088 254.249 53.696 254.249 55.728C254.249 57.312 255.593 58.208 257.209 58.208ZM269.491 50.752C268.963 49.84 268.147 49.248 266.755 49.248C264.851 49.248 263.107 50.8 263.107 53.552C263.107 56.32 264.851 57.856 266.755 57.856C268.147 57.856 268.963 57.28 269.491 56.368V57.184C269.491 58.368 269.235 58.736 268.931 59.088C268.531 59.52 267.955 59.728 267.171 59.728C265.843 59.728 265.347 59.136 265.171 58.368H263.619C263.891 60.112 265.187 61.008 267.155 61.008C268.435 61.008 269.507 60.592 270.131 59.872C270.627 59.328 270.947 58.592 270.947 56.848V49.392H269.491V50.752ZM269.555 53.552C269.555 55.744 268.403 56.624 267.123 56.624C265.699 56.624 264.691 55.536 264.691 53.552C264.691 51.584 265.699 50.496 267.123 50.496C268.403 50.496 269.555 51.376 269.555 53.552ZM279.038 50.752C278.51 49.84 277.694 49.248 276.302 49.248C274.398 49.248 272.654 50.8 272.654 53.552C272.654 56.32 274.398 57.856 276.302 57.856C277.694 57.856 278.51 57.28 279.038 56.368V57.184C279.038 58.368 278.782 58.736 278.478 59.088C278.078 59.52 277.502 59.728 276.718 59.728C275.39 59.728 274.894 59.136 274.718 58.368H273.166C273.438 60.112 274.734 61.008 276.702 61.008C277.982 61.008 279.054 60.592 279.678 59.872C280.174 59.328 280.494 58.592 280.494 56.848V49.392H279.038V50.752ZM279.102 53.552C279.102 55.744 277.95 56.624 276.67 56.624C275.246 56.624 274.238 55.536 274.238 53.552C274.238 51.584 275.246 50.496 276.67 50.496C277.95 50.496 279.102 51.376 279.102 53.552ZM290.393 54.176C290.569 51.44 289.017 49.248 286.377 49.248C284.025 49.248 282.201 50.976 282.201 53.712C282.201 56.256 283.705 58.208 286.425 58.208C288.521 58.208 289.897 56.976 290.281 55.504H288.777C288.409 56.352 287.705 56.928 286.425 56.928C285.161 56.928 283.817 56.032 283.769 54.176H290.393ZM286.377 50.496C287.929 50.496 288.809 51.712 288.857 52.928H283.785C283.913 51.2 285.097 50.496 286.377 50.496ZM296.378 49.36C296.202 49.344 296.09 49.344 295.946 49.344C294.81 49.392 293.946 49.92 293.514 50.896V49.392H292.09V58H293.546V53.488C293.546 51.584 294.218 50.848 295.562 50.848C295.802 50.848 296.074 50.864 296.378 50.912V49.36Z" fill="black"/>
<defs>
<linearGradient id="paint0_linear" x1="11.4339" y1="5.56195" x2="6.95189" y2="10.044" gradientUnits="userSpaceOnUse">
<stop offset="0.18" stop-color="#0052CC"/>
<stop offset="1" stop-color="#2684FF"/>
</linearGradient>
<linearGradient id="paint1_linear" x1="308.593" y1="680.486" x2="456.657" y2="584.436" gradientUnits="userSpaceOnUse">
<stop offset="0.18" stop-color="#0052CC"/>
<stop offset="1" stop-color="#2684FF"/>
</linearGradient>
<linearGradient id="paint2_linear" x1="95.9374" y1="22.743" x2="83.5294" y2="15.612" gradientUnits="userSpaceOnUse">
<stop stop-color="#0052CC"/>
<stop offset="0.92" stop-color="#2380FB"/>
<stop offset="1" stop-color="#2684FF"/>
</linearGradient>
<linearGradient id="paint3_linear" x1="-262924" y1="-24811.1" x2="-262473" y2="-24293.1" gradientUnits="userSpaceOnUse">
<stop stop-color="#0052CC"/>
<stop offset="0.92" stop-color="#2380FB"/>
<stop offset="1" stop-color="#2684FF"/>
</linearGradient>
</defs>
</svg>
