<svg width="1440" height="716" viewBox="0 0 1440 716" fill="none" xmlns="http://www.w3.org/2000/svg">
<path d="M355.2 330.1C355.2 330.1 355.1 330.1 355.2 330.1C355.1 330.1 355.2 330.1 355.2 330.1ZM355.2 330.1C355.2 330.1 355.2 330.2 355.2 330.1ZM355.2 330.1C355.1 330.2 355.1 330.1 355.2 330.1ZM355.2 330.1C355.1 330.1 355.1 330 355.2 330.1ZM355.2 330.1C355.2 330 355.3 330.1 355.2 330.1ZM355.2 330.1C355.3 330.2 355.2 330.2 355.2 330.2C355.1 330.2 355.1 330.1 355.1 330.1C355.1 330 355.2 330 355.2 330C355.3 330 355.4 330.1 355.4 330.2C355.4 330.3 355.3 330.4 355.2 330.4C355.1 330.4 355 330.3 355 330.2C355 330 355.1 329.9 355.3 329.9C355.5 329.9 355.7 330.1 355.7 330.3C355.7 330.5 355.5 330.7 355.3 330.7C355 330.7 354.8 330.5 354.8 330.2C354.8 329.9 355.1 329.6 355.4 329.6C355.8 329.6 356.1 329.9 356.1 330.3C356.1 330.8 355.7 331.2 355.2 331.2C354.6 331.2 354.1 330.7 354.1 330.1C354.1 329.4 354.7 328.8 355.4 328.8C356.3 328.8 356.9 329.5 356.9 330.3C356.9 331.3 356.1 332.1 355.1 332.1C353.9 332.1 352.9 331.1 352.9 329.9C352.9 328.4 354.1 327.2 355.6 327.2C357.4 327.2 358.8 328.6 358.8 330.4C358.8 332.5 357.1 334.2 355 334.2C352.5 334.2 350.4 332.1 350.4 329.6C350.4 326.6 352.9 324.1 355.9 324.1C359.6 324.1 362.5 327.1 362.5 330.7C362.5 335.1 358.9 338.6 354.6 338.6C349.3 338.6 345.1 334.3 345.1 329.1C345.1 322.8 350.2 317.7 356.5 317.7C364.1 317.7 370.2 323.8 370.2 331.4C370.2 340.5 362.8 347.9 353.7 347.9C342.8 347.9 333.9 339.1 333.9 328.1C333.9 315 344.5 304.4 357.6 304.4C373.3 304.4 386.1 317.1 386.1 332.9C386.1 351.8 370.8 367 352 367C329.4 367 311 348.7 311 326C311 298.8 333 276.8 360.2 276.8C392.8 276.8 419.2 303.2 419.2 335.8C419.2 374.9 387.5 406.6 348.4 406.6C301.5 406.6 263.4 368.6 263.4 321.6C263.4 265.3 309 219.6 365.4 219.6C433 219.6 487.8 274.4 487.8 342C487.8 423.1 422.1 488.8 341 488.8C243.7 488.8 164.8 409.9 164.8 312.6C164.8 195.8 259.5 101.2 376.2 101.2C516.3 101.2 629.9 214.8 629.9 354.9C629.9 523 493.6 659.4 325.4 659.4C123.6 659.4 -39.9 495.8 -39.9 294.1C-39.9 52 156.4 -144.3 398.5 -144.3C689.1 -144.3 924.6 91.2 924.6 381.8C924.6 730.5 642 1013.1 293.3 1013.1C-125.3 1013.2 -464.5 674 -464.5 255.6C-464.5 -246.5 -57.5 -653.5 444.6 -653.5C1047.1 -653.5 1535.5 -165.1 1535.5 437.4" stroke="#969696" stroke-miterlimit="10"/>
<path d="M154.026 341.44L154.027 341.439C159.932 335.664 167.734 332.5 175.987 332.5H175.988H175.99H175.991H175.993H175.994H175.996H175.998H175.999H176.001H176.002H176.004H176.005H176.007H176.009H176.01H176.012H176.013H176.015H176.016H176.018H176.02H176.021H176.023H176.024H176.026H176.027H176.029H176.031H176.032H176.034H176.035H176.037H176.038H176.04H176.042H176.043H176.045H176.046H176.048H176.049H176.051H176.053H176.054H176.056H176.057H176.059H176.06H176.062H176.064H176.065H176.067H176.068H176.07H176.071H176.073H176.074H176.076H176.078H176.079H176.081H176.082H176.084H176.085H176.087H176.089H176.09H176.092H176.093H176.095H176.096H176.098H176.1H176.101H176.103H176.104H176.106H176.107H176.109H176.111H176.112H176.114H176.115H176.117H176.118H176.12H176.122H176.123H176.125H176.126H176.128H176.129H176.131H176.133H176.134H176.136H176.137H176.139H176.14H176.142H176.144H176.145H176.147H176.148H176.15H176.151H176.153H176.155H176.156H176.158H176.159H176.161H176.162H176.164H176.166H176.167H176.169H176.17H176.172H176.173H176.175H176.176H176.178H176.18H176.181H176.183H176.184H176.186H176.187H176.189H176.191H176.192H176.194H176.195H176.197H176.198H176.2H176.202H176.203H176.205H176.206H176.208H176.209H176.211H176.213H176.214H176.216H176.217H176.219H176.22H176.222H176.224H176.225H176.227H176.228H176.23H176.231H176.233H176.235H176.236H176.238H176.239H176.241H176.242H176.244H176.246H176.247H176.249H176.25H176.252H176.253H176.255H176.257H176.258H176.26H176.261H176.263H176.264H176.266H176.268H176.269H176.271H176.272H176.274H176.275H176.277H176.278H176.28H176.282H176.283H176.285H176.286H176.288H176.289H176.291H176.293H176.294H176.296H176.297H176.299H176.3H176.302H176.304H176.305H176.307H176.308H176.31H176.311H176.313H176.315H176.316H176.318H176.319H176.321H176.322H176.324H176.326H176.327H176.329H176.33H176.332H176.333H176.335H176.337H176.338H176.34H176.341H176.343H176.344H176.346H176.348H176.349H176.351H176.352H176.354H176.355H176.357H176.359H176.36H176.362H176.363H176.365H176.366H176.368H176.37H176.371H176.373H176.374H176.376H176.377H176.379H176.38H176.382H176.384H176.385H176.387H176.388H176.39H176.391H176.393H176.395H176.396H176.398H176.399H176.401H176.402H176.404H176.406H176.407H176.409H176.41H176.412H176.413H176.415H176.417H176.418H176.42H176.421H176.423H176.424H176.426H176.428H176.429H176.431H176.432H176.434H176.435H176.437H176.439H176.44H176.442H176.443H176.445H176.446H176.448H176.45H176.451H176.453H176.454H176.456H176.457H176.459H176.461H176.462H176.464H176.465H176.467H176.468H176.47H176.472H176.473H176.475H176.476H176.478H176.479H176.481H176.482H176.484H176.486H176.487H176.489H176.49H176.492H176.493H176.495H176.497H176.498H176.5H176.501H176.503H176.504H176.506H176.508H176.509H176.511H176.512H176.514H176.515H176.517H176.519H176.52H176.522H176.523H176.525H176.526H176.528H176.53H176.531H176.533H176.534H176.536H176.537H176.539H176.541H176.542H176.544H176.545H176.547H176.548H176.55H176.552H176.553H176.555H176.556H176.558H176.559H176.561H176.563H176.564H176.566H176.567H176.569H176.57H176.572H176.574H176.575H176.577H176.578H176.58H176.581H176.583H176.584H176.586H176.588H176.589H176.591H176.592H176.594H176.595H176.597H176.599H176.6H176.602H176.603H176.605H176.606H176.608H176.61H176.611H176.613H176.614H176.616H176.617H176.619H176.621H176.622H176.624H176.625H176.627H176.628H176.63H176.632H176.633H176.635H176.636H176.638H176.639H176.641H176.643H176.644H176.646H176.647H176.649H176.65H176.652H176.654H176.655H176.657H176.658H176.66H176.661H176.663H176.665H176.666H176.668H176.669H176.671H176.672H176.674H176.676H176.677H176.679H176.68H176.682H176.683H176.685H176.686H176.688H176.69H176.691H176.693H176.694H176.696H176.697H176.699H176.701H176.702H176.704H176.705H176.707H176.708H176.71H176.712H176.713H176.715H176.716H176.718H176.719H176.721H176.723H176.724H176.726H176.727H176.729H176.73H176.732H176.734H176.735H176.737H176.738H176.74H176.741H176.743H176.745H176.746H176.748H176.749H176.751H176.752H176.754H176.756H176.757H176.759H176.76H176.762H176.763H176.765H176.767H176.768H176.77H176.771H176.773H176.774H176.776H176.778H176.779H176.781H176.782H176.784H176.784C194.153 332.925 207.912 347.428 207.491 364.778C207.28 373.059 203.906 380.784 197.974 386.56C192.041 392.336 184.239 395.5 176.013 395.5H176.012H176.01H176.009H176.007H176.006H176.004H176.002H176.001H175.999H175.998H175.996H175.995H175.993H175.991H175.99H175.988H175.987H175.985H175.984H175.982H175.98H175.979H175.977H175.976H175.974H175.973H175.971H175.969H175.968H175.966H175.965H175.963H175.962H175.96H175.958H175.957H175.955H175.954H175.952H175.951H175.949H175.947H175.946H175.944H175.943H175.941H175.94H175.938H175.936H175.935H175.933H175.932H175.93H175.929H175.927H175.926H175.924H175.922H175.921H175.919H175.918H175.916H175.915H175.913H175.911H175.91H175.908H175.907H175.905H175.904H175.902H175.9H175.899H175.897H175.896H175.894H175.893H175.891H175.889H175.888H175.886H175.885H175.883H175.882H175.88H175.878H175.877H175.875H175.874H175.872H175.871H175.869H175.867H175.866H175.864H175.863H175.861H175.86H175.858H175.856H175.855H175.853H175.852H175.85H175.849H175.847H175.845H175.844H175.842H175.841H175.839H175.838H175.836H175.834H175.833H175.831H175.83H175.828H175.827H175.825H175.824H175.822H175.82H175.819H175.817H175.816H175.814H175.813H175.811H175.809H175.808H175.806H175.805H175.803H175.802H175.8H175.798H175.797H175.795H175.794H175.792H175.791H175.789H175.787H175.786H175.784H175.783H175.781H175.78H175.778H175.776H175.775H175.773H175.772H175.77H175.769H175.767H175.765H175.764H175.762H175.761H175.759H175.758H175.756H175.754H175.753H175.751H175.75H175.748H175.747H175.745H175.743H175.742H175.74H175.739H175.737H175.736H175.734H175.732H175.731H175.729H175.728H175.726H175.725H175.723H175.722H175.72H175.718H175.717H175.715H175.714H175.712H175.711H175.709H175.707H175.706H175.704H175.703H175.701H175.7H175.698H175.696H175.695H175.693H175.692H175.69H175.689H175.687H175.685H175.684H175.682H175.681H175.679H175.678H175.676H175.674H175.673H175.671H175.67H175.668H175.667H175.665H175.663H175.662H175.66H175.659H175.657H175.656H175.654H175.652H175.651H175.649H175.648H175.646H175.645H175.643H175.641H175.64H175.638H175.637H175.635H175.634H175.632H175.63H175.629H175.627H175.626H175.624H175.623H175.621H175.62H175.618H175.616H175.615H175.613H175.612H175.61H175.609H175.607H175.605H175.604H175.602H175.601H175.599H175.598H175.596H175.594H175.593H175.591H175.59H175.588H175.587H175.585H175.583H175.582H175.58H175.579H175.577H175.576H175.574H175.572H175.571H175.569H175.568H175.566H175.565H175.563H175.561H175.56H175.558H175.557H175.555H175.554H175.552H175.55H175.549H175.547H175.546H175.544H175.543H175.541H175.539H175.538H175.536H175.535H175.533H175.532H175.53H175.528H175.527H175.525H175.524H175.522H175.521H175.519H175.518H175.516H175.514H175.513H175.511H175.51H175.508H175.507H175.505H175.503H175.502H175.5H175.499H175.497H175.496H175.494H175.492H175.491H175.489H175.488H175.486H175.485H175.483H175.481H175.48H175.478H175.477H175.475H175.474H175.472H175.47H175.469H175.467H175.466H175.464H175.463H175.461H175.459H175.458H175.456H175.455H175.453H175.452H175.45H175.448H175.447H175.445H175.444H175.442H175.441H175.439H175.437H175.436H175.434H175.433H175.431H175.43H175.428H175.426H175.425H175.423H175.422H175.42H175.419H175.417H175.416H175.414H175.412H175.411H175.409H175.408H175.406H175.405H175.403H175.401H175.4H175.398H175.397H175.395H175.394H175.392H175.39H175.389H175.387H175.386H175.384H175.383H175.381H175.379H175.378H175.376H175.375H175.373H175.372H175.37H175.368H175.367H175.365H175.364H175.362H175.361H175.359H175.357H175.356H175.354H175.353H175.351H175.35H175.348H175.346H175.345H175.343H175.342H175.34H175.339H175.337H175.335H175.334H175.332H175.331H175.329H175.328H175.326H175.324H175.323H175.321H175.32H175.318H175.317H175.315H175.314H175.312H175.31H175.309H175.307H175.306H175.304H175.303H175.301H175.299H175.298H175.296H175.295H175.293H175.292H175.29H175.288H175.287H175.285H175.284H175.282H175.281H175.279H175.277H175.276H175.274H175.273H175.271H175.27H175.268H175.266H175.265H175.263H175.262H175.26H175.259H175.257H175.255H175.254H175.252H175.251H175.249H175.248H175.246H175.244H175.243H175.241H175.24H175.238H175.237H175.235H175.233H175.232H175.23H175.229H175.227H175.226H175.224H175.222H175.221H175.219H175.218H175.216H175.216C157.847 395.075 144.088 380.572 144.509 363.222C144.72 354.941 148.094 347.216 154.026 341.44Z" fill="#F3F3F3" stroke="#76BC21"/>
<path d="M410.188 336.899L410.188 336.898C413.094 334.057 416.932 332.5 420.993 332.5H420.994H420.995H420.996H420.996H420.997H420.998H420.999H421H421H421.001H421.002H421.003H421.004H421.004H421.005H421.006H421.007H421.007H421.008H421.009H421.01H421.011H421.011H421.012H421.013H421.014H421.014H421.015H421.016H421.017H421.018H421.018H421.019H421.02H421.021H421.022H421.022H421.023H421.024H421.025H421.025H421.026H421.027H421.028H421.029H421.029H421.03H421.031H421.032H421.033H421.033H421.034H421.035H421.036H421.036H421.037H421.038H421.039H421.04H421.04H421.041H421.042H421.043H421.044H421.044H421.045H421.046H421.047H421.047H421.048H421.049H421.05H421.051H421.051H421.052H421.053H421.054H421.055H421.055H421.056H421.057H421.058H421.058H421.059H421.06H421.061H421.062H421.062H421.063H421.064H421.065H421.065H421.066H421.067H421.068H421.069H421.069H421.07H421.071H421.072H421.073H421.073H421.074H421.075H421.076H421.076H421.077H421.078H421.079H421.08H421.08H421.081H421.082H421.083H421.084H421.084H421.085H421.086H421.087H421.087H421.088H421.089H421.09H421.091H421.091H421.092H421.093H421.094H421.095H421.095H421.096H421.097H421.098H421.098H421.099H421.1H421.101H421.102H421.102H421.103H421.104H421.105H421.106H421.106H421.107H421.108H421.109H421.109H421.11H421.111H421.112H421.113H421.113H421.114H421.115H421.116H421.116H421.117H421.118H421.119H421.12H421.12H421.121H421.122H421.123H421.124H421.124H421.125H421.126H421.127H421.127H421.128H421.129H421.13H421.131H421.131H421.132H421.133H421.134H421.135H421.135H421.136H421.137H421.138H421.138H421.139H421.14H421.141H421.142H421.142H421.143H421.144H421.145H421.146H421.146H421.147H421.148H421.149H421.149H421.15H421.151H421.152H421.153H421.153H421.154H421.155H421.156H421.157H421.157H421.158H421.159H421.16H421.16H421.161H421.162H421.163H421.164H421.164H421.165H421.166H421.167H421.167H421.168H421.169H421.17H421.171H421.171H421.172H421.173H421.174H421.175H421.175H421.176H421.177H421.178H421.178H421.179H421.18H421.181H421.182H421.182H421.183H421.184H421.185H421.186H421.186H421.187H421.188H421.189H421.189H421.19H421.191H421.192H421.193H421.193H421.194H421.195H421.196H421.197H421.197H421.198H421.199H421.2H421.2H421.201H421.202H421.203H421.204H421.204H421.205H421.206H421.207H421.208H421.208H421.209H421.21H421.211H421.211H421.212H421.213H421.214H421.215H421.215H421.216H421.217H421.218H421.218H421.219H421.22H421.221H421.222H421.222H421.223H421.224H421.225H421.226H421.226H421.227H421.228H421.229H421.229H421.23H421.231H421.232H421.233H421.233H421.234H421.235H421.236H421.237H421.237H421.238H421.239H421.24H421.24H421.241H421.242H421.243H421.244H421.244H421.245H421.246H421.247H421.248H421.248H421.249H421.25H421.251H421.251H421.252H421.253H421.254H421.255H421.255H421.256H421.257H421.258H421.259H421.259H421.26H421.261H421.262H421.262H421.263H421.264H421.265H421.266H421.266H421.267H421.268H421.269H421.269H421.27H421.271H421.272H421.273H421.273H421.274H421.275H421.276H421.277H421.277H421.278H421.279H421.28H421.28H421.281H421.282H421.283H421.284H421.284H421.285H421.286H421.287H421.288H421.288H421.289H421.29H421.291H421.291H421.292H421.293H421.294H421.295H421.295H421.296H421.297H421.298H421.299H421.299H421.3H421.301H421.302H421.302H421.303H421.304H421.305H421.306H421.306H421.307H421.308H421.309H421.31H421.31H421.311H421.312H421.313H421.313H421.314H421.315H421.316H421.317H421.317H421.318H421.319H421.32H421.32H421.321H421.322H421.323H421.324H421.324H421.325H421.326H421.327H421.328H421.328H421.329H421.33H421.331H421.331H421.332H421.333H421.334H421.335H421.335H421.336H421.337H421.338H421.339H421.339H421.34H421.341H421.342H421.342H421.343H421.344H421.345H421.346H421.346H421.347H421.348H421.349H421.35H421.35H421.351H421.352H421.353H421.353H421.354H421.355H421.356H421.357H421.357H421.358H421.359H421.36H421.361H421.361H421.362H421.363H421.364H421.364H421.365H421.366H421.367H421.368H421.368H421.369H421.37H421.371H421.371H421.372H421.373H421.374H421.375H421.375H421.376H421.377H421.378H421.379H421.379H421.38H421.381H421.382H421.382H421.383H421.384H421.385H421.386H421.386H421.387H421.388H421.389H421.389C429.934 332.711 436.703 339.846 436.495 348.383C436.391 352.458 434.732 356.259 431.812 359.101C428.893 361.944 425.054 363.5 421.007 363.5H421.006H421.005H421.004H421.004H421.003H421.002H421.001H421H421H420.999H420.998H420.997H420.996H420.996H420.995H420.994H420.993H420.993H420.992H420.991H420.99H420.989H420.989H420.988H420.987H420.986H420.986H420.985H420.984H420.983H420.982H420.982H420.981H420.98H420.979H420.978H420.978H420.977H420.976H420.975H420.975H420.974H420.973H420.972H420.971H420.971H420.97H420.969H420.968H420.967H420.967H420.966H420.965H420.964H420.964H420.963H420.962H420.961H420.96H420.96H420.959H420.958H420.957H420.956H420.956H420.955H420.954H420.953H420.953H420.952H420.951H420.95H420.949H420.949H420.948H420.947H420.946H420.945H420.945H420.944H420.943H420.942H420.942H420.941H420.94H420.939H420.938H420.938H420.937H420.936H420.935H420.935H420.934H420.933H420.932H420.931H420.931H420.93H420.929H420.928H420.927H420.927H420.926H420.925H420.924H420.924H420.923H420.922H420.921H420.92H420.92H420.919H420.918H420.917H420.916H420.916H420.915H420.914H420.913H420.913H420.912H420.911H420.91H420.909H420.909H420.908H420.907H420.906H420.905H420.905H420.904H420.903H420.902H420.902H420.901H420.9H420.899H420.898H420.898H420.897H420.896H420.895H420.894H420.894H420.893H420.892H420.891H420.891H420.89H420.889H420.888H420.887H420.887H420.886H420.885H420.884H420.884H420.883H420.882H420.881H420.88H420.88H420.879H420.878H420.877H420.876H420.876H420.875H420.874H420.873H420.873H420.872H420.871H420.87H420.869H420.869H420.868H420.867H420.866H420.865H420.865H420.864H420.863H420.862H420.862H420.861H420.86H420.859H420.858H420.858H420.857H420.856H420.855H420.854H420.854H420.853H420.852H420.851H420.851H420.85H420.849H420.848H420.847H420.847H420.846H420.845H420.844H420.843H420.843H420.842H420.841H420.84H420.84H420.839H420.838H420.837H420.836H420.836H420.835H420.834H420.833H420.833H420.832H420.831H420.83H420.829H420.829H420.828H420.827H420.826H420.825H420.825H420.824H420.823H420.822H420.822H420.821H420.82H420.819H420.818H420.818H420.817H420.816H420.815H420.814H420.814H420.813H420.812H420.811H420.811H420.81H420.809H420.808H420.807H420.807H420.806H420.805H420.804H420.803H420.803H420.802H420.801H420.8H420.8H420.799H420.798H420.797H420.796H420.796H420.795H420.794H420.793H420.792H420.792H420.791H420.79H420.789H420.789H420.788H420.787H420.786H420.785H420.785H420.784H420.783H420.782H420.782H420.781H420.78H420.779H420.778H420.778H420.777H420.776H420.775H420.774H420.774H420.773H420.772H420.771H420.771H420.77H420.769H420.768H420.767H420.767H420.766H420.765H420.764H420.763H420.763H420.762H420.761H420.76H420.76H420.759H420.758H420.757H420.756H420.756H420.755H420.754H420.753H420.752H420.752H420.751H420.75H420.749H420.749H420.748H420.747H420.746H420.745H420.745H420.744H420.743H420.742H420.741H420.741H420.74H420.739H420.738H420.738H420.737H420.736H420.735H420.734H420.734H420.733H420.732H420.731H420.731H420.73H420.729H420.728H420.727H420.727H420.726H420.725H420.724H420.723H420.723H420.722H420.721H420.72H420.72H420.719H420.718H420.717H420.716H420.716H420.715H420.714H420.713H420.712H420.712H420.711H420.71H420.709H420.709H420.708H420.707H420.706H420.705H420.705H420.704H420.703H420.702H420.701H420.701H420.7H420.699H420.698H420.698H420.697H420.696H420.695H420.694H420.694H420.693H420.692H420.691H420.69H420.69H420.689H420.688H420.687H420.687H420.686H420.685H420.684H420.683H420.683H420.682H420.681H420.68H420.68H420.679H420.678H420.677H420.676H420.676H420.675H420.674H420.673H420.672H420.672H420.671H420.67H420.669H420.669H420.668H420.667H420.666H420.665H420.665H420.664H420.663H420.662H420.661H420.661H420.66H420.659H420.658H420.658H420.657H420.656H420.655H420.654H420.654H420.653H420.652H420.651H420.65H420.65H420.649H420.648H420.647H420.647H420.646H420.645H420.644H420.643H420.643H420.642H420.641H420.64H420.639H420.639H420.638H420.637H420.636H420.636H420.635H420.634H420.633H420.632H420.632H420.631H420.63H420.629H420.629H420.628H420.627H420.626H420.625H420.625H420.624H420.623H420.622H420.621H420.621H420.62H420.619H420.618H420.618H420.617H420.616H420.615H420.614H420.614H420.613H420.612H420.611H420.611C412.067 363.289 405.297 356.154 405.505 347.617C405.609 343.542 407.268 339.741 410.188 336.899Z" fill="#F3F3F3" stroke="#76BC21"/>
<path d="M306.768 321.629L306.769 321.628C308.175 320.253 310.031 319.5 311.997 319.5H311.997H311.997H311.998H311.998H311.999H311.999H311.999H312H312H312.001H312.001H312.001H312.002H312.002H312.003H312.003H312.003H312.004H312.004H312.004H312.005H312.005H312.006H312.006H312.006H312.007H312.007H312.008H312.008H312.008H312.009H312.009H312.01H312.01H312.01H312.011H312.011H312.012H312.012H312.012H312.013H312.013H312.014H312.014H312.014H312.015H312.015H312.015H312.016H312.016H312.017H312.017H312.017H312.018H312.018H312.019H312.019H312.019H312.02H312.02H312.021H312.021H312.021H312.022H312.022H312.023H312.023H312.023H312.024H312.024H312.025H312.025H312.025H312.026H312.026H312.026H312.027H312.027H312.028H312.028H312.028H312.029H312.029H312.03H312.03H312.03H312.031H312.031H312.032H312.032H312.032H312.033H312.033H312.034H312.034H312.034H312.035H312.035H312.035H312.036H312.036H312.037H312.037H312.037H312.038H312.038H312.039H312.039H312.039H312.04H312.04H312.041H312.041H312.041H312.042H312.042H312.043H312.043H312.043H312.044H312.044H312.045H312.045H312.045H312.046H312.046H312.046H312.047H312.047H312.048H312.048H312.048H312.049H312.049H312.05H312.05H312.05H312.051H312.051H312.052H312.052H312.052H312.053H312.053H312.054H312.054H312.054H312.055H312.055H312.055H312.056H312.056H312.057H312.057H312.057H312.058H312.058H312.059H312.059H312.059H312.06H312.06H312.061H312.061H312.061H312.062H312.062H312.063H312.063H312.063H312.064H312.064H312.065H312.065H312.065H312.066H312.066H312.066H312.067H312.067H312.068H312.068H312.068H312.069H312.069H312.07H312.07H312.07H312.071H312.071H312.072H312.072H312.072H312.073H312.073H312.074H312.074H312.074H312.075H312.075H312.076H312.076H312.076H312.077H312.077H312.077H312.078H312.078H312.079H312.079H312.079H312.08H312.08H312.081H312.081H312.081H312.082H312.082H312.083H312.083H312.083H312.084H312.084H312.085H312.085H312.085H312.086H312.086H312.086H312.087H312.087H312.088H312.088H312.088H312.089H312.089H312.09H312.09H312.09H312.091H312.091H312.092H312.092H312.092H312.093H312.093H312.094H312.094H312.094H312.095H312.095H312.096H312.096H312.096H312.097H312.097H312.097H312.098H312.098H312.099H312.099H312.099H312.1H312.1H312.101H312.101H312.101H312.102H312.102H312.103H312.103H312.103H312.104H312.104H312.105H312.105H312.105H312.106H312.106H312.106H312.107H312.107H312.108H312.108H312.108H312.109H312.109H312.11H312.11H312.11H312.111H312.111H312.112H312.112H312.112H312.113H312.113H312.114H312.114H312.114H312.115H312.115H312.116H312.116H312.116H312.117H312.117H312.117H312.118H312.118H312.119H312.119H312.119H312.12H312.12H312.121H312.121H312.121H312.122H312.122H312.123H312.123H312.123H312.124H312.124H312.125H312.125H312.125H312.126H312.126H312.127H312.127H312.127H312.128H312.128H312.128H312.129H312.129H312.13H312.13H312.13H312.131H312.131H312.132H312.132H312.132H312.133H312.133H312.134H312.134H312.134H312.135H312.135H312.136H312.136H312.136H312.137H312.137H312.137H312.138H312.138H312.139H312.139H312.139H312.14H312.14H312.141H312.141H312.141H312.142H312.142H312.143H312.143H312.143H312.144H312.144H312.145H312.145H312.145H312.146H312.146H312.147H312.147H312.147H312.148H312.148H312.148H312.149H312.149H312.15H312.15H312.15H312.151H312.151H312.152H312.152H312.152H312.153H312.153H312.154H312.154H312.154H312.155H312.155H312.156H312.156H312.156H312.157H312.157H312.157H312.158H312.158H312.159H312.159H312.159H312.16H312.16H312.161H312.161H312.161H312.162H312.162H312.163H312.163H312.163H312.164H312.164H312.165H312.165H312.165H312.166H312.166H312.167H312.167H312.167H312.168H312.168H312.168H312.169H312.169H312.17H312.17H312.17H312.171H312.171H312.172H312.172H312.172H312.173H312.173H312.174H312.174H312.174H312.175H312.175H312.176H312.176H312.176H312.177H312.177H312.178H312.178H312.178H312.179H312.179H312.179H312.18H312.18H312.181H312.181H312.181H312.182H312.182H312.183H312.183H312.183H312.184H312.184H312.185H312.185H312.185H312.186H312.186H312.187H312.187H312.187H312.188H312.188H312.188H312.189H312.189H312.19H312.19H312.19H312.191H312.191H312.191C316.324 319.604 319.598 323.055 319.498 327.185C319.447 329.158 318.645 330.996 317.232 332.371C315.819 333.747 313.962 334.5 312.003 334.5H312.003H312.003H312.002H312.002H312.001H312.001H312.001H312H312H311.999H311.999H311.999H311.998H311.998H311.997H311.997H311.997H311.996H311.996H311.996H311.995H311.995H311.994H311.994H311.994H311.993H311.993H311.992H311.992H311.992H311.991H311.991H311.99H311.99H311.99H311.989H311.989H311.988H311.988H311.988H311.987H311.987H311.986H311.986H311.986H311.985H311.985H311.985H311.984H311.984H311.983H311.983H311.983H311.982H311.982H311.981H311.981H311.981H311.98H311.98H311.979H311.979H311.979H311.978H311.978H311.977H311.977H311.977H311.976H311.976H311.975H311.975H311.975H311.974H311.974H311.974H311.973H311.973H311.972H311.972H311.972H311.971H311.971H311.97H311.97H311.97H311.969H311.969H311.968H311.968H311.968H311.967H311.967H311.966H311.966H311.966H311.965H311.965H311.965H311.964H311.964H311.963H311.963H311.963H311.962H311.962H311.961H311.961H311.961H311.96H311.96H311.959H311.959H311.959H311.958H311.958H311.957H311.957H311.957H311.956H311.956H311.955H311.955H311.955H311.954H311.954H311.954H311.953H311.953H311.952H311.952H311.952H311.951H311.951H311.95H311.95H311.95H311.949H311.949H311.948H311.948H311.948H311.947H311.947H311.946H311.946H311.946H311.945H311.945H311.945H311.944H311.944H311.943H311.943H311.943H311.942H311.942H311.941H311.941H311.941H311.94H311.94H311.939H311.939H311.939H311.938H311.938H311.937H311.937H311.937H311.936H311.936H311.935H311.935H311.935H311.934H311.934H311.934H311.933H311.933H311.932H311.932H311.932H311.931H311.931H311.93H311.93H311.93H311.929H311.929H311.928H311.928H311.928H311.927H311.927H311.926H311.926H311.926H311.925H311.925H311.924H311.924H311.924H311.923H311.923H311.923H311.922H311.922H311.921H311.921H311.921H311.92H311.92H311.919H311.919H311.919H311.918H311.918H311.917H311.917H311.917H311.916H311.916H311.915H311.915H311.915H311.914H311.914H311.914H311.913H311.913H311.912H311.912H311.912H311.911H311.911H311.91H311.91H311.91H311.909H311.909H311.908H311.908H311.908H311.907H311.907H311.906H311.906H311.906H311.905H311.905H311.904H311.904H311.904H311.903H311.903H311.903H311.902H311.902H311.901H311.901H311.901H311.9H311.9H311.899H311.899H311.899H311.898H311.898H311.897H311.897H311.897H311.896H311.896H311.895H311.895H311.895H311.894H311.894H311.894H311.893H311.893H311.892H311.892H311.892H311.891H311.891H311.89H311.89H311.89H311.889H311.889H311.888H311.888H311.888H311.887H311.887H311.886H311.886H311.886H311.885H311.885H311.884H311.884H311.884H311.883H311.883H311.883H311.882H311.882H311.881H311.881H311.881H311.88H311.88H311.879H311.879H311.879H311.878H311.878H311.877H311.877H311.877H311.876H311.876H311.875H311.875H311.875H311.874H311.874H311.873H311.873H311.873H311.872H311.872H311.872H311.871H311.871H311.87H311.87H311.87H311.869H311.869H311.868H311.868H311.868H311.867H311.867H311.866H311.866H311.866H311.865H311.865H311.864H311.864H311.864H311.863H311.863H311.863H311.862H311.862H311.861H311.861H311.861H311.86H311.86H311.859H311.859H311.859H311.858H311.858H311.857H311.857H311.857H311.856H311.856H311.855H311.855H311.855H311.854H311.854H311.853H311.853H311.853H311.852H311.852H311.852H311.851H311.851H311.85H311.85H311.85H311.849H311.849H311.848H311.848H311.848H311.847H311.847H311.846H311.846H311.846H311.845H311.845H311.844H311.844H311.844H311.843H311.843H311.843H311.842H311.842H311.841H311.841H311.841H311.84H311.84H311.839H311.839H311.839H311.838H311.838H311.837H311.837H311.837H311.836H311.836H311.835H311.835H311.835H311.834H311.834H311.833H311.833H311.833H311.832H311.832H311.832H311.831H311.831H311.83H311.83H311.83H311.829H311.829H311.828H311.828H311.828H311.827H311.827H311.826H311.826H311.826H311.825H311.825H311.824H311.824H311.824H311.823H311.823H311.822H311.822H311.822H311.821H311.821H311.821H311.82H311.82H311.819H311.819H311.819H311.818H311.818H311.817H311.817H311.817H311.816H311.816H311.815H311.815H311.815H311.814H311.814H311.813H311.813H311.813H311.812H311.812H311.812H311.811H311.811H311.81H311.81H311.81H311.809H311.809H311.809C307.676 334.396 304.402 330.944 304.502 326.815C304.553 324.842 305.355 323.004 306.768 321.629Z" fill="#F3F3F3" stroke="#E31235"/>
<path d="M453.026 595.44L453.027 595.439C458.932 589.664 466.734 586.5 474.987 586.5H474.988H474.99H474.991H474.993H474.994H474.996H474.998H474.999H475.001H475.002H475.004H475.005H475.007H475.009H475.01H475.012H475.013H475.015H475.016H475.018H475.02H475.021H475.023H475.024H475.026H475.027H475.029H475.031H475.032H475.034H475.035H475.037H475.038H475.04H475.042H475.043H475.045H475.046H475.048H475.049H475.051H475.053H475.054H475.056H475.057H475.059H475.06H475.062H475.064H475.065H475.067H475.068H475.07H475.071H475.073H475.074H475.076H475.078H475.079H475.081H475.082H475.084H475.085H475.087H475.089H475.09H475.092H475.093H475.095H475.096H475.098H475.1H475.101H475.103H475.104H475.106H475.107H475.109H475.111H475.112H475.114H475.115H475.117H475.118H475.12H475.122H475.123H475.125H475.126H475.128H475.129H475.131H475.133H475.134H475.136H475.137H475.139H475.14H475.142H475.144H475.145H475.147H475.148H475.15H475.151H475.153H475.155H475.156H475.158H475.159H475.161H475.162H475.164H475.166H475.167H475.169H475.17H475.172H475.173H475.175H475.176H475.178H475.18H475.181H475.183H475.184H475.186H475.187H475.189H475.191H475.192H475.194H475.195H475.197H475.198H475.2H475.202H475.203H475.205H475.206H475.208H475.209H475.211H475.213H475.214H475.216H475.217H475.219H475.22H475.222H475.224H475.225H475.227H475.228H475.23H475.231H475.233H475.235H475.236H475.238H475.239H475.241H475.242H475.244H475.246H475.247H475.249H475.25H475.252H475.253H475.255H475.257H475.258H475.26H475.261H475.263H475.264H475.266H475.268H475.269H475.271H475.272H475.274H475.275H475.277H475.278H475.28H475.282H475.283H475.285H475.286H475.288H475.289H475.291H475.293H475.294H475.296H475.297H475.299H475.3H475.302H475.304H475.305H475.307H475.308H475.31H475.311H475.313H475.315H475.316H475.318H475.319H475.321H475.322H475.324H475.326H475.327H475.329H475.33H475.332H475.333H475.335H475.337H475.338H475.34H475.341H475.343H475.344H475.346H475.348H475.349H475.351H475.352H475.354H475.355H475.357H475.359H475.36H475.362H475.363H475.365H475.366H475.368H475.37H475.371H475.373H475.374H475.376H475.377H475.379H475.38H475.382H475.384H475.385H475.387H475.388H475.39H475.391H475.393H475.395H475.396H475.398H475.399H475.401H475.402H475.404H475.406H475.407H475.409H475.41H475.412H475.413H475.415H475.417H475.418H475.42H475.421H475.423H475.424H475.426H475.428H475.429H475.431H475.432H475.434H475.435H475.437H475.439H475.44H475.442H475.443H475.445H475.446H475.448H475.45H475.451H475.453H475.454H475.456H475.457H475.459H475.461H475.462H475.464H475.465H475.467H475.468H475.47H475.472H475.473H475.475H475.476H475.478H475.479H475.481H475.482H475.484H475.486H475.487H475.489H475.49H475.492H475.493H475.495H475.497H475.498H475.5H475.501H475.503H475.504H475.506H475.508H475.509H475.511H475.512H475.514H475.515H475.517H475.519H475.52H475.522H475.523H475.525H475.526H475.528H475.53H475.531H475.533H475.534H475.536H475.537H475.539H475.541H475.542H475.544H475.545H475.547H475.548H475.55H475.552H475.553H475.555H475.556H475.558H475.559H475.561H475.563H475.564H475.566H475.567H475.569H475.57H475.572H475.574H475.575H475.577H475.578H475.58H475.581H475.583H475.584H475.586H475.588H475.589H475.591H475.592H475.594H475.595H475.597H475.599H475.6H475.602H475.603H475.605H475.606H475.608H475.61H475.611H475.613H475.614H475.616H475.617H475.619H475.621H475.622H475.624H475.625H475.627H475.628H475.63H475.632H475.633H475.635H475.636H475.638H475.639H475.641H475.643H475.644H475.646H475.647H475.649H475.65H475.652H475.654H475.655H475.657H475.658H475.66H475.661H475.663H475.665H475.666H475.668H475.669H475.671H475.672H475.674H475.676H475.677H475.679H475.68H475.682H475.683H475.685H475.686H475.688H475.69H475.691H475.693H475.694H475.696H475.697H475.699H475.701H475.702H475.704H475.705H475.707H475.708H475.71H475.712H475.713H475.715H475.716H475.718H475.719H475.721H475.723H475.724H475.726H475.727H475.729H475.73H475.732H475.734H475.735H475.737H475.738H475.74H475.741H475.743H475.745H475.746H475.748H475.749H475.751H475.752H475.754H475.756H475.757H475.759H475.76H475.762H475.763H475.765H475.767H475.768H475.77H475.771H475.773H475.774H475.776H475.778H475.779H475.781H475.782H475.784H475.784C493.153 586.925 506.912 601.428 506.491 618.778C506.28 627.059 502.906 634.784 496.974 640.56C491.041 646.336 483.239 649.5 475.013 649.5H475.012H475.01H475.009H475.007H475.006H475.004H475.002H475.001H474.999H474.998H474.996H474.995H474.993H474.991H474.99H474.988H474.987H474.985H474.984H474.982H474.98H474.979H474.977H474.976H474.974H474.973H474.971H474.969H474.968H474.966H474.965H474.963H474.962H474.96H474.958H474.957H474.955H474.954H474.952H474.951H474.949H474.947H474.946H474.944H474.943H474.941H474.94H474.938H474.936H474.935H474.933H474.932H474.93H474.929H474.927H474.926H474.924H474.922H474.921H474.919H474.918H474.916H474.915H474.913H474.911H474.91H474.908H474.907H474.905H474.904H474.902H474.9H474.899H474.897H474.896H474.894H474.893H474.891H474.889H474.888H474.886H474.885H474.883H474.882H474.88H474.878H474.877H474.875H474.874H474.872H474.871H474.869H474.867H474.866H474.864H474.863H474.861H474.86H474.858H474.856H474.855H474.853H474.852H474.85H474.849H474.847H474.845H474.844H474.842H474.841H474.839H474.838H474.836H474.834H474.833H474.831H474.83H474.828H474.827H474.825H474.824H474.822H474.82H474.819H474.817H474.816H474.814H474.813H474.811H474.809H474.808H474.806H474.805H474.803H474.802H474.8H474.798H474.797H474.795H474.794H474.792H474.791H474.789H474.787H474.786H474.784H474.783H474.781H474.78H474.778H474.776H474.775H474.773H474.772H474.77H474.769H474.767H474.765H474.764H474.762H474.761H474.759H474.758H474.756H474.754H474.753H474.751H474.75H474.748H474.747H474.745H474.743H474.742H474.74H474.739H474.737H474.736H474.734H474.732H474.731H474.729H474.728H474.726H474.725H474.723H474.722H474.72H474.718H474.717H474.715H474.714H474.712H474.711H474.709H474.707H474.706H474.704H474.703H474.701H474.7H474.698H474.696H474.695H474.693H474.692H474.69H474.689H474.687H474.685H474.684H474.682H474.681H474.679H474.678H474.676H474.674H474.673H474.671H474.67H474.668H474.667H474.665H474.663H474.662H474.66H474.659H474.657H474.656H474.654H474.652H474.651H474.649H474.648H474.646H474.645H474.643H474.641H474.64H474.638H474.637H474.635H474.634H474.632H474.63H474.629H474.627H474.626H474.624H474.623H474.621H474.62H474.618H474.616H474.615H474.613H474.612H474.61H474.609H474.607H474.605H474.604H474.602H474.601H474.599H474.598H474.596H474.594H474.593H474.591H474.59H474.588H474.587H474.585H474.583H474.582H474.58H474.579H474.577H474.576H474.574H474.572H474.571H474.569H474.568H474.566H474.565H474.563H474.561H474.56H474.558H474.557H474.555H474.554H474.552H474.55H474.549H474.547H474.546H474.544H474.543H474.541H474.539H474.538H474.536H474.535H474.533H474.532H474.53H474.528H474.527H474.525H474.524H474.522H474.521H474.519H474.518H474.516H474.514H474.513H474.511H474.51H474.508H474.507H474.505H474.503H474.502H474.5H474.499H474.497H474.496H474.494H474.492H474.491H474.489H474.488H474.486H474.485H474.483H474.481H474.48H474.478H474.477H474.475H474.474H474.472H474.47H474.469H474.467H474.466H474.464H474.463H474.461H474.459H474.458H474.456H474.455H474.453H474.452H474.45H474.448H474.447H474.445H474.444H474.442H474.441H474.439H474.437H474.436H474.434H474.433H474.431H474.43H474.428H474.426H474.425H474.423H474.422H474.42H474.419H474.417H474.416H474.414H474.412H474.411H474.409H474.408H474.406H474.405H474.403H474.401H474.4H474.398H474.397H474.395H474.394H474.392H474.39H474.389H474.387H474.386H474.384H474.383H474.381H474.379H474.378H474.376H474.375H474.373H474.372H474.37H474.368H474.367H474.365H474.364H474.362H474.361H474.359H474.357H474.356H474.354H474.353H474.351H474.35H474.348H474.346H474.345H474.343H474.342H474.34H474.339H474.337H474.335H474.334H474.332H474.331H474.329H474.328H474.326H474.324H474.323H474.321H474.32H474.318H474.317H474.315H474.314H474.312H474.31H474.309H474.307H474.306H474.304H474.303H474.301H474.299H474.298H474.296H474.295H474.293H474.292H474.29H474.288H474.287H474.285H474.284H474.282H474.281H474.279H474.277H474.276H474.274H474.273H474.271H474.27H474.268H474.266H474.265H474.263H474.262H474.26H474.259H474.257H474.255H474.254H474.252H474.251H474.249H474.248H474.246H474.244H474.243H474.241H474.24H474.238H474.237H474.235H474.233H474.232H474.23H474.229H474.227H474.226H474.224H474.222H474.221H474.219H474.218H474.216H474.216C456.847 649.075 443.088 634.572 443.509 617.222C443.72 608.941 447.094 601.216 453.026 595.44Z" fill="#F3F3F3" stroke="#E31235"/>
<path d="M897.446 434.71L897.447 434.71C904.852 427.468 914.635 423.5 924.983 423.5H924.985H924.987H924.989H924.991H924.993H924.995H924.997H924.999H925.001H925.003H925.005H925.007H925.009H925.011H925.013H925.015H925.017H925.019H925.021H925.022H925.024H925.026H925.028H925.03H925.032H925.034H925.036H925.038H925.04H925.042H925.044H925.046H925.048H925.05H925.052H925.054H925.056H925.058H925.06H925.062H925.064H925.066H925.068H925.07H925.072H925.073H925.075H925.077H925.079H925.081H925.083H925.085H925.087H925.089H925.091H925.093H925.095H925.097H925.099H925.101H925.103H925.105H925.107H925.109H925.111H925.113H925.115H925.117H925.119H925.121H925.123H925.124H925.126H925.128H925.13H925.132H925.134H925.136H925.138H925.14H925.142H925.144H925.146H925.148H925.15H925.152H925.154H925.156H925.158H925.16H925.162H925.164H925.166H925.168H925.17H925.172H925.174H925.175H925.177H925.179H925.181H925.183H925.185H925.187H925.189H925.191H925.193H925.195H925.197H925.199H925.201H925.203H925.205H925.207H925.209H925.211H925.213H925.215H925.217H925.219H925.221H925.223H925.225H925.226H925.228H925.23H925.232H925.234H925.236H925.238H925.24H925.242H925.244H925.246H925.248H925.25H925.252H925.254H925.256H925.258H925.26H925.262H925.264H925.266H925.268H925.27H925.272H925.274H925.276H925.277H925.279H925.281H925.283H925.285H925.287H925.289H925.291H925.293H925.295H925.297H925.299H925.301H925.303H925.305H925.307H925.309H925.311H925.313H925.315H925.317H925.319H925.321H925.323H925.325H925.327H925.328H925.33H925.332H925.334H925.336H925.338H925.34H925.342H925.344H925.346H925.348H925.35H925.352H925.354H925.356H925.358H925.36H925.362H925.364H925.366H925.368H925.37H925.372H925.374H925.376H925.378H925.379H925.381H925.383H925.385H925.387H925.389H925.391H925.393H925.395H925.397H925.399H925.401H925.403H925.405H925.407H925.409H925.411H925.413H925.415H925.417H925.419H925.421H925.423H925.425H925.427H925.429H925.43H925.432H925.434H925.436H925.438H925.44H925.442H925.444H925.446H925.448H925.45H925.452H925.454H925.456H925.458H925.46H925.462H925.464H925.466H925.468H925.47H925.472H925.474H925.476H925.478H925.48H925.481H925.483H925.485H925.487H925.489H925.491H925.493H925.495H925.497H925.499H925.501H925.503H925.505H925.507H925.509H925.511H925.513H925.515H925.517H925.519H925.521H925.523H925.525H925.527H925.529H925.531H925.532H925.534H925.536H925.538H925.54H925.542H925.544H925.546H925.548H925.55H925.552H925.554H925.556H925.558H925.56H925.562H925.564H925.566H925.568H925.57H925.572H925.574H925.576H925.578H925.58H925.582H925.583H925.585H925.587H925.589H925.591H925.593H925.595H925.597H925.599H925.601H925.603H925.605H925.607H925.609H925.611H925.613H925.615H925.617H925.619H925.621H925.623H925.625H925.627H925.629H925.631H925.633H925.634H925.636H925.638H925.64H925.642H925.644H925.646H925.648H925.65H925.652H925.654H925.656H925.658H925.66H925.662H925.664H925.666H925.668H925.67H925.672H925.674H925.676H925.678H925.68H925.682H925.684H925.685H925.687H925.689H925.691H925.693H925.695H925.697H925.699H925.701H925.703H925.705H925.707H925.709H925.711H925.713H925.715H925.717H925.719H925.721H925.723H925.725H925.727H925.729H925.731H925.733H925.735H925.736H925.738H925.74H925.742H925.744H925.746H925.748H925.75H925.752H925.754H925.756H925.758H925.76H925.762H925.764H925.766H925.768H925.77H925.772H925.774H925.776H925.778H925.78H925.782H925.784H925.786H925.787H925.789H925.791H925.793H925.795H925.797H925.799H925.801H925.803H925.805H925.807H925.809H925.811H925.813H925.815H925.817H925.819H925.821H925.823H925.825H925.827H925.829H925.831H925.833H925.835H925.837H925.838H925.84H925.842H925.844H925.846H925.848H925.85H925.852H925.854H925.856H925.858H925.86H925.862H925.864H925.866H925.868H925.87H925.872H925.874H925.876H925.878H925.88H925.882H925.884H925.886H925.888H925.889H925.891H925.893H925.895H925.897H925.899H925.901H925.903H925.905H925.907H925.909H925.911H925.913H925.915H925.917H925.919H925.921H925.923H925.925H925.927H925.929H925.931H925.933H925.935H925.937H925.939H925.94H925.942H925.944H925.946H925.948H925.95H925.952H925.954H925.956H925.958H925.96H925.962H925.964H925.966H925.968H925.97H925.972H925.974H925.976H925.978H925.98H925.981C947.763 424.032 965.017 442.219 964.488 463.976C964.224 474.36 959.993 484.047 952.554 491.29C945.115 498.533 935.331 502.5 925.017 502.5H925.015H925.013H925.011H925.009H925.007H925.005H925.003H925.001H924.999H924.997H924.995H924.993H924.991H924.989H924.987H924.985H924.983H924.981H924.979H924.978H924.976H924.974H924.972H924.97H924.968H924.966H924.964H924.962H924.96H924.958H924.956H924.954H924.952H924.95H924.948H924.946H924.944H924.942H924.94H924.938H924.936H924.934H924.932H924.93H924.928H924.927H924.925H924.923H924.921H924.919H924.917H924.915H924.913H924.911H924.909H924.907H924.905H924.903H924.901H924.899H924.897H924.895H924.893H924.891H924.889H924.887H924.885H924.883H924.881H924.879H924.877H924.876H924.874H924.872H924.87H924.868H924.866H924.864H924.862H924.86H924.858H924.856H924.854H924.852H924.85H924.848H924.846H924.844H924.842H924.84H924.838H924.836H924.834H924.832H924.83H924.828H924.826H924.825H924.823H924.821H924.819H924.817H924.815H924.813H924.811H924.809H924.807H924.805H924.803H924.801H924.799H924.797H924.795H924.793H924.791H924.789H924.787H924.785H924.783H924.781H924.779H924.777H924.775H924.774H924.772H924.77H924.768H924.766H924.764H924.762H924.76H924.758H924.756H924.754H924.752H924.75H924.748H924.746H924.744H924.742H924.74H924.738H924.736H924.734H924.732H924.73H924.728H924.726H924.724H924.723H924.721H924.719H924.717H924.715H924.713H924.711H924.709H924.707H924.705H924.703H924.701H924.699H924.697H924.695H924.693H924.691H924.689H924.687H924.685H924.683H924.681H924.679H924.677H924.675H924.673H924.672H924.67H924.668H924.666H924.664H924.662H924.66H924.658H924.656H924.654H924.652H924.65H924.648H924.646H924.644H924.642H924.64H924.638H924.636H924.634H924.632H924.63H924.628H924.626H924.624H924.622H924.621H924.619H924.617H924.615H924.613H924.611H924.609H924.607H924.605H924.603H924.601H924.599H924.597H924.595H924.593H924.591H924.589H924.587H924.585H924.583H924.581H924.579H924.577H924.575H924.573H924.571H924.57H924.568H924.566H924.564H924.562H924.56H924.558H924.556H924.554H924.552H924.55H924.548H924.546H924.544H924.542H924.54H924.538H924.536H924.534H924.532H924.53H924.528H924.526H924.524H924.522H924.52H924.519H924.517H924.515H924.513H924.511H924.509H924.507H924.505H924.503H924.501H924.499H924.497H924.495H924.493H924.491H924.489H924.487H924.485H924.483H924.481H924.479H924.477H924.475H924.473H924.471H924.469H924.468H924.466H924.464H924.462H924.46H924.458H924.456H924.454H924.452H924.45H924.448H924.446H924.444H924.442H924.44H924.438H924.436H924.434H924.432H924.43H924.428H924.426H924.424H924.422H924.42H924.418H924.417H924.415H924.413H924.411H924.409H924.407H924.405H924.403H924.401H924.399H924.397H924.395H924.393H924.391H924.389H924.387H924.385H924.383H924.381H924.379H924.377H924.375H924.373H924.371H924.369H924.367H924.366H924.364H924.362H924.36H924.358H924.356H924.354H924.352H924.35H924.348H924.346H924.344H924.342H924.34H924.338H924.336H924.334H924.332H924.33H924.328H924.326H924.324H924.322H924.32H924.318H924.316H924.315H924.313H924.311H924.309H924.307H924.305H924.303H924.301H924.299H924.297H924.295H924.293H924.291H924.289H924.287H924.285H924.283H924.281H924.279H924.277H924.275H924.273H924.271H924.269H924.267H924.265H924.264H924.262H924.26H924.258H924.256H924.254H924.252H924.25H924.248H924.246H924.244H924.242H924.24H924.238H924.236H924.234H924.232H924.23H924.228H924.226H924.224H924.222H924.22H924.218H924.216H924.214H924.213H924.211H924.209H924.207H924.205H924.203H924.201H924.199H924.197H924.195H924.193H924.191H924.189H924.187H924.185H924.183H924.181H924.179H924.177H924.175H924.173H924.171H924.169H924.167H924.165H924.163H924.162H924.16H924.158H924.156H924.154H924.152H924.15H924.148H924.146H924.144H924.142H924.14H924.138H924.136H924.134H924.132H924.13H924.128H924.126H924.124H924.122H924.12H924.118H924.116H924.114H924.112H924.111H924.109H924.107H924.105H924.103H924.101H924.099H924.097H924.095H924.093H924.091H924.089H924.087H924.085H924.083H924.081H924.079H924.077H924.075H924.073H924.071H924.069H924.067H924.065H924.063H924.061H924.06H924.058H924.056H924.054H924.052H924.05H924.048H924.046H924.044H924.042H924.04H924.038H924.036H924.034H924.032H924.03H924.028H924.026H924.024H924.022H924.02H924.019C902.237 501.968 884.983 483.782 885.512 462.025C885.776 451.64 890.007 441.953 897.446 434.71Z" fill="#F3F3F3" stroke="#76BC21"/>
</svg>
