<svg width="659" height="207" viewBox="0 0 659 207" fill="none" xmlns="http://www.w3.org/2000/svg">
<path fill-rule="evenodd" clip-rule="evenodd" d="M500.707 1H398.707C372.75 1 351.707 22.0426 351.707 48C351.707 73.9574 372.75 95 398.707 95H500.707C526.664 95 547.707 73.9574 547.707 48C547.707 22.0426 526.664 1 500.707 1ZM398.707 0C372.197 0 350.707 21.4903 350.707 48C350.707 74.5097 372.197 96 398.707 96H500.707C527.217 96 548.707 74.5097 548.707 48C548.707 21.4903 527.217 0 500.707 0H398.707Z" fill="#E31235"/>
<path fill-rule="evenodd" clip-rule="evenodd" d="M461.707 48C461.707 69.5391 479.168 87 500.707 87C522.246 87 539.707 69.5391 539.707 48C539.707 26.4609 522.246 9 500.707 9C479.168 9 461.707 26.4609 461.707 48ZM500.707 8C478.616 8 460.707 25.9086 460.707 48C460.707 70.0914 478.616 88 500.707 88C522.798 88 540.707 70.0914 540.707 48C540.707 25.9086 522.798 8 500.707 8Z" fill="#E31235"/>
<path fill-rule="evenodd" clip-rule="evenodd" d="M150 1H48C22.0426 1 1 22.0426 1 48C1 73.9574 22.0426 95 48 95H150C175.957 95 197 73.9574 197 48C197 22.0426 175.957 1 150 1ZM48 0C21.4903 0 0 21.4903 0 48C0 74.5097 21.4903 96 48 96H150C176.51 96 198 74.5097 198 48C198 21.4903 176.51 0 150 0H48Z" fill="#76BC21"/>
<path fill-rule="evenodd" clip-rule="evenodd" d="M111 48C111 69.5391 128.461 87 150 87C171.539 87 189 69.5391 189 48C189 26.4609 171.539 9 150 9C128.461 9 111 26.4609 111 48ZM150 8C127.909 8 110 25.9086 110 48C110 70.0914 127.909 88 150 88C172.091 88 190 70.0914 190 48C190 25.9086 172.091 8 150 8Z" fill="#76BC21"/>
<path fill-rule="evenodd" clip-rule="evenodd" d="M348 112H246C220.043 112 199 133.043 199 159C199 184.957 220.043 206 246 206H348C373.957 206 395 184.957 395 159C395 133.043 373.957 112 348 112ZM246 111C219.49 111 198 132.49 198 159C198 185.51 219.49 207 246 207H348C374.51 207 396 185.51 396 159C396 132.49 374.51 111 348 111H246Z" fill="#E31235"/>
<path fill-rule="evenodd" clip-rule="evenodd" d="M309 159C309 180.539 326.461 198 348 198C369.539 198 387 180.539 387 159C387 137.461 369.539 120 348 120C326.461 120 309 137.461 309 159ZM348 119C325.909 119 308 136.909 308 159C308 181.091 325.909 199 348 199C370.091 199 388 181.091 388 159C388 136.909 370.091 119 348 119Z" fill="#E31235"/>
<path fill-rule="evenodd" clip-rule="evenodd" d="M698.707 112H596.707C570.75 112 549.707 133.043 549.707 159C549.707 184.957 570.75 206 596.707 206H698.707C724.664 206 745.707 184.957 745.707 159C745.707 133.043 724.664 112 698.707 112ZM596.707 111C570.197 111 548.707 132.49 548.707 159C548.707 185.51 570.197 207 596.707 207H698.707C725.217 207 746.707 185.51 746.707 159C746.707 132.49 725.217 111 698.707 111H596.707Z" fill="#76BC21"/>
<path fill-rule="evenodd" clip-rule="evenodd" d="M659.707 159C659.707 180.539 677.168 198 698.707 198C720.246 198 737.707 180.539 737.707 159C737.707 137.461 720.246 120 698.707 120C677.168 120 659.707 137.461 659.707 159ZM698.707 119C676.616 119 658.707 136.909 658.707 159C658.707 181.091 676.616 199 698.707 199C720.798 199 738.707 181.091 738.707 159C738.707 136.909 720.798 119 698.707 119Z" fill="#76BC21"/>
<path d="M683.5 48.8536H564.707V47.8536H683.5L676.353 40.7071L677.061 40L685.414 48.3536L677.061 56.7071L676.353 56L683.5 48.8536Z" fill="#E31235"/>
<path d="M332.793 48.8536H214V47.8536H332.793L325.646 40.7071L326.354 40L334.707 48.3536L326.354 56.7071L325.646 56L332.793 48.8536Z" fill="#76BC21"/>
<path d="M530.793 159.5H412V158.5H530.793L523.646 151.354L524.354 150.646L532.707 159L524.354 167.354L523.646 166.646L530.793 159.5Z" fill="#E31235"/>
</svg>
