<svg width="32" height="32" viewBox="0 0 32 32" fill="none" xmlns="http://www.w3.org/2000/svg">
<path fill-rule="evenodd" clip-rule="evenodd" d="M11.3081 1.80768C10.5647 1.80768 9.96199 2.41037 9.96199 3.15383C9.96199 3.89729 10.5647 4.49999 11.3081 4.49999C12.0516 4.49999 12.6543 3.89729 12.6543 3.15383C12.6543 2.41037 12.0516 1.80768 11.3081 1.80768ZM8.96199 3.15383C8.96199 1.85809 10.0124 0.807678 11.3081 0.807678C12.6039 0.807678 13.6543 1.85809 13.6543 3.15383C13.6543 4.27799 12.8637 5.21748 11.8081 5.44659V8.19229H16.3466V4.99999V4.49999H16.8466H18.2462C18.4753 3.44446 19.4148 2.65383 20.5389 2.65383C21.8347 2.65383 22.8851 3.70424 22.8851 4.99999C22.8851 6.29573 21.8347 7.34614 20.5389 7.34614C19.4148 7.34614 18.4753 6.55552 18.2462 5.49999H17.3466V8.19229H23.3081H23.8081V8.69229V10.9615H26.5538C26.783 9.90599 27.7225 9.11537 28.8466 9.11537C30.1424 9.11537 31.1928 10.1658 31.1928 11.4615C31.1928 12.7573 30.1424 13.8077 28.8466 13.8077C27.7225 13.8077 26.783 13.0171 26.5538 11.9615H23.8081V16.5H27.0005H27.5005V17V18.3995C28.556 18.6287 29.3466 19.5681 29.3466 20.6923C29.3466 21.988 28.2962 23.0384 27.0005 23.0384C25.7047 23.0384 24.6543 21.988 24.6543 20.6923C24.6543 19.5681 25.4449 18.6287 26.5005 18.3995V17.5H23.8081V23.4615V23.9615H23.3081H21.0389V26.7072C22.0944 26.9363 22.8851 27.8758 22.8851 29C22.8851 30.2957 21.8347 31.3461 20.5389 31.3461C19.2432 31.3461 18.1928 30.2957 18.1928 29C18.1928 27.8758 18.9834 26.9363 20.0389 26.7072V23.9615H15.5005V27.1538V27.6538H15.0005H13.6009C13.3718 28.7094 12.4323 29.5 11.3081 29.5C10.0124 29.5 8.96199 28.4496 8.96199 27.1538C8.96199 25.8581 10.0124 24.8077 11.3081 24.8077C12.4323 24.8077 13.3718 25.5983 13.6009 26.6538H14.5005V23.9615H8.53891H8.03891V23.4615V21.1923H5.29321C5.0641 22.2478 4.1246 23.0384 3.00045 23.0384C1.70471 23.0384 0.654297 21.988 0.654297 20.6923C0.654297 19.3966 1.70471 18.3461 3.00045 18.3461C4.1246 18.3461 5.0641 19.1368 5.29321 20.1923H8.03891V15.6538H4.84661H4.34661V15.1538V13.7543C3.29107 13.5252 2.50045 12.5857 2.50045 11.4615C2.50045 10.1658 3.55086 9.11537 4.8466 9.11537C6.14235 9.11537 7.19276 10.1658 7.19276 11.4615C7.19276 12.5857 6.40213 13.5252 5.34661 13.7543V14.6538H8.03891V8.69229V8.19229H8.53891H10.8081V5.44659C9.75261 5.21748 8.96199 4.27798 8.96199 3.15383ZM9.03891 22.9615V9.19229H22.8081V22.9615H9.03891ZM11.3081 10.9615H10.8081V11.4615V20.6923V21.1923H11.3081H20.5389H21.0389V20.6923V11.4615V10.9615H20.5389H11.3081ZM11.8081 20.1923V11.9615H20.0389V20.1923H11.8081ZM19.1928 4.99999C19.1928 4.25653 19.7955 3.65383 20.5389 3.65383C21.2824 3.65383 21.8851 4.25653 21.8851 4.99999C21.8851 5.74345 21.2824 6.34614 20.5389 6.34614C19.7955 6.34614 19.1928 5.74345 19.1928 4.99999ZM30.1928 11.4615C30.1928 10.7181 29.5901 10.1154 28.8466 10.1154C28.1031 10.1154 27.5005 10.7181 27.5005 11.4615C27.5005 12.205 28.1031 12.8077 28.8466 12.8077C29.5901 12.8077 30.1928 12.205 30.1928 11.4615ZM27.0005 19.3461C27.7439 19.3461 28.3466 19.9488 28.3466 20.6923C28.3466 21.4358 27.7439 22.0384 27.0005 22.0384C26.257 22.0384 25.6543 21.4358 25.6543 20.6923C25.6543 19.9488 26.257 19.3461 27.0005 19.3461ZM1.6543 20.6923C1.6543 21.4358 2.25699 22.0384 3.00045 22.0384C3.74391 22.0384 4.34661 21.4358 4.34661 20.6923C4.34661 19.9488 3.74391 19.3461 3.00045 19.3461C2.25699 19.3461 1.6543 19.9488 1.6543 20.6923ZM4.8466 12.8077C4.10314 12.8077 3.50045 12.205 3.50045 11.4615C3.50045 10.7181 4.10314 10.1154 4.8466 10.1154C5.59007 10.1154 6.19276 10.7181 6.19276 11.4615C6.19276 12.205 5.59007 12.8077 4.8466 12.8077ZM20.5389 30.3461C21.2824 30.3461 21.8851 29.7434 21.8851 29C21.8851 28.2565 21.2824 27.6538 20.5389 27.6538C19.7955 27.6538 19.1928 28.2565 19.1928 29C19.1928 29.7434 19.7955 30.3461 20.5389 30.3461ZM12.6543 27.1538C12.6543 27.8973 12.0516 28.5 11.3081 28.5C10.5647 28.5 9.96199 27.8973 9.96199 27.1538C9.96199 26.4104 10.5647 25.8077 11.3081 25.8077C12.0516 25.8077 12.6543 26.4104 12.6543 27.1538Z" fill="#E31235"/>
</svg>
