<svg width="118" height="118" viewBox="0 0 118 118" fill="none" xmlns="http://www.w3.org/2000/svg">
<path d="M8.51885 29.7936C8.51885 29.7936 16.6308 19.7282 29.8163 11.7927" stroke="#E31235" stroke-linecap="round"/>
<path d="M37.9593 7.54041C52.0639 1.2816 70.1258 -1.03404 89.6307 10.6857C113.761 25.1848 116.455 49.3653 114.394 66.6286" stroke="#E31235" stroke-linecap="round"/>
<path d="M109.135 86.6789C109.856 85.4786 111.512 81.3014 112.873 75.3704" stroke="#E31235" stroke-linecap="round"/>
<path d="M76.0495 112.772C87.6753 93.4235 87.5828 103.187 96.647 88.102C100.208 82.1754 103.005 73.1717 103.457 63.4436" stroke="#76BC21" stroke-linecap="round"/>
<path d="M76.7993 18.6685C78.818 19.5432 80.8628 20.5935 82.9305 21.8359C94.9311 29.0466 100.758 40.0143 102.725 51.2904" stroke="#76BC21" stroke-linecap="round"/>
<path d="M11.0007 46.4611C11.0007 46.4611 36.6786 6.74492 71.2934 16.6871" stroke="#76BC21" stroke-linecap="round"/>
<path d="M31.5432 41.842C43.5544 30.352 59.3793 21.9675 75.9699 31.936C88.7435 39.6112 92.2095 51.4191 90.8055 62.9582" stroke="#E31235" stroke-linecap="round"/>
<path d="M87.755 74.7252C86.6085 77.6388 85.221 80.4218 83.6789 82.9883C77.4669 93.3268 72.5315 92.1829 67.8709 98.4851" stroke="#E31235" stroke-linecap="round"/>
<path d="M61.087 115.388C62.3571 110.405 63.611 106.68 64.8691 103.823" stroke="#E31235" stroke-linecap="round"/>
<path d="M9.80504 70.7373C9.80504 70.7373 16.7315 57.5711 27.6796 45.7699" stroke="#E31235" stroke-linecap="round"/>
<path d="M33.8674 58.4145C43.5573 45.188 56.0675 35.1535 69.2694 43.0861C76.5069 47.4348 78.8221 53.1737 78.879 58.6797" stroke="#76BC21" stroke-linecap="round"/>
<path d="M14.8441 94.2962C14.8441 94.2962 19.4602 81.9153 26.9844 69.0078" stroke="#76BC21" stroke-linecap="round"/>
<path d="M24.8752 104.341C24.8752 104.341 28.8892 85.7751 41.2992 71.8073" stroke="#E31235" stroke-linecap="round"/>
<path d="M51.0071 79.425C49.4806 81.3597 48.0971 83.372 46.8459 85.4052" stroke="#E31235" stroke-linecap="round"/>
<path d="M36.2867 112.091C36.2867 112.091 38.184 102.065 43.6836 91.0938" stroke="#E31235" stroke-linecap="round"/>
<path d="M75.9736 70.7705C75.134 72.607 74.2754 74.125 73.6452 75.1739C70.1813 80.9388 60.1834 84.7726 53.1828 100.372" stroke="#76BC21" stroke-linecap="round"/>
<path d="M48.6203 114.592C49.2951 111.503 50.0726 108.704 50.9277 106.159" stroke="#76BC21" stroke-linecap="round"/>
</svg>
